<svg width="10" height="6" viewBox="0 0 10 6" fill="none" xmlns="http://www.w3.org/2000/svg">
<path d="M9.99999 0.746706C9.9994 0.598406 9.95693 0.453621 9.87796 0.330658C9.79899 0.207695 9.68707 0.112076 9.55634 0.0558934C9.42561 -0.000289531 9.28194 -0.0145136 9.14351 0.0150194C9.00508 0.0445523 8.8781 0.116516 8.77863 0.221811L5.00028 4.18851L1.22192 0.221811C1.15553 0.151529 1.07653 0.0957443 0.989492 0.0576754C0.902455 0.0196066 0.809099 7.00595e-06 0.71481 7.00595e-06C0.620522 7.00595e-06 0.527166 0.0196066 0.440129 0.0576754C0.353091 0.0957443 0.274095 0.151529 0.207697 0.221811C0.0746682 0.362305 0 0.552355 0 0.750455C0 0.948555 0.0746682 1.13861 0.207697 1.2791L4.49316 5.7782C4.55956 5.84848 4.63856 5.90426 4.72559 5.94233C4.81263 5.9804 4.90599 6 5.00028 6C5.09457 6 5.18792 5.9804 5.27496 5.94233C5.362 5.90426 5.44099 5.84848 5.50739 5.7782L9.79286 1.2791C9.85905 1.20903 9.91143 1.12594 9.94697 1.03458C9.98252 0.943218 10.0005 0.845391 9.99999 0.746706Z" fill="#0B3558"/>
</svg>
