<svg width="10" height="6" viewBox="0 0 10 6" fill="none" xmlns="http://www.w3.org/2000/svg">
<path d="M9.99999 5.25329C9.9994 5.40159 9.95693 5.54638 9.87796 5.66934C9.79899 5.79231 9.68707 5.88792 9.55634 5.94411C9.42561 6.00029 9.28194 6.01451 9.14351 5.98498C9.00508 5.95545 8.8781 5.88348 8.77863 5.77819L5.00028 1.81149L1.22192 5.77819C1.15553 5.84847 1.07653 5.90426 0.989492 5.94232C0.902455 5.98039 0.809099 5.99999 0.71481 5.99999C0.620522 5.99999 0.527166 5.98039 0.440129 5.94232C0.353091 5.90426 0.274095 5.84847 0.207697 5.77819C0.0746682 5.6377 0 5.44764 0 5.24954C0 5.05145 0.0746682 4.86139 0.207697 4.7209L4.49316 0.221804C4.55956 0.151521 4.63856 0.095737 4.72559 0.0576682C4.81263 0.0195994 4.90599 0 5.00028 0C5.09457 0 5.18792 0.0195994 5.27496 0.0576682C5.362 0.095737 5.44099 0.151521 5.50739 0.221804L9.79286 4.7209C9.85905 4.79097 9.91143 4.87406 9.94697 4.96542C9.98252 5.05678 10.0005 5.15461 9.99999 5.25329Z" fill="#0B3558"/>
</svg>
