<svg width="15" height="20" viewBox="0 0 15 20" fill="none" xmlns="http://www.w3.org/2000/svg">
<path d="M4.59596 12.5031C4.36086 12.5031 4.14936 12.4123 3.96134 12.2077C3.65576 11.867 3.63231 11.4354 3.9379 11.0945C4.17299 10.7992 4.64302 10.5493 5.30105 10.3222C5.53615 10.2541 5.79469 10.1631 6.05322 10.1178C6.21782 9.82241 6.38225 9.50438 6.52323 9.16367C6.66423 8.84564 6.78177 8.55027 6.87571 8.25507C6.49963 7.64167 6.14717 6.91481 6.17058 6.34689C6.17058 5.84711 6.47617 5.52907 6.96963 5.46092C7.41623 5.41544 7.74522 5.62002 7.88624 6.02885C8.07428 6.5741 7.88624 7.41458 7.67475 8.14145C7.86279 8.43681 8.07428 8.73205 8.33283 9.02741C8.54431 9.2773 8.73235 9.50454 8.94386 9.73159C9.76653 9.73159 10.542 9.79973 11.0121 10.0496C11.4351 10.2769 11.5997 10.6175 11.4821 11.0264C11.3412 11.4807 10.9651 11.7079 10.495 11.6398C9.884 11.5716 9.17892 11.0037 8.6384 10.4586C8.26232 10.4813 7.83935 10.5041 7.41622 10.5722C7.11064 10.6177 6.8052 10.663 6.52308 10.7313C6.42914 10.9131 6.31159 11.072 6.21749 11.2085C5.81797 11.7764 5.4419 12.1626 5.08941 12.367C4.92497 12.4576 4.76054 12.5031 4.59593 12.5031L4.59596 12.5031ZM5.51256 11.0037C5.01892 11.1628 4.643 11.3672 4.4784 11.549C4.4079 11.6171 4.4079 11.6626 4.50184 11.7762C4.5489 11.8217 4.57234 11.867 4.76038 11.7762C4.97203 11.6398 5.25402 11.3672 5.51255 11.0037L5.51256 11.0037ZM9.69604 10.4813C10.0485 10.7766 10.3541 10.9584 10.5892 10.981C10.6831 11.0037 10.7302 11.0037 10.8007 10.8448C10.8241 10.7993 10.8241 10.7766 10.6831 10.6857C10.4716 10.5949 10.1191 10.5039 9.69601 10.4812L9.69604 10.4813ZM7.39282 9.00474C7.32232 9.1865 7.25182 9.34543 7.20477 9.45904C7.13428 9.6408 7.04017 9.79973 6.96968 9.95882C7.08723 9.93616 7.20477 9.91334 7.32215 9.91334C7.55725 9.89068 7.79216 9.8452 8.02728 9.8452C7.90973 9.70892 7.81579 9.5953 7.76874 9.52717C7.6748 9.39089 7.53381 9.20914 7.39282 9.00472L7.39282 9.00474ZM7.06379 6.16512C6.96985 6.18778 6.89919 6.18778 6.89919 6.36954C6.89919 6.59677 6.99313 6.91479 7.18117 7.30097C7.27511 6.84668 7.29872 6.48316 7.22822 6.27875C7.18133 6.16513 7.15773 6.16513 7.06379 6.16513V6.16512Z" fill="#374151" stroke="#374151" stroke-width="0.1"/>
<path d="M4.33728 14.0706C4.33728 13.8661 4.47827 13.7752 4.64287 13.7752H5.41845C5.91209 13.7752 6.38211 14.0706 6.38211 14.6838C6.38211 15.2062 6.05308 15.5924 5.44208 15.5924H4.97207V16.1603C4.97207 16.3647 4.83108 16.4783 4.66649 16.4783C4.47844 16.4783 4.3609 16.3647 4.3609 16.1603L4.36074 14.0705L4.33728 14.0706ZM4.97189 15.0473H5.30092C5.55946 15.0473 5.72389 14.8656 5.72389 14.6838C5.72389 14.4339 5.55929 14.3203 5.30092 14.3203H4.97189V15.0473Z" fill="#374151" stroke="#374151" stroke-width="0.1"/>
<path d="M6.71106 14.0706C6.71106 13.8661 6.85205 13.7752 7.01665 13.7752H7.76882C8.59149 13.7752 9.0615 14.4113 9.0615 15.0928C9.0615 15.9787 8.45048 16.4559 7.76882 16.4559H7.01665C6.85205 16.4559 6.71106 16.3423 6.71106 16.1605V14.0706ZM7.34567 15.888H7.6747C8.16834 15.888 8.40324 15.5699 8.40324 15.0928C8.40324 14.6385 8.16815 14.3431 7.69812 14.3431H7.34565L7.34567 15.888Z" fill="#374151" stroke="#374151" stroke-width="0.1"/>
<path d="M9.43739 14.0706C9.43739 13.8661 9.57838 13.7752 9.74297 13.7752H10.7066C10.8947 13.7752 11.0122 13.8888 11.0122 14.0477C11.0122 14.2295 10.8947 14.3203 10.7066 14.3203H10.0485V14.7974H10.6127C10.8007 14.7974 10.9182 14.9111 10.9182 15.07C10.9182 15.2517 10.8007 15.3425 10.6127 15.3425H10.0485V16.1149C10.0485 16.3193 9.90756 16.4329 9.74296 16.4329C9.55492 16.4329 9.43738 16.3193 9.43738 16.1149L9.43739 14.0706Z" fill="#374151" stroke="#374151" stroke-width="0.1"/>
<path d="M13.7149 5.73343C13.5269 5.73343 13.3625 5.89252 13.3625 6.07412V17.5689C13.3625 17.9551 13.0334 18.2731 12.6339 18.2731H2.43375C2.03423 18.2731 1.70521 17.9551 1.70521 17.5689V2.39397C1.70521 2.0078 2.03424 1.68978 2.43375 1.68978H9.8606V3.80238C9.8606 4.48393 10.4482 5.05185 11.1533 5.05185H13.6916C13.8326 5.05185 13.9736 4.96105 14.0206 4.84744C14.0677 4.73382 14.0441 4.57488 13.9501 4.46127L10.4716 1.09904C10.3776 1.00824 10.2601 0.985418 10.166 1.00824H2.45712C1.65808 1.00824 1 1.64431 1 2.41665V17.5916C1 18.3639 1.65808 19 2.45712 19H12.6338C13.4328 19 14.0909 18.3639 14.0909 17.5916V6.07408C14.0675 5.89233 13.9265 5.73339 13.715 5.73339L13.7149 5.73343ZM11.153 4.34769C10.824 4.34769 10.5654 4.0978 10.5654 3.77977V2.14415L12.8452 4.34769H11.153Z" fill="#374151" stroke="#374151" stroke-width="0.1"/>
</svg>
