<svg width="10" height="10" viewBox="0 0 10 10" fill="none" xmlns="http://www.w3.org/2000/svg">
<path fill-rule="evenodd" clip-rule="evenodd" d="M5 8.75C7.07107 8.75 8.75 7.07107 8.75 5C8.75 2.92893 7.07107 1.25 5 1.25C2.92893 1.25 1.25 2.92893 1.25 5C1.25 7.07107 2.92893 8.75 5 8.75ZM5 10C7.76142 10 10 7.76142 10 5C10 2.23858 7.76142 0 5 0C2.23858 0 0 2.23858 0 5C0 7.76142 2.23858 10 5 10Z" fill="white"/>
<rect x="4.125" y="4.21777" width="1.75007" height="3.75" fill="white"/>
<path d="M4.99997 2.03223L7.33568 5.28372H2.66425L4.99997 2.03223Z" fill="white"/>
</svg>
