<svg width="40" height="40" viewBox="0 0 40 40" fill="none" xmlns="http://www.w3.org/2000/svg">
<path d="M0 4C0 1.79086 1.79086 0 4 0H36C38.2091 0 40 1.79086 40 4V36C40 38.2091 38.2091 40 36 40H4C1.79086 40 0 38.2091 0 36V4Z" fill="#DFE3E9"/>
<path d="M20 21.5C19.1716 21.5 18.5 20.8284 18.5 20C18.5 19.1716 19.1716 18.5 20 18.5C20.8284 18.5 21.5 19.1716 21.5 20C21.5 20.8284 20.8284 21.5 20 21.5Z" fill="#28303F"/>
<path d="M26.5 21.5C25.6716 21.5 25 20.8284 25 20C25 19.1716 25.6716 18.5 26.5 18.5C27.3284 18.5 28 19.1716 28 20C28 20.8284 27.3284 21.5 26.5 21.5Z" fill="#28303F"/>
<path d="M13.5 21.5C12.6716 21.5 12 20.8284 12 20C12 19.1716 12.6716 18.5 13.5 18.5C14.3284 18.5 15 19.1716 15 20C15 20.8284 14.3284 21.5 13.5 21.5Z" fill="#28303F"/>
</svg>
