<svg width="23" height="22" viewBox="0 0 23 22" fill="none" xmlns="http://www.w3.org/2000/svg">
<path d="M1.78 6.43994L10.61 11.5499L19.38 6.46991" stroke="#0B3558" stroke-width="2" stroke-linecap="round" stroke-linejoin="round"/>
<path d="M10.61 20.6099V11.5399" stroke="#0B3558" stroke-width="2" stroke-linecap="round" stroke-linejoin="round"/>
<path d="M20.22 11.83V8.17C20.22 6.79 19.23 5.11002 18.02 4.44002L12.68 1.48C11.54 0.84 9.67998 0.84 8.53998 1.48L3.19998 4.44002C1.98998 5.11002 1 6.79 1 8.17V13.83C1 15.21 1.98998 16.89 3.19998 17.56L8.53998 20.52C9.10998 20.84 9.85999 21 10.61 21C11.36 21 12.11 20.84 12.68 20.52" stroke="#0B3558" stroke-width="2" stroke-linecap="round" stroke-linejoin="round"/>
<path d="M17.81 20.4C19.5773 20.4 21.01 18.9673 21.01 17.2C21.01 15.4327 19.5773 14 17.81 14C16.0427 14 14.61 15.4327 14.61 17.2C14.61 18.9673 16.0427 20.4 17.81 20.4Z" stroke="#0B3558" stroke-width="2" stroke-linecap="round" stroke-linejoin="round"/>
<path d="M21.61 21L20.61 20" stroke="#0B3558" stroke-width="2" stroke-linecap="round" stroke-linejoin="round"/>
</svg>
