<svg width="22" height="22" viewBox="0 0 22 22" fill="none" xmlns="http://www.w3.org/2000/svg">
<path d="M5 3H17C19.2091 3 21 4.79086 21 7V12C21 14.2091 19.2091 16 17 16H9C6.79086 16 5 14.2091 5 12V3ZM5 3C5 1.89543 4.10457 1 3 1H1" stroke="#0B3558" stroke-width="2" stroke-linecap="round" stroke-linejoin="round"/>
<path d="M10 19.5C10 20.3284 9.32843 21 8.5 21C7.67157 21 7 20.3284 7 19.5C7 18.6716 7.67157 18 8.5 18C9.32843 18 10 18.6716 10 19.5Z" stroke="#0B3558" stroke-width="2"/>
<path d="M19 19.5C19 20.3284 18.3284 21 17.5 21C16.6716 21 16 20.3284 16 19.5C16 18.6716 16.6716 18 17.5 18C18.3284 18 19 18.6716 19 19.5Z" stroke="#0B3558" stroke-width="2"/>
<path d="M10 7.5H16" stroke="#0B3558" stroke-width="2" stroke-linecap="round" stroke-linejoin="round"/>
<path d="M10 11.5H16" stroke="#0B3558" stroke-width="2" stroke-linecap="round" stroke-linejoin="round"/>
</svg>
