<svg width="289" height="200" viewBox="0 0 289 200" fill="none" xmlns="http://www.w3.org/2000/svg">
<path d="M174.484 77.2017C174.369 77.2017 174.254 77.1695 174.15 77.1015C173.869 76.9165 173.789 76.538 173.974 76.2563C174.916 74.8195 175.816 73.3245 176.65 71.8134C176.813 71.5183 177.184 71.4111 177.479 71.5744C177.774 71.7377 177.881 72.1092 177.718 72.4042C176.869 73.942 175.953 75.4629 174.995 76.9256C174.878 77.105 174.683 77.2017 174.484 77.2017ZM180.246 66.4531C180.166 66.4531 180.084 66.437 180.006 66.4033C179.696 66.2702 179.553 65.9113 179.685 65.6015C180.363 64.019 180.99 62.3901 181.548 60.7606C181.658 60.4417 182.005 60.2721 182.324 60.3814C182.643 60.4908 182.813 60.8384 182.703 61.1573C182.135 62.8149 181.497 64.4724 180.807 66.083C180.708 66.3143 180.483 66.4531 180.246 66.4531ZM184.057 54.8669C184.011 54.8669 183.964 54.8613 183.917 54.8508C183.589 54.7737 183.385 54.445 183.462 54.117C183.755 52.868 184.016 51.5966 184.238 50.3379C184.263 50.1963 184.286 50.0589 184.308 49.9258C183.487 50.1017 182.687 50.1907 181.913 50.1907H181.883C181.546 50.1893 181.274 49.9145 181.276 49.5774C181.277 49.241 181.55 48.9698 181.886 48.9698C181.887 48.9698 181.888 48.9698 181.889 48.9698H181.913C183.402 48.9698 185.015 48.5976 186.708 47.8638C187.018 47.7299 187.377 47.8722 187.511 48.1813C187.645 48.4911 187.503 48.8506 187.194 48.9845C186.656 49.2172 186.124 49.4169 185.6 49.583C185.554 49.8844 185.501 50.204 185.44 50.5502C185.215 51.8314 184.949 53.126 184.651 54.3966C184.584 54.677 184.334 54.8669 184.057 54.8669ZM175.871 47.2316C175.679 47.2316 175.489 47.1405 175.37 46.9695C174.706 46.0163 174.312 44.9411 174.229 43.859C174.22 43.7265 174.214 43.5919 174.214 43.4574C174.214 42.774 174.343 42.0914 174.596 41.4304C174.718 41.1158 175.07 40.9581 175.385 41.0793C175.7 41.1999 175.857 41.5531 175.736 41.8685C175.536 42.3899 175.435 42.9247 175.435 43.4581C175.435 43.5611 175.439 43.6648 175.447 43.7658C175.513 44.6306 175.833 45.4969 176.372 46.2714C176.565 46.5482 176.497 46.9288 176.22 47.1216C176.113 47.1958 175.992 47.2316 175.871 47.2316ZM192.785 45.2572C192.616 45.2572 192.448 45.1871 192.326 45.0505C192.104 44.7975 192.128 44.412 192.38 44.1884C193.654 43.0642 194.808 41.7984 195.812 40.4275C196.011 40.1556 196.393 40.0967 196.665 40.2957C196.937 40.4948 196.996 40.8775 196.797 41.1494C195.741 42.5911 194.527 43.9221 193.188 45.1044C193.072 45.2068 192.928 45.2572 192.785 45.2572ZM184.492 42.8665C184.26 42.8665 184.039 42.7334 183.936 42.5091C183.262 41.0295 181.974 39.8261 180.573 39.3685C180.253 39.264 180.078 38.9192 180.182 38.5982C180.287 38.2779 180.631 38.1027 180.952 38.2071C182.667 38.7678 184.236 40.2221 185.047 42.0024C185.186 42.3093 185.051 42.6717 184.745 42.8112C184.663 42.849 184.577 42.8665 184.492 42.8665Z" fill="#9EBEE5"/>
<path d="M243.216 35.1786C243.023 35.979 242.42 36.6582 241.576 36.907L213.147 45.2958C212.564 45.4682 211.943 45.4114 211.4 45.1367L198.79 38.7524C198.199 38.4531 197.77 37.938 197.582 37.3016C197.395 36.6659 197.476 36.0001 197.81 35.4274L204.939 23.2189C205.246 22.6932 205.736 22.3091 206.321 22.1367L234.75 13.748C236.008 13.3765 237.333 14.0991 237.705 15.3579L243.185 33.9507C243.307 34.3656 243.311 34.7868 243.216 35.1786Z" fill="#749DD3"/>
<path d="M201.689 19.6248L197.496 36.0729C197.164 37.3772 198.09 38.7411 199.425 38.9107L216.255 41.0568C216.752 41.1199 217.245 41.005 217.649 40.7302L244.259 22.6273C245.214 21.9769 245.428 20.6249 244.736 19.6058L232.098 1.0109C231.406 -0.00747266 230.07 -0.306046 229.115 0.343666L202.505 18.448C202.102 18.7227 201.813 19.139 201.689 19.6248ZM206.858 31.7793C207.549 32.7963 207.285 34.1819 206.269 34.8737C205.252 35.5655 203.868 35.3012 203.176 34.2843C202.485 33.2673 202.749 31.8817 203.765 31.1899C204.782 30.4981 206.167 30.7624 206.858 31.7793Z" fill="#9EBEE5"/>
<path d="M217.496 23.1389C217.024 23.1389 216.554 23.0422 216.108 22.8495C215.251 22.4787 214.589 21.7954 214.245 20.927C213.901 20.0579 213.916 19.1075 214.287 18.2496C214.657 17.3918 215.34 16.7301 216.208 16.386C217.077 16.0419 218.027 16.0566 218.884 16.4274C219.742 16.7981 220.403 17.4815 220.747 18.3499C221.091 19.2189 221.076 20.1693 220.706 21.0272C220.335 21.8851 219.652 22.5467 218.784 22.8908C218.368 23.0562 217.931 23.1389 217.496 23.1389ZM217.497 17.4464C217.225 17.4464 216.951 17.4983 216.69 17.6013C216.147 17.8165 215.719 18.2314 215.487 18.7683C215.256 19.3052 215.246 19.9009 215.461 20.4448C215.677 20.9887 216.091 21.4162 216.628 21.6482C217.164 21.8802 217.76 21.89 218.303 21.6741C218.847 21.4589 219.274 21.044 219.506 20.5072C219.738 19.9703 219.748 19.3752 219.532 18.8307C219.316 18.2868 218.902 17.8592 218.366 17.6273C218.087 17.5074 217.792 17.4464 217.497 17.4464Z" fill="white"/>
<path d="M219.062 28.767C218.975 28.767 218.888 28.7495 218.803 28.713C218.472 28.5694 218.319 28.1846 218.463 27.8531L224.141 14.7166C224.284 14.385 224.669 14.2323 225 14.3759C225.332 14.5196 225.484 14.9044 225.341 15.2359L219.662 28.3724C219.556 28.6191 219.315 28.767 219.062 28.767Z" fill="white"/>
<path d="M226.306 26.9517C225.835 26.9517 225.364 26.855 224.919 26.6622C223.149 25.8962 222.332 23.8328 223.097 22.0617C223.863 20.2913 225.925 19.4734 227.695 20.2394C228.553 20.6102 229.214 21.2935 229.558 22.1619C229.902 23.031 229.887 23.9814 229.517 24.8393C229.146 25.6971 228.463 26.3588 227.595 26.7029C227.178 26.869 226.742 26.9517 226.306 26.9517ZM226.31 21.2606C225.464 21.2606 224.655 21.7554 224.298 22.581C223.819 23.6898 224.33 24.9815 225.438 25.4609C225.975 25.6929 226.57 25.7027 227.114 25.4869C227.658 25.2717 228.085 24.8568 228.317 24.3199C228.549 23.783 228.558 23.188 228.343 22.6434C228.127 22.0995 227.713 21.672 227.176 21.44C226.894 21.3181 226.6 21.2606 226.31 21.2606Z" fill="white"/>
<path d="M181.304 81.4126C180.574 83.5888 179.083 85.6662 176.242 87.4107C175.312 87.9812 174.401 88.4501 173.524 88.8363C172.936 89.0956 172.364 89.3171 171.814 89.5063L171.811 89.5056C171.147 89.7348 170.512 89.917 169.918 90.0614C168.864 90.3186 167.937 90.4574 167.189 90.531C165.934 90.6543 165.183 90.5941 165.183 90.5941L151.173 86.2374L149.221 85.6305C149.289 85.3676 149.387 85.0165 149.522 84.5939C149.845 83.5853 150.374 82.1674 151.199 80.5568C153.27 76.5079 157.204 71.245 164.384 68.2228C177.211 62.8247 181.462 70.9212 181.821 74.9659C181.94 76.3025 181.987 77.6902 181.82 79.0724C181.727 79.8595 181.563 80.6423 181.304 81.4126Z" fill="#749DD3"/>
<path d="M181.304 81.4126C180.574 83.5888 179.083 85.6669 176.242 87.4107C175.313 87.9812 174.401 88.4501 173.524 88.8362C173.523 88.8362 173.523 88.8362 173.523 88.8362C176.522 80.1475 166.405 79.2917 166.405 79.2917L173.834 74.3814C173.833 74.3821 181.979 73.8172 181.304 81.4126Z" fill="#9EBEE5"/>
<path d="M148.405 85.4972C148.392 85.5456 148.379 85.5904 148.367 85.6318L132.12 81.7433C132.12 81.7433 131.426 81.4146 130.385 80.6661C129.773 80.2266 129.042 79.6421 128.261 78.895C126.911 77.6025 125.412 75.8223 124.129 73.459C120.982 67.662 123.066 63.372 125.505 59.89C127.835 56.5651 135.56 51.6744 143.978 62.7615C148.754 69.0526 149.491 75.6702 149.235 80.2203C149.138 81.9445 148.898 83.3707 148.682 84.3702C148.578 84.8489 148.48 85.2295 148.405 85.4972Z" fill="#749DD3"/>
<path d="M122.716 65.7268C122.263 67.9774 122.516 70.5222 124.108 73.4533C124.628 74.4114 125.184 75.2735 125.751 76.0465C125.751 76.0465 125.751 76.0465 125.751 76.0465C127.49 67.0207 136.682 71.3346 136.682 71.3346L132.697 63.3684C132.697 63.3691 125.923 58.8099 122.716 65.7268Z" fill="#9EBEE5"/>
<path d="M146.249 82.6628C146.167 82.5724 135.652 70.9722 133.731 66.8671C132.01 63.191 132.073 58.4412 136.375 60.534C136.375 60.534 136.375 60.534 136.375 60.5347C136.896 60.7877 137.481 61.1424 138.131 61.6113C142.589 64.8241 144.819 74.1759 145.731 79.2663C146.091 81.2792 146.245 82.6263 146.249 82.6628Z" fill="#0B3558"/>
<path d="M152.482 84.3323C152.482 84.3323 162.366 70.9288 170.024 70.1494C177.402 69.3988 174.942 74.2958 171.213 76.9017C167.483 79.5075 152.482 84.3323 152.482 84.3323Z" fill="#0B3558"/>
<path d="M146.249 82.6628C146.167 82.5724 135.652 70.9722 133.731 66.8671C132.01 63.191 132.073 58.4412 136.375 60.534C136.375 60.534 136.375 60.534 136.375 60.5347C136.372 60.6272 132.623 66.8657 145.731 79.2663C146.091 81.2792 146.245 82.6263 146.249 82.6628Z" fill="#0B3558"/>
<path d="M152.482 84.3316C152.598 84.2945 167.498 79.4984 171.213 76.9016C174.539 74.5768 176.855 70.4305 172.083 70.0933C172.083 70.0933 172.083 70.0933 172.083 70.094C172.039 70.176 172.173 77.4539 154.628 81.648C153.31 83.2123 152.504 84.3022 152.482 84.3316Z" fill="#0B3558"/>
<path d="M153.215 86.9305L144.317 84.5482C144.33 84.5026 144.342 84.4564 144.356 84.4122C144.471 84.0267 144.634 83.6672 144.835 83.3385C145.871 81.6382 147.937 80.748 149.957 81.2884C151.978 81.8295 153.324 83.6349 153.371 85.6268C153.381 86.0116 153.342 86.4048 153.249 86.7959C153.239 86.8401 153.228 86.8856 153.215 86.9305Z" fill="#0B3558"/>
<path d="M176.444 98.7768L118.264 83.1883L102.669 141.394L160.849 156.983L176.444 98.7768Z" fill="#9EBEE5"/>
<path d="M181.282 94.1815L116.369 76.7889L113.611 87.0799L178.525 104.473L181.282 94.1815Z" fill="#9EBEE5"/>
<path d="M151.88 86.3076L145.77 84.6705L128.701 148.373L134.812 150.01L151.88 86.3076Z" fill="white"/>
<g opacity="0.4">
<path d="M175.16 103.571L116.98 87.9826L115.84 92.2359L174.02 107.824L175.16 103.571Z" fill="#749DD3"/>
</g>
<path d="M125.017 104.718L85.2761 94.0697L74.6233 133.828L114.364 144.477L125.017 104.718Z" fill="#749DD3"/>
<path d="M128.321 101.578L83.9811 89.698L82.0977 96.7275L126.438 108.608L128.321 101.578Z" fill="#749DD3"/>
<path d="M108.237 96.2003L104.064 95.082L92.405 138.595L96.5786 139.713L108.237 96.2003Z" fill="white"/>
<g opacity="0.3">
<path d="M124.139 107.993L84.3979 97.3447L83.5282 100.591L123.269 111.239L124.139 107.993Z" fill="#749DD3"/>
</g>
<path d="M239.098 65.502L216.825 63.8584C216.823 63.8584 216.821 63.8584 216.819 63.8584C216.789 63.8563 216.759 63.8563 216.728 63.8563C216.713 63.8563 216.698 63.8556 216.683 63.8556C216.665 63.8563 216.647 63.8584 216.629 63.8598C216.44 63.8738 216.26 63.9264 216.1 64.0119C216.088 64.0182 216.076 64.0231 216.065 64.0301C216.052 64.0379 216.04 64.0463 216.027 64.054C215.915 64.1227 215.813 64.2089 215.723 64.3112C215.706 64.3301 215.69 64.3483 215.674 64.3687C215.666 64.3785 215.66 64.389 215.652 64.3988C215.633 64.4247 215.614 64.4514 215.596 64.4794C215.596 64.4808 215.594 64.4822 215.593 64.4843L194.939 97.6364L75.5485 65.6295C75.1457 65.5216 74.7156 65.6078 74.3856 65.8629C74.0557 66.1181 73.8644 66.5126 73.8672 66.9304L74.3877 135.605C74.3926 136.22 74.8108 136.734 75.3768 136.885C75.3811 136.887 75.3853 136.887 75.3895 136.888C75.393 136.889 75.3958 136.89 75.3993 136.891L140.937 154.461L141.659 154.655L158.614 159.2C158.615 159.201 158.616 159.201 158.618 159.201C158.621 159.202 158.624 159.203 158.627 159.203L166.06 161.196C169.627 162.152 171.986 163.798 173.071 166.087C174.003 168.053 174.062 170.597 173.245 173.648C171.794 179.063 166.211 182.287 160.8 180.837L48.393 150.701C47.6805 150.51 46.9485 150.933 46.7573 151.646C46.566 152.359 46.9891 153.091 47.7016 153.282L160.108 183.417C166.943 185.249 173.993 181.177 175.824 174.339C176.809 170.659 176.695 167.497 175.483 164.941C174.047 161.912 171.109 159.783 166.75 158.614L161.049 157.085L196.674 99.9038C196.678 99.8989 196.68 99.8932 196.684 99.8883L217.433 66.5827L238.901 68.1667C239.637 68.2207 240.277 67.6684 240.331 66.9325C240.386 66.1972 239.833 65.5566 239.098 65.502ZM168.995 93.448L162.85 106.633L131.967 98.3534L135.674 84.5153L168.995 93.448ZM126.091 115.476L122.065 130.512L98.3657 124.158L99.7429 108.412L126.091 115.476ZM99.8522 107.15L101.229 91.4035L130.441 99.2344L126.414 114.27L99.8522 107.15ZM127.296 115.798L155.104 123.253L148.427 137.579L123.268 130.834L127.296 115.798ZM127.618 114.594L131.644 99.5582L162.315 107.781L155.638 122.106L127.618 114.594ZM134.47 84.1922L130.764 98.0303L101.34 90.142L102.607 75.65L134.47 84.1922ZM76.5516 68.665L101.384 75.3227L100.117 89.8147L76.6644 83.5271L76.5516 68.665ZM76.6735 84.8209L100.006 91.0762L98.6291 106.823L76.7954 100.97L76.6735 84.8209ZM76.8059 102.263L98.5191 108.084L97.1419 123.83L76.9278 118.411L76.8059 102.263ZM77.0504 134.567L76.9376 119.705L97.0312 125.092L95.764 139.584L77.0504 134.567ZM96.9878 139.912L98.255 125.42L121.742 131.717L118.035 145.555L96.9878 139.912ZM119.24 145.878L122.946 132.039L147.893 138.727L141.748 151.912L119.24 145.878ZM158.353 156.363L142.97 152.239L149.115 139.054L166.271 143.653L158.353 156.363ZM166.96 142.547L149.65 137.907L156.327 123.581L175.563 128.738L166.96 142.547ZM176.253 127.632L156.862 122.433L163.538 108.108L184.856 113.823L176.253 127.632ZM185.545 112.716L164.073 106.96L170.218 93.7753L193.463 100.007L185.545 112.716Z" fill="#0B3558"/>
<path d="M163.441 184.104C162.307 184.104 161.167 183.955 160.045 183.654L47.6383 153.519C46.7963 153.294 46.2948 152.424 46.5203 151.582C46.7459 150.74 47.6145 150.238 48.4566 150.463L160.863 180.598C166.144 182.014 171.593 178.867 173.008 173.583C173.809 170.59 173.756 168.103 172.849 166.191C171.796 163.97 169.49 162.369 165.995 161.432L158.568 159.441C158.564 159.44 158.559 159.439 158.555 159.438L158.538 159.433L75.3263 137.125C75.322 137.124 75.3178 137.123 75.3136 137.122C74.6292 136.939 74.148 136.316 74.1424 135.606L73.6219 66.9317C73.6184 66.441 73.8475 65.9687 74.2355 65.6687C74.6236 65.3687 75.1378 65.265 75.6121 65.3918L194.828 97.3518L215.39 64.3461L215.393 64.3419C215.413 64.3111 215.434 64.2816 215.455 64.2529L215.46 64.2459C215.467 64.2361 215.474 64.227 215.481 64.2179C215.497 64.1968 215.513 64.1786 215.53 64.1604L215.539 64.1492C215.644 64.03 215.765 63.927 215.9 63.845L215.909 63.8394C215.921 63.8317 215.932 63.824 215.944 63.817C215.956 63.8107 215.967 63.8051 215.977 63.7994L215.986 63.7952C216.18 63.6915 216.391 63.6305 216.612 63.6151L216.626 63.6137C216.642 63.6123 216.659 63.6109 216.676 63.6102C216.69 63.6095 216.704 63.6102 216.718 63.6102H216.73C216.762 63.6102 216.795 63.6102 216.828 63.6123H216.832L216.847 63.6137L239.116 65.2573C239.985 65.3217 240.64 66.0815 240.576 66.9506C240.545 67.3718 240.352 67.7559 240.032 68.032C239.712 68.3082 239.304 68.4427 238.883 68.4119L217.563 66.8384L161.433 156.935L166.814 158.377C171.245 159.565 174.237 161.738 175.705 164.836C176.942 167.446 177.062 170.664 176.061 174.402C175.158 177.772 172.994 180.592 169.965 182.341C167.946 183.508 165.707 184.104 163.441 184.104ZM48.0475 150.901C47.5662 150.901 47.1242 151.222 46.9939 151.71C46.8384 152.291 47.1844 152.89 47.7651 153.045L160.171 183.18C163.413 184.049 166.805 183.601 169.719 181.917C172.634 180.233 174.718 177.519 175.587 174.276C176.557 170.654 176.448 167.548 175.261 165.047C173.857 162.085 170.972 160.001 166.686 158.852L160.666 157.238L160.841 156.957L217.303 66.3282L238.918 67.9234C239.208 67.9451 239.49 67.8519 239.711 67.6613C239.931 67.4706 240.064 67.2064 240.086 66.9155C240.13 66.3156 239.679 65.7913 239.079 65.7472L216.814 64.1043L216.802 64.1036C216.777 64.1022 216.753 64.1022 216.728 64.1022L216.691 64.1015C216.684 64.1015 216.677 64.1022 216.671 64.1029L216.647 64.105C216.494 64.1162 216.349 64.1576 216.215 64.2291C216.208 64.2333 216.201 64.2368 216.194 64.2403L216.178 64.2494C216.171 64.2543 216.163 64.2592 216.156 64.2634C216.063 64.3202 215.98 64.391 215.908 64.473L215.896 64.4863C215.886 64.4975 215.876 64.5087 215.867 64.5206L215.864 64.5256C215.859 64.5326 215.855 64.5389 215.85 64.5452C215.834 64.5662 215.818 64.5879 215.804 64.6104L215.798 64.6209L195.051 97.9202L194.876 97.8732L75.4846 65.8663C75.1574 65.7787 74.803 65.8502 74.5354 66.057C74.2678 66.2637 74.1094 66.5896 74.1122 66.9282L74.6327 135.603C74.6362 136.089 74.9648 136.517 75.432 136.646C75.4383 136.648 75.4453 136.649 75.4516 136.651L75.4691 136.656L166.123 160.959C169.763 161.935 172.175 163.624 173.292 165.981C174.25 168.002 174.314 170.602 173.481 173.711C172.237 178.357 168.021 181.429 163.427 181.429C162.538 181.429 161.635 181.314 160.736 181.073L48.3298 150.938C48.2352 150.913 48.1406 150.901 48.0475 150.901ZM158.465 156.647L142.625 152.401L148.98 138.764L166.654 143.502L158.465 156.647ZM143.316 152.078L158.241 156.079L165.888 143.804L149.25 139.344L143.316 152.078ZM141.882 152.202L118.939 146.051L122.772 131.738L148.238 138.565L141.882 152.202ZM119.54 145.704L141.612 151.621L147.547 138.888L123.119 132.339L119.54 145.704ZM118.209 145.855L96.7249 140.095L98.0356 125.106L122.042 131.542L118.209 145.855ZM97.2496 139.728L117.862 145.255L121.441 131.89L98.4734 125.732L97.2496 139.728ZM167.072 142.832L149.304 138.068L156.192 123.291L175.946 128.587L167.072 142.832ZM149.996 137.745L166.848 142.263L175.18 128.889L156.462 123.871L149.996 137.745ZM95.9831 139.896L76.8064 134.755L76.6902 119.384L97.2937 124.908L95.9831 139.896ZM77.294 134.378L95.5452 139.271L96.769 125.275L77.1847 120.025L77.294 134.378ZM148.562 137.869L122.968 131.008L127.122 115.498L127.359 115.562L155.45 123.093L148.562 137.869ZM123.569 130.661L148.292 137.289L154.758 123.415L127.469 116.099L123.569 130.661ZM122.238 130.812L122.001 130.748L98.1028 124.341L99.5235 108.098L126.392 115.301L122.238 130.812ZM98.6268 123.975L121.891 130.212L125.791 115.65L99.9606 108.725L98.6268 123.975ZM176.364 127.916L156.515 122.594L163.403 107.818L185.239 113.672L176.364 127.916ZM157.207 122.272L176.14 127.348L184.472 113.974L163.673 108.398L157.207 122.272ZM97.361 124.143L76.6845 118.6L76.5585 101.942L98.7816 107.9L97.361 124.143ZM77.1721 118.222L96.9239 123.518L98.2576 108.268L77.0537 102.584L77.1721 118.222ZM155.774 122.396L155.575 122.343L127.318 114.767L131.471 99.2574L162.661 107.619L155.774 122.396ZM127.918 114.42L155.504 121.815L161.97 107.941L131.819 99.8581L127.918 114.42ZM126.587 114.572L126.35 114.508L99.59 107.334L101.011 91.0908L130.741 99.0612L126.587 114.572ZM100.114 106.966L126.24 113.97L130.14 99.4081L101.447 91.716L100.114 106.966ZM185.656 113L163.727 107.121L170.082 93.485L193.845 99.8553L185.656 113ZM164.419 106.799L185.432 112.433L193.079 100.159L170.353 94.0661L164.419 106.799ZM98.8482 107.135L76.5522 101.158L76.4261 84.5005L100.269 90.8925L98.8482 107.135ZM77.0397 100.78L98.4104 106.509L99.7441 91.2597L76.9213 85.1411L77.0397 100.78ZM162.985 106.923L162.786 106.87L131.667 98.5271L135.5 84.2146L169.341 93.2867L162.985 106.923ZM132.268 98.1795L162.716 106.342L168.65 93.6091L135.847 84.8152L132.268 98.1795ZM130.937 98.3309L101.077 90.3262L102.388 75.338L102.67 75.4137L134.77 84.019L130.937 98.3309ZM101.602 89.9589L130.59 97.7302L134.169 84.3659L102.826 75.9631L101.602 89.9589ZM100.335 90.1271L76.4198 83.7155L76.3035 68.3446L101.646 75.1389L100.335 90.1271ZM76.9073 83.3385L99.8976 89.502L101.121 75.5062L76.798 68.9852L76.9073 83.3385Z" fill="#0B3558"/>
<path d="M75.7829 163.723C71.6561 162.617 67.3991 165.076 66.293 169.205C65.1869 173.334 67.645 177.593 71.7717 178.7C75.8984 179.806 80.1555 177.347 81.2616 173.218C82.3677 169.089 79.9096 164.829 75.7829 163.723ZM78.6823 172.526C77.958 175.232 75.1678 176.844 72.4638 176.118C69.7591 175.394 68.1486 172.602 68.8737 169.897C69.598 167.191 72.3882 165.579 75.0921 166.305C77.7961 167.029 79.4066 169.82 78.6823 172.526Z" fill="#0B3558"/>
<path d="M73.7759 179.21C73.0929 179.21 72.3994 179.122 71.7087 178.937C67.4509 177.795 64.9157 173.401 66.0562 169.141C67.1973 164.881 71.5889 162.345 75.8466 163.486C77.9061 164.038 79.6287 165.362 80.697 167.214C81.766 169.066 82.0504 171.221 81.4984 173.28C80.5429 176.85 77.3044 179.21 73.7759 179.21ZM73.7794 163.703C70.4666 163.703 67.4271 165.918 66.5297 169.268C65.4586 173.266 67.839 177.391 71.8354 178.462C72.4834 178.636 73.1349 178.719 73.7759 178.719C77.0886 178.719 80.1282 176.504 81.0255 173.154C81.5432 171.22 81.2763 169.197 80.2725 167.459C79.2686 165.721 77.6525 164.477 75.7198 163.96C75.0718 163.786 74.4204 163.703 73.7794 163.703ZM73.7822 176.538C73.3212 176.538 72.8568 176.477 72.4001 176.355C71.0292 175.987 69.8817 175.106 69.17 173.873C68.4583 172.639 68.2691 171.204 68.6362 169.833C69.3956 166.996 72.3202 165.308 75.1552 166.067C77.9902 166.827 79.6784 169.753 78.9191 172.589L78.6823 172.526L78.9191 172.589C78.552 173.961 77.6708 175.109 76.4378 175.821C75.6161 176.296 74.7048 176.538 73.7822 176.538ZM73.7787 166.376C71.6449 166.376 69.6877 167.802 69.1097 169.96C68.7763 171.206 68.9486 172.508 69.5945 173.628C70.2404 174.748 71.282 175.548 72.5269 175.882C73.7717 176.216 75.0732 176.043 76.1927 175.397C77.3121 174.751 78.1121 173.709 78.4455 172.463C79.1348 169.888 77.6021 167.232 75.0284 166.542C74.6109 166.429 74.1913 166.376 73.7787 166.376Z" fill="#0B3558"/>
<path d="M141.676 181.388C137.549 180.282 133.292 182.741 132.186 186.87C131.08 190.999 133.538 195.258 137.665 196.365C141.792 197.471 146.049 195.012 147.155 190.883C148.261 186.754 145.803 182.494 141.676 181.388ZM144.575 190.191C143.851 192.897 141.061 194.509 138.357 193.783C135.652 193.059 134.042 190.267 134.767 187.562C135.491 184.855 138.281 183.244 140.985 183.97C143.689 184.694 145.3 187.485 144.575 190.191Z" fill="#0B3558"/>
<path d="M139.669 196.875C138.986 196.875 138.292 196.786 137.601 196.601C135.542 196.049 133.819 194.725 132.751 192.873C131.682 191.021 131.398 188.867 131.949 186.807C133.09 182.547 137.482 180.01 141.739 181.151C145.997 182.293 148.532 186.687 147.392 190.947C146.436 194.515 143.198 196.875 139.669 196.875ZM139.672 181.369C136.359 181.369 133.32 183.583 132.423 186.933C131.905 188.867 132.172 190.889 133.176 192.628C134.179 194.367 135.796 195.61 137.728 196.128C138.376 196.301 139.028 196.384 139.669 196.384C142.981 196.384 146.021 194.169 146.918 190.819C147.989 186.821 145.609 182.696 141.613 181.625C140.965 181.451 140.313 181.369 139.672 181.369ZM139.669 194.202C139.215 194.202 138.752 194.143 138.293 194.02C135.458 193.26 133.77 190.334 134.529 187.498C135.288 184.661 138.213 182.972 141.048 183.732C143.883 184.492 145.571 187.418 144.812 190.254C144.175 192.631 142.019 194.202 139.669 194.202ZM139.671 184.041C137.538 184.041 135.58 185.467 135.003 187.625C134.313 190.2 135.846 192.857 138.42 193.546C140.993 194.236 143.648 192.702 144.338 190.127C145.027 187.552 143.494 184.896 140.921 184.206C140.504 184.094 140.084 184.041 139.671 184.041Z" fill="#0B3558"/>
<path d="M140.41 186.116C138.888 185.708 137.319 186.615 136.911 188.137C136.503 189.659 137.41 191.23 138.931 191.638C140.453 192.046 142.023 191.139 142.43 189.616C142.838 188.093 141.932 186.524 140.41 186.116ZM141.226 189.293C140.996 190.151 140.112 190.662 139.254 190.432C138.397 190.202 137.886 189.317 138.116 188.459C138.346 187.601 139.23 187.091 140.088 187.32C140.945 187.55 141.456 188.436 141.226 189.293Z" fill="#0B3558"/>
<path d="M139.67 191.981C139.405 191.981 139.136 191.946 138.868 191.875C137.216 191.432 136.232 189.727 136.675 188.074C136.889 187.274 137.403 186.606 138.121 186.191C138.839 185.776 139.674 185.665 140.474 185.879C142.125 186.322 143.11 188.028 142.667 189.68C142.296 191.064 141.039 191.981 139.67 191.981ZM139.669 186.263C139.216 186.263 138.769 186.382 138.366 186.615C137.761 186.964 137.328 187.527 137.148 188.2C136.776 189.592 137.604 191.027 138.995 191.4C140.386 191.773 141.821 190.944 142.193 189.553C142.566 188.161 141.737 186.725 140.347 186.353C140.123 186.292 139.895 186.263 139.669 186.263ZM139.67 190.733C139.512 190.733 139.351 190.713 139.19 190.669C138.713 190.541 138.313 190.234 138.065 189.804C137.817 189.373 137.751 188.874 137.878 188.396C138.143 187.407 139.163 186.818 140.151 187.083C140.628 187.211 141.028 187.518 141.276 187.948C141.524 188.378 141.59 188.878 141.463 189.356C141.241 190.185 140.489 190.733 139.67 190.733ZM139.671 187.51C139.068 187.51 138.515 187.913 138.352 188.523C138.258 188.875 138.306 189.243 138.489 189.559C138.672 189.875 138.966 190.101 139.317 190.195C140.044 190.391 140.794 189.957 140.989 189.23C141.083 188.878 141.035 188.51 140.852 188.194C140.669 187.878 140.375 187.651 140.024 187.557C139.906 187.525 139.788 187.51 139.671 187.51Z" fill="#0B3558"/>
<path d="M74.5171 168.451C72.9956 168.043 71.4258 168.95 71.0181 170.472C70.6104 171.994 71.5168 173.565 73.0383 173.973C74.5599 174.381 76.1297 173.474 76.5374 171.952C76.9444 170.429 76.0387 168.859 74.5171 168.451ZM75.3332 171.629C75.1035 172.486 74.2187 172.997 73.3613 172.767C72.5039 172.538 71.9932 171.652 72.2229 170.794C72.4527 169.937 73.3375 169.426 74.1949 169.656C75.0523 169.885 75.563 170.77 75.3332 171.629Z" fill="#0B3558"/>
<path d="M73.7765 174.315C73.5117 174.315 73.242 174.281 72.9744 174.209C71.3226 173.766 70.3384 172.061 70.7811 170.408C71.2238 168.756 72.9282 167.771 74.58 168.214C75.3793 168.428 76.0476 168.942 76.4623 169.661C76.877 170.379 76.9877 171.215 76.7733 172.015C76.4027 173.4 75.146 174.315 73.7765 174.315ZM73.7779 168.598C72.6249 168.598 71.5671 169.369 71.2546 170.535C70.882 171.927 71.7107 173.363 73.1012 173.735C74.4924 174.108 75.9271 173.279 76.2998 171.888C76.4798 171.215 76.3866 170.511 76.0378 169.906C75.6889 169.3 75.1257 168.868 74.4532 168.688C74.2276 168.627 74.0014 168.598 73.7779 168.598ZM73.7793 173.068C73.6182 173.068 73.4564 173.047 73.2973 173.004C72.8196 172.876 72.4196 172.569 72.1716 172.139C71.9236 171.709 71.8578 171.209 71.9853 170.731C72.2501 169.742 73.2693 169.153 74.2578 169.418C75.2462 169.683 75.8346 170.703 75.5698 171.692C75.4416 172.17 75.1348 172.57 74.7047 172.818C74.4182 172.984 74.1008 173.068 73.7793 173.068ZM73.7779 169.846C73.1755 169.846 72.6221 170.249 72.4588 170.858C72.365 171.21 72.4133 171.578 72.5961 171.894C72.779 172.21 73.0725 172.437 73.4241 172.531C73.7758 172.625 74.1436 172.576 74.4595 172.393C74.7754 172.21 75.0017 171.916 75.0956 171.565C75.2903 170.837 74.8574 170.087 74.1303 169.892C74.0126 169.86 73.8942 169.846 73.7779 169.846Z" fill="#0B3558"/>
<path d="M66.5975 130.913C66.6507 130.927 66.7067 130.934 66.7642 130.934C67.1081 130.931 67.3848 130.649 67.382 130.305L67.1516 102.182C67.1488 101.838 66.8686 101.561 66.5232 101.564C66.1793 101.567 65.9026 101.848 65.9054 102.193L66.1358 130.315C66.1386 130.602 66.3334 130.842 66.5975 130.913Z" fill="#0B3558"/>
<path d="M66.7588 131.179C66.6831 131.179 66.6074 131.17 66.5346 131.15C66.1591 131.049 65.8943 130.707 65.8915 130.317L65.661 102.195C65.6568 101.715 66.0435 101.323 66.522 101.319C66.7538 101.317 66.9724 101.405 67.1377 101.567C67.3038 101.729 67.3955 101.947 67.3976 102.18L67.6281 130.303C67.6323 130.782 67.2456 131.175 66.7672 131.179C66.7637 131.179 66.7609 131.179 66.7588 131.179ZM66.5297 101.809C66.5283 101.809 66.5269 101.809 66.5255 101.809C66.3167 101.811 66.1486 101.982 66.15 102.191L66.3805 130.313C66.3819 130.483 66.4968 130.631 66.66 130.675C66.6929 130.685 66.7265 130.688 66.7609 130.688C66.9696 130.687 67.1377 130.516 67.1363 130.307L66.9059 102.184C66.9052 102.083 66.8652 101.988 66.7931 101.917C66.723 101.847 66.6292 101.809 66.5297 101.809Z" fill="#0B3558"/>
<path d="M59.1409 102.786C59.1941 102.8 59.2502 102.807 59.3076 102.807C59.6516 102.804 59.9283 102.522 59.9255 102.178L59.7945 86.1792C59.7917 85.8351 59.5107 85.5575 59.1661 85.561C58.8221 85.5638 58.5454 85.8456 58.5482 86.1897L58.6792 102.189C58.682 102.475 58.8768 102.715 59.1409 102.786Z" fill="#0B3558"/>
<path d="M59.3011 103.053C59.2255 103.053 59.1505 103.043 59.077 103.023C58.7015 102.922 58.4367 102.58 58.4339 102.191L58.3029 86.1925C58.3008 85.9605 58.3898 85.7412 58.5523 85.5758C58.7148 85.4104 58.932 85.3178 59.1645 85.3164C59.3943 85.3136 59.615 85.4026 59.7803 85.5652C59.9456 85.7279 60.0381 85.9458 60.0395 86.1778L60.1705 102.177C60.1726 102.409 60.0836 102.628 59.9211 102.793C59.7586 102.959 59.5414 103.051 59.3088 103.053C59.3067 103.053 59.3039 103.053 59.3011 103.053ZM59.1722 85.8064C59.1708 85.8064 59.1701 85.8064 59.1687 85.8064C59.0672 85.8071 58.9726 85.847 58.9018 85.9192C58.8311 85.9914 58.7926 86.0867 58.7933 86.1876L58.9243 102.187C58.9257 102.356 59.0405 102.505 59.2038 102.549C59.2367 102.558 59.2703 102.562 59.3046 102.561C59.4062 102.561 59.5008 102.521 59.5715 102.449C59.6423 102.376 59.6808 102.281 59.6801 102.18L59.5491 86.1813C59.5484 86.0797 59.5085 85.9851 59.4363 85.9143C59.3656 85.8449 59.2717 85.8064 59.1722 85.8064Z" fill="#0B3558"/>
<path d="M59.3284 105.354C58.9845 105.357 58.7078 105.639 58.7106 105.983L58.7792 114.312C58.7813 114.599 58.9768 114.839 59.2409 114.91C59.2941 114.924 59.3502 114.931 59.4076 114.931C59.7516 114.928 60.0283 114.647 60.0255 114.302L59.9568 105.973C59.954 105.629 59.6731 105.352 59.3284 105.354Z" fill="#0B3558"/>
<path d="M59.4005 115.177C59.3248 115.177 59.2492 115.167 59.1763 115.147C58.8008 115.046 58.536 114.704 58.5332 114.315L58.4646 105.986C58.4625 105.754 58.5514 105.535 58.714 105.369C58.8765 105.204 59.0936 105.111 59.3262 105.11C59.5567 105.109 59.7773 105.196 59.9427 105.359C60.108 105.522 60.1998 105.739 60.2019 105.972L60.2705 114.301C60.2726 114.533 60.1836 114.752 60.0211 114.917C59.8586 115.083 59.6414 115.174 59.4089 115.177C59.4061 115.177 59.4033 115.177 59.4005 115.177ZM59.3304 105.6C59.2295 105.6 59.135 105.64 59.0635 105.713C58.9928 105.785 58.9542 105.88 58.9549 105.981L59.0236 114.31C59.025 114.48 59.1399 114.628 59.3031 114.673C59.336 114.682 59.3696 114.685 59.404 114.685C59.5055 114.685 59.6001 114.645 59.6709 114.572C59.7416 114.5 59.7801 114.405 59.7794 114.304L59.7108 105.975C59.7101 105.874 59.6702 105.779 59.598 105.708C59.5266 105.638 59.4327 105.598 59.3304 105.6Z" fill="#0B3558"/>
<path d="M278.833 197.141H238.832L242.465 154.552H275.199L278.833 197.141Z" fill="#9EBEE5"/>
<path d="M268.842 152.059C267.725 147.569 263.661 144.233 258.832 144.233C254.003 144.233 249.939 147.57 248.822 152.059C248.623 152.858 248.518 153.693 248.518 154.552H251.117C251.117 153.681 251.262 152.842 251.53 152.059C252.568 149.023 255.45 146.833 258.832 146.833C262.215 146.833 265.096 149.023 266.133 152.059C266.402 152.842 266.547 153.681 266.547 154.552H269.146C269.146 153.693 269.041 152.858 268.842 152.059Z" fill="#9EBEE5"/>
<g opacity="0.4">
<path d="M275.889 162.637C275.889 162.637 268.953 187.906 239.713 186.81L238.832 197.141H278.832L275.889 162.637Z" fill="#749DD3"/>
</g>
<g opacity="0.4">
<path d="M251.53 152.059C251.262 152.842 251.117 153.681 251.117 154.552H248.518C248.518 153.694 248.623 152.858 248.822 152.059H251.53Z" fill="#749DD3"/>
</g>
<g opacity="0.4">
<path d="M269.146 154.552H266.547C266.547 153.68 266.402 152.841 266.133 152.059H268.842C269.041 152.858 269.146 153.693 269.146 154.552Z" fill="#749DD3"/>
</g>
<path d="M211.363 139.525H214.675C214.675 138.414 214.86 137.345 215.201 136.349C216.524 132.48 220.195 129.69 224.505 129.69C228.815 129.69 232.486 132.48 233.808 136.349C234.15 137.345 234.335 138.414 234.335 139.525H237.647C237.647 138.431 237.514 137.366 237.259 136.349C235.836 130.627 230.658 126.376 224.505 126.376C218.352 126.376 213.173 130.627 211.751 136.349C211.497 137.366 211.363 138.431 211.363 139.525Z" fill="#749DD3"/>
<g opacity="0.2">
<path d="M233.809 136.349C234.151 137.345 234.335 138.414 234.335 139.525H237.647C237.647 138.431 237.514 137.366 237.259 136.349H233.809Z" fill="#749DD3"/>
</g>
<g opacity="0.2">
<path d="M211.363 139.525H214.675C214.675 138.414 214.86 137.345 215.201 136.349H211.751C211.497 137.366 211.363 138.431 211.363 139.525Z" fill="#749DD3"/>
</g>
<path d="M247.047 139.526H201.963V197.141H247.047V139.526Z" fill="#749DD3"/>
<path d="M192.053 197.141H237.137V139.525H192.053V197.141Z" fill="#9EBEE5"/>
<path opacity="0.4" d="M237.137 197.14H247.047L242.091 192.009L237.137 197.14Z" fill="#749DD3"/>
<path d="M224.129 151.509V163.163H232.804V151.509C232.804 151.391 232.757 151.278 232.674 151.195L228.781 147.297C228.777 147.294 228.773 147.291 228.77 147.288V139.526H228.164V147.288C228.161 147.291 228.157 147.294 228.153 147.297L224.26 151.195C224.175 151.278 224.129 151.391 224.129 151.509ZM228.585 148.668C228.823 148.713 229.015 148.906 229.06 149.144C229.141 149.571 228.775 149.937 228.348 149.857C228.11 149.812 227.918 149.619 227.872 149.381C227.792 148.954 228.158 148.587 228.585 148.668Z" fill="white"/>
<path d="M226.838 154.014C226.204 154.014 225.654 154.377 225.386 154.908C225.354 154.97 225.327 155.033 225.304 155.099C224.499 157.304 228.466 159.778 228.466 159.778V155.642C228.466 154.743 227.737 154.014 226.838 154.014Z" fill="#9EBEE5"/>
<path d="M230.094 154.014C230.729 154.014 231.279 154.377 231.547 154.908C231.579 154.97 231.606 155.033 231.629 155.099C232.434 157.303 228.466 159.778 228.466 159.778V155.642C228.466 154.743 229.195 154.014 230.094 154.014Z" fill="#749DD3"/>
<path opacity="0.2" d="M237.136 197.14H242.092V139.525H237.136V197.14Z" fill="#749DD3"/>
<path d="M201.452 139.525H204.764C204.764 138.414 204.949 137.345 205.291 136.349C206.614 132.48 210.284 129.69 214.595 129.69C218.904 129.69 222.576 132.48 223.898 136.349C224.24 137.345 224.425 138.414 224.425 139.525H227.737C227.737 138.431 227.603 137.366 227.349 136.349C225.926 130.627 220.748 126.376 214.595 126.376C208.441 126.376 203.263 130.627 201.84 136.349C201.587 137.366 201.452 138.431 201.452 139.525Z" fill="#9EBEE5"/>
<g opacity="0.4">
<path d="M223.898 136.349C224.24 137.345 224.425 138.414 224.425 139.525H227.737C227.737 138.431 227.603 137.366 227.349 136.349H223.898Z" fill="#749DD3"/>
</g>
<g opacity="0.4">
<path d="M201.452 139.525H204.764C204.764 138.414 204.949 137.345 205.291 136.349H201.841C201.587 137.366 201.452 138.431 201.452 139.525Z" fill="#749DD3"/>
</g>
<path opacity="0.4" d="M237.137 145.569C237.137 145.569 236.984 197.141 196.336 197.141L237.137 197.141V145.569Z" fill="#749DD3"/>
<path d="M22.2652 139.869L25.4497 141.612L22.2652 143.355L20.523 146.541L18.7808 143.355L15.5956 141.612L18.7808 139.869L20.523 136.682L22.2652 139.869Z" fill="#C8DEF4"/>
<path d="M12.5791 151.091L14.1714 151.962L12.5791 152.834L11.7077 154.427L10.837 152.834L9.24469 151.962L10.837 151.091L11.7077 149.498L12.5791 151.091Z" fill="#C8DEF4"/>
<path d="M258.72 54.3104L262.14 56.1818L258.72 58.0531L256.85 61.4755L254.978 58.0531L251.559 56.1818L254.978 54.3104L256.85 50.8881L258.72 54.3104Z" fill="#C8DEF4"/>
<path d="M24.748 197.14H170.787C171.565 197.14 172.196 197.78 172.196 198.57C172.196 199.359 171.566 199.999 170.787 199.999H24.7977C24.0488 199.999 23.3932 199.427 23.3434 198.668C23.3147 198.235 23.4772 197.839 23.7525 197.557C24.0068 197.3 24.3599 197.14 24.748 197.14Z" fill="#0B3558"/>
<path d="M289 198.571C289 198.966 288.84 199.322 288.582 199.582C288.322 199.84 287.966 200 287.572 200H181.806C181.017 200 180.377 199.36 180.377 198.57C180.377 197.78 181.017 197.141 181.806 197.141H287.572C288.36 197.14 289 197.78 289 198.571Z" fill="#0B3558"/>
<path d="M15.3161 199.999H1.42905C0.640272 199.999 0 199.359 0 198.57C0 197.78 0.639571 197.14 1.42905 197.14H15.3161C16.1049 197.14 16.7451 197.78 16.7451 198.57C16.7444 199.359 16.1049 199.999 15.3161 199.999Z" fill="#0B3558"/>
<path d="M69.6873 47.2029V38.5702C69.6873 37.9142 69.1556 37.3822 68.4999 37.3822C67.8442 37.3822 67.3126 37.9142 67.3126 38.5702V47.2029C67.3126 47.8589 67.8442 48.3909 68.4999 48.3909C69.1556 48.3909 69.6873 47.8589 69.6873 47.2029Z" fill="#749DD3"/>
<path d="M58.7368 58.159C58.7368 57.503 58.2051 56.971 57.5495 56.971H48.9212C48.2655 56.971 47.7338 57.503 47.7338 58.159C47.7338 58.815 48.2655 59.347 48.9212 59.347H57.5495C58.2051 59.3477 58.7368 58.8157 58.7368 58.159Z" fill="#749DD3"/>
<path d="M61.77 50.2376C61.77 49.9334 61.6537 49.6293 61.4219 49.3973L55.4948 43.4672C55.0311 43.0032 54.2787 43.0032 53.815 43.4672C53.3512 43.9311 53.3512 44.6839 53.815 45.1479L59.742 51.078C60.2058 51.5419 60.9581 51.5419 61.4219 51.078C61.6544 50.846 61.77 50.5418 61.77 50.2376Z" fill="#749DD3"/>
</svg>
