<svg width="14" height="16" viewBox="0 0 14 16" fill="none" xmlns="http://www.w3.org/2000/svg">
<path d="M7.33333 13.3333C8.21706 13.3323 9.06429 12.9807 9.68918 12.3559C10.3141 11.731 10.6656 10.8837 10.6667 10V4.16201C10.6677 3.81158 10.5992 3.46443 10.465 3.14069C10.3309 2.81694 10.1339 2.52304 9.88533 2.27601L8.39066 0.781344C8.14363 0.532794 7.84973 0.335747 7.52598 0.201625C7.20224 0.0675032 6.85509 -0.0010253 6.50466 1.15931e-05H3.33333C2.4496 0.00107016 1.60237 0.352599 0.977479 0.977491C0.352588 1.60238 0.00105857 2.44961 0 3.33334V10C0.00105857 10.8837 0.352588 11.731 0.977479 12.3559C1.60237 12.9807 2.4496 13.3323 3.33333 13.3333H7.33333ZM1.33333 10V3.33334C1.33333 2.80291 1.54405 2.2942 1.91912 1.91913C2.29419 1.54406 2.8029 1.33334 3.33333 1.33334C3.33333 1.33334 6.61266 1.34268 6.66666 1.34934V2.66668C6.66666 3.0203 6.80714 3.35944 7.05719 3.60948C7.30723 3.85953 7.64637 4.00001 7.99999 4.00001H9.31733C9.32399 4.05401 9.33333 10 9.33333 10C9.33333 10.5304 9.12261 11.0391 8.74754 11.4142C8.37247 11.7893 7.86376 12 7.33333 12H3.33333C2.8029 12 2.29419 11.7893 1.91912 11.4142C1.54405 11.0391 1.33333 10.5304 1.33333 10ZM13.3333 5.33334V12.6667C13.3323 13.5504 12.9807 14.3976 12.3558 15.0225C11.731 15.6474 10.8837 15.9989 9.99999 16H4C3.82319 16 3.65362 15.9298 3.52859 15.8047C3.40357 15.6797 3.33333 15.5101 3.33333 15.3333C3.33333 15.1565 3.40357 14.987 3.52859 14.8619C3.65362 14.7369 3.82319 14.6667 4 14.6667H9.99999C10.5304 14.6667 11.0391 14.456 11.4142 14.0809C11.7893 13.7058 12 13.1971 12 12.6667V5.33334C12 5.15653 12.0702 4.98696 12.1953 4.86194C12.3203 4.73691 12.4898 4.66668 12.6667 4.66668C12.8435 4.66668 13.013 4.73691 13.1381 4.86194C13.2631 4.98696 13.3333 5.15653 13.3333 5.33334Z" fill="#A0ACBE"/>
</svg>
