<svg width="40" height="40" viewBox="0 0 40 40" fill="none" xmlns="http://www.w3.org/2000/svg">
<path d="M0 8C0 3.58172 3.58172 0 8 0H32C36.4183 0 40 3.58172 40 8V32C40 36.4183 36.4183 40 32 40H8C3.58172 40 0 36.4183 0 32V8Z" fill="#A0ACBE"/>
<path d="M13 15.2C13 14.0955 13.8954 13.2 15 13.2H26C27.1046 13.2 28 14.0955 28 15.2V26C28 27.1046 27.1046 28 26 28H15C13.8954 28 13 27.1046 13 26V15.2Z" stroke="#0B3558" stroke-width="1.5"/>
<path d="M13 17.6H28" stroke="#0B3558" stroke-width="1.5" stroke-linecap="round"/>
<path d="M17.1665 12L17.1665 14.4" stroke="#0B3558" stroke-width="1.5" stroke-linecap="round" stroke-linejoin="round"/>
<path d="M23.8333 12V14.4" stroke="#0B3558" stroke-width="1.5" stroke-linecap="round" stroke-linejoin="round"/>
<ellipse cx="20.5001" cy="22.4" rx="0.833333" ry="0.8" fill="#0B3558"/>
<ellipse cx="23.8333" cy="22.4" rx="0.833333" ry="0.8" fill="#0B3558"/>
<ellipse cx="17.1667" cy="22.4" rx="0.833333" ry="0.8" fill="#0B3558"/>
</svg>
