<svg width="32" height="32" viewBox="0 0 32 32" fill="none" xmlns="http://www.w3.org/2000/svg">
<path fill-rule="evenodd" clip-rule="evenodd" d="M16 32C24.8366 32 32 24.8366 32 16C32 7.16344 24.8366 0 16 0C7.16344 0 0 7.16344 0 16C0 24.8366 7.16344 32 16 32ZM23.3472 11.9368C23.7541 11.4136 23.6599 10.6597 23.1367 10.2528C22.6136 9.84595 21.8597 9.94019 21.4528 10.4633L15.0416 18.7063C14.899 18.8896 14.6309 18.9134 14.4583 18.758L10.4028 15.1081C9.91016 14.6648 9.15141 14.7047 8.70806 15.1973C8.26471 15.6899 8.30464 16.4487 8.79725 16.892L12.8527 20.542C14.061 21.6293 15.9381 21.4628 16.936 20.1798L23.3472 11.9368Z" fill="white"/>
</svg>
