<svg width="40" height="40" viewBox="0 0 40 40" fill="none" xmlns="http://www.w3.org/2000/svg">
<path d="M0 4C0 1.79086 1.79086 0 4 0H36C38.2091 0 40 1.79086 40 4V36C40 38.2091 38.2091 40 36 40H4C1.79086 40 0 38.2091 0 36V4Z" fill="#A0ACBE"/>
<path d="M12 15.6667H14.6667M14.6667 15.6667C14.6667 17.1394 15.8606 18.3333 17.3333 18.3333C18.8061 18.3333 20 17.1394 20 15.6667C20 14.1939 18.8061 13 17.3333 13C15.8606 13 14.6667 14.1939 14.6667 15.6667ZM12 24.5556H17.3333M25.3333 24.5556H28M25.3333 24.5556C25.3333 26.0283 24.1394 27.2222 22.6667 27.2222C21.1939 27.2222 20 26.0283 20 24.5556C20 23.0828 21.1939 21.8889 22.6667 21.8889C24.1394 21.8889 25.3333 23.0828 25.3333 24.5556ZM22.6667 15.6667H28" stroke="#374151" stroke-width="1.3" stroke-linecap="round"/>
</svg>
