<svg width="16" height="18" viewBox="0 0 16 18" fill="none" xmlns="http://www.w3.org/2000/svg">
<path d="M11.8974 5.44186H4.10257C3.76616 5.44186 3.48718 5.15721 3.48718 4.81395V3.13953C3.48718 0.996279 4.46359 0 6.56411 0H9.4359C11.5364 0 12.5128 0.996279 12.5128 3.13953V4.81395C12.5128 5.15721 12.2338 5.44186 11.8974 5.44186ZM4.71795 4.18605H11.2821V3.13953C11.2821 1.71628 10.8308 1.25581 9.4359 1.25581H6.56411C5.16923 1.25581 4.71795 1.71628 4.71795 3.13953V4.18605Z" fill="#374151"/>
<path d="M8.82049 18.0001H7.17946C5.19382 18.0001 4.10254 16.8866 4.10254 14.8605V11.5117C4.10254 11.1685 4.38151 10.8838 4.71792 10.8838H11.282C11.6184 10.8838 11.8974 11.1685 11.8974 11.5117V14.8605C11.8974 16.8866 10.8061 18.0001 8.82049 18.0001ZM5.33331 12.1396V14.8605C5.33331 16.1833 5.88305 16.7443 7.17946 16.7443H8.82049C10.1169 16.7443 10.6666 16.1833 10.6666 14.8605V12.1396H5.33331Z" fill="#374151"/>
<path d="M12.9231 14.6511H11.2821C10.9456 14.6511 10.6667 14.3665 10.6667 14.0232V12.1395H5.33333V14.0232C5.33333 14.3665 5.05436 14.6511 4.71795 14.6511H3.07692C1.09128 14.6511 0 13.5376 0 11.5116V7.32555C0 5.29951 1.09128 4.18602 3.07692 4.18602H12.9231C14.9087 4.18602 16 5.29951 16 7.32555V11.5116C16 13.5376 14.9087 14.6511 12.9231 14.6511ZM11.8974 13.3953H12.9231C14.2195 13.3953 14.7692 12.8344 14.7692 11.5116V7.32555C14.7692 6.00276 14.2195 5.44183 12.9231 5.44183H3.07692C1.78051 5.44183 1.23077 6.00276 1.23077 7.32555V11.5116C1.23077 12.8344 1.78051 13.3953 3.07692 13.3953H4.10256V11.5116C4.10256 11.1683 4.38154 10.8837 4.71795 10.8837H11.2821C11.6185 10.8837 11.8974 11.1683 11.8974 11.5116V13.3953Z" fill="#374151"/>
<path d="M12.1025 12.1396H3.89737C3.56096 12.1396 3.28198 11.855 3.28198 11.5117C3.28198 11.1685 3.56096 10.8838 3.89737 10.8838H12.1025C12.4389 10.8838 12.7179 11.1685 12.7179 11.5117C12.7179 11.855 12.4389 12.1396 12.1025 12.1396Z" fill="#374151"/>
<path d="M6.35891 8.7906H3.89737C3.56096 8.7906 3.28198 8.50595 3.28198 8.1627C3.28198 7.81944 3.56096 7.53479 3.89737 7.53479H6.35891C6.69532 7.53479 6.97429 7.81944 6.97429 8.1627C6.97429 8.50595 6.69532 8.7906 6.35891 8.7906Z" fill="#374151"/>
</svg>
