<svg width="155" height="40" viewBox="0 0 155 40" fill="none" xmlns="http://www.w3.org/2000/svg">
<rect width="155" height="40" rx="4" fill="#0050A6"/>
<path d="M26 30C20.4837 30 16 25.5163 16 20C16 14.4837 20.4837 10 26 10C31.5163 10 36 14.4837 36 20C36 25.5163 31.5163 30 26 30ZM26 11.3953C21.2558 11.3953 17.3953 15.2558 17.3953 20C17.3953 24.7442 21.2558 28.6047 26 28.6047C30.7442 28.6047 34.6047 24.7442 34.6047 20C34.6047 15.2558 30.7442 11.3953 26 11.3953Z" fill="white"/>
<path d="M29.7211 20.6977H22.2792C21.8978 20.6977 21.5815 20.3814 21.5815 20C21.5815 19.6186 21.8978 19.3023 22.2792 19.3023H29.7211C30.1025 19.3023 30.4188 19.6186 30.4188 20C30.4188 20.3814 30.1025 20.6977 29.7211 20.6977Z" fill="white"/>
<path d="M25.9999 24.4186C25.6185 24.4186 25.3022 24.1023 25.3022 23.7209V16.2791C25.3022 15.8977 25.6185 15.5814 25.9999 15.5814C26.3813 15.5814 26.6976 15.8977 26.6976 16.2791V23.7209C26.6976 24.1023 26.3813 24.4186 25.9999 24.4186Z" fill="white"/>
<path d="M47.1719 16.1133H44.3691V14.9785H51.1641V16.1133H48.3613V25H47.1719V16.1133ZM53.2832 24.918C52.8639 24.7083 52.5449 24.4258 52.3262 24.0703C52.1074 23.7148 51.998 23.3047 51.998 22.8398C51.998 22.0833 52.2806 21.4954 52.8457 21.0762C53.429 20.6478 54.1491 20.4336 55.0059 20.4336C55.4525 20.4336 55.8535 20.4792 56.209 20.5703C56.5736 20.6615 56.8516 20.7708 57.043 20.8984V20.4609C57.043 19.9414 56.8607 19.5176 56.4961 19.1895C56.1315 18.8613 55.6576 18.6973 55.0742 18.6973C54.6823 18.6973 54.3177 18.7839 53.9805 18.957C53.625 19.1393 53.3561 19.3809 53.1738 19.6816L52.2715 19.0117C52.5449 18.5924 52.9323 18.2552 53.4336 18C53.9258 17.7539 54.4727 17.6309 55.0742 17.6309C56.0404 17.6309 56.8014 17.8861 57.3574 18.3965C57.9043 18.8978 58.1777 19.5905 58.1777 20.4746V25H57.043V23.9746H56.9883C56.7786 24.3301 56.4733 24.6263 56.0723 24.8633C55.6803 25.1003 55.2155 25.2188 54.6777 25.2188C54.1491 25.2188 53.6842 25.1185 53.2832 24.918ZM55.9219 23.8652C56.2682 23.6556 56.5417 23.3822 56.7422 23.0449C56.9427 22.7077 57.043 22.3294 57.043 21.9102C56.8242 21.7643 56.5508 21.6413 56.2227 21.541C55.9128 21.4499 55.5664 21.4043 55.1836 21.4043C54.5273 21.4043 54.0352 21.541 53.707 21.8145C53.3789 22.0879 53.2148 22.4342 53.2148 22.8535C53.2148 23.2454 53.3652 23.5645 53.666 23.8105C53.9668 24.0566 54.3451 24.1797 54.8008 24.1797C55.2018 24.1797 55.5755 24.0749 55.9219 23.8652ZM54.623 27.4609C54.4772 27.3151 54.4043 27.1374 54.4043 26.9277C54.4043 26.709 54.4772 26.5312 54.623 26.3945C54.778 26.2578 54.9557 26.1895 55.1562 26.1895C55.375 26.1895 55.5527 26.2578 55.6895 26.3945C55.8353 26.5404 55.9082 26.7181 55.9082 26.9277C55.9082 27.1191 55.8353 27.2969 55.6895 27.4609C55.5527 27.6159 55.375 27.6934 55.1562 27.6934C54.9557 27.6934 54.778 27.6159 54.623 27.4609ZM61.2266 24.7266C60.6706 24.3893 60.2331 23.929 59.9141 23.3457C59.6042 22.7806 59.4492 22.1426 59.4492 21.4316C59.4492 20.7207 59.6042 20.0827 59.9141 19.5176C60.2331 18.9342 60.6706 18.474 61.2266 18.1367C61.7826 17.7995 62.4115 17.6309 63.1133 17.6309C63.8151 17.6309 64.444 17.7995 65 18.1367C65.556 18.474 65.9935 18.9342 66.3125 19.5176C66.6224 20.0827 66.7773 20.7207 66.7773 21.4316C66.7773 22.1426 66.6224 22.7806 66.3125 23.3457C65.9935 23.929 65.556 24.3893 65 24.7266C64.4622 25.0547 63.8333 25.2188 63.1133 25.2188C62.3932 25.2188 61.7643 25.0547 61.2266 24.7266ZM64.3438 23.8105C64.7083 23.6009 65.0091 23.2865 65.2461 22.8672C65.474 22.4661 65.5879 21.9876 65.5879 21.4316C65.5879 20.8665 65.474 20.3835 65.2461 19.9824C65.0091 19.5632 64.7083 19.2487 64.3438 19.0391C63.9609 18.8203 63.5508 18.7109 63.1133 18.7109C62.6758 18.7109 62.2656 18.8203 61.8828 19.0391C61.5091 19.2578 61.2038 19.5723 60.9668 19.9824C60.7389 20.3835 60.625 20.8665 60.625 21.4316C60.625 21.9876 60.7389 22.4661 60.9668 22.8672C61.2038 23.2773 61.5091 23.5918 61.8828 23.8105C62.2839 24.0384 62.694 24.1523 63.1133 24.1523C63.5326 24.1523 63.9427 24.0384 64.3438 23.8105ZM78.959 16.8379H78.0703V25H76.9355V23.9473H76.8809C76.6712 24.2936 76.3431 24.5944 75.8965 24.8496C75.4681 25.0957 74.985 25.2188 74.4473 25.2188C73.7819 25.2188 73.1986 25.0592 72.6973 24.7402C72.1868 24.4212 71.7812 23.9701 71.4805 23.3867C71.1797 22.8125 71.0293 22.1608 71.0293 21.4316C71.0293 20.7116 71.1797 20.0645 71.4805 19.4902C71.7904 18.8978 72.196 18.4421 72.6973 18.123C73.2168 17.7949 73.8001 17.6309 74.4473 17.6309C74.9759 17.6309 75.459 17.7585 75.8965 18.0137C76.3431 18.278 76.6712 18.5833 76.8809 18.9297H76.9355L76.8809 17.9727V16.8379H74.7207V15.8945H76.8809V14.9785H78.0703V15.8945H78.959V16.8379ZM75.7324 23.8105C76.097 23.5918 76.3887 23.2728 76.6074 22.8535C76.8262 22.4434 76.9355 21.9694 76.9355 21.4316C76.9355 20.8848 76.8262 20.4062 76.6074 19.9961C76.3887 19.5951 76.097 19.2806 75.7324 19.0527C75.3587 18.8249 74.9714 18.7109 74.5703 18.7109C74.1784 18.7109 73.791 18.8249 73.4082 19.0527C73.0527 19.2624 72.7611 19.5814 72.5332 20.0098C72.3145 20.4199 72.2051 20.8939 72.2051 21.4316C72.2051 21.9694 72.3145 22.4434 72.5332 22.8535C72.7611 23.2819 73.0527 23.6009 73.4082 23.8105C73.791 24.0384 74.1784 24.1523 74.5703 24.1523C74.9714 24.1523 75.3587 24.0384 75.7324 23.8105ZM80.5312 16.5508C80.3034 16.5508 80.1029 16.4642 79.9297 16.291C79.7565 16.1178 79.6699 15.9173 79.6699 15.6895C79.6699 15.4525 79.7565 15.2474 79.9297 15.0742C80.0846 14.9193 80.2852 14.8418 80.5312 14.8418C80.7773 14.8418 80.9779 14.9193 81.1328 15.0742C81.2969 15.2383 81.3789 15.4434 81.3789 15.6895C81.3789 15.9264 81.2969 16.127 81.1328 16.291C80.9596 16.4642 80.7591 16.5508 80.5312 16.5508ZM79.9434 17.8633H81.1328V25H79.9434V17.8633ZM80.5312 27.6934C80.3307 27.6934 80.153 27.6159 79.998 27.4609C79.8431 27.306 79.7656 27.1283 79.7656 26.9277C79.7656 26.709 79.8431 26.5312 79.998 26.3945C80.153 26.2578 80.3307 26.1895 80.5312 26.1895C80.75 26.1895 80.9277 26.2578 81.0645 26.3945C81.2012 26.5312 81.2695 26.709 81.2695 26.9277C81.2695 27.1374 81.2012 27.3151 81.0645 27.4609C80.9277 27.6159 80.75 27.6934 80.5312 27.6934ZM83.8672 24.918C83.4479 24.7083 83.1289 24.4258 82.9102 24.0703C82.6914 23.7148 82.582 23.3047 82.582 22.8398C82.582 22.0833 82.8646 21.4954 83.4297 21.0762C84.013 20.6478 84.7331 20.4336 85.5898 20.4336C86.0365 20.4336 86.4375 20.4792 86.793 20.5703C87.1576 20.6615 87.4355 20.7708 87.627 20.8984V20.4609C87.627 19.9414 87.4447 19.5176 87.0801 19.1895C86.7155 18.8613 86.2415 18.6973 85.6582 18.6973C85.2663 18.6973 84.9017 18.7839 84.5645 18.957C84.209 19.1393 83.9401 19.3809 83.7578 19.6816L82.8555 19.0117C83.1289 18.5924 83.5163 18.2552 84.0176 18C84.5098 17.7539 85.0566 17.6309 85.6582 17.6309C86.6243 17.6309 87.3854 17.8861 87.9414 18.3965C88.4883 18.8978 88.7617 19.5905 88.7617 20.4746V25H87.627V23.9746H87.5723C87.3626 24.3301 87.0573 24.6263 86.6562 24.8633C86.2643 25.1003 85.7995 25.2188 85.2617 25.2188C84.7331 25.2188 84.2682 25.1185 83.8672 24.918ZM86.5059 23.8652C86.8522 23.6556 87.1257 23.3822 87.3262 23.0449C87.5267 22.7077 87.627 22.3294 87.627 21.9102C87.4082 21.7643 87.1348 21.6413 86.8066 21.541C86.4967 21.4499 86.1504 21.4043 85.7676 21.4043C85.1113 21.4043 84.6191 21.541 84.291 21.8145C83.9629 22.0879 83.7988 22.4342 83.7988 22.8535C83.7988 23.2454 83.9492 23.5645 84.25 23.8105C84.5508 24.0566 84.929 24.1797 85.3848 24.1797C85.7858 24.1797 86.1595 24.0749 86.5059 23.8652ZM95.0234 24.7266C94.4857 24.3984 94.0573 23.9473 93.7383 23.373C93.4284 22.8079 93.2734 22.1608 93.2734 21.4316C93.2734 20.7025 93.4284 20.0553 93.7383 19.4902C94.0664 18.8978 94.4948 18.4421 95.0234 18.123C95.5703 17.7949 96.1901 17.6309 96.8828 17.6309C97.6393 17.6309 98.291 17.8132 98.8379 18.1777C99.3665 18.5332 99.7402 19.0117 99.959 19.6133L98.8789 20.0645C98.6966 19.6087 98.4368 19.2715 98.0996 19.0527C97.7533 18.8249 97.3294 18.7109 96.8281 18.7109C96.4089 18.7109 96.0169 18.8249 95.6523 19.0527C95.2878 19.2806 94.9961 19.5996 94.7773 20.0098C94.5586 20.4199 94.4492 20.8939 94.4492 21.4316C94.4492 21.9603 94.5586 22.4297 94.7773 22.8398C94.9961 23.25 95.2878 23.569 95.6523 23.7969C96.026 24.0339 96.418 24.1523 96.8281 24.1523C97.3203 24.1523 97.7533 24.0339 98.127 23.7969C98.4915 23.569 98.765 23.2363 98.9473 22.7988L100 23.25C99.7539 23.8333 99.3665 24.3073 98.8379 24.6719C98.3092 25.0365 97.6576 25.2188 96.8828 25.2188C96.1901 25.2188 95.5703 25.0547 95.0234 24.7266ZM101.299 14.9785H102.488V17.9316L102.42 18.916H102.488C102.671 18.5605 102.98 18.2552 103.418 18C103.837 17.7539 104.302 17.6309 104.812 17.6309C105.678 17.6309 106.339 17.8861 106.795 18.3965C107.251 18.9069 107.479 19.5814 107.479 20.4199V25H106.289V20.5977C106.289 19.9596 106.125 19.4857 105.797 19.1758C105.478 18.8659 105.054 18.7109 104.525 18.7109C104.17 18.7109 103.828 18.8249 103.5 19.0527C103.19 19.2715 102.944 19.5586 102.762 19.9141C102.579 20.2786 102.488 20.6478 102.488 21.0215V25H101.299V14.9785ZM109.297 17.8633H110.486V25H109.297V17.8633ZM109.324 16.2227C109.607 16.1406 109.812 16.0449 109.939 15.9355C110.067 15.8262 110.131 15.6803 110.131 15.498C110.131 15.3431 110.076 15.2155 109.967 15.1152C109.867 15.0241 109.712 14.9785 109.502 14.9785C109.247 14.9785 108.992 15.0332 108.736 15.1426L108.49 14.3906C108.846 14.2357 109.219 14.1582 109.611 14.1582C110.076 14.1582 110.432 14.2676 110.678 14.4863C110.933 14.7142 111.061 15.0332 111.061 15.4434C111.061 15.8809 110.924 16.2227 110.65 16.4688C110.359 16.7331 109.985 16.8971 109.529 16.9609L109.324 16.2227ZM115.6 17.8633H116.721V18.916H116.789C116.99 18.5514 117.295 18.2461 117.705 18C118.115 17.7539 118.548 17.6309 119.004 17.6309C119.514 17.6309 119.97 17.7585 120.371 18.0137C120.763 18.2689 121.041 18.6061 121.205 19.0254C121.451 18.6061 121.784 18.2689 122.203 18.0137C122.632 17.7585 123.115 17.6309 123.652 17.6309C124.482 17.6309 125.102 17.8815 125.512 18.3828C125.931 18.9023 126.141 19.5814 126.141 20.4199V25H124.965V20.5977C124.965 19.9414 124.828 19.4629 124.555 19.1621C124.281 18.8613 123.88 18.7109 123.352 18.7109C122.996 18.7109 122.673 18.8158 122.381 19.0254C122.089 19.235 121.861 19.5085 121.697 19.8457C121.542 20.1647 121.465 20.5384 121.465 20.9668V25H120.275V20.6113C120.275 19.946 120.139 19.4629 119.865 19.1621C119.592 18.8613 119.195 18.7109 118.676 18.7109C118.32 18.7109 117.997 18.8158 117.705 19.0254C117.413 19.235 117.186 19.5176 117.021 19.873C116.867 20.2103 116.789 20.584 116.789 20.9941V25H115.6V17.8633ZM129.258 24.7266C128.702 24.3893 128.264 23.929 127.945 23.3457C127.635 22.7806 127.48 22.1426 127.48 21.4316C127.48 20.7207 127.635 20.0827 127.945 19.5176C128.264 18.9342 128.702 18.474 129.258 18.1367C129.814 17.7995 130.443 17.6309 131.145 17.6309C131.382 17.6309 131.746 17.6719 132.238 17.7539C132.676 17.8268 133.008 17.8633 133.236 17.8633C133.528 17.8633 133.742 17.8177 133.879 17.7266C133.997 17.6445 134.057 17.5033 134.057 17.3027V16.3457H135.014V17.3027C135.014 17.7129 134.923 18.0456 134.74 18.3008C134.558 18.5469 134.289 18.6699 133.934 18.6699C133.833 18.6699 133.738 18.6562 133.646 18.6289V18.6836C134.421 19.3672 134.809 20.2832 134.809 21.4316C134.809 22.1426 134.654 22.7806 134.344 23.3457C134.025 23.929 133.587 24.3893 133.031 24.7266C132.493 25.0547 131.865 25.2188 131.145 25.2188C130.424 25.2188 129.796 25.0547 129.258 24.7266ZM132.375 23.8105C132.74 23.6009 133.04 23.2865 133.277 22.8672C133.505 22.4661 133.619 21.9876 133.619 21.4316C133.619 20.8665 133.505 20.3835 133.277 19.9824C133.04 19.5632 132.74 19.2487 132.375 19.0391C131.992 18.8203 131.582 18.7109 131.145 18.7109C130.707 18.7109 130.297 18.8203 129.914 19.0391C129.54 19.2578 129.235 19.5723 128.998 19.9824C128.77 20.3835 128.656 20.8665 128.656 21.4316C128.656 21.9876 128.77 22.4661 128.998 22.8672C129.235 23.2773 129.54 23.5918 129.914 23.8105C130.315 24.0384 130.725 24.1523 131.145 24.1523C131.564 24.1523 131.974 24.0384 132.375 23.8105ZM131.363 14.6914H132.662L131.664 16.4688H130.625L131.363 14.6914ZM136.9 16.5508C136.673 16.5508 136.472 16.4642 136.299 16.291C136.126 16.1178 136.039 15.9173 136.039 15.6895C136.039 15.4525 136.126 15.2474 136.299 15.0742C136.454 14.9193 136.654 14.8418 136.9 14.8418C137.146 14.8418 137.347 14.9193 137.502 15.0742C137.666 15.2383 137.748 15.4434 137.748 15.6895C137.748 15.9264 137.666 16.127 137.502 16.291C137.329 16.4642 137.128 16.5508 136.9 16.5508ZM136.312 17.8633H137.502V25H136.312V17.8633Z" fill="white"/>
</svg>
