<svg width="184" height="40" viewBox="0 0 184 40" fill="none" xmlns="http://www.w3.org/2000/svg">
<rect width="184" height="40" rx="4" fill="#0050A6"/>
<path d="M26 30C20.4837 30 16 25.5163 16 20C16 14.4837 20.4837 10 26 10C31.5163 10 36 14.4837 36 20C36 25.5163 31.5163 30 26 30ZM26 11.3953C21.2558 11.3953 17.3953 15.2558 17.3953 20C17.3953 24.7442 21.2558 28.6047 26 28.6047C30.7442 28.6047 34.6047 24.7442 34.6047 20C34.6047 15.2558 30.7442 11.3953 26 11.3953Z" fill="white"/>
<path d="M29.7208 20.6977H22.279C21.8976 20.6977 21.5813 20.3814 21.5813 20C21.5813 19.6186 21.8976 19.3024 22.279 19.3024H29.7208C30.1022 19.3024 30.4185 19.6186 30.4185 20C30.4185 20.3814 30.1022 20.6977 29.7208 20.6977Z" fill="white"/>
<path d="M25.9999 24.4186C25.6185 24.4186 25.3022 24.1024 25.3022 23.721V16.2791C25.3022 15.8977 25.6185 15.5814 25.9999 15.5814C26.3813 15.5814 26.6976 15.8977 26.6976 16.2791V23.721C26.6976 24.1024 26.3813 24.4186 25.9999 24.4186Z" fill="white"/>
<path d="M47.1719 16.1133H44.3691V14.9785H51.1641V16.1133H48.3613V25H47.1719V16.1133ZM52.4082 14.9785H53.5977V17.9316L53.5293 18.916H53.5977C53.7799 18.5605 54.0898 18.2552 54.5273 18C54.9466 17.7539 55.4115 17.6309 55.9219 17.6309C56.7878 17.6309 57.4486 17.8861 57.9043 18.3965C58.36 18.9069 58.5879 19.5814 58.5879 20.4199V25H57.3984V20.5977C57.3984 19.9596 57.2344 19.4857 56.9062 19.1758C56.5872 18.8659 56.1634 18.7109 55.6348 18.7109C55.2793 18.7109 54.9375 18.8249 54.6094 19.0527C54.2995 19.2715 54.0534 19.5586 53.8711 19.9141C53.6888 20.2786 53.5977 20.6478 53.5977 21.0215V25H52.4082V14.9785ZM61.6367 24.7402C61.0898 24.4121 60.666 23.9609 60.3652 23.3867C60.0645 22.8125 59.9141 22.1654 59.9141 21.4453C59.9141 20.7526 60.0553 20.1191 60.3379 19.5449C60.6296 18.9525 61.0352 18.4876 61.5547 18.1504C62.0924 17.804 62.6986 17.6309 63.373 17.6309C64.0566 17.6309 64.6628 17.7904 65.1914 18.1094C65.7018 18.4193 66.0938 18.8477 66.3672 19.3945C66.6497 19.9596 66.791 20.5931 66.791 21.2949C66.791 21.3496 66.7819 21.4681 66.7637 21.6504H61.1035C61.1309 22.1973 61.263 22.6576 61.5 23.0312C61.7279 23.3867 62.0241 23.6647 62.3887 23.8652C62.7441 24.0566 63.1178 24.1523 63.5098 24.1523C64.4395 24.1523 65.1458 23.7194 65.6289 22.8535L66.627 23.3457C66.3262 23.9199 65.9115 24.3757 65.3828 24.7129C64.8542 25.0501 64.2161 25.2188 63.4688 25.2188C62.776 25.2188 62.1654 25.0592 61.6367 24.7402ZM65.5195 20.6797C65.5104 20.3789 65.4284 20.0781 65.2734 19.7773C65.1276 19.4857 64.8952 19.235 64.5762 19.0254C64.2572 18.8158 63.8561 18.7109 63.373 18.7109C62.8262 18.7109 62.3477 18.8932 61.9375 19.2578C61.5547 19.6042 61.2995 20.0781 61.1719 20.6797H65.5195ZM61.4316 16.332L62.8672 14.6914H63.9199L65.3418 16.332V16.4004H64.1934L63.4414 15.5117H63.332L62.5801 16.4004H61.4316V16.332ZM68.1719 17.8633H69.293V18.916H69.3613C69.5618 18.5514 69.8672 18.2461 70.2773 18C70.6875 17.7539 71.1204 17.6309 71.5762 17.6309C72.0866 17.6309 72.5423 17.7585 72.9434 18.0137C73.3353 18.2689 73.6133 18.6061 73.7773 19.0254C74.0234 18.6061 74.3561 18.2689 74.7754 18.0137C75.2038 17.7585 75.6868 17.6309 76.2246 17.6309C77.054 17.6309 77.6738 17.8815 78.084 18.3828C78.5033 18.9023 78.7129 19.5814 78.7129 20.4199V25H77.5371V20.5977C77.5371 19.9414 77.4004 19.4629 77.127 19.1621C76.8535 18.8613 76.4525 18.7109 75.9238 18.7109C75.5684 18.7109 75.2448 18.8158 74.9531 19.0254C74.6615 19.235 74.4336 19.5085 74.2695 19.8457C74.1146 20.1647 74.0371 20.5384 74.0371 20.9668V25H72.8477V20.6113C72.8477 19.946 72.7109 19.4629 72.4375 19.1621C72.1641 18.8613 71.7676 18.7109 71.248 18.7109C70.8926 18.7109 70.569 18.8158 70.2773 19.0254C69.9857 19.235 69.7578 19.5176 69.5938 19.873C69.4388 20.2103 69.3613 20.584 69.3613 20.9941V25H68.1719V17.8633ZM83.6758 17.8633H84.7969V18.916H84.8652C85.0658 18.5514 85.3711 18.2461 85.7812 18C86.1914 17.7539 86.6243 17.6309 87.0801 17.6309C87.5905 17.6309 88.0462 17.7585 88.4473 18.0137C88.8392 18.2689 89.1172 18.6061 89.2812 19.0254C89.5273 18.6061 89.86 18.2689 90.2793 18.0137C90.7077 17.7585 91.1908 17.6309 91.7285 17.6309C92.5579 17.6309 93.1777 17.8815 93.5879 18.3828C94.0072 18.9023 94.2168 19.5814 94.2168 20.4199V25H93.041V20.5977C93.041 19.9414 92.9043 19.4629 92.6309 19.1621C92.3574 18.8613 91.9564 18.7109 91.4277 18.7109C91.0723 18.7109 90.7487 18.8158 90.457 19.0254C90.1654 19.235 89.9375 19.5085 89.7734 19.8457C89.6185 20.1647 89.541 20.5384 89.541 20.9668V25H88.3516V20.6113C88.3516 19.946 88.2148 19.4629 87.9414 19.1621C87.668 18.8613 87.2715 18.7109 86.752 18.7109C86.3965 18.7109 86.0729 18.8158 85.7812 19.0254C85.4896 19.235 85.2617 19.5176 85.0977 19.873C84.9427 20.2103 84.8652 20.584 84.8652 20.9941V25H83.6758V17.8633ZM97.334 24.7266C96.778 24.3893 96.3405 23.929 96.0215 23.3457C95.7116 22.7806 95.5566 22.1426 95.5566 21.4316C95.5566 20.7207 95.7116 20.0827 96.0215 19.5176C96.3405 18.9342 96.778 18.474 97.334 18.1367C97.89 17.7995 98.5189 17.6309 99.2207 17.6309C99.4577 17.6309 99.8223 17.6719 100.314 17.7539C100.752 17.8268 101.085 17.8633 101.312 17.8633C101.604 17.8633 101.818 17.8177 101.955 17.7266C102.074 17.6445 102.133 17.5033 102.133 17.3027V16.3457H103.09V17.3027C103.09 17.7129 102.999 18.0456 102.816 18.3008C102.634 18.5469 102.365 18.6699 102.01 18.6699C101.91 18.6699 101.814 18.6562 101.723 18.6289V18.6836C102.497 19.3672 102.885 20.2832 102.885 21.4316C102.885 22.1426 102.73 22.7806 102.42 23.3457C102.101 23.929 101.663 24.3893 101.107 24.7266C100.57 25.0547 99.9408 25.2188 99.2207 25.2188C98.5007 25.2188 97.8717 25.0547 97.334 24.7266ZM100.451 23.8105C100.816 23.6009 101.117 23.2865 101.354 22.8672C101.581 22.4661 101.695 21.9876 101.695 21.4316C101.695 20.8665 101.581 20.3835 101.354 19.9824C101.117 19.5632 100.816 19.2487 100.451 19.0391C100.068 18.8203 99.6582 18.7109 99.2207 18.7109C98.7832 18.7109 98.373 18.8203 97.9902 19.0391C97.6165 19.2578 97.3112 19.5723 97.0742 19.9824C96.8464 20.3835 96.7324 20.8665 96.7324 21.4316C96.7324 21.9876 96.8464 22.4661 97.0742 22.8672C97.3112 23.2773 97.6165 23.5918 97.9902 23.8105C98.3913 24.0384 98.8014 24.1523 99.2207 24.1523C99.64 24.1523 100.05 24.0384 100.451 23.8105ZM99.4395 14.6914H100.738L99.7402 16.4688H98.7012L99.4395 14.6914ZM104.977 16.5508C104.749 16.5508 104.548 16.4642 104.375 16.291C104.202 16.1178 104.115 15.9173 104.115 15.6895C104.115 15.4525 104.202 15.2474 104.375 15.0742C104.53 14.9193 104.73 14.8418 104.977 14.8418C105.223 14.8418 105.423 14.9193 105.578 15.0742C105.742 15.2383 105.824 15.4434 105.824 15.6895C105.824 15.9264 105.742 16.127 105.578 16.291C105.405 16.4642 105.204 16.5508 104.977 16.5508ZM104.389 17.8633H105.578V25H104.389V17.8633ZM112.605 24.9727C112.35 24.8724 112.145 24.7448 111.99 24.5898C111.617 24.2344 111.43 23.7467 111.43 23.127V18.9434H110.186V17.8633H111.43V15.8398H112.619V17.8633H114.369V18.9434H112.619V22.8262C112.619 23.2272 112.692 23.5189 112.838 23.7012C113.011 23.9017 113.271 24.002 113.617 24.002C113.918 24.002 114.178 23.9245 114.396 23.7695V24.9316C114.269 24.9954 114.128 25.041 113.973 25.0684C113.827 25.0957 113.64 25.1094 113.412 25.1094C113.111 25.1094 112.842 25.0638 112.605 24.9727ZM116.529 24.918C116.11 24.7083 115.791 24.4258 115.572 24.0703C115.354 23.7148 115.244 23.3047 115.244 22.8398C115.244 22.0833 115.527 21.4954 116.092 21.0762C116.675 20.6478 117.395 20.4336 118.252 20.4336C118.699 20.4336 119.1 20.4792 119.455 20.5703C119.82 20.6615 120.098 20.7708 120.289 20.8984V20.4609C120.289 19.9414 120.107 19.5176 119.742 19.1895C119.378 18.8613 118.904 18.6973 118.32 18.6973C117.928 18.6973 117.564 18.7839 117.227 18.957C116.871 19.1393 116.602 19.3809 116.42 19.6816L115.518 19.0117C115.791 18.5924 116.178 18.2552 116.68 18C117.172 17.7539 117.719 17.6309 118.32 17.6309C119.286 17.6309 120.048 17.8861 120.604 18.3965C121.15 18.8978 121.424 19.5905 121.424 20.4746V25H120.289V23.9746H120.234C120.025 24.3301 119.719 24.6263 119.318 24.8633C118.926 25.1003 118.462 25.2188 117.924 25.2188C117.395 25.2188 116.93 25.1185 116.529 24.918ZM119.168 23.8652C119.514 23.6556 119.788 23.3822 119.988 23.0449C120.189 22.7077 120.289 22.3294 120.289 21.9102C120.07 21.7643 119.797 21.6413 119.469 21.541C119.159 21.4499 118.812 21.4043 118.43 21.4043C117.773 21.4043 117.281 21.541 116.953 21.8145C116.625 22.0879 116.461 22.4342 116.461 22.8535C116.461 23.2454 116.611 23.5645 116.912 23.8105C117.213 24.0566 117.591 24.1797 118.047 24.1797C118.448 24.1797 118.822 24.0749 119.168 23.8652ZM116.898 14.6914H118.197L118.922 16.4688H117.869L116.898 14.6914ZM123.775 16.5508C123.548 16.5508 123.347 16.4642 123.174 16.291C123.001 16.1178 122.914 15.9173 122.914 15.6895C122.914 15.4525 123.001 15.2474 123.174 15.0742C123.329 14.9193 123.529 14.8418 123.775 14.8418C124.021 14.8418 124.222 14.9193 124.377 15.0742C124.541 15.2383 124.623 15.4434 124.623 15.6895C124.623 15.9264 124.541 16.127 124.377 16.291C124.204 16.4642 124.003 16.5508 123.775 16.5508ZM123.188 17.8633H124.377V25H123.188V17.8633ZM129.477 14.9785H130.666V21.2812L134.016 17.8633H135.533V17.918L132.73 20.748L135.615 24.9453V25H134.193L131.896 21.5684L130.666 22.7988V25H129.477V14.9785ZM136.545 14.9785H137.734V17.9316L137.666 18.916H137.734C137.917 18.5605 138.227 18.2552 138.664 18C139.083 17.7539 139.548 17.6309 140.059 17.6309C140.924 17.6309 141.585 17.8861 142.041 18.3965C142.497 18.9069 142.725 19.5814 142.725 20.4199V25H141.535V20.5977C141.535 19.9596 141.371 19.4857 141.043 19.1758C140.724 18.8659 140.3 18.7109 139.771 18.7109C139.416 18.7109 139.074 18.8249 138.746 19.0527C138.436 19.2715 138.19 19.5586 138.008 19.9141C137.826 20.2786 137.734 20.6478 137.734 21.0215V25H136.545V14.9785ZM145.828 24.7266C145.272 24.3893 144.835 23.929 144.516 23.3457C144.206 22.7806 144.051 22.1426 144.051 21.4316C144.051 20.7207 144.206 20.0827 144.516 19.5176C144.835 18.9342 145.272 18.474 145.828 18.1367C146.384 17.7995 147.013 17.6309 147.715 17.6309C148.417 17.6309 149.046 17.7995 149.602 18.1367C150.158 18.474 150.595 18.9342 150.914 19.5176C151.224 20.0827 151.379 20.7207 151.379 21.4316C151.379 22.1426 151.224 22.7806 150.914 23.3457C150.595 23.929 150.158 24.3893 149.602 24.7266C149.064 25.0547 148.435 25.2188 147.715 25.2188C146.995 25.2188 146.366 25.0547 145.828 24.7266ZM148.945 23.8105C149.31 23.6009 149.611 23.2865 149.848 22.8672C150.076 22.4661 150.189 21.9876 150.189 21.4316C150.189 20.8665 150.076 20.3835 149.848 19.9824C149.611 19.5632 149.31 19.2487 148.945 19.0391C148.562 18.8203 148.152 18.7109 147.715 18.7109C147.277 18.7109 146.867 18.8203 146.484 19.0391C146.111 19.2578 145.805 19.5723 145.568 19.9824C145.34 20.3835 145.227 20.8665 145.227 21.4316C145.227 21.9876 145.34 22.4661 145.568 22.8672C145.805 23.2773 146.111 23.5918 146.484 23.8105C146.885 24.0384 147.296 24.1523 147.715 24.1523C148.134 24.1523 148.544 24.0384 148.945 23.8105ZM153.648 24.918C153.229 24.7083 152.91 24.4258 152.691 24.0703C152.473 23.7148 152.363 23.3047 152.363 22.8398C152.363 22.0833 152.646 21.4954 153.211 21.0762C153.794 20.6478 154.514 20.4336 155.371 20.4336C155.818 20.4336 156.219 20.4792 156.574 20.5703C156.939 20.6615 157.217 20.7708 157.408 20.8984V20.4609C157.408 19.9414 157.226 19.5176 156.861 19.1895C156.497 18.8613 156.023 18.6973 155.439 18.6973C155.048 18.6973 154.683 18.7839 154.346 18.957C153.99 19.1393 153.721 19.3809 153.539 19.6816L152.637 19.0117C152.91 18.5924 153.298 18.2552 153.799 18C154.291 17.7539 154.838 17.6309 155.439 17.6309C156.406 17.6309 157.167 17.8861 157.723 18.3965C158.27 18.8978 158.543 19.5905 158.543 20.4746V25H157.408V23.9746H157.354C157.144 24.3301 156.839 24.6263 156.438 24.8633C156.046 25.1003 155.581 25.2188 155.043 25.2188C154.514 25.2188 154.049 25.1185 153.648 24.918ZM156.287 23.8652C156.633 23.6556 156.907 23.3822 157.107 23.0449C157.308 22.7077 157.408 22.3294 157.408 21.9102C157.189 21.7643 156.916 21.6413 156.588 21.541C156.278 21.4499 155.932 21.4043 155.549 21.4043C154.893 21.4043 154.4 21.541 154.072 21.8145C153.744 22.0879 153.58 22.4342 153.58 22.8535C153.58 23.2454 153.73 23.5645 154.031 23.8105C154.332 24.0566 154.71 24.1797 155.166 24.1797C155.567 24.1797 155.941 24.0749 156.287 23.8652ZM154.934 16.2227C155.234 16.1406 155.444 16.0449 155.562 15.9355C155.69 15.8262 155.754 15.6803 155.754 15.498C155.754 15.3431 155.699 15.2155 155.59 15.1152C155.49 15.0241 155.335 14.9785 155.125 14.9785C154.861 14.9785 154.601 15.0332 154.346 15.1426L154.113 14.3906C154.469 14.2357 154.842 14.1582 155.234 14.1582C155.699 14.1582 156.055 14.2676 156.301 14.4863C156.547 14.7051 156.67 15.0241 156.67 15.4434C156.67 15.8809 156.533 16.2227 156.26 16.4688C155.968 16.7331 155.599 16.8971 155.152 16.9609L154.934 16.2227ZM160.197 17.8633H161.318V18.916H161.387C161.578 18.5605 161.888 18.2598 162.316 18.0137C162.754 17.7585 163.214 17.6309 163.697 17.6309C164.554 17.6309 165.206 17.8815 165.652 18.3828C166.108 18.8932 166.336 19.5723 166.336 20.4199V25H165.146V20.5977C165.146 19.9414 164.987 19.4629 164.668 19.1621C164.358 18.8613 163.925 18.7109 163.369 18.7109C162.986 18.7109 162.645 18.8203 162.344 19.0391C162.025 19.276 161.788 19.5586 161.633 19.8867C161.469 20.2422 161.387 20.6068 161.387 20.9805V25H160.197V17.8633Z" fill="white"/>
</svg>
