<svg width="20" height="20" viewBox="0 0 20 20" fill="none" xmlns="http://www.w3.org/2000/svg">
<path d="M20.0001 19.1667C20.0001 19.3877 19.9123 19.5997 19.756 19.7559C19.5997 19.9122 19.3878 20 19.1668 20H0.834623C0.613624 20 0.401676 19.9122 0.245405 19.7559C0.0891347 19.5997 0.00134286 19.3877 0.00134286 19.1667C0.00134286 18.9457 0.0891347 18.7338 0.245405 18.5775C0.401676 18.4212 0.613624 18.3334 0.834623 18.3334H19.1668C19.3878 18.3334 19.5997 18.4212 19.756 18.5775C19.9123 18.7338 20.0001 18.9457 20.0001 19.1667ZM0.243828 7.12748C0.0642741 6.79444 -0.0189103 6.41795 0.00360974 6.04026C0.0261298 5.66257 0.153463 5.29863 0.371319 4.98928C0.727345 4.46691 1.20414 4.03815 1.76123 3.73936L8.01167 0.486236C8.62602 0.166782 9.30827 0 10.0007 0C10.6931 0 11.3754 0.166782 11.9898 0.486236L18.2394 3.74186C18.7964 4.04064 19.2732 4.46941 19.6293 4.99178C19.8471 5.30113 19.9745 5.66507 19.997 6.04276C20.0195 6.42045 19.9363 6.79694 19.7568 7.12998C19.5634 7.49565 19.2735 7.80127 18.9186 8.01358C18.5636 8.22589 18.1572 8.33674 17.7436 8.33407H17.5002V15.0003H18.3335C18.5545 15.0003 18.7665 15.0881 18.9227 15.2444C19.079 15.4006 19.1668 15.6126 19.1668 15.8336C19.1668 16.0546 19.079 16.2665 18.9227 16.4228C18.7665 16.5791 18.5545 16.6669 18.3335 16.6669H1.6679C1.4469 16.6669 1.23496 16.5791 1.07869 16.4228C0.922415 16.2665 0.834623 16.0546 0.834623 15.8336C0.834623 15.6126 0.922415 15.4006 1.07869 15.2444C1.23496 15.0881 1.4469 15.0003 1.6679 15.0003H2.50118V8.33407H2.25787C1.84386 8.33666 1.43709 8.2255 1.08193 8.01273C0.726773 7.79996 0.436864 7.49374 0.243828 7.12748ZM4.16775 15.0003H6.66759V8.33407H4.16775V15.0003ZM8.33415 8.33407V15.0003H11.6673V8.33407H8.33415ZM15.8337 8.33407H13.3338V15.0003H15.8337V8.33407ZM1.7204 6.35503C1.77268 6.45142 1.85049 6.53157 1.94529 6.58669C2.04009 6.6418 2.14823 6.66977 2.25787 6.66751H17.7436C17.8532 6.66977 17.9613 6.6418 18.0561 6.58669C18.1509 6.53157 18.2287 6.45142 18.281 6.35503C18.3191 6.29134 18.3375 6.21781 18.334 6.14369C18.3304 6.06956 18.305 5.99814 18.261 5.93839C18.0591 5.63834 17.7879 5.39138 17.4702 5.21844L11.2206 1.96281C10.844 1.76734 10.4259 1.66531 10.0015 1.66531C9.57721 1.66531 9.15909 1.76734 8.78245 1.96281L2.53285 5.21844C2.21536 5.39193 1.94416 5.63912 1.74207 5.93922C1.69798 5.99873 1.67241 6.06991 1.66855 6.14386C1.6647 6.21782 1.68273 6.29127 1.7204 6.35503Z" fill="#0B3558"/>
</svg>
