<svg width="60" height="37" viewBox="0 0 60 37" fill="none" xmlns="http://www.w3.org/2000/svg">
<path d="M48.2416 0C46.8639 0 46.2416 0.31312 45.4921 1.12528L43.7405 3.06271L41.991 1.12528C41.1769 0.31312 40.6152 0 39.2394 0H37.1748C37.1748 0 40.3608 4.00207 40.8011 4.44044C41.488 5.18997 41.9264 5.56376 42.8638 5.56376H44.5507C45.4901 5.56376 45.9891 5.18997 46.678 4.44044C47.1144 4.00207 50.3043 0 50.3043 0L48.2416 0Z" fill="#F8B518"/>
<path d="M47.1148 5.19009C46.1148 5.37797 45.5512 5.62455 45.0521 6.43866L44.6138 7.12557L44.24 7.87706C43.739 8.68921 43.7996 9.3135 44.1754 10.3135C44.3633 10.8771 46.1774 15.6307 46.1774 15.6307L47.242 13.8772C47.9289 12.6913 47.9289 12.0024 47.6138 10.9398L46.8643 8.44067L49.3693 7.87706C50.4906 7.62852 51.0562 7.25082 51.7431 6.06487L52.7451 4.25073C52.7451 4.25073 47.7411 5.06485 47.1168 5.19009H47.1148Z" fill="#F07A22"/>
<path d="M43.2396 7.87706L42.8032 7.12557L42.4275 6.43866C41.9265 5.62455 41.3648 5.37797 40.3609 5.19009C39.7405 5.06485 34.6738 4.25073 34.6738 4.25073L35.7384 6.06487C36.4234 7.25082 36.985 7.63048 38.0516 7.87706L40.6114 8.44067L39.8012 10.9398C39.4881 12.0024 39.5468 12.6932 40.2376 13.8772L41.2376 15.6307C41.2376 15.6307 43.1144 10.8771 43.3003 10.3135C43.6115 9.3135 43.7387 8.68921 43.2396 7.87706Z" fill="#F59222"/>
<path d="M59.1841 34.8876V34.5745C59.3739 34.5119 59.4952 34.4492 59.5579 34.3886L59.6851 34.6997C59.5579 34.7624 59.4365 34.825 59.1841 34.8876ZM59.1841 33.0108V32.6997H59.4952C59.4952 32.3866 59.4346 32.0108 59.1841 31.7623V31.3239C59.7477 31.6409 59.871 32.3866 59.871 32.7662V33.0128H59.1841V33.0108ZM59.1841 30.6977V30.5724L59.2447 30.6977H59.1841ZM59.1841 30.0108V29.8855L59.5579 29.136H60.0001L59.3759 30.0108H59.186H59.1841ZM59.1841 29.8855V30.0108H59.0608L59.1841 29.8855ZM59.1841 30.5724L58.6224 29.6976H58.3719V30.136L58.4326 29.9481H58.4952L58.869 30.6977H59.1821V30.5724H59.1841ZM59.1841 31.322V31.7603C58.9982 31.5725 58.7457 31.4472 58.4326 31.4472H58.3719V31.136H58.4326C58.7437 31.136 58.9982 31.1987 59.1841 31.322ZM59.1841 32.6997V33.0108H58.3719V32.6997H59.1841ZM59.1841 34.5745V34.8876C58.9982 34.8876 58.7457 34.9502 58.4972 34.9502C58.4345 34.9502 58.4345 34.8876 58.3719 34.8876V34.5745H59.1841ZM58.3719 29.6976V30.136L58.0568 30.6977H57.685L58.3093 29.6976H58.3739H58.3719ZM58.3719 31.138V31.4492C57.5559 31.5118 57.2466 32.2006 57.186 32.6997H58.3719V33.0108H57.186C57.186 34.0128 57.685 34.5119 58.3719 34.5745V34.8876C57.3719 34.825 56.8083 34.0735 56.8083 33.0774C56.8083 31.9521 57.4326 31.1987 58.3719 31.138ZM46.9274 34.7624V34.3886C47.3051 34.0735 47.5536 33.6371 47.5536 33.0089C47.5536 32.5725 47.3657 32.0089 46.9274 31.6977V31.322C47.5536 31.5725 47.9294 32.2007 47.9294 33.0089C47.9294 33.9502 47.491 34.5099 46.9274 34.7604V34.7624ZM46.9274 30.6977V30.5724L46.992 30.6977H46.9274ZM46.9274 30.0108V29.8855L47.3051 29.136H47.8041L47.1172 30.0108H46.9293H46.9274ZM51.2445 34.3886C51.0547 34.5119 50.8042 34.5745 50.3678 34.5745C49.493 34.5745 48.8668 34.0128 48.8668 33.0774C48.8668 32.2007 49.3678 31.4472 50.3678 31.4472C50.8042 31.4472 51.0547 31.5725 51.2445 31.6977L51.3678 31.3865C51.2445 31.2593 50.8668 31.136 50.4304 31.136C49.3051 31.136 48.5536 31.9502 48.5536 33.0754C48.5536 34.1342 49.2405 34.9483 50.3052 34.9483C50.8042 34.9483 51.1819 34.7604 51.3678 34.6978L51.2445 34.3866V34.3886ZM54.5558 34.825H54.9335V30.0734H56.6204V29.7603H52.8708V30.0734H54.5577V34.825H54.5558ZM46.9274 29.8855V30.0108H46.8647L46.9274 29.8855ZM46.9274 30.5724L46.3657 29.6976H46.1778V30.0108V29.9481H46.2405L46.6788 30.6977H46.9254V30.5724H46.9274ZM46.9274 31.322V31.6977C46.7395 31.5098 46.491 31.4472 46.1798 31.4472V31.136C46.4929 31.136 46.7415 31.1987 46.9274 31.322ZM46.9274 34.3886V34.7624C46.6808 34.8876 46.4283 34.8876 46.1798 34.9502V34.6371C46.4929 34.6371 46.7415 34.5119 46.9274 34.3886ZM46.1798 29.6976V30.0108L45.8041 30.6977H45.4909L46.0526 29.6976H46.1778H46.1798ZM46.1798 31.138V31.4492C45.2424 31.4492 44.8686 32.2613 44.8686 33.0793C44.8686 33.9522 45.4283 34.6391 46.1798 34.6391V34.9522C45.2424 34.9522 44.4909 34.2046 44.4909 33.0793C44.4909 31.8288 45.3031 31.14 46.1798 31.14V31.138ZM37.5533 34.9502V34.6371C38.8019 34.6371 39.4908 33.5118 39.4908 32.2594C39.4908 31.1987 38.8665 30.0108 37.614 30.0108H37.5533V29.6976H37.614C38.9252 29.6976 39.8646 30.6977 39.8646 32.2594C39.8646 33.6351 39.1776 34.5119 38.2402 34.7604V34.823C38.8039 34.9483 39.4301 35.0735 39.8646 35.1381L39.8039 35.5099C39.115 35.324 38.3655 35.1381 37.8625 35.0109C37.7392 34.9483 37.6766 34.9483 37.5533 34.9483V34.9502ZM43.5535 31.2593H43.1758V33.4473C43.1758 33.6351 43.1758 33.7604 43.1151 33.8876C42.9899 34.2614 42.5515 34.5745 42.0505 34.5745C41.301 34.5745 41.0525 34.0128 41.0525 33.2594V31.2593H40.7374V33.322C40.7374 34.6978 41.4889 34.9502 41.9253 34.9502C42.6122 34.9502 43.0505 34.5119 43.1738 34.2027H43.2384V34.825H43.5515V31.2593H43.5535ZM37.5533 29.6976V30.0108C36.2989 30.0108 35.6746 31.1987 35.6746 32.3846C35.6746 33.5099 36.3635 34.6371 37.5533 34.6371V34.9502C36.2989 34.8876 35.2989 34.0128 35.2989 32.3846C35.2989 30.7564 36.2989 29.6976 37.5533 29.6976ZM31.1128 36.3867V36.1362C31.8604 36.0775 32.3634 35.6998 32.3634 34.6371V34.1361C32.1735 34.5119 31.7371 34.825 31.1128 34.825V34.5119H31.1735C31.6745 34.5119 32.1129 34.2614 32.2988 33.7017C32.3634 33.6371 32.3634 33.4492 32.3634 33.322V32.6371C32.3634 32.5099 32.3634 32.3846 32.2988 32.2594C32.1735 31.8269 31.7978 31.4472 31.1735 31.4472H31.1128V31.136H31.1735C31.8604 31.136 32.2401 31.5725 32.424 31.8249V31.2574H32.7352V34.322C32.7352 35.2594 32.5454 35.6978 32.2381 35.9503C31.923 36.2614 31.4886 36.3867 31.1128 36.3867ZM31.1128 31.138V31.4492C30.3633 31.5118 29.8604 32.0754 29.8604 33.0108C29.8604 33.825 30.2987 34.5119 31.1128 34.5119V34.825C30.1715 34.825 29.5472 34.0735 29.5472 33.0774C29.5472 31.8269 30.3613 31.1987 31.1128 31.138ZM31.1128 36.1362V36.3867H30.9856C30.5492 36.3867 30.1109 36.3241 29.8584 36.0755L29.9836 35.827C30.2361 35.9503 30.5473 36.1342 31.0483 36.1342H31.1109L31.1128 36.1362ZM23.2946 34.8876V34.6371C23.731 34.5119 24.0461 34.2027 24.1674 33.8876V32.8876C23.9209 32.8876 23.5451 32.8876 23.2946 32.9482V32.6997C23.5451 32.639 23.8582 32.639 24.1674 32.639V32.5118C24.1674 32.138 24.1087 31.4492 23.2946 31.4492V31.138C24.3592 31.138 24.5451 31.9521 24.5451 32.5744V34.0128C24.5451 34.2614 24.5451 34.5745 24.6078 34.825H24.2966L24.232 34.324C24.0441 34.5745 23.7291 34.825 23.2927 34.8876H23.2946ZM23.2946 30.6977V30.2593L23.5451 30.6977H23.2946ZM25.733 34.825H26.1068V32.639C26.1068 32.5118 26.1068 32.3866 26.1694 32.2613C26.2967 31.8288 26.7331 31.4492 27.2321 31.4492C27.9836 31.4492 28.2341 32.0754 28.2341 32.6997V34.825H28.6079V32.6997C28.6079 31.3239 27.6724 31.138 27.3593 31.138C26.7311 31.138 26.2967 31.5118 26.1049 31.8875H26.0442V31.2593H25.7291V34.825H25.733ZM23.2946 30.2593V30.6977L22.3572 29.6976H22.9189L23.2946 30.2593ZM23.2946 31.138V31.4492H23.23C22.9189 31.4492 22.6057 31.5118 22.3572 31.6997L22.232 31.4492C22.5451 31.2613 22.9189 31.138 23.2946 31.138ZM23.2946 32.6997V32.9482C22.731 33.0774 22.3572 33.324 22.3572 33.8895C22.3572 34.3905 22.6723 34.6391 23.1067 34.6391H23.2927V34.8896C23.1694 34.8896 23.1067 34.9522 23.0422 34.9522C22.2926 34.9522 21.9795 34.3905 21.9795 33.9522C21.9795 33.2613 22.4159 32.8288 23.2927 32.6997H23.2946ZM9.97917 34.8876V34.6371C10.4782 34.5119 10.7307 34.2027 10.8539 33.8876C10.9166 33.825 10.9166 33.7623 10.9166 33.7017V32.8876C10.6054 32.8876 10.2923 32.8876 9.97917 32.9482V32.6997C10.2297 32.639 10.5408 32.639 10.9166 32.639V32.5118C10.9166 32.138 10.8539 31.4492 9.97917 31.4492V31.138H10.0418C11.0438 31.138 11.2904 31.9521 11.2904 32.5744V34.8269H10.9792L10.9166 34.326C10.7933 34.5764 10.4175 34.8269 9.97917 34.8896V34.8876ZM9.97917 30.0734V29.6976H10.1651L10.9146 30.6977H10.5389L10.1005 29.9481H10.0398L9.97721 30.0734H9.97917ZM12.4802 34.825H12.7914V32.639C12.7914 32.5118 12.854 32.3866 12.854 32.2613C13.0419 31.8288 13.4157 31.4492 13.9812 31.4492C14.7308 31.4492 14.9813 32.0754 14.9813 32.6997V34.825H15.3531V32.6997C15.3531 31.3239 14.4176 31.138 14.0399 31.138C13.4802 31.138 12.9773 31.5118 12.7914 31.8875L12.7288 31.2593H12.4137C12.4137 31.5098 12.4783 31.7603 12.4783 32.0734V34.823L12.4802 34.825ZM18.2299 34.825H18.543V32.639C18.543 32.5118 18.6056 32.3866 18.6056 32.2613C18.7915 31.8288 19.228 31.4492 19.7309 31.4492C20.4804 31.4492 20.7309 32.0754 20.7309 32.6997V34.825H21.1047V32.639C21.1047 31.322 20.1673 31.138 19.7916 31.138C19.543 31.138 19.2906 31.2006 19.1047 31.3885C18.8542 31.5118 18.6663 31.6997 18.6037 31.8875H18.5411V29.5098H18.2279V34.825H18.2299ZM9.97917 29.6976V30.0734L9.60343 30.6977H9.22964L9.9185 29.6976H9.98113H9.97917ZM9.97917 31.138V31.4492C9.66801 31.4492 9.29226 31.5118 9.04372 31.6997L8.91847 31.4492C9.29422 31.2613 9.66801 31.138 9.97917 31.138ZM9.97917 32.6997V32.9482C9.47818 33.0774 9.04372 33.324 9.04372 33.8895C9.04372 34.3905 9.41751 34.6391 9.79325 34.6391H9.97917V34.8896C9.91655 34.8896 9.85392 34.9522 9.72672 34.9522C9.04372 34.9522 8.66406 34.3905 8.66406 33.9522C8.66406 33.2613 9.10243 32.8288 9.97917 32.6997ZM6.16301 36.3867V36.1362C6.9145 36.0775 7.41354 35.6998 7.41354 34.6371V34.1361C7.22762 34.5119 6.78926 34.825 6.16301 34.825V34.5119H6.22564C6.72859 34.5119 7.165 34.2614 7.35092 33.7017C7.41158 33.6371 7.41158 33.4492 7.41158 33.322V32.6371C7.41158 32.5099 7.41158 32.3846 7.35092 32.2594C7.22762 31.8269 6.85188 31.4472 6.22564 31.4472H6.16301V31.136H6.22564C6.9145 31.136 7.28829 31.5725 7.41354 31.8249L7.47812 31.2574H7.79124V34.322C7.79124 35.2594 7.60337 35.6978 7.28829 35.9503C6.97909 36.2614 6.54072 36.3867 6.16497 36.3867H6.16301ZM0.348761 34.825V32.2594C0.348761 31.4472 0.348761 30.8855 0.286137 30.2593H0.348761C0.599257 30.7603 0.912378 31.322 1.34879 31.8875L3.28818 34.825H3.59738V29.7603H3.28818V32.3259C3.28818 33.0774 3.28818 33.6371 3.35276 34.324L3.28818 34.3886C3.03768 33.8876 2.78523 33.3846 2.34882 32.7643L0.348761 29.7603H0.0375977V34.825H0.350718H0.348761ZM6.16301 31.138V31.4492C5.41153 31.5118 4.91249 32.0754 4.91249 33.0108C4.91249 33.825 5.35086 34.5119 6.16301 34.5119V34.825H6.10039C5.22561 34.825 4.5387 34.0735 4.5387 33.0774C4.5387 31.8269 5.35086 31.1987 6.16301 31.138ZM6.16301 36.1362V36.3867H6.03777C5.60136 36.3867 5.16494 36.3241 4.84791 36.0755L4.97316 35.827C5.22561 35.9503 5.5994 36.1342 6.10039 36.1342H6.16301V36.1362Z" fill="#0968B0"/>
<path d="M0.348761 34.825V32.2594C0.348761 31.4472 0.348761 30.8855 0.286137 30.2593H0.348761C0.599257 30.7603 0.912377 31.322 1.34879 31.8875L3.28818 34.825H3.59738V29.7603H3.28818V32.3259C3.28818 33.0774 3.28818 33.6371 3.35276 34.324L3.28818 34.3886C3.03768 33.8876 2.78523 33.3846 2.34882 32.7643L0.348761 29.7603H0.0375977V34.825H0.350718H0.348761ZM7.79124 32.138V31.2613H7.47812L7.41354 31.8288C7.28829 31.5744 6.9145 31.14 6.22564 31.14C5.41152 31.14 4.5387 31.8288 4.5387 33.0793C4.5387 34.0755 5.22561 34.8269 6.10039 34.8269C6.7873 34.8269 7.22567 34.5138 7.41158 34.1381V34.6391C7.41158 35.7017 6.85188 36.1381 6.10039 36.1381C5.5994 36.1381 5.22561 35.9522 4.97316 35.8309L4.84791 36.0794C5.16494 36.328 5.5994 36.3906 6.03777 36.3906C6.41155 36.3906 6.9145 36.2653 7.28829 35.9542C7.60337 35.7037 7.79124 35.2653 7.79124 34.326V32.14V32.138ZM7.41354 33.324C7.41354 33.4492 7.41354 33.6371 7.35287 33.7036C7.16696 34.2633 6.72859 34.5138 6.22759 34.5138C5.35477 34.5138 4.9164 33.8269 4.9164 33.0128C4.9164 32.0774 5.48002 31.4511 6.22759 31.4511C6.85579 31.4511 7.22958 31.8308 7.35287 32.2633C7.41354 32.3885 7.41354 32.5138 7.41354 32.641V33.3259V33.324ZM9.91654 29.6976L9.22768 30.6977H9.60147L10.0398 29.9481H10.1005L10.5389 30.6977H10.9146L10.1651 29.6976H9.91654ZM11.2904 32.5725C11.2904 31.9502 11.0438 31.136 10.0418 31.136C9.668 31.136 9.29226 31.2593 8.91652 31.4472L9.04176 31.6977C9.2903 31.5098 9.66605 31.4472 9.97721 31.4472C10.852 31.4472 10.9146 32.1361 10.9146 32.5099V32.6371C9.41359 32.5725 8.66211 33.0754 8.66211 33.9483C8.66211 34.3866 9.04176 34.9483 9.72476 34.9483C10.353 34.9483 10.7287 34.5725 10.9146 34.322L10.9772 34.823H11.2884V32.5705L11.2904 32.5725ZM10.9146 33.7017C10.9146 33.7623 10.9146 33.825 10.852 33.8876C10.7287 34.2614 10.4156 34.6371 9.7913 34.6371C9.41359 34.6371 9.04176 34.3886 9.04176 33.8876C9.04176 33.0089 10.1005 32.8876 10.9146 32.8876V33.7017ZM12.4802 34.825H12.7914V32.639C12.7914 32.5118 12.854 32.3866 12.854 32.2613C13.0419 31.8288 13.4157 31.4492 13.9812 31.4492C14.7308 31.4492 14.9813 32.0754 14.9813 32.6997V34.825H15.3531V32.6997C15.3531 31.3239 14.4176 31.138 14.0399 31.138C13.4802 31.138 12.9773 31.5118 12.7914 31.8875L12.7288 31.2593H12.4137C12.4137 31.5098 12.4783 31.7603 12.4783 32.0734V34.823L12.4802 34.825ZM18.2299 34.825H18.543V32.639C18.543 32.5118 18.6056 32.3866 18.6056 32.2613C18.7915 31.8288 19.228 31.4492 19.7309 31.4492C20.4804 31.4492 20.7309 32.0754 20.7309 32.6997V34.825H21.1047V32.639C21.1047 31.322 20.1673 31.138 19.7916 31.138C19.543 31.138 19.2906 31.2006 19.1047 31.3885C18.8542 31.5118 18.6663 31.6997 18.6037 31.8875H18.541V29.5098H18.2279V34.825H18.2299ZM22.3572 29.6976L23.2946 30.6977H23.5451L22.9189 29.6976H22.3572ZM24.5451 32.5725C24.5451 31.9502 24.3592 31.136 23.2946 31.136C22.9815 31.136 22.5451 31.2593 22.232 31.4472L22.3572 31.6977C22.6077 31.5098 22.9189 31.4472 23.23 31.4472C24.1068 31.4472 24.1674 32.1361 24.1674 32.5099V32.6371C22.731 32.5725 21.9815 33.0754 21.9815 33.9483C21.9815 34.3866 22.2946 34.9483 23.0441 34.9483C23.6077 34.9483 24.0441 34.5725 24.232 34.322L24.2966 34.823H24.6078C24.5451 34.5725 24.5451 34.2594 24.5451 34.0109V32.5725ZM24.1694 33.7017V33.8876C24.0461 34.2614 23.6704 34.6371 23.1087 34.6371C22.6742 34.6371 22.3592 34.3886 22.3592 33.8876C22.3592 33.0089 23.4218 32.8876 24.1694 32.8876V33.7017ZM25.733 34.825H26.1068V32.639C26.1068 32.5118 26.1068 32.3866 26.1694 32.2613C26.2966 31.8288 26.7331 31.4492 27.2321 31.4492C27.9836 31.4492 28.2341 32.0754 28.2341 32.6997V34.825H28.6079V32.6997C28.6079 31.3239 27.6724 31.138 27.3593 31.138C26.7311 31.138 26.2966 31.5118 26.1049 31.8875H26.0442V31.2593H25.7291V34.825H25.733ZM32.7352 32.138V31.2613H32.424V31.8288C32.2381 31.5744 31.8604 31.14 31.1735 31.14C30.3633 31.14 29.5472 31.8288 29.5472 33.0793C29.5472 34.0755 30.1715 34.8269 31.1128 34.8269C31.7371 34.8269 32.1735 34.5138 32.3634 34.1381V34.6391C32.3634 35.7017 31.7978 36.1381 31.0502 36.1381C30.5492 36.1381 30.2381 35.9522 29.9856 35.8309L29.8604 36.0794C30.1128 36.328 30.5512 36.3906 30.9876 36.3906C31.424 36.3906 31.925 36.2653 32.2401 35.9542C32.5493 35.7037 32.7371 35.2653 32.7371 34.326V32.14L32.7352 32.138ZM32.3634 33.324C32.3634 33.4492 32.3634 33.6371 32.2988 33.7036C32.1129 34.2633 31.6745 34.5138 31.1735 34.5138C30.2987 34.5138 29.8604 33.8269 29.8604 33.0128C29.8604 32.0774 30.424 31.4511 31.1735 31.4511C31.7978 31.4511 32.1735 31.8308 32.2988 32.2633C32.3634 32.3885 32.3634 32.5138 32.3634 32.641V33.3259V33.324ZM39.8645 35.1401C39.4281 35.0755 38.8019 34.9502 38.2402 34.825V34.7624C39.1776 34.5119 39.8645 33.6371 39.8645 32.2613C39.8645 30.6996 38.9252 29.6996 37.614 29.6996C36.3028 29.6996 35.2989 30.6996 35.2989 32.3866C35.2989 34.0735 36.2989 34.8876 37.5533 34.9522C37.6766 34.9522 37.7392 34.9522 37.8625 35.0148C38.3655 35.142 39.115 35.3279 39.8039 35.5139L39.8645 35.142V35.1401ZM37.5533 34.6371C36.3635 34.6371 35.6746 33.5118 35.6746 32.3846C35.6746 31.1987 36.2989 30.0108 37.614 30.0108C38.9291 30.0108 39.4908 31.1987 39.4908 32.2594C39.4908 33.5099 38.8019 34.6371 37.5533 34.6371ZM43.5535 31.2593H43.1758V33.4473C43.1758 33.6351 43.1758 33.7604 43.1151 33.8876C42.9899 34.2614 42.5515 34.5745 42.0505 34.5745C41.301 34.5745 41.0524 34.0128 41.0524 33.2594V31.2593H40.7374V33.322C40.7374 34.6978 41.4889 34.9502 41.9253 34.9502C42.6122 34.9502 43.0505 34.5119 43.1738 34.2027H43.2384V34.825H43.5515V31.2593H43.5535ZM46.1798 31.138C45.3031 31.138 44.4909 31.8269 44.4909 33.0774C44.4909 34.2027 45.2424 34.9502 46.1798 34.9502C46.9919 34.9502 47.9313 34.324 47.9313 33.0108C47.9313 31.8875 47.2444 31.138 46.1798 31.138ZM46.1798 31.4472C47.1779 31.4472 47.5536 32.3846 47.5536 33.0089C47.5536 33.9502 46.9274 34.6352 46.1798 34.6352C45.4322 34.6352 44.8686 33.9483 44.8686 33.0754C44.8686 32.2574 45.2424 31.4452 46.1798 31.4452V31.4472ZM46.0545 29.6976L45.4929 30.6977H45.806L46.1817 29.9481H46.2444L46.6827 30.6977H46.9939L46.3677 29.6976H46.0565H46.0545ZM47.3051 29.136L46.8647 30.0108H47.1172L47.8041 29.136H47.3051ZM51.2445 34.3886C51.0547 34.5119 50.8042 34.5745 50.3678 34.5745C49.493 34.5745 48.8668 34.0128 48.8668 33.0774C48.8668 32.2007 49.3677 31.4472 50.3678 31.4472C50.8042 31.4472 51.0547 31.5725 51.2445 31.6977L51.3678 31.3865C51.2445 31.2593 50.8668 31.136 50.4304 31.136C49.3051 31.136 48.5536 31.9502 48.5536 33.0754C48.5536 34.1342 49.2405 34.9483 50.3051 34.9483C50.8042 34.9483 51.1819 34.7604 51.3678 34.6978L51.2445 34.3866V34.3886ZM54.5558 34.825H54.9335V30.0734H56.6204V29.7603H52.8708V30.0734H54.5577V34.825H54.5558ZM59.871 33.0108V32.7643C59.871 32.2613 59.6851 31.138 58.4326 31.138C57.4932 31.138 56.8083 31.8875 56.8083 33.0774C56.8083 34.1361 57.4932 34.9502 58.4952 34.9502C59.1821 34.9502 59.5559 34.7624 59.6831 34.6997L59.5559 34.3886C59.3719 34.5119 59.1214 34.5745 58.5578 34.5745C57.8083 34.5745 57.184 34.1361 57.184 33.0108H59.869H59.871ZM57.184 32.6997C57.2447 32.138 57.6204 31.4492 58.4326 31.4492C59.3074 31.4492 59.4952 32.2006 59.4952 32.6997H57.184ZM58.3073 29.6976L57.683 30.6977H58.0549L58.4306 29.9481H58.4932L58.867 30.6977H59.2408L58.6185 29.6976H58.3034H58.3073ZM59.5579 29.136L59.0608 30.0108H59.3739L59.9982 29.136H59.5559H59.5579Z" fill="#0968B0"/>
<path d="M14.5741 10.063H12.7619C12.1689 10.063 11.9928 10.2939 11.801 11.1198C11.1258 14.0161 10.3059 18.5642 8.67371 20.9674C8.67371 20.9674 8.29601 21.6015 7.79306 21.6015C7.28424 21.5995 6.90849 20.9674 6.90849 20.9674C5.27831 18.5622 4.17261 14.0161 3.50331 11.1198C3.30957 10.2939 3.13148 10.063 2.54047 10.063H0.724369C0.111827 10.063 -0.0682171 10.5796 0.021805 11.0278C0.595207 13.9946 1.57566 18.5133 3.87319 22.4195C4.96128 24.2708 5.97892 25.2865 7.7911 25.2924C9.60133 25.2865 10.6229 24.2708 11.7071 22.4195C14.0046 18.5133 14.7071 13.9926 15.2786 11.0297C15.3686 10.5796 15.1886 10.063 14.576 10.063H14.5741ZM20.2396 10.063H18.1965C17.8403 10.0669 17.5487 10.3526 17.5468 10.7127V24.3471C17.5507 24.7053 17.8403 24.9969 18.1965 24.9969H20.2396C20.5958 24.9969 20.8854 24.7053 20.8854 24.3471V10.7127C20.8854 10.3546 20.5958 10.063 20.2396 10.063ZM30.917 22.443H27.1615V18.439H30.9503C32.4787 18.439 33.5668 19.0652 33.5668 20.4762C33.5668 22.0281 32.2145 22.4449 30.917 22.4449V22.443ZM27.1635 12.6169H30.5002C31.8583 12.6169 32.6059 13.1511 32.6059 14.2725C32.6059 15.3939 31.7487 15.9888 30.596 15.9888H27.1615V12.6169H27.1635ZM33.876 16.8812C33.9993 16.8166 34.0012 16.8225 34.1128 16.7501C35.193 16.1512 36.0072 15.0455 36.0072 13.6913C36.0072 11.0865 33.9621 10.0649 30.9835 10.0689C30.9835 10.0689 25.0147 10.0649 24.6291 10.0649C24.136 10.0649 23.8796 10.3507 23.8796 10.8458V24.1495C23.8796 24.7581 24.1399 24.9969 24.5763 24.9969C25.0127 24.9969 31.7428 24.9969 31.7428 24.9969C34.7782 24.9969 37.0131 23.6172 37.0131 20.5858C37.0131 18.7247 35.8447 17.3196 33.8779 16.8812H33.876Z" fill="#0968B0"/>
</svg>
