<svg width="50" height="39" viewBox="0 0 50 39" fill="none" xmlns="http://www.w3.org/2000/svg">
<path d="M11.3454 0H37.914C38.441 0.0574175 38.9275 0.423188 39.0874 0.934841C39.1857 1.23256 39.15 1.55155 39.1568 1.85948C39.1551 10.1514 39.1559 18.4438 39.1568 26.7357C39.1474 27.1274 39.2065 27.5446 39.0232 27.9083C38.825 28.34 38.387 28.6232 37.9225 28.6824H11.3612C10.7275 28.6207 10.1869 28.0976 10.1201 27.4613V1.22788C10.1826 0.594165 10.7164 0.0731541 11.3454 0ZM12.9149 1.43756C12.2684 1.60173 11.7295 2.13465 11.5738 2.78453C11.4926 3.09161 11.5156 3.41145 11.5122 3.72618C11.5139 8.66749 11.5096 13.6096 11.5113 18.5514C11.6746 18.4404 11.8107 18.2975 11.9481 18.158C15.0678 15.0749 18.1896 11.9934 21.3084 8.90907C21.3425 9.22295 21.4411 9.52577 21.5717 9.81286C18.2202 13.1303 14.8705 16.4482 11.5143 19.7597C11.5049 21.549 11.5143 23.3396 11.5092 25.1297C11.5092 25.3853 11.5041 25.646 11.5734 25.8944C11.7342 26.5409 12.2671 27.0738 12.9102 27.2423C13.2113 27.3294 13.5277 27.3124 13.8374 27.315C15.5812 27.3141 17.3258 27.3141 19.0704 27.315C21.4854 24.9366 23.8914 22.5489 26.3072 20.1705C26.2276 20.4989 26.1872 20.8349 26.2021 21.1722C25.6845 21.381 25.1375 21.5749 24.7258 21.9675C24.2537 22.3966 23.9922 23.0227 23.956 23.653C23.8148 23.7832 23.6779 23.9188 23.5481 24.0609C22.9633 24.2081 22.3415 24.3157 21.8367 24.6657C21.2132 25.1803 20.8959 25.9846 20.8198 26.774C20.6109 26.9339 20.4314 27.1278 20.2477 27.3146C25.4497 27.3112 30.6505 27.3171 35.8525 27.312C36.647 27.3188 37.4066 26.7791 37.6597 26.0259C37.7941 25.6571 37.7579 25.2603 37.763 24.8758C37.763 19.9183 37.7647 14.9621 37.7656 10.0055C34.9245 12.8088 32.0863 15.6167 29.2452 18.42C29.2172 18.0865 28.808 17.7471 29.0768 17.4341C31.969 14.57 34.8658 11.7093 37.7639 8.85037C37.7664 6.96963 37.7698 5.08931 37.7639 3.20857C37.7613 2.23801 36.8983 1.3878 35.932 1.37504C33.9926 1.36569 32.0527 1.37759 30.1125 1.36994C27.9523 3.49864 25.7972 5.63329 23.6421 7.76795C23.6009 7.50723 23.5171 7.25502 23.3976 7.01982C24.1015 6.63321 24.8079 6.08072 24.9985 5.25731C25.2362 5.03317 25.468 4.80138 25.6973 4.56958C26.1213 4.3884 26.5424 4.19403 26.9277 3.93841C27.4632 3.60327 27.7477 2.99166 27.894 2.39835C28.2445 2.05895 28.592 1.71742 28.9339 1.36866C23.9046 1.36866 18.8756 1.36951 13.8463 1.36866C13.5358 1.37121 13.2185 1.3491 12.9157 1.43544L12.9149 1.43756Z" fill="white"/>
<path d="M12.9146 1.43766C13.2174 1.35133 13.5347 1.37344 13.8452 1.37089C18.8745 1.37174 23.9034 1.37089 28.9328 1.37089C28.5908 1.71965 28.2433 2.06118 27.8929 2.40058C27.9426 2.1288 27.9494 1.8515 27.9477 1.57547C26.8866 1.59673 25.7671 1.84724 24.9493 2.5622C24.4976 2.94881 24.2233 3.49619 24.0761 4.06398C23.2233 4.34724 22.3863 4.87378 22.0082 5.72228C21.7688 6.19353 21.7526 6.72815 21.7381 7.24448C21.4715 7.75827 21.2227 8.31245 21.3073 8.90959C18.1885 11.9935 15.0667 15.075 11.947 18.1585C11.81 18.298 11.6735 18.4409 11.5102 18.5519C11.5085 13.6097 11.5127 8.66759 11.511 3.72671C11.5144 3.41197 11.4915 3.09214 11.5727 2.78506C11.7284 2.13518 12.2672 1.60226 12.9137 1.43809L12.9146 1.43766Z" fill="#053E2B"/>
<path d="M25.0444 4.83116C25.2609 4.74312 25.4804 4.65848 25.6968 4.57129C25.4676 4.80309 25.2358 5.03488 24.998 5.25902C25.0168 5.11697 25.0304 4.97406 25.0444 4.83073V4.83116Z" fill="#053E2B"/>
<path d="M29.2441 18.4213C32.0852 15.618 34.9233 12.8101 37.7644 10.0068C37.7636 14.9635 37.7619 19.9196 37.7619 24.8771C37.7568 25.2612 37.7934 25.658 37.6585 26.0272C37.4055 26.7804 36.6459 27.3201 35.8514 27.3133C30.6494 27.3184 25.4486 27.3125 20.2466 27.3159C20.4303 27.1287 20.6094 26.9352 20.8186 26.7753C20.8152 26.908 20.8135 27.0403 20.8118 27.173C21.343 27.002 21.8653 26.7966 22.4136 26.6804C23.1557 26.5443 23.9153 26.3074 24.4738 25.775C24.962 25.336 25.1853 24.6785 25.1989 24.0346C25.8735 23.7602 26.6442 23.6046 27.1601 23.0512C27.6092 22.5953 27.7946 21.9599 27.8895 21.3423C28.2557 21.0599 28.6448 20.7805 28.8868 20.3752C29.2675 19.8082 29.413 19.0873 29.2441 18.4217V18.4213Z" fill="#053E2B"/>
<path d="M23.5479 24.0614C23.6771 23.9194 23.8145 23.7837 23.9557 23.6536C23.954 23.7654 23.9515 23.8777 23.9506 23.9896C23.8162 24.0134 23.6814 24.0359 23.5479 24.0614Z" fill="#053E2B"/>
<path d="M30.1116 1.37158C32.0519 1.37924 33.9918 1.36733 35.9312 1.37669C36.8975 1.38945 37.7605 2.23965 37.7631 3.21022C37.769 5.09096 37.7656 6.97127 37.7631 8.85202C34.865 11.711 31.9681 14.5716 29.076 17.4357C28.8068 17.7487 29.2164 18.0881 29.2444 18.4216C29.4137 19.0876 29.2682 19.8085 28.8872 20.3751C28.6452 20.7804 28.256 21.0594 27.8898 21.3422C27.795 21.9598 27.6099 22.5952 27.1604 23.0511C26.6441 23.6045 25.8734 23.7601 25.1993 24.0345C25.1857 24.6784 24.9624 25.3359 24.4741 25.7749C23.9157 26.3069 23.1561 26.5438 22.4139 26.6804C21.8656 26.7965 21.3434 27.0019 20.8121 27.1729C20.8138 27.0402 20.8155 26.9079 20.8189 26.7752C20.8951 25.9858 21.2124 25.1811 21.8359 24.6669C22.3411 24.3165 22.963 24.2093 23.5473 24.0621C23.6809 24.0366 23.8157 24.0141 23.9501 23.9902C23.951 23.8784 23.9535 23.7661 23.9552 23.6542C23.9918 23.0239 24.2529 22.3979 24.725 21.9687C25.1372 21.5762 25.6837 21.3822 26.2013 21.1734C26.186 20.8357 26.2268 20.4997 26.3064 20.1718C23.8906 22.5501 21.4846 24.9378 19.0696 27.3162C17.325 27.3153 15.5803 27.3153 13.8366 27.3162C13.5269 27.3136 13.2105 27.3307 12.9094 27.2435C12.2663 27.075 11.7334 26.5421 11.5726 25.8956C11.5033 25.6468 11.5084 25.3861 11.5084 25.1309C11.5135 23.3408 11.5041 21.5502 11.5135 19.7609C14.8701 16.4494 18.2199 13.1315 21.5709 9.81408C21.4408 9.52742 21.3417 9.22417 21.3076 8.91028C21.223 8.31314 21.4718 7.75853 21.7385 7.24518C21.7529 6.72885 21.7691 6.19422 22.0086 5.72298C22.3867 4.87447 23.2237 4.34793 24.0764 4.06467C24.2236 3.49688 24.4979 2.9495 24.9496 2.56289C25.7679 1.84793 26.8873 1.59742 27.9481 1.57616C27.9498 1.85219 27.943 2.12949 27.8932 2.40127C27.7469 2.99458 27.4624 3.60618 26.9269 3.94133C26.542 4.19695 26.1205 4.39132 25.6965 4.5725C25.48 4.65969 25.2605 4.74433 25.044 4.83237C25.0296 4.97527 25.016 5.11818 24.9977 5.26066C24.8071 6.08407 24.1007 6.63655 23.3968 7.02316C23.5159 7.25836 23.5997 7.51057 23.6413 7.77129C25.7964 5.63664 27.9515 3.50198 30.1116 1.37328V1.37158ZM24.9096 2.85976C24.3827 3.40033 24.1819 4.17441 24.1913 4.91233C25.0525 4.64736 25.9053 4.32752 26.6883 3.87754C27.4339 3.46881 27.7609 2.57437 27.7694 1.76415C26.7398 1.81561 25.6441 2.09079 24.9096 2.85976ZM22.3224 5.52733C21.9137 6.1653 21.8631 6.96745 22.0137 7.69431C22.5925 7.25836 23.2381 6.92619 23.8404 6.52597C24.3852 6.15637 24.8343 5.57327 24.8658 4.89404C24.5843 4.98803 24.3023 5.08628 24.0165 5.16666C24.0071 4.86724 24.0165 4.56782 24.042 4.26968C23.3683 4.51678 22.7069 4.90169 22.3229 5.52776L22.3224 5.52733ZM21.9282 8.05072C21.8869 7.8908 21.8571 7.72323 21.7555 7.58883C21.5237 8.04137 21.4118 8.5645 21.5177 9.0685C21.6385 9.80727 22.1821 10.3725 22.6895 10.8808C22.9247 10.4308 23.0348 9.92551 23.2088 9.45001C23.4721 8.71209 23.6354 7.83977 23.236 7.11971C22.7809 7.40042 22.2995 7.65603 21.9277 8.0503L21.9282 8.05072ZM22.8239 11.1474C22.6265 11.0407 22.4483 10.9037 22.2765 10.7617C22.274 11.0739 22.302 11.3996 22.4687 11.6723C22.7503 12.1631 23.2717 12.4412 23.777 12.6522C24.2972 12.861 24.7897 13.1286 25.2771 13.4063C25.3507 12.7453 25.2592 12.0389 24.8709 11.4839C24.4673 10.8842 23.8081 10.5209 23.139 10.2917C23.0174 10.5699 22.9277 10.8621 22.8243 11.1479L22.8239 11.1474ZM25.4243 13.7091C25.1627 13.5577 24.9041 13.4012 24.6349 13.2651C24.7727 13.7508 25.0427 14.2476 25.52 14.4691C26.2698 14.849 27.0532 15.1577 27.7958 15.552C27.8592 14.9489 27.7924 14.3092 27.4581 13.7886C27.0175 13.0575 26.2294 12.642 25.4528 12.357C25.4876 12.8079 25.4983 13.2617 25.4238 13.7091H25.4243ZM27.8928 15.8693C27.5593 15.6545 27.2233 15.4261 26.8393 15.3142C26.5879 16.5175 27.4326 17.5106 27.8409 18.5641C27.9 18.6581 27.8915 18.8222 28.0127 18.8635C28.632 18.3667 28.968 17.5412 28.8336 16.7535C28.7736 16.1317 28.3964 15.612 28.0144 15.1433C27.9898 15.3878 27.9536 15.6315 27.8928 15.8693ZM28.8812 17.9865C28.6613 18.4884 28.2981 18.9205 27.8354 19.2152C27.8039 19.0502 27.7882 18.8767 27.6899 18.7355C27.2914 19.1025 26.8227 19.4351 26.6011 19.9489C26.2881 20.6256 26.3591 21.4077 26.5798 22.1006C26.8835 21.916 27.1374 21.6625 27.4283 21.46C27.9115 21.0743 28.4784 20.7468 28.7855 20.1884C29.1934 19.5376 29.2687 18.6627 28.8812 17.9869V17.9865ZM24.6506 22.3132C24.1972 22.841 24.0632 23.5739 24.1564 24.2501C24.9037 23.9099 25.699 23.69 26.4459 23.3523C27.1523 23.0154 27.561 22.2669 27.672 21.5162C27.2667 21.7943 26.8852 22.1052 26.5313 22.4468C26.3689 22.1065 26.2842 21.7386 26.2098 21.3716C25.6403 21.5838 25.044 21.8267 24.6506 22.3132ZM24.0322 24.547C24.0118 24.4253 23.9918 24.3041 23.9714 24.1833C23.3045 24.3041 22.6116 24.4228 22.0179 24.7656C21.3468 25.2555 21.0405 26.11 21.0001 26.9147C21.5339 26.7284 22.0723 26.5511 22.6282 26.4426C23.2722 26.3239 23.9118 26.0679 24.3839 25.6026C24.7893 25.2151 24.9887 24.6584 25.0125 24.1051C24.6723 24.2212 24.3406 24.3624 24.0326 24.5474L24.0322 24.547Z" fill="#AE1C3F"/>
<path d="M24.9096 2.85977C25.6441 2.0908 26.7397 1.81562 27.7694 1.76416C27.7609 2.57481 27.4334 3.46925 26.6883 3.87755C25.9057 4.32753 25.0529 4.64737 24.1912 4.91234C24.1819 4.17442 24.3826 3.40035 24.9096 2.85977Z" fill="#FFDD00"/>
<path d="M22.3224 5.52737C22.7065 4.90131 23.3683 4.51639 24.0416 4.26929C24.016 4.56701 24.0067 4.86643 24.016 5.16628C24.3019 5.08589 24.5838 4.98764 24.8654 4.89365C24.8339 5.57288 24.3848 6.15598 23.84 6.52558C23.2377 6.9258 22.5921 7.2584 22.0132 7.69392C21.8627 6.96706 21.9133 6.16491 22.322 5.52694L22.3224 5.52737Z" fill="#FFDD00"/>
<path d="M21.9287 8.05071C22.3 7.65644 22.7814 7.40082 23.237 7.12012C23.6363 7.84017 23.473 8.71249 23.2097 9.45042C23.0354 9.92592 22.9256 10.4312 22.6904 10.8812C22.1826 10.3725 21.6395 9.80768 21.5187 9.06891C21.4128 8.56449 21.5246 8.04177 21.7564 7.58924C21.8581 7.72364 21.8874 7.89121 21.9291 8.05113L21.9287 8.05071Z" fill="#FFDD00"/>
<path d="M22.8243 11.1474C22.9277 10.8616 23.0174 10.5694 23.1391 10.2913C23.8085 10.5205 24.4673 10.8837 24.8709 11.4834C25.2593 12.0385 25.3507 12.7449 25.2771 13.4058C24.7897 13.1281 24.2972 12.861 23.777 12.6518C23.2718 12.4412 22.7507 12.1626 22.4688 11.6718C22.302 11.3992 22.274 11.0738 22.2765 10.7612C22.4483 10.9033 22.627 11.0402 22.8239 11.147L22.8243 11.1474Z" fill="#FFDD00"/>
<path d="M25.4242 13.7093C25.4986 13.2618 25.4876 12.808 25.4531 12.3572C26.2298 12.6421 27.0174 13.0577 27.4585 13.7888C27.7928 14.3089 27.8596 14.9486 27.7962 15.5521C27.0532 15.1579 26.2697 14.8491 25.5203 14.4693C25.0431 14.2477 24.7731 13.7509 24.6353 13.2652C24.9045 13.4013 25.1631 13.5578 25.4246 13.7093H25.4242Z" fill="#FFDD00"/>
<path d="M27.8929 15.8693C27.9537 15.6316 27.9903 15.3879 28.0145 15.1433C28.396 15.612 28.7733 16.1317 28.8337 16.7536C28.9681 17.5412 28.6325 18.3672 28.0128 18.8635C27.892 18.8223 27.9001 18.6581 27.841 18.5641C27.4322 17.5106 26.588 16.5175 26.8394 15.3143C27.2234 15.4261 27.5594 15.6545 27.8929 15.8693Z" fill="#FFDD00"/>
<path d="M28.8815 17.9865C29.2689 18.6623 29.1937 19.5372 28.7858 20.1879C28.4787 20.7464 27.9118 21.0739 27.4286 21.4596C27.1377 21.6617 26.8838 21.9156 26.5801 22.1002C26.3594 21.4073 26.2883 20.6256 26.6014 19.9485C26.823 19.4347 27.2916 19.1025 27.6902 18.7351C27.7884 18.8763 27.8046 19.0498 27.8356 19.2148C28.2984 18.9205 28.6616 18.488 28.8815 17.9861V17.9865Z" fill="#FFDD00"/>
<path d="M24.6511 22.3132C25.0445 21.8267 25.6412 21.5838 26.2103 21.3716C26.2847 21.7386 26.3693 22.107 26.5318 22.4468C26.8857 22.1048 27.2672 21.7943 27.6725 21.5162C27.5615 22.2669 27.1532 23.0154 26.4463 23.3523C25.699 23.69 24.9037 23.9099 24.1568 24.2501C24.0637 23.5743 24.1973 22.8415 24.6511 22.3132Z" fill="#FFDD00"/>
<path d="M24.0325 24.5471C24.3404 24.3616 24.6722 24.2204 25.0124 24.1047C24.9886 24.6581 24.7891 25.2148 24.3838 25.6023C23.9117 26.0676 23.272 26.324 22.6281 26.4423C22.0722 26.5507 21.5342 26.7281 21 26.9144C21.0404 26.1097 21.3471 25.2552 22.0178 24.7653C22.6119 24.4224 23.3048 24.3042 23.9712 24.183C23.9917 24.3038 24.0117 24.425 24.0321 24.5466L24.0325 24.5471Z" fill="#FFDD00"/>
<path d="M32.8332 32.8229C32.8948 32.8207 32.9574 32.8195 33.0203 32.8186C33.7557 34.4067 34.4927 35.9944 35.2336 37.5804C35.3727 37.8263 35.4803 38.1223 35.7444 38.2622C35.8993 38.357 36.0826 38.3766 36.2599 38.3907C36.2595 38.4532 36.2595 38.5157 36.2599 38.5795C35.4289 38.5922 34.5974 38.5812 33.7663 38.5846C33.7646 38.5212 33.7638 38.4587 33.7629 38.3966C33.9479 38.3664 34.1512 38.3779 34.3128 38.2682C34.4711 38.1014 34.3609 37.8654 34.295 37.6829C34.1512 37.3571 33.9968 37.036 33.8446 36.7141C33.0556 36.7119 32.2666 36.7081 31.4781 36.7158C31.3824 36.8374 31.3399 36.9965 31.265 37.133C31.1413 37.4163 30.9694 37.6838 30.9048 37.99C30.8627 38.1184 30.9597 38.2439 31.0715 38.2971C31.245 38.366 31.4339 38.3707 31.6176 38.3928C31.6151 38.4561 31.6138 38.5204 31.6129 38.585C30.9465 38.5833 30.2804 38.5871 29.614 38.5833C29.6135 38.5187 29.614 38.4549 29.614 38.3915C29.8198 38.3524 30.0597 38.3341 30.206 38.1644C30.3685 37.9772 30.4799 37.7531 30.5952 37.5353C31.3412 35.9642 32.0855 34.3927 32.8332 32.8229ZM31.6295 36.3628C32.3181 36.3666 33.0067 36.3666 33.6957 36.3632C33.3601 35.6346 33.0165 34.9099 32.6809 34.1809C32.3194 34.9026 31.9804 35.6355 31.6295 36.3628Z" fill="#AE1C3F"/>
<path d="M9.00932 32.8691C9.67749 32.7832 10.3691 32.9061 10.9619 33.2264C11.0223 33.1401 11.0798 33.052 11.1372 32.964C11.2618 32.9614 11.3864 32.9623 11.5114 32.9695C11.528 33.6356 11.5259 34.3016 11.5472 34.9676C11.417 34.9676 11.2869 34.9681 11.1567 34.9655C11.0049 34.4186 10.7939 33.8372 10.3104 33.4969C9.91524 33.2115 9.39296 33.1711 8.92766 33.2711C8.49767 33.3587 8.12084 33.6356 7.88011 33.9992C7.50711 34.5704 7.40461 35.2734 7.42673 35.9437C7.45863 36.6298 7.6615 37.3592 8.18762 37.8334C8.77965 38.385 9.71492 38.4646 10.4311 38.1205C10.5141 38.0746 10.623 38.0171 10.6221 37.9083C10.6476 37.5663 10.6413 37.2231 10.6379 36.8807C10.6396 36.7267 10.5834 36.5439 10.4226 36.4903C10.1704 36.3967 9.89781 36.3767 9.63156 36.3627C9.63283 36.25 9.63283 36.1377 9.62986 36.0258C10.5307 36.0258 11.4311 36.025 12.3319 36.0262C12.3366 36.1364 12.337 36.2474 12.3344 36.3588C12.0941 36.395 11.8211 36.3861 11.6271 36.5553C11.5489 36.6744 11.537 36.8233 11.5391 36.9628C11.5438 37.3834 11.5293 37.8045 11.5655 38.2243C10.8901 38.4973 10.1738 38.6981 9.44187 38.7151C8.80305 38.744 8.15402 38.5764 7.61216 38.2362C6.9474 37.7985 6.46849 37.0751 6.37365 36.2797C6.26902 35.5843 6.40044 34.8507 6.76792 34.2484C7.23959 33.4663 8.10596 32.9585 9.00932 32.8691Z" fill="#AE1C3F"/>
<path d="M2.98273 32.884L3.3451 32.8866C4.04006 34.5219 4.71759 36.1645 5.4134 37.7994C5.56397 38.1273 5.93356 38.2451 6.26744 38.2732C6.26659 38.377 6.26574 38.4816 6.26488 38.5862C5.40873 38.5879 4.55299 38.5824 3.69683 38.5884C3.69683 38.4812 3.69769 38.374 3.69896 38.2672C3.96053 38.246 4.23188 38.2298 4.47048 38.1103C4.46368 38.0129 4.45772 37.9134 4.41647 37.8241C4.25612 37.4392 4.10471 37.0504 3.94522 36.6651C3.24515 36.66 2.54466 36.6583 1.84416 36.6664C1.70679 37.01 1.56473 37.3541 1.46606 37.7118C1.44182 37.8351 1.39078 38.0014 1.5222 38.0839C1.75442 38.2315 2.04109 38.2366 2.30606 38.2723C2.30563 38.3761 2.30521 38.4807 2.30521 38.5854C1.53709 38.5862 0.768544 38.5862 0 38.5862V38.2511C0.384059 38.2685 0.792361 38.0605 0.937819 37.6892C1.64342 36.0977 2.30095 34.4858 2.98273 32.884ZM2.00366 36.2746C2.59612 36.261 3.19029 36.261 3.78275 36.2751C3.47354 35.5831 3.19156 34.8792 2.88619 34.1855C2.58591 34.8792 2.31669 35.5869 2.00366 36.2746Z" fill="#AE1C3F"/>
<path d="M19.691 32.9053C20.6143 32.904 21.5373 32.904 22.4606 32.9053C22.4615 33.0022 22.4598 33.1 22.4542 33.1974C22.2233 33.2106 21.9915 33.2327 21.7678 33.294C21.6334 33.328 21.5441 33.4696 21.5572 33.6062C21.5551 35.0084 21.5585 36.4107 21.556 37.813C21.5509 37.9104 21.573 38.0069 21.6172 38.0945C21.863 38.2612 22.174 38.2659 22.4598 38.294C22.4602 38.391 22.4602 38.4879 22.4598 38.5858C21.536 38.5858 20.6126 38.5879 19.6893 38.5845C19.6888 38.4862 19.6893 38.3888 19.6905 38.2919C19.9721 38.2659 20.2775 38.3004 20.5305 38.1481C20.5816 38.0592 20.6028 37.9584 20.5986 37.8563C20.5973 36.523 20.5994 35.1892 20.5977 33.8558C20.5918 33.7027 20.6003 33.5428 20.5339 33.4007C20.2702 33.2706 19.9755 33.2319 19.688 33.1919C19.6888 33.0962 19.6897 33.0005 19.691 32.9053Z" fill="#AE1C3F"/>
<path d="M13.1982 32.9661C14.1288 32.9593 15.0594 32.9657 15.99 32.9632C16.4753 32.9636 16.9776 33.0427 17.3974 33.3C17.6398 33.4753 17.8618 33.7134 17.9197 34.0171C18.0124 34.4458 17.926 34.9422 17.6011 35.256C17.2927 35.5567 16.8793 35.7345 16.4647 35.8306C16.622 35.9659 16.7322 36.1445 16.8704 36.2981C17.2085 36.7259 17.5522 37.15 17.8941 37.5753C18.0749 37.8326 18.319 38.0529 18.6129 38.1716C18.7818 38.2401 18.9651 38.246 19.1433 38.2732C19.1433 38.3766 19.1424 38.4808 19.142 38.5846C18.5912 38.5888 18.0409 38.585 17.4901 38.5863C17.1341 38.1014 16.7985 37.6004 16.4251 37.1279C16.1316 36.7799 15.8747 36.4001 15.5528 36.0773C15.3627 36.0463 15.167 36.0722 14.9752 36.0637C14.9663 36.6621 14.9718 37.2601 14.9739 37.8585C14.9693 37.9776 15.016 38.1197 15.1385 38.1631C15.3508 38.249 15.5843 38.2473 15.8092 38.2673C15.8101 38.3745 15.8092 38.4825 15.8033 38.5905C14.9378 38.5837 14.0718 38.5833 13.2063 38.5901C13.1991 38.4821 13.1982 38.374 13.1995 38.2664C13.4471 38.223 13.7648 38.2847 13.9459 38.0725C14.0106 37.9713 14.0089 37.8458 14.0119 37.7305C14.0114 36.4265 14.0123 35.1225 14.0114 33.8185C14.008 33.679 14.0042 33.502 13.866 33.4246C13.6563 33.3328 13.4237 33.3145 13.1987 33.2898C13.1999 33.1814 13.1995 33.0738 13.1982 32.9661ZM14.9752 33.3306C14.9688 34.1145 14.9718 34.8984 14.9744 35.6822C15.3975 35.6771 15.8497 35.7247 16.2341 35.5083C16.6667 35.2964 16.8938 34.7954 16.8504 34.3276C16.8542 33.938 16.6033 33.5646 16.2388 33.4263C15.8348 33.2766 15.3958 33.3489 14.9752 33.3306Z" fill="#AE1C3F"/>
<path d="M23.432 32.9465C24.4102 32.9559 25.3885 32.944 26.3671 32.9525C26.9779 32.9584 27.6192 33.0269 28.1492 33.3565C28.4486 33.5658 28.7068 33.875 28.7663 34.2454C28.8318 34.5772 28.7421 34.9396 28.5171 35.1947C28.3155 35.4487 28.0199 35.609 27.7158 35.7077C28.1122 35.7779 28.5226 35.9314 28.7816 36.2551C29.0755 36.5732 29.1499 37.0623 28.9955 37.4625C28.8777 37.7841 28.6289 38.0405 28.3486 38.2289C27.8825 38.5114 27.3249 38.5552 26.7933 38.582C25.6734 38.5888 24.554 38.5798 23.4341 38.5871C23.4337 38.519 23.435 38.4522 23.4367 38.3855C23.6651 38.3948 23.9139 38.4084 24.1193 38.2902C24.3324 38.1498 24.3286 37.87 24.3337 37.6437C24.3345 36.3686 24.3379 35.0931 24.3315 33.818C24.3201 33.6215 24.3235 33.3659 24.1299 33.2532C23.9232 33.1196 23.6655 33.1418 23.4312 33.1447C23.4312 33.0784 23.4312 33.012 23.432 32.9465ZM25.266 33.3527C25.2664 34.0583 25.2651 34.7643 25.2664 35.4699C25.4633 35.4946 25.6611 35.5201 25.8606 35.5154C26.1574 35.5086 26.4573 35.5346 26.7512 35.4801C27.02 35.4419 27.2985 35.3508 27.4895 35.148C27.8149 34.8362 27.8761 34.2918 27.6379 33.9116C27.4529 33.616 27.1267 33.4373 26.7971 33.351C26.2961 33.2323 25.7678 33.2443 25.266 33.3527ZM25.2685 35.9361C25.2626 36.6714 25.2672 37.4068 25.2664 38.1422C25.7512 38.2434 26.2518 38.2753 26.7444 38.2213C27.1429 38.1702 27.5571 38.0061 27.7889 37.662C28.0216 37.3507 28.0143 36.9083 27.8264 36.5774C27.6766 36.2721 27.3611 36.0913 27.0485 35.9905C26.5287 35.8106 25.9711 35.8591 25.4314 35.8642C25.3804 35.8799 25.2558 35.8472 25.2685 35.9361Z" fill="#AE1C3F"/>
<path d="M36.1922 32.9463C36.7664 32.9531 37.3405 32.948 37.9147 32.9493C38.1423 33.2202 38.4009 33.466 38.6161 33.7463L38.6246 33.7357C39.6411 34.8598 40.655 35.9877 41.6792 37.105C41.6775 35.9945 41.68 34.8836 41.6783 33.7731C41.6728 33.6098 41.6486 33.4358 41.5601 33.2967C41.3462 33.127 41.0574 33.139 40.8001 33.1441C40.7992 33.0781 40.7988 33.0126 40.7992 32.9476C41.535 32.9522 42.2712 32.9476 43.0074 32.9501C43.0062 33.0139 43.0057 33.0777 43.0057 33.1419C42.7442 33.1415 42.4401 33.1219 42.2397 33.3235C42.1338 33.4801 42.144 33.6778 42.1317 33.8586C42.1241 35.4654 42.1364 37.0727 42.1258 38.6795C42.0347 38.6774 41.9288 38.6902 41.8727 38.6025C40.5347 37.1335 39.1962 35.6645 37.8624 34.1916C37.8705 35.2145 37.8633 36.2378 37.8658 37.2607C37.8688 37.5452 37.8471 37.8366 37.9245 38.1143C37.9543 38.2325 38.07 38.301 38.1767 38.3423C38.3617 38.4031 38.5591 38.3856 38.7509 38.3954C38.7496 38.4579 38.7483 38.5205 38.7479 38.5838C38.0117 38.5864 37.2755 38.5813 36.5397 38.5868C36.5384 38.5196 36.5384 38.4533 36.5384 38.3873C36.8029 38.3984 37.11 38.4069 37.3159 38.2108C37.412 38.0399 37.4171 37.8344 37.4226 37.643C37.4235 36.3297 37.4222 35.0163 37.4235 33.7029C37.2823 33.5817 37.1708 33.4231 37.0028 33.3367C36.7579 33.1951 36.4729 33.1304 36.1909 33.1449C36.1909 33.0781 36.1913 33.0122 36.1922 32.9463Z" fill="#AE1C3F"/>
<path d="M43.2518 32.9458C44.1496 32.9543 45.0479 32.9467 45.9457 32.9496C45.9444 33.0139 45.944 33.0781 45.944 33.1431C45.6816 33.13 45.3919 33.1461 45.1797 33.3188C45.0759 33.4451 45.0844 33.6212 45.073 33.776C45.0594 34.3953 45.0768 35.0145 45.0636 35.6338C45.38 35.3633 45.7075 35.106 46.0176 34.8278C46.3629 34.5514 46.7006 34.2651 47.0149 33.9538C47.1753 33.7875 47.3692 33.628 47.4198 33.3907C47.4326 33.3307 47.3909 33.2801 47.3748 33.2269C47.2157 33.141 47.0337 33.1338 46.8572 33.1423C46.8563 33.0772 46.8559 33.0126 46.8559 32.9484C47.6308 32.9509 48.4062 32.9488 49.1819 32.9492C49.1802 33.0122 49.1789 33.0755 49.1789 33.1397C48.7609 33.1436 48.3768 33.346 48.0523 33.5936C47.7006 33.8458 47.4041 34.1631 47.0792 34.4467C46.7564 34.7496 46.4204 35.0371 46.0937 35.3361C46.0533 35.3812 45.9895 35.4143 45.9742 35.4764C46.5058 35.9668 47.0541 36.441 47.5887 36.9284C48.0081 37.2861 48.3938 37.6859 48.8544 37.9926C49.1921 38.224 49.5915 38.3652 50.0002 38.392C49.9964 38.4566 49.9939 38.5221 49.9909 38.5876C48.9914 38.5812 47.9919 38.5833 46.9924 38.5872C46.9941 38.5204 46.9967 38.4541 46.9996 38.3881C47.1536 38.3792 47.3412 38.3945 47.45 38.2627C47.5385 38.1772 47.4934 38.0364 47.4381 37.9458C47.285 37.7646 47.0873 37.6302 46.9201 37.4639C46.2996 36.917 45.6867 36.3615 45.0645 35.8167C45.0755 36.4538 45.061 37.0913 45.0713 37.7289C45.0802 37.8807 45.0738 38.0423 45.1474 38.1814C45.3579 38.3839 45.6701 38.4043 45.947 38.3907C45.9453 38.4549 45.944 38.5195 45.9436 38.5846C45.0457 38.5859 44.1483 38.5812 43.2505 38.5876C43.2518 38.5191 43.2539 38.4524 43.2564 38.3856C43.5112 38.3983 43.8042 38.4077 44.0101 38.2312C44.1381 38.0853 44.1292 37.8718 44.1432 37.6885C44.1462 36.3972 44.1449 35.106 44.1436 33.8147C44.1283 33.6365 44.1466 33.4132 43.9871 33.2929C43.7766 33.1397 43.5023 33.1308 43.2526 33.1474C43.2518 33.0798 43.2513 33.0126 43.2518 32.9458Z" fill="#AE1C3F"/>
</svg>
