<svg width="103" height="20" viewBox="0 0 103 20" fill="none" xmlns="http://www.w3.org/2000/svg">
<rect width="103" height="20" rx="4" fill="#EFF1F4"/>
<path d="M10.2656 13.168C9.71224 12.8555 9.26953 12.4062 8.9375 11.8203C8.61198 11.2474 8.44922 10.6126 8.44922 9.91602C8.44922 9.2194 8.61198 8.58464 8.9375 8.01172C9.26302 7.4388 9.70573 6.99284 10.2656 6.67383C10.8516 6.3418 11.4831 6.17578 12.1602 6.17578C12.681 6.17578 13.1693 6.27669 13.625 6.47852C14.0677 6.67383 14.4518 6.96354 14.7773 7.34766L14.1719 7.94336C13.8984 7.61784 13.599 7.37695 13.2734 7.2207C12.9479 7.06445 12.5768 6.98633 12.1602 6.98633C11.6458 6.98633 11.1706 7.11003 10.7344 7.35742C10.2982 7.60482 9.95312 7.94661 9.69922 8.38281C9.4388 8.83203 9.30859 9.3431 9.30859 9.91602C9.30859 10.4954 9.4388 11.0098 9.69922 11.459C9.95312 11.8952 10.2982 12.237 10.7344 12.4844C11.1576 12.7253 11.6328 12.8457 12.1602 12.8457C13.026 12.8457 13.7617 12.4909 14.3672 11.7812L14.9922 12.377C14.6732 12.7611 14.263 13.0736 13.7617 13.3145C13.2865 13.5423 12.7526 13.6562 12.1602 13.6562C11.4701 13.6562 10.8385 13.4935 10.2656 13.168ZM15.9395 6.3418H16.7891V8.45117L16.7402 9.1543H16.7891C16.9193 8.90039 17.1406 8.68229 17.4531 8.5C17.7526 8.32422 18.0846 8.23633 18.4492 8.23633C19.0677 8.23633 19.5397 8.41862 19.8652 8.7832C20.1908 9.14779 20.3535 9.62956 20.3535 10.2285V13.5H19.5039V10.3555C19.5039 9.89974 19.3867 9.5612 19.1523 9.33984C18.9245 9.11849 18.6217 9.00781 18.2441 9.00781C17.9902 9.00781 17.7461 9.08919 17.5117 9.25195C17.2904 9.4082 17.1146 9.61328 16.9844 9.86719C16.8542 10.1276 16.7891 10.3913 16.7891 10.6582V13.5H15.9395V6.3418ZM22.5703 13.3047C22.1732 13.0638 21.8607 12.735 21.6328 12.3184C21.4115 11.9147 21.3008 11.459 21.3008 10.9512C21.3008 10.4434 21.4115 9.98763 21.6328 9.58398C21.8607 9.16732 22.1732 8.83854 22.5703 8.59766C22.9674 8.35677 23.4167 8.23633 23.918 8.23633C24.4193 8.23633 24.8685 8.35677 25.2656 8.59766C25.6628 8.83854 25.9753 9.16732 26.2031 9.58398C26.4245 9.98763 26.5352 10.4434 26.5352 10.9512C26.5352 11.459 26.4245 11.9147 26.2031 12.3184C25.9753 12.735 25.6628 13.0638 25.2656 13.3047C24.8815 13.5391 24.4323 13.6562 23.918 13.6562C23.4036 13.6562 22.9544 13.5391 22.5703 13.3047ZM24.7969 12.6504C25.0573 12.5007 25.2721 12.276 25.4414 11.9766C25.6042 11.6901 25.6855 11.3483 25.6855 10.9512C25.6855 10.5475 25.6042 10.2025 25.4414 9.91602C25.2721 9.61654 25.0573 9.39193 24.7969 9.24219C24.5234 9.08594 24.2305 9.00781 23.918 9.00781C23.6055 9.00781 23.3125 9.08594 23.0391 9.24219C22.7721 9.39844 22.554 9.62305 22.3848 9.91602C22.222 10.2025 22.1406 10.5475 22.1406 10.9512C22.1406 11.3483 22.222 11.6901 22.3848 11.9766C22.554 12.2695 22.7721 12.4941 23.0391 12.6504C23.3255 12.8132 23.6185 12.8945 23.918 12.8945C24.2174 12.8945 24.5104 12.8132 24.7969 12.6504ZM23.5371 15.2578C23.4329 15.1536 23.3809 15.0267 23.3809 14.877C23.3809 14.7207 23.4329 14.5938 23.5371 14.4961C23.6413 14.3984 23.7682 14.3496 23.918 14.3496C24.0742 14.3496 24.2012 14.3984 24.2988 14.4961C24.3965 14.5938 24.4453 14.7207 24.4453 14.877C24.4453 15.0267 24.3965 15.1536 24.2988 15.2578C24.2012 15.3685 24.0742 15.4238 23.918 15.4238C23.7747 15.4238 23.6478 15.3685 23.5371 15.2578ZM27.5312 8.40234H28.332V9.1543H28.3809C28.5176 8.90039 28.7389 8.68555 29.0449 8.50977C29.3574 8.32747 29.6862 8.23633 30.0312 8.23633C30.6432 8.23633 31.1087 8.41536 31.4277 8.77344C31.7533 9.13802 31.916 9.62305 31.916 10.2285V13.5H31.0664V10.3555C31.0664 9.88672 30.9525 9.54492 30.7246 9.33008C30.5033 9.11523 30.194 9.00781 29.7969 9.00781C29.5234 9.00781 29.2793 9.08594 29.0645 9.24219C28.8366 9.41146 28.6673 9.61328 28.5566 9.84766C28.4395 10.1016 28.3809 10.362 28.3809 10.6289V13.5H27.5312V8.40234ZM35.4512 6.3418H36.3008V13.5H35.4512V6.3418ZM38.1367 13.4414C37.8372 13.2917 37.6094 13.0898 37.4531 12.8359C37.2969 12.582 37.2188 12.2891 37.2188 11.957C37.2188 11.4167 37.4206 10.9967 37.8242 10.6973C38.2409 10.3913 38.7552 10.2383 39.3672 10.2383C39.6862 10.2383 39.9727 10.2708 40.2266 10.3359C40.487 10.401 40.6855 10.4792 40.8223 10.5703V10.2578C40.8223 9.88672 40.6921 9.58398 40.4316 9.34961C40.1712 9.11523 39.8327 8.99805 39.416 8.99805C39.1361 8.99805 38.8757 9.0599 38.6348 9.18359C38.3809 9.3138 38.1888 9.48633 38.0586 9.70117L37.4141 9.22266C37.6094 8.92318 37.8861 8.68229 38.2441 8.5C38.5957 8.32422 38.9863 8.23633 39.416 8.23633C40.1061 8.23633 40.6497 8.41862 41.0469 8.7832C41.4375 9.14128 41.6328 9.63607 41.6328 10.2676V13.5H40.8223V12.7676H40.7832C40.6335 13.0215 40.4154 13.2331 40.1289 13.4023C39.849 13.5716 39.5169 13.6562 39.1328 13.6562C38.7552 13.6562 38.4232 13.5846 38.1367 13.4414ZM40.0215 12.6895C40.2689 12.5397 40.4642 12.3444 40.6074 12.1035C40.7507 11.8626 40.8223 11.5924 40.8223 11.293C40.666 11.1888 40.4707 11.1009 40.2363 11.0293C40.015 10.9642 39.7676 10.9316 39.4941 10.9316C39.0254 10.9316 38.6738 11.0293 38.4395 11.2246C38.2051 11.4199 38.0879 11.6673 38.0879 11.9668C38.0879 12.2467 38.1953 12.4746 38.4102 12.6504C38.625 12.8262 38.8952 12.9141 39.2207 12.9141C39.5072 12.9141 39.7741 12.8392 40.0215 12.6895ZM38.4004 6.13672H39.3281L39.8457 7.40625H39.0938L38.4004 6.13672ZM42.8145 8.40234H43.6152V9.1543H43.6641C43.8073 8.89388 44.0254 8.67578 44.3184 8.5C44.6113 8.32422 44.9206 8.23633 45.2461 8.23633C45.6107 8.23633 45.9362 8.32747 46.2227 8.50977C46.5026 8.69206 46.7012 8.93294 46.8184 9.23242C46.9941 8.93294 47.2318 8.69206 47.5312 8.50977C47.8372 8.32747 48.1823 8.23633 48.5664 8.23633C49.1589 8.23633 49.6016 8.41536 49.8945 8.77344C50.194 9.14453 50.3438 9.62956 50.3438 10.2285V13.5H49.5039V10.3555C49.5039 9.88672 49.4062 9.54492 49.2109 9.33008C49.0156 9.11523 48.7292 9.00781 48.3516 9.00781C48.0977 9.00781 47.8665 9.08268 47.6582 9.23242C47.4499 9.38216 47.2871 9.57747 47.1699 9.81836C47.0592 10.0462 47.0039 10.3132 47.0039 10.6191V13.5H46.1543V10.3652C46.1543 9.88997 46.0566 9.54492 45.8613 9.33008C45.666 9.11523 45.3828 9.00781 45.0117 9.00781C44.7578 9.00781 44.5267 9.08268 44.3184 9.23242C44.11 9.38216 43.9473 9.58398 43.8301 9.83789C43.7194 10.0788 43.6641 10.3457 43.6641 10.6387V13.5H42.8145V8.40234ZM53.8887 8.40234H54.6895V9.1543H54.7383C54.8815 8.89388 55.0996 8.67578 55.3926 8.5C55.6855 8.32422 55.9948 8.23633 56.3203 8.23633C56.6849 8.23633 57.0104 8.32747 57.2969 8.50977C57.5768 8.69206 57.7754 8.93294 57.8926 9.23242C58.0684 8.93294 58.306 8.69206 58.6055 8.50977C58.9115 8.32747 59.2565 8.23633 59.6406 8.23633C60.2331 8.23633 60.6758 8.41536 60.9688 8.77344C61.2682 9.14453 61.418 9.62956 61.418 10.2285V13.5H60.5781V10.3555C60.5781 9.88672 60.4805 9.54492 60.2852 9.33008C60.0898 9.11523 59.8034 9.00781 59.4258 9.00781C59.1719 9.00781 58.9408 9.08268 58.7324 9.23242C58.5241 9.38216 58.3613 9.57747 58.2441 9.81836C58.1335 10.0462 58.0781 10.3132 58.0781 10.6191V13.5H57.2285V10.3652C57.2285 9.88997 57.1309 9.54492 56.9355 9.33008C56.7402 9.11523 56.457 9.00781 56.0859 9.00781C55.832 9.00781 55.6009 9.08268 55.3926 9.23242C55.1842 9.38216 55.0215 9.58398 54.9043 9.83789C54.7936 10.0788 54.7383 10.3457 54.7383 10.6387V13.5H53.8887V8.40234ZM63.2734 13.4414C62.974 13.2917 62.7461 13.0898 62.5898 12.8359C62.4336 12.582 62.3555 12.2891 62.3555 11.957C62.3555 11.4167 62.5573 10.9967 62.9609 10.6973C63.3776 10.3913 63.8919 10.2383 64.5039 10.2383C64.8229 10.2383 65.1094 10.2708 65.3633 10.3359C65.6237 10.401 65.8223 10.4792 65.959 10.5703V10.2578C65.959 9.88672 65.8288 9.58398 65.5684 9.34961C65.3079 9.11523 64.9694 8.99805 64.5527 8.99805C64.2728 8.99805 64.0124 9.0599 63.7715 9.18359C63.5176 9.3138 63.3255 9.48633 63.1953 9.70117L62.5508 9.22266C62.7461 8.92318 63.0228 8.68229 63.3809 8.5C63.7324 8.32422 64.123 8.23633 64.5527 8.23633C65.2428 8.23633 65.7865 8.41862 66.1836 8.7832C66.5742 9.14128 66.7695 9.63607 66.7695 10.2676V13.5H65.959V12.7676H65.9199C65.7702 13.0215 65.5521 13.2331 65.2656 13.4023C64.9857 13.5716 64.6536 13.6562 64.2695 13.6562C63.8919 13.6562 63.5599 13.5846 63.2734 13.4414ZM65.1582 12.6895C65.4056 12.5397 65.6009 12.3444 65.7441 12.1035C65.8874 11.8626 65.959 11.5924 65.959 11.293C65.8027 11.1888 65.6074 11.1009 65.373 11.0293C65.1517 10.9642 64.9043 10.9316 64.6309 10.9316C64.1621 10.9316 63.8105 11.0293 63.5762 11.2246C63.3418 11.4199 63.2246 11.6673 63.2246 11.9668C63.2246 12.2467 63.332 12.4746 63.5469 12.6504C63.7617 12.8262 64.0319 12.9141 64.3574 12.9141C64.6439 12.9141 64.9108 12.8392 65.1582 12.6895ZM64.2305 15.2578C64.1263 15.1536 64.0742 15.0267 64.0742 14.877C64.0742 14.7207 64.1263 14.5938 64.2305 14.4961C64.3411 14.3984 64.4681 14.3496 64.6113 14.3496C64.7676 14.3496 64.8945 14.3984 64.9922 14.4961C65.0964 14.6003 65.1484 14.7272 65.1484 14.877C65.1484 15.0137 65.0964 15.1406 64.9922 15.2578C64.8945 15.3685 64.7676 15.4238 64.6113 15.4238C64.4681 15.4238 64.3411 15.3685 64.2305 15.2578ZM63.9863 7.26953C63.804 7.17188 63.6478 7.01888 63.5176 6.81055C63.3939 6.61523 63.332 6.40365 63.332 6.17578H64.0254C64.0254 6.35156 64.0775 6.49479 64.1816 6.60547C64.2923 6.72917 64.4355 6.79102 64.6113 6.79102C64.7741 6.79102 64.9108 6.72917 65.0215 6.60547C65.1322 6.48177 65.1875 6.33854 65.1875 6.17578H65.8613C65.8613 6.41016 65.8027 6.62174 65.6855 6.81055C65.5553 7.01888 65.4023 7.17188 65.2266 7.26953C65.0378 7.3737 64.8327 7.42578 64.6113 7.42578C64.3835 7.42578 64.1751 7.3737 63.9863 7.26953ZM68.9277 13.3047C68.5436 13.0703 68.2376 12.748 68.0098 12.3379C67.7884 11.9342 67.6777 11.472 67.6777 10.9512C67.6777 10.4303 67.7884 9.9681 68.0098 9.56445C68.2441 9.14128 68.5501 8.81576 68.9277 8.58789C69.3184 8.35352 69.7611 8.23633 70.2559 8.23633C70.7962 8.23633 71.2617 8.36654 71.6523 8.62695C72.0299 8.88086 72.2969 9.22266 72.4531 9.65234L71.6816 9.97461C71.5514 9.64909 71.3659 9.4082 71.125 9.25195C70.8776 9.08919 70.5749 9.00781 70.2168 9.00781C69.9173 9.00781 69.6374 9.08919 69.377 9.25195C69.1165 9.41471 68.9082 9.64258 68.752 9.93555C68.5957 10.2285 68.5176 10.5671 68.5176 10.9512C68.5176 11.3288 68.5957 11.6641 68.752 11.957C68.9082 12.25 69.1165 12.4779 69.377 12.6406C69.6439 12.8099 69.9238 12.8945 70.2168 12.8945C70.5684 12.8945 70.8776 12.8099 71.1445 12.6406C71.4049 12.4779 71.6003 12.2402 71.7305 11.9277L72.4824 12.25C72.3066 12.6667 72.0299 13.0052 71.6523 13.2656C71.2747 13.526 70.8092 13.6562 70.2559 13.6562C69.7611 13.6562 69.3184 13.5391 68.9277 13.3047ZM81.1152 7.66992H80.4805V13.5H79.6699V12.748H79.6309C79.4811 12.9954 79.2467 13.2103 78.9277 13.3926C78.6217 13.5684 78.2767 13.6562 77.8926 13.6562C77.4173 13.6562 77.0007 13.5423 76.6426 13.3145C76.278 13.0866 75.9883 12.7643 75.7734 12.3477C75.5586 11.9375 75.4512 11.472 75.4512 10.9512C75.4512 10.4368 75.5586 9.97461 75.7734 9.56445C75.9948 9.14128 76.2845 8.81576 76.6426 8.58789C77.0137 8.35352 77.4303 8.23633 77.8926 8.23633C78.2702 8.23633 78.6152 8.32747 78.9277 8.50977C79.2467 8.69857 79.4811 8.91667 79.6309 9.16406H79.6699L79.6309 8.48047V7.66992H78.0879V6.99609H79.6309V6.3418H80.4805V6.99609H81.1152V7.66992ZM78.8105 12.6504C79.071 12.4941 79.2793 12.2663 79.4355 11.9668C79.5918 11.6738 79.6699 11.3353 79.6699 10.9512C79.6699 10.5605 79.5918 10.2188 79.4355 9.92578C79.2793 9.63932 79.071 9.41471 78.8105 9.25195C78.5436 9.08919 78.2669 9.00781 77.9805 9.00781C77.7005 9.00781 77.4238 9.08919 77.1504 9.25195C76.8965 9.40169 76.6882 9.62956 76.5254 9.93555C76.3691 10.2285 76.291 10.5671 76.291 10.9512C76.291 11.3353 76.3691 11.6738 76.5254 11.9668C76.6882 12.2728 76.8965 12.5007 77.1504 12.6504C77.4238 12.8132 77.7005 12.8945 77.9805 12.8945C78.2669 12.8945 78.5436 12.8132 78.8105 12.6504ZM82.2383 7.46484C82.0755 7.46484 81.9323 7.40299 81.8086 7.2793C81.6849 7.1556 81.623 7.01237 81.623 6.84961C81.623 6.68034 81.6849 6.53385 81.8086 6.41016C81.9193 6.29948 82.0625 6.24414 82.2383 6.24414C82.4141 6.24414 82.5573 6.29948 82.668 6.41016C82.7852 6.52734 82.8438 6.67383 82.8438 6.84961C82.8438 7.01888 82.7852 7.16211 82.668 7.2793C82.5443 7.40299 82.401 7.46484 82.2383 7.46484ZM81.8184 8.40234H82.668V13.5H81.8184V8.40234ZM82.2383 15.4238C82.0951 15.4238 81.9681 15.3685 81.8574 15.2578C81.7467 15.1471 81.6914 15.0202 81.6914 14.877C81.6914 14.7207 81.7467 14.5938 81.8574 14.4961C81.9681 14.3984 82.0951 14.3496 82.2383 14.3496C82.3945 14.3496 82.5215 14.3984 82.6191 14.4961C82.7168 14.5938 82.7656 14.7207 82.7656 14.877C82.7656 15.0267 82.7168 15.1536 82.6191 15.2578C82.5215 15.3685 82.3945 15.4238 82.2383 15.4238ZM83.9961 8.40234H84.7969V9.1543H84.8457C84.9824 8.90039 85.2038 8.68555 85.5098 8.50977C85.8223 8.32747 86.151 8.23633 86.4961 8.23633C87.1081 8.23633 87.5736 8.41536 87.8926 8.77344C88.2181 9.13802 88.3809 9.62305 88.3809 10.2285V13.5H87.5312V10.3555C87.5312 9.88672 87.4173 9.54492 87.1895 9.33008C86.9681 9.11523 86.6589 9.00781 86.2617 9.00781C85.9883 9.00781 85.7441 9.08594 85.5293 9.24219C85.3014 9.41146 85.1322 9.61328 85.0215 9.84766C84.9043 10.1016 84.8457 10.362 84.8457 10.6289V13.5H83.9961V8.40234ZM89.6016 6.3418H90.4512V8.45117L90.4023 9.1543H90.4512C90.5814 8.90039 90.8027 8.68229 91.1152 8.5C91.4147 8.32422 91.7467 8.23633 92.1113 8.23633C92.7298 8.23633 93.2018 8.41862 93.5273 8.7832C93.8529 9.14779 94.0156 9.62956 94.0156 10.2285V13.5H93.166V10.3555C93.166 9.89974 93.0488 9.5612 92.8145 9.33984C92.5866 9.11849 92.2839 9.00781 91.9062 9.00781C91.6523 9.00781 91.4082 9.08919 91.1738 9.25195C90.9525 9.4082 90.7767 9.61328 90.6465 9.86719C90.5163 10.1276 90.4512 10.3913 90.4512 10.6582V13.5H89.6016V6.3418Z" fill="#A0ACBE"/>
</svg>
