<svg width="74" height="20" viewBox="0 0 74 20" fill="none" xmlns="http://www.w3.org/2000/svg">
<rect width="74" height="20" rx="4" fill="#EAF0F7"/>
<path d="M14 15.25C12.6076 15.25 11.2723 14.6969 10.2877 13.7123C9.30312 12.7277 8.75 11.3924 8.75 10C8.75 8.60761 9.30312 7.27226 10.2877 6.28769C11.2723 5.30312 12.6076 4.75 14 4.75C15.3924 4.75 16.7277 5.30312 17.7123 6.28769C18.6969 7.27226 19.25 8.60761 19.25 10C19.25 11.3924 18.6969 12.7277 17.7123 13.7123C16.7277 14.6969 15.3924 15.25 14 15.25ZM14 16C15.5913 16 17.1174 15.3679 18.2426 14.2426C19.3679 13.1174 20 11.5913 20 10C20 8.4087 19.3679 6.88258 18.2426 5.75736C17.1174 4.63214 15.5913 4 14 4C12.4087 4 10.8826 4.63214 9.75736 5.75736C8.63214 6.88258 8 8.4087 8 10C8 11.5913 8.63214 13.1174 9.75736 14.2426C10.8826 15.3679 12.4087 16 14 16Z" fill="#0050A6"/>
<path d="M16.2275 7.7275C16.2222 7.73267 16.2172 7.73819 16.2125 7.744L13.6078 11.0627L12.038 9.49225C11.9314 9.39289 11.7903 9.33879 11.6446 9.34137C11.4989 9.34394 11.3599 9.40297 11.2568 9.50603C11.1537 9.60909 11.0947 9.74813 11.0921 9.89386C11.0896 10.0396 11.1436 10.1806 11.243 10.2872L13.2275 12.2725C13.281 12.3259 13.3446 12.3679 13.4147 12.3961C13.4848 12.4244 13.5598 12.4382 13.6353 12.4368C13.7108 12.4354 13.7853 12.4188 13.8543 12.388C13.9233 12.3572 13.9853 12.3128 14.0368 12.2575L17.0308 8.515C17.1327 8.40799 17.1884 8.26517 17.1859 8.1174C17.1834 7.96963 17.1228 7.82878 17.0173 7.72532C16.9118 7.62185 16.7698 7.56408 16.622 7.56449C16.4742 7.56489 16.3325 7.62345 16.2275 7.7275Z" fill="#0050A6"/>
<path d="M24.8008 6.3418H26.0312L28.3066 12.2109H28.3457L30.6309 6.3418H31.8613V13.5H31.0215V8.94922L31.0605 7.5918H31.0215L28.6777 13.5H27.9844L25.6406 7.5918H25.6016L25.6406 8.94922V13.5H24.8008V6.3418ZM33.9121 13.4414C33.6126 13.2917 33.3848 13.0898 33.2285 12.8359C33.0723 12.582 32.9941 12.2891 32.9941 11.957C32.9941 11.4167 33.196 10.9967 33.5996 10.6973C34.0163 10.3913 34.5306 10.2383 35.1426 10.2383C35.4616 10.2383 35.748 10.2708 36.002 10.3359C36.2624 10.401 36.4609 10.4792 36.5977 10.5703V10.2578C36.5977 9.88672 36.4674 9.58398 36.207 9.34961C35.9466 9.11523 35.6081 8.99805 35.1914 8.99805C34.9115 8.99805 34.651 9.0599 34.4102 9.18359C34.1562 9.3138 33.9642 9.48633 33.834 9.70117L33.1895 9.22266C33.3848 8.92318 33.6615 8.68229 34.0195 8.5C34.3711 8.32422 34.7617 8.23633 35.1914 8.23633C35.8815 8.23633 36.4251 8.41862 36.8223 8.7832C37.2129 9.14128 37.4082 9.63607 37.4082 10.2676V13.5H36.5977V12.7676H36.5586C36.4089 13.0215 36.1908 13.2331 35.9043 13.4023C35.6243 13.5716 35.2923 13.6562 34.9082 13.6562C34.5306 13.6562 34.1986 13.5846 33.9121 13.4414ZM35.7969 12.6895C36.0443 12.5397 36.2396 12.3444 36.3828 12.1035C36.526 11.8626 36.5977 11.5924 36.5977 11.293C36.4414 11.1888 36.2461 11.1009 36.0117 11.0293C35.7904 10.9642 35.543 10.9316 35.2695 10.9316C34.8008 10.9316 34.4492 11.0293 34.2148 11.2246C33.9805 11.4199 33.8633 11.6673 33.8633 11.9668C33.8633 12.2467 33.9707 12.4746 34.1855 12.6504C34.4004 12.8262 34.6706 12.9141 34.9961 12.9141C35.2826 12.9141 35.5495 12.8392 35.7969 12.6895ZM34.8691 15.2578C34.765 15.1536 34.7129 15.0267 34.7129 14.877C34.7129 14.7207 34.765 14.5938 34.8691 14.4961C34.9798 14.3984 35.1068 14.3496 35.25 14.3496C35.4062 14.3496 35.5332 14.3984 35.6309 14.4961C35.735 14.6003 35.7871 14.7272 35.7871 14.877C35.7871 15.0137 35.735 15.1406 35.6309 15.2578C35.5332 15.3685 35.4062 15.4238 35.25 15.4238C35.1068 15.4238 34.9798 15.3685 34.8691 15.2578ZM34.625 7.26953C34.4427 7.17188 34.2865 7.01888 34.1562 6.81055C34.0326 6.61523 33.9707 6.40365 33.9707 6.17578H34.6641C34.6641 6.35156 34.7161 6.49479 34.8203 6.60547C34.931 6.72917 35.0742 6.79102 35.25 6.79102C35.4128 6.79102 35.5495 6.72917 35.6602 6.60547C35.7708 6.48177 35.8262 6.33854 35.8262 6.17578H36.5C36.5 6.41016 36.4414 6.62174 36.3242 6.81055C36.194 7.01888 36.041 7.17188 35.8652 7.26953C35.6764 7.3737 35.4714 7.42578 35.25 7.42578C35.0221 7.42578 34.8138 7.3737 34.625 7.26953ZM39.5664 13.3047C39.1823 13.0703 38.8763 12.748 38.6484 12.3379C38.4271 11.9342 38.3164 11.472 38.3164 10.9512C38.3164 10.4303 38.4271 9.9681 38.6484 9.56445C38.8828 9.14128 39.1888 8.81576 39.5664 8.58789C39.957 8.35352 40.3997 8.23633 40.8945 8.23633C41.4349 8.23633 41.9004 8.36654 42.291 8.62695C42.6686 8.88086 42.9355 9.22266 43.0918 9.65234L42.3203 9.97461C42.1901 9.64909 42.0046 9.4082 41.7637 9.25195C41.5163 9.08919 41.2135 9.00781 40.8555 9.00781C40.556 9.00781 40.276 9.08919 40.0156 9.25195C39.7552 9.41471 39.5469 9.64258 39.3906 9.93555C39.2344 10.2285 39.1562 10.5671 39.1562 10.9512C39.1562 11.3288 39.2344 11.6641 39.3906 11.957C39.5469 12.25 39.7552 12.4779 40.0156 12.6406C40.2826 12.8099 40.5625 12.8945 40.8555 12.8945C41.207 12.8945 41.5163 12.8099 41.7832 12.6406C42.0436 12.4779 42.2389 12.2402 42.3691 11.9277L43.1211 12.25C42.9453 12.6667 42.6686 13.0052 42.291 13.2656C41.9134 13.526 41.4479 13.6562 40.8945 13.6562C40.3997 13.6562 39.957 13.5391 39.5664 13.3047ZM51.7539 7.66992H51.1191V13.5H50.3086V12.748H50.2695C50.1198 12.9954 49.8854 13.2103 49.5664 13.3926C49.2604 13.5684 48.9154 13.6562 48.5312 13.6562C48.056 13.6562 47.6393 13.5423 47.2812 13.3145C46.9167 13.0866 46.627 12.7643 46.4121 12.3477C46.1973 11.9375 46.0898 11.472 46.0898 10.9512C46.0898 10.4368 46.1973 9.97461 46.4121 9.56445C46.6335 9.14128 46.9232 8.81576 47.2812 8.58789C47.6523 8.35352 48.069 8.23633 48.5312 8.23633C48.9089 8.23633 49.2539 8.32747 49.5664 8.50977C49.8854 8.69857 50.1198 8.91667 50.2695 9.16406H50.3086L50.2695 8.48047V7.66992H48.7266V6.99609H50.2695V6.3418H51.1191V6.99609H51.7539V7.66992ZM49.4492 12.6504C49.7096 12.4941 49.918 12.2663 50.0742 11.9668C50.2305 11.6738 50.3086 11.3353 50.3086 10.9512C50.3086 10.5605 50.2305 10.2188 50.0742 9.92578C49.918 9.63932 49.7096 9.41471 49.4492 9.25195C49.1823 9.08919 48.9056 9.00781 48.6191 9.00781C48.3392 9.00781 48.0625 9.08919 47.7891 9.25195C47.5352 9.40169 47.3268 9.62956 47.1641 9.93555C47.0078 10.2285 46.9297 10.5671 46.9297 10.9512C46.9297 11.3353 47.0078 11.6738 47.1641 11.9668C47.3268 12.2728 47.5352 12.5007 47.7891 12.6504C48.0625 12.8132 48.3392 12.8945 48.6191 12.8945C48.9056 12.8945 49.1823 12.8132 49.4492 12.6504ZM52.877 7.46484C52.7142 7.46484 52.571 7.40299 52.4473 7.2793C52.3236 7.1556 52.2617 7.01237 52.2617 6.84961C52.2617 6.68034 52.3236 6.53385 52.4473 6.41016C52.5579 6.29948 52.7012 6.24414 52.877 6.24414C53.0527 6.24414 53.196 6.29948 53.3066 6.41016C53.4238 6.52734 53.4824 6.67383 53.4824 6.84961C53.4824 7.01888 53.4238 7.16211 53.3066 7.2793C53.1829 7.40299 53.0397 7.46484 52.877 7.46484ZM52.457 8.40234H53.3066V13.5H52.457V8.40234ZM52.877 15.4238C52.7337 15.4238 52.6068 15.3685 52.4961 15.2578C52.3854 15.1471 52.3301 15.0202 52.3301 14.877C52.3301 14.7207 52.3854 14.5938 52.4961 14.4961C52.6068 14.3984 52.7337 14.3496 52.877 14.3496C53.0332 14.3496 53.1602 14.3984 53.2578 14.4961C53.3555 14.5938 53.4043 14.7207 53.4043 14.877C53.4043 15.0267 53.3555 15.1536 53.2578 15.2578C53.1602 15.3685 53.0332 15.4238 52.877 15.4238ZM54.6348 8.40234H55.4355V9.1543H55.4844C55.6211 8.90039 55.8424 8.68555 56.1484 8.50977C56.4609 8.32747 56.7897 8.23633 57.1348 8.23633C57.7467 8.23633 58.2122 8.41536 58.5312 8.77344C58.8568 9.13802 59.0195 9.62305 59.0195 10.2285V13.5H58.1699V10.3555C58.1699 9.88672 58.056 9.54492 57.8281 9.33008C57.6068 9.11523 57.2975 9.00781 56.9004 9.00781C56.627 9.00781 56.3828 9.08594 56.168 9.24219C55.9401 9.41146 55.7708 9.61328 55.6602 9.84766C55.543 10.1016 55.4844 10.362 55.4844 10.6289V13.5H54.6348V8.40234ZM60.2402 6.3418H61.0898V8.45117L61.041 9.1543H61.0898C61.2201 8.90039 61.4414 8.68229 61.7539 8.5C62.0534 8.32422 62.3854 8.23633 62.75 8.23633C63.3685 8.23633 63.8405 8.41862 64.166 8.7832C64.4915 9.14779 64.6543 9.62956 64.6543 10.2285V13.5H63.8047V10.3555C63.8047 9.89974 63.6875 9.5612 63.4531 9.33984C63.2253 9.11849 62.9225 9.00781 62.5449 9.00781C62.291 9.00781 62.0469 9.08919 61.8125 9.25195C61.5911 9.4082 61.4154 9.61328 61.2852 9.86719C61.1549 10.1276 61.0898 10.3913 61.0898 10.6582V13.5H60.2402V6.3418Z" fill="#0050A6"/>
</svg>
