<svg width="103" height="28" viewBox="0 0 103 28" fill="none" xmlns="http://www.w3.org/2000/svg">
<rect width="103" height="28" rx="4" fill="#A91116"/>
<path d="M14.7188 17.1016C14.0547 16.7266 13.5234 16.1875 13.125 15.4844C12.7344 14.7969 12.5391 14.0352 12.5391 13.1992C12.5391 12.3633 12.7344 11.6016 13.125 10.9141C13.5156 10.2266 14.0469 9.69141 14.7188 9.30859C15.4219 8.91016 16.1797 8.71094 16.9922 8.71094C17.6172 8.71094 18.2031 8.83203 18.75 9.07422C19.2812 9.30859 19.7422 9.65625 20.1328 10.1172L19.4062 10.832C19.0781 10.4414 18.7188 10.1523 18.3281 9.96484C17.9375 9.77734 17.4922 9.68359 16.9922 9.68359C16.375 9.68359 15.8047 9.83203 15.2812 10.1289C14.7578 10.4258 14.3438 10.8359 14.0391 11.3594C13.7266 11.8984 13.5703 12.5117 13.5703 13.1992C13.5703 13.8945 13.7266 14.5117 14.0391 15.0508C14.3438 15.5742 14.7578 15.9844 15.2812 16.2812C15.7891 16.5703 16.3594 16.7148 16.9922 16.7148C18.0312 16.7148 18.9141 16.2891 19.6406 15.4375L20.3906 16.1523C20.0078 16.6133 19.5156 16.9883 18.9141 17.2773C18.3438 17.5508 17.7031 17.6875 16.9922 17.6875C16.1641 17.6875 15.4062 17.4922 14.7188 17.1016ZM21.5273 8.91016H22.5469V11.4414L22.4883 12.2852H22.5469C22.7031 11.9805 22.9688 11.7188 23.3438 11.5C23.7031 11.2891 24.1016 11.1836 24.5391 11.1836C25.2812 11.1836 25.8477 11.4023 26.2383 11.8398C26.6289 12.2773 26.8242 12.8555 26.8242 13.5742V17.5H25.8047V13.7266C25.8047 13.1797 25.6641 12.7734 25.3828 12.5078C25.1094 12.2422 24.7461 12.1094 24.293 12.1094C23.9883 12.1094 23.6953 12.207 23.4141 12.4023C23.1484 12.5898 22.9375 12.8359 22.7812 13.1406C22.625 13.4531 22.5469 13.7695 22.5469 14.0898V17.5H21.5273V8.91016ZM28.8164 17.043C28.4258 16.6055 28.2305 16 28.2305 15.2266V11.3828H29.25V15.0742C29.25 15.668 29.3828 16.0977 29.6484 16.3633C29.9219 16.6367 30.2773 16.7734 30.7148 16.7734C31.0586 16.7734 31.3672 16.6797 31.6406 16.4922C31.8984 16.3125 32.1055 16.0742 32.2617 15.7773C32.4102 15.4883 32.4844 15.1758 32.4844 14.8398V11.3828H33.6328C33.9297 11.3828 34.0781 11.2227 34.0781 10.9023V10.082H34.8984V10.9023C34.8984 11.332 34.793 11.6445 34.582 11.8398C34.3633 12.043 34.0469 12.1445 33.6328 12.1445H33.5039V17.5H32.5312V16.6094H32.4844C32.3281 16.9062 32.0586 17.1641 31.6758 17.3828C31.3242 17.5859 30.9336 17.6875 30.5039 17.6875C29.7617 17.6875 29.1992 17.4727 28.8164 17.043ZM36.2578 17.4297C35.8984 17.25 35.625 17.0078 35.4375 16.7031C35.25 16.3984 35.1562 16.0469 35.1562 15.6484C35.1562 15 35.3984 14.4961 35.8828 14.1367C36.3828 13.7695 37 13.5859 37.7344 13.5859C38.1172 13.5859 38.4609 13.625 38.7656 13.7031C39.0781 13.7812 39.3164 13.875 39.4805 13.9844V13.6094C39.4805 13.1641 39.3242 12.8008 39.0117 12.5195C38.6992 12.2383 38.293 12.0977 37.793 12.0977C37.457 12.0977 37.1445 12.1719 36.8555 12.3203C36.5508 12.4766 36.3203 12.6836 36.1641 12.9414L35.3906 12.3672C35.625 12.0078 35.957 11.7188 36.3867 11.5C36.8086 11.2891 37.2773 11.1836 37.793 11.1836C38.6211 11.1836 39.2734 11.4023 39.75 11.8398C40.2188 12.2695 40.4531 12.8633 40.4531 13.6211V17.5H39.4805V16.6211H39.4336C39.2539 16.9258 38.9922 17.1797 38.6484 17.3828C38.3125 17.5859 37.9141 17.6875 37.4531 17.6875C37 17.6875 36.6016 17.6016 36.2578 17.4297ZM38.5195 16.5273C38.8164 16.3477 39.0508 16.1133 39.2227 15.8242C39.3945 15.5352 39.4805 15.2109 39.4805 14.8516C39.293 14.7266 39.0586 14.6211 38.7773 14.5352C38.5117 14.457 38.2148 14.418 37.8867 14.418C37.3242 14.418 36.9023 14.5352 36.6211 14.7695C36.3398 15.0039 36.1992 15.3008 36.1992 15.6602C36.1992 15.9961 36.3281 16.2695 36.5859 16.4805C36.8438 16.6914 37.168 16.7969 37.5586 16.7969C37.9023 16.7969 38.2227 16.707 38.5195 16.5273ZM46.207 14.3945L44.0859 11.3828H45.2461L46.8164 13.6445L48.3398 11.3828H49.5352L47.3906 14.3945L49.5703 17.5H48.3867L46.8047 15.1445L45.2344 17.5H44.0391L46.207 14.3945ZM51.1172 17.4297C50.7578 17.25 50.4844 17.0078 50.2969 16.7031C50.1094 16.3984 50.0156 16.0469 50.0156 15.6484C50.0156 15 50.2578 14.4961 50.7422 14.1367C51.2422 13.7695 51.8594 13.5859 52.5938 13.5859C52.9766 13.5859 53.3203 13.625 53.625 13.7031C53.9375 13.7812 54.1758 13.875 54.3398 13.9844V13.6094C54.3398 13.1641 54.1836 12.8008 53.8711 12.5195C53.5586 12.2383 53.1523 12.0977 52.6523 12.0977C52.3164 12.0977 52.0039 12.1719 51.7148 12.3203C51.4102 12.4766 51.1797 12.6836 51.0234 12.9414L50.25 12.3672C50.4844 12.0078 50.8164 11.7188 51.2461 11.5C51.668 11.2891 52.1367 11.1836 52.6523 11.1836C53.4805 11.1836 54.1328 11.4023 54.6094 11.8398C55.0781 12.2695 55.3125 12.8633 55.3125 13.6211V17.5H54.3398V16.6211H54.293C54.1133 16.9258 53.8516 17.1797 53.5078 17.3828C53.1719 17.5859 52.7734 17.6875 52.3125 17.6875C51.8594 17.6875 51.4609 17.6016 51.1172 17.4297ZM53.3789 16.5273C53.6758 16.3477 53.9102 16.1133 54.082 15.8242C54.2539 15.5352 54.3398 15.2109 54.3398 14.8516C54.1523 14.7266 53.918 14.6211 53.6367 14.5352C53.3711 14.457 53.0742 14.418 52.7461 14.418C52.1836 14.418 51.7617 14.5352 51.4805 14.7695C51.1992 15.0039 51.0586 15.3008 51.0586 15.6602C51.0586 15.9961 51.1875 16.2695 51.4453 16.4805C51.7031 16.6914 52.0273 16.7969 52.418 16.7969C52.7617 16.7969 53.082 16.707 53.3789 16.5273ZM52.8984 8.66406H54.0117L53.1562 10.1875H52.2656L52.8984 8.66406ZM57.8438 17.2656C57.3828 16.9844 57.0156 16.5977 56.7422 16.1055C56.4766 15.6211 56.3438 15.0664 56.3438 14.4414C56.3438 13.8164 56.4766 13.2617 56.7422 12.7773C57.0234 12.2695 57.3906 11.8789 57.8438 11.6055C58.3125 11.3242 58.8438 11.1836 59.4375 11.1836C60.0859 11.1836 60.6445 11.3398 61.1133 11.6523C61.5664 11.957 61.8867 12.3672 62.0742 12.8828L61.1484 13.2695C60.9922 12.8789 60.7695 12.5898 60.4805 12.4023C60.1836 12.207 59.8203 12.1094 59.3906 12.1094C59.0312 12.1094 58.6953 12.207 58.3828 12.4023C58.0703 12.5977 57.8203 12.8711 57.6328 13.2227C57.4453 13.5742 57.3516 13.9805 57.3516 14.4414C57.3516 14.8945 57.4453 15.2969 57.6328 15.6484C57.8203 16 58.0703 16.2734 58.3828 16.4688C58.7031 16.6719 59.0391 16.7734 59.3906 16.7734C59.8125 16.7734 60.1836 16.6719 60.5039 16.4688C60.8164 16.2734 61.0508 15.9883 61.207 15.6133L62.1094 16C61.8984 16.5 61.5664 16.9062 61.1133 17.2188C60.6602 17.5312 60.1016 17.6875 59.4375 17.6875C58.8438 17.6875 58.3125 17.5469 57.8438 17.2656ZM67.6523 17.4766C67.4336 17.3906 67.2578 17.2812 67.125 17.1484C66.8047 16.8438 66.6445 16.4258 66.6445 15.8945V12.3086H65.5781V11.3828H66.6445V9.64844H67.6641V11.3828H69.1641V12.3086H67.6641V15.6367C67.6641 15.9805 67.7266 16.2305 67.8516 16.3867C68 16.5586 68.2227 16.6445 68.5195 16.6445C68.7773 16.6445 69 16.5781 69.1875 16.4453V17.4414C69.0781 17.4961 68.957 17.5352 68.8242 17.5586C68.6992 17.582 68.5391 17.5938 68.3438 17.5938C68.0859 17.5938 67.8555 17.5547 67.6523 17.4766ZM70.4414 8.91016H71.4609V11.4414L71.4023 12.2852H71.4609C71.6172 11.9805 71.8828 11.7188 72.2578 11.5C72.6172 11.2891 73.0156 11.1836 73.4531 11.1836C74.1953 11.1836 74.7617 11.4023 75.1523 11.8398C75.543 12.2773 75.7383 12.8555 75.7383 13.5742V17.5H74.7188V13.7266C74.7188 13.1797 74.5781 12.7734 74.2969 12.5078C74.0234 12.2422 73.6602 12.1094 73.207 12.1094C72.9023 12.1094 72.6094 12.207 72.3281 12.4023C72.0625 12.5898 71.8516 12.8359 71.6953 13.1406C71.5391 13.4531 71.4609 13.7695 71.4609 14.0898V17.5H70.4414V8.91016ZM77.7305 17.043C77.3398 16.6055 77.1445 16 77.1445 15.2266V11.3828H78.1641V15.0742C78.1641 15.668 78.2969 16.0977 78.5625 16.3633C78.8359 16.6367 79.1914 16.7734 79.6289 16.7734C79.9727 16.7734 80.2812 16.6797 80.5547 16.4922C80.8125 16.3125 81.0195 16.0742 81.1758 15.7773C81.3242 15.4883 81.3984 15.1758 81.3984 14.8398V11.3828H82.5469C82.8438 11.3828 82.9922 11.2227 82.9922 10.9023V10.082H83.8125V10.9023C83.8125 11.332 83.707 11.6445 83.4961 11.8398C83.2773 12.043 82.9609 12.1445 82.5469 12.1445H82.418V17.5H81.4453V16.6094H81.3984C81.2422 16.9062 80.9727 17.1641 80.5898 17.3828C80.2383 17.5859 79.8477 17.6875 79.418 17.6875C78.6758 17.6875 78.1133 17.4727 77.7305 17.043ZM79.8047 19.8086C79.6328 19.8086 79.4805 19.7422 79.3477 19.6094C79.2148 19.4766 79.1484 19.3242 79.1484 19.1523C79.1484 18.9648 79.2148 18.8125 79.3477 18.6953C79.4727 18.5781 79.625 18.5195 79.8047 18.5195C79.9922 18.5195 80.1445 18.5781 80.2617 18.6953C80.3789 18.8125 80.4375 18.9648 80.4375 19.1523C80.4375 19.332 80.3789 19.4844 80.2617 19.6094C80.1445 19.7422 79.9922 19.8086 79.8047 19.8086ZM85.5938 17.2656C85.1328 16.9844 84.7656 16.5977 84.4922 16.1055C84.2266 15.6211 84.0938 15.0664 84.0938 14.4414C84.0938 13.8164 84.2266 13.2617 84.4922 12.7773C84.7734 12.2695 85.1406 11.8789 85.5938 11.6055C86.0625 11.3242 86.5938 11.1836 87.1875 11.1836C87.8359 11.1836 88.3945 11.3398 88.8633 11.6523C89.3164 11.957 89.6367 12.3672 89.8242 12.8828L88.8984 13.2695C88.7422 12.8789 88.5195 12.5898 88.2305 12.4023C87.9336 12.207 87.5703 12.1094 87.1406 12.1094C86.7812 12.1094 86.4453 12.207 86.1328 12.4023C85.8203 12.5977 85.5703 12.8711 85.3828 13.2227C85.1953 13.5742 85.1016 13.9805 85.1016 14.4414C85.1016 14.8945 85.1953 15.2969 85.3828 15.6484C85.5703 16 85.8203 16.2734 86.1328 16.4688C86.4531 16.6719 86.7891 16.7734 87.1406 16.7734C87.5625 16.7734 87.9336 16.6719 88.2539 16.4688C88.5664 16.2734 88.8008 15.9883 88.957 15.6133L89.8594 16C89.6484 16.5 89.3164 16.9062 88.8633 17.2188C88.4102 17.5312 87.8516 17.6875 87.1875 17.6875C86.5938 17.6875 86.0625 17.5469 85.5938 17.2656Z" fill="white"/>
</svg>
