<svg width="50" height="20" viewBox="0 0 50 20" fill="none" xmlns="http://www.w3.org/2000/svg">
<path d="M7.33555 0.473633H11.1088C11.3613 0.473633 11.6409 0.661542 11.7281 0.902066L18.2749 18.8016C18.3621 19.0436 18.2253 19.2345 17.9742 19.2345H14.2521C13.9981 19.2345 13.7245 19.0391 13.6463 18.7955L12.355 14.9306H5.74509L4.45678 18.7955C4.37561 19.0391 4.10351 19.2345 3.84645 19.2345H0.327287C0.0732333 19.2345 -0.0605581 19.0421 0.0266318 18.8016L6.7117 0.903569C6.79889 0.663045 7.07849 0.475136 7.33555 0.475136V0.473633ZM11.3448 11.64L9.06582 4.54901L6.72823 11.64H11.3433H11.3448Z" fill="#20419A"/>
<path d="M36.0856 0.473633H42.6594C43.8229 0.473633 44.8061 0.604418 45.6133 0.876511C46.4206 1.15011 47.076 1.51089 47.5826 1.96037C48.0862 2.41286 48.453 2.93149 48.6785 3.52378C48.901 4.11306 49.0152 4.7294 49.0152 5.36529C49.0152 5.9681 48.9085 6.50026 48.692 6.95876C48.4756 7.41576 48.223 7.80962 47.9329 8.13883C47.6412 8.46655 47.3346 8.72511 47.0054 8.91302C46.6761 9.09943 46.3965 9.21969 46.1756 9.27832C46.5138 9.35348 46.9001 9.49028 47.3421 9.6827C47.781 9.88414 48.2005 10.1652 48.5943 10.5305C48.9882 10.8958 49.3204 11.3543 49.5925 11.909C49.8631 12.4592 49.9999 13.1102 49.9999 13.8603C49.9999 14.8389 49.824 15.6642 49.4782 16.3392C49.1325 17.0172 48.6439 17.5689 48.0156 17.9973C47.3857 18.4333 46.619 18.7429 45.7095 18.9429C44.7985 19.1368 43.7808 19.236 42.6564 19.236H36.0826C35.8285 19.236 35.6226 19.0286 35.6226 18.773V0.932132C35.6226 0.676575 35.8285 0.475136 36.0826 0.475136L36.0856 0.473633ZM42.2655 7.98249C42.5827 7.98249 42.8969 7.94792 43.2066 7.86975C43.5178 7.79458 43.7898 7.67733 44.0244 7.52099C44.2589 7.36014 44.4528 7.14366 44.6031 6.87308C44.7504 6.60098 44.8271 6.26575 44.8271 5.8734C44.8271 5.45849 44.7504 5.11575 44.6031 4.84666C44.4543 4.57306 44.2544 4.35659 44.0108 4.19875C43.7673 4.0379 43.4907 3.92666 43.1825 3.86051C42.8714 3.79888 42.5662 3.7643 42.2685 3.7643H39.7656V7.98099H42.2685L42.2655 7.98249ZM42.5181 15.9739C42.8187 15.9739 43.1555 15.9514 43.5313 15.9032C43.9071 15.8566 44.2529 15.7499 44.5731 15.5785C44.8902 15.4132 45.1563 15.1681 45.3743 14.8464C45.5908 14.5278 45.6975 14.0888 45.6975 13.5251C45.6975 13.02 45.5968 12.6096 45.3908 12.2894C45.1819 11.9692 44.9218 11.7226 44.6031 11.5438C44.2829 11.3649 43.9372 11.2461 43.5598 11.177C43.1855 11.1123 42.8383 11.0777 42.5196 11.0777H39.7641V15.9754H42.5196L42.5181 15.9739Z" fill="#20419A"/>
<path d="M27.7908 13.2123C25.9388 13.2123 24.437 11.7121 24.437 9.86004C24.437 8.008 25.9388 6.51074 27.7908 6.51074C29.6429 6.51074 31.1371 8.01101 31.1371 9.86004C31.1371 11.7091 29.6383 13.2123 27.7908 13.2123Z" fill="#00AEEF"/>
<path d="M31.5039 14.2435C30.4907 15.2086 29.1423 15.8009 27.6586 15.8009C24.5047 15.8009 21.9446 13.1431 21.9446 9.86148C21.9446 6.57983 24.5047 3.92505 27.6586 3.92505C29.0912 3.92505 30.4036 4.47525 31.4047 5.38172C31.5926 5.5531 31.8798 5.56061 32.0587 5.38022L34.0836 3.35681C34.2625 3.17341 34.264 2.87877 34.0836 2.70289C32.3292 1.02674 29.9646 0 27.3549 0C21.9491 0 17.5596 4.41512 17.5596 9.85998C17.5596 15.3048 21.9491 19.726 27.3549 19.726C30.0142 19.726 32.4179 18.6541 34.1828 16.9224C34.3662 16.7435 34.3587 16.4458 34.1783 16.2624L32.1534 14.239C31.976 14.0586 31.6919 14.0661 31.5039 14.2435Z" fill="#20419A"/>
</svg>
