<svg width="23" height="18" viewBox="0 0 23 18" fill="none" xmlns="http://www.w3.org/2000/svg">
<path d="M19.9437 11.2937H3.05266C2.85459 11.2937 2.6947 11.1297 2.6947 10.9265V2.26316C2.6947 1.56548 3.24835 1 3.92609 1H19.0703C19.7504 1 20.3017 1.56793 20.3017 2.26316V10.9265C20.3017 11.1297 20.1418 11.2937 19.9437 11.2937ZM3.40824 10.5594H19.5858V2.26316C19.5858 1.97185 19.3543 1.73439 19.0703 1.73439H3.92609C3.64211 1.73439 3.41063 1.97185 3.41063 2.26316V10.5594H3.40824Z" fill="#0B3558" stroke="#0B3558" stroke-width="0.4"/>
<path d="M20.1109 16.9999H2.88571C2.2724 16.9999 1.69489 16.6915 1.3417 16.1774C0.957488 15.6168 0.893054 14.88 1.16988 14.2582L2.72582 10.7747C2.80935 10.5911 3.02174 10.5103 3.20072 10.5935C3.3797 10.6768 3.45845 10.8971 3.37732 11.0807L1.82137 14.5642C1.64955 14.9509 1.69012 15.4063 1.92637 15.7563C2.14592 16.077 2.50389 16.268 2.88571 16.268H20.1109C20.4927 16.268 20.8507 16.077 21.0702 15.7563C21.3089 15.4087 21.3494 14.9509 21.1776 14.5642L19.6217 11.0807C19.5381 10.8971 19.6193 10.6792 19.7983 10.5935C19.9772 10.5103 20.1896 10.5911 20.2732 10.7747L21.8291 14.2582C22.1083 14.88 22.0415 15.6168 21.6573 16.1774C21.3041 16.6939 20.7266 16.9999 20.1133 16.9999H20.1109Z" fill="#0B3558" stroke="#0B3558" stroke-width="0.4"/>
<path d="M12.8822 15.8006H10.1139C10.0185 15.8006 9.92777 15.7615 9.86096 15.6929L9.13548 14.9487H1.42974C1.23167 14.9487 1.07178 14.7847 1.07178 14.5816C1.07178 14.3784 1.23167 14.2144 1.42974 14.2144H9.28344C9.3789 14.2144 9.46958 14.2535 9.5364 14.3221L10.2619 15.0663H12.7318L13.4573 14.3221C13.5241 14.2535 13.6148 14.2144 13.7102 14.2144H21.5639C21.762 14.2144 21.9219 14.3784 21.9219 14.5816C21.9219 14.7847 21.762 14.9487 21.5639 14.9487H13.8606L13.1351 15.6929C13.0683 15.7615 12.9776 15.8006 12.8822 15.8006Z" fill="#0B3558" stroke="#0B3558" stroke-width="0.4"/>
</svg>
