<svg width="20" height="20" viewBox="0 0 20 20" fill="none" xmlns="http://www.w3.org/2000/svg">
<path d="M4.4318 12.0853L3.73565 14.6836L1.19106 14.7386C0.421865 13.3051 0.0131596 11.7059 0.000312557 10.0791C-0.0125345 8.4523 0.370837 6.84684 1.1173 5.40137L3.38194 5.81634L4.37428 8.06595C3.92754 9.37104 3.94739 10.7907 4.4305 12.0828L4.4318 12.0853Z" fill="#FBBB00"/>
<path d="M19.8218 8.13223C20.1613 9.91499 20.0089 11.7566 19.3809 13.4593C18.753 15.162 17.6731 16.6615 16.2574 17.7969L13.4041 17.6507L12.9979 15.1236C14.1757 14.4329 15.0809 13.3592 15.5625 12.0816H10.2159V8.12598H19.8192L19.8218 8.13223Z" fill="#518EF8"/>
<path d="M16.2575 17.7968C15.1135 18.7156 13.7814 19.3714 12.3556 19.7176C10.9298 20.0638 9.44519 20.092 8.00726 19.8001C6.56933 19.5083 5.21334 18.9035 4.03537 18.0287C2.8574 17.154 1.88636 16.0306 1.19122 14.7385L4.43196 12.0852C4.73677 12.8953 5.21479 13.6291 5.83263 14.2353C6.45047 14.8415 7.19317 15.3055 8.00894 15.5948C8.82471 15.8842 9.69386 15.9919 10.5556 15.9105C11.4173 15.8291 12.2509 15.5604 12.998 15.1234L16.2575 17.7968Z" fill="#28B446"/>
<path d="M16.3799 2.30307L13.1417 4.95514C12.3828 4.48242 11.527 4.18689 10.6382 4.09057C9.74933 3.99424 8.85023 4.09964 8.00771 4.39882C7.16518 4.698 6.40095 5.18324 5.7719 5.81857C5.14285 6.4539 4.66515 7.22295 4.37435 8.06841L1.11737 5.40131C1.80424 4.07465 2.77967 2.91882 3.97197 2.01869C5.16427 1.11856 6.54311 0.497041 8.00717 0.199841C9.47123 -0.0973596 10.9833 -0.0626789 12.4322 0.301295C13.8812 0.665268 15.2301 1.34925 16.3799 2.30307Z" fill="#F14336"/>
</svg>
