<svg width="40" height="40" viewBox="0 0 40 40" fill="none" xmlns="http://www.w3.org/2000/svg">
<circle cx="20" cy="20" r="20" fill="white"/>
<path d="M26 16H24C24 14.9391 23.5786 13.9217 22.8284 13.1716C22.0783 12.4214 21.0609 12 20 12C18.9391 12 17.9217 12.4214 17.1716 13.1716C16.4214 13.9217 16 14.9391 16 16H14C13.4696 16 12.9609 16.2107 12.5858 16.5858C12.2107 16.9609 12 17.4696 12 18V24.6667C12.0011 25.5504 12.3526 26.3976 12.9775 27.0225C13.6024 27.6474 14.4496 27.9989 15.3333 28H24.6667C25.5504 27.9989 26.3976 27.6474 27.0225 27.0225C27.6474 26.3976 27.9989 25.5504 28 24.6667V18C28 17.4696 27.7893 16.9609 27.4142 16.5858C27.0391 16.2107 26.5304 16 26 16ZM20 13.3333C20.7072 13.3333 21.3855 13.6143 21.8856 14.1144C22.3857 14.6145 22.6667 15.2928 22.6667 16H17.3333C17.3333 15.2928 17.6143 14.6145 18.1144 14.1144C18.6145 13.6143 19.2928 13.3333 20 13.3333ZM26.6667 24.6667C26.6667 25.1971 26.456 25.7058 26.0809 26.0809C25.7058 26.456 25.1971 26.6667 24.6667 26.6667H15.3333C14.8029 26.6667 14.2942 26.456 13.9191 26.0809C13.544 25.7058 13.3333 25.1971 13.3333 24.6667V18C13.3333 17.8232 13.4036 17.6536 13.5286 17.5286C13.6536 17.4036 13.8232 17.3333 14 17.3333H16V18.6667C16 18.8435 16.0702 19.013 16.1953 19.1381C16.3203 19.2631 16.4899 19.3333 16.6667 19.3333C16.8435 19.3333 17.013 19.2631 17.1381 19.1381C17.2631 19.013 17.3333 18.8435 17.3333 18.6667V17.3333H22.6667V18.6667C22.6667 18.8435 22.7369 19.013 22.8619 19.1381C22.987 19.2631 23.1565 19.3333 23.3333 19.3333C23.5101 19.3333 23.6797 19.2631 23.8047 19.1381C23.9298 19.013 24 18.8435 24 18.6667V17.3333H26C26.1768 17.3333 26.3464 17.4036 26.4714 17.5286C26.5964 17.6536 26.6667 17.8232 26.6667 18V24.6667Z" fill="#0B3558"/>
</svg>
