<svg width="124" height="40" viewBox="0 0 124 40" fill="none" xmlns="http://www.w3.org/2000/svg">
<rect width="124" height="40" rx="4" fill="#0050A6"/>
<path d="M21.1211 14.9785H22.3105V23.8652H26.6855V25H21.1211V14.9785ZM28.627 24.4668C28.1712 23.9564 27.9434 23.25 27.9434 22.3477V17.8633H29.1328V22.1699C29.1328 22.8626 29.2878 23.3639 29.5977 23.6738C29.9167 23.9928 30.3314 24.1523 30.8418 24.1523C31.2428 24.1523 31.6029 24.043 31.9219 23.8242C32.2227 23.6146 32.4642 23.3366 32.6465 22.9902C32.8197 22.653 32.9062 22.2884 32.9062 21.8965V17.8633H34.2461C34.5924 17.8633 34.7656 17.6764 34.7656 17.3027V16.3457H35.7227V17.3027C35.7227 17.804 35.5996 18.1686 35.3535 18.3965C35.0983 18.6335 34.7292 18.752 34.2461 18.752H34.0957V25H32.9609V23.9609H32.9062C32.724 24.3073 32.4095 24.6081 31.9629 24.8633C31.5527 25.1003 31.097 25.2188 30.5957 25.2188C29.7298 25.2188 29.0736 24.9681 28.627 24.4668ZM37.0488 24.4668C36.5931 23.9564 36.3652 23.25 36.3652 22.3477V17.8633H37.5547V22.1699C37.5547 22.8626 37.7096 23.3639 38.0195 23.6738C38.3385 23.9928 38.7533 24.1523 39.2637 24.1523C39.6647 24.1523 40.0247 24.043 40.3438 23.8242C40.6445 23.6146 40.8861 23.3366 41.0684 22.9902C41.2415 22.653 41.3281 22.2884 41.3281 21.8965V17.8633H42.5176V25H41.3828V23.9609H41.3281C41.1458 24.3073 40.8314 24.6081 40.3848 24.8633C39.9746 25.1003 39.5189 25.2188 39.0176 25.2188C38.1517 25.2188 37.4954 24.9681 37.0488 24.4668ZM49.4492 24.9727C49.194 24.8724 48.9889 24.7448 48.834 24.5898C48.4603 24.2344 48.2734 23.7467 48.2734 23.127V18.9434H47.0293V17.8633H48.2734V15.8398H49.4629V17.8633H51.2129V18.9434H49.4629V22.8262C49.4629 23.2272 49.5358 23.5189 49.6816 23.7012C49.8548 23.9017 50.1146 24.002 50.4609 24.002C50.7617 24.002 51.0215 23.9245 51.2402 23.7695V24.9316C51.1126 24.9954 50.9714 25.041 50.8164 25.0684C50.6706 25.0957 50.4837 25.1094 50.2559 25.1094C49.9551 25.1094 49.6862 25.0638 49.4492 24.9727ZM52.7031 14.9785H53.8926V17.9316L53.8242 18.916H53.8926C54.0749 18.5605 54.3848 18.2552 54.8223 18C55.2415 17.7539 55.7064 17.6309 56.2168 17.6309C57.0827 17.6309 57.7435 17.8861 58.1992 18.3965C58.6549 18.9069 58.8828 19.5814 58.8828 20.4199V25H57.6934V20.5977C57.6934 19.9596 57.5293 19.4857 57.2012 19.1758C56.8822 18.8659 56.4583 18.7109 55.9297 18.7109C55.5742 18.7109 55.2324 18.8249 54.9043 19.0527C54.5944 19.2715 54.3483 19.5586 54.166 19.9141C53.9837 20.2786 53.8926 20.6478 53.8926 21.0215V25H52.7031V14.9785ZM61.9863 24.7266C61.4303 24.3893 60.9928 23.929 60.6738 23.3457C60.3639 22.7806 60.209 22.1426 60.209 21.4316C60.209 20.7207 60.3639 20.0827 60.6738 19.5176C60.9928 18.9342 61.4303 18.474 61.9863 18.1367C62.5423 17.7995 63.1712 17.6309 63.873 17.6309C64.5749 17.6309 65.2038 17.7995 65.7598 18.1367C66.3158 18.474 66.7533 18.9342 67.0723 19.5176C67.3822 20.0827 67.5371 20.7207 67.5371 21.4316C67.5371 22.1426 67.3822 22.7806 67.0723 23.3457C66.7533 23.929 66.3158 24.3893 65.7598 24.7266C65.222 25.0547 64.5931 25.2188 63.873 25.2188C63.153 25.2188 62.5241 25.0547 61.9863 24.7266ZM65.1035 23.8105C65.4681 23.6009 65.7689 23.2865 66.0059 22.8672C66.2337 22.4661 66.3477 21.9876 66.3477 21.4316C66.3477 20.8665 66.2337 20.3835 66.0059 19.9824C65.7689 19.5632 65.4681 19.2487 65.1035 19.0391C64.7207 18.8203 64.3105 18.7109 63.873 18.7109C63.4355 18.7109 63.0254 18.8203 62.6426 19.0391C62.2689 19.2578 61.9635 19.5723 61.7266 19.9824C61.4987 20.3835 61.3848 20.8665 61.3848 21.4316C61.3848 21.9876 61.4987 22.4661 61.7266 22.8672C61.9635 23.2773 62.2689 23.5918 62.6426 23.8105C63.0436 24.0384 63.4538 24.1523 63.873 24.1523C64.2923 24.1523 64.7025 24.0384 65.1035 23.8105ZM61.9316 16.332L63.3535 14.6914H64.4062L65.8418 16.332V16.4004H64.6934L63.9277 15.5117H63.8184L63.0801 16.4004H61.9316V16.332ZM68.7949 17.8633H69.916V18.916H69.9844C70.1758 18.5605 70.4857 18.2598 70.9141 18.0137C71.3516 17.7585 71.8118 17.6309 72.2949 17.6309C73.1517 17.6309 73.8034 17.8815 74.25 18.3828C74.7057 18.8932 74.9336 19.5723 74.9336 20.4199V25H73.7441V20.5977C73.7441 19.9414 73.5846 19.4629 73.2656 19.1621C72.9557 18.8613 72.5228 18.7109 71.9668 18.7109C71.584 18.7109 71.2422 18.8203 70.9414 19.0391C70.6224 19.276 70.3854 19.5586 70.2305 19.8867C70.0664 20.2422 69.9844 20.6068 69.9844 20.9805V25H68.7949V17.8633ZM77.627 27.666C77.0801 27.2741 76.7109 26.8001 76.5195 26.2441L77.6133 25.7793C77.7682 26.1986 78.028 26.5358 78.3926 26.791C78.7572 27.0462 79.1947 27.1738 79.7051 27.1738C80.4342 27.1738 81.0039 26.9596 81.4141 26.5312C81.8242 26.112 82.0293 25.5013 82.0293 24.6992V23.9062H81.9746C81.7467 24.2617 81.4186 24.5579 80.9902 24.7949C80.571 25.0228 80.0879 25.1367 79.541 25.1367C78.9212 25.1367 78.3561 24.9772 77.8457 24.6582C77.3444 24.3483 76.9434 23.9062 76.6426 23.332C76.3418 22.7578 76.1914 22.1107 76.1914 21.3906C76.1914 20.6706 76.3418 20.0234 76.6426 19.4492C76.9525 18.8659 77.3535 18.4193 77.8457 18.1094C78.3561 17.7904 78.9212 17.6309 79.541 17.6309C80.0879 17.6309 80.571 17.7448 80.9902 17.9727C81.4095 18.2005 81.7376 18.5059 81.9746 18.8887H82.0293V17.8633H83.1641V24.7266C83.1641 25.8659 82.8451 26.7409 82.207 27.3516C81.5781 27.9531 80.7441 28.2539 79.7051 28.2539C78.8574 28.2539 78.1647 28.0579 77.627 27.666ZM80.8672 23.7422C81.2227 23.5234 81.5052 23.2135 81.7148 22.8125C81.9245 22.4115 82.0293 21.9375 82.0293 21.3906C82.0293 20.8255 81.9245 20.3424 81.7148 19.9414C81.5052 19.5312 81.2227 19.2259 80.8672 19.0254C80.5026 18.8158 80.1152 18.7109 79.7051 18.7109C79.2767 18.7109 78.8848 18.8203 78.5293 19.0391C78.1647 19.2669 77.8822 19.5723 77.6816 19.9551C77.472 20.3561 77.3672 20.8346 77.3672 21.3906C77.3672 21.9284 77.472 22.4069 77.6816 22.8262C77.8822 23.2272 78.1647 23.5326 78.5293 23.7422C78.8939 23.9518 79.2858 24.0566 79.7051 24.0566C80.1426 24.0566 80.5299 23.9518 80.8672 23.7422ZM90.0957 24.9727C89.8405 24.8724 89.6354 24.7448 89.4805 24.5898C89.1068 24.2344 88.9199 23.7467 88.9199 23.127V18.9434H87.6758V17.8633H88.9199V15.8398H90.1094V17.8633H91.8594V18.9434H90.1094V22.8262C90.1094 23.2272 90.1823 23.5189 90.3281 23.7012C90.5013 23.9017 90.7611 24.002 91.1074 24.002C91.4082 24.002 91.668 23.9245 91.8867 23.7695V24.9316C91.7591 24.9954 91.6178 25.041 91.4629 25.0684C91.3171 25.0957 91.1302 25.1094 90.9023 25.1094C90.6016 25.1094 90.3327 25.0638 90.0957 24.9727ZM94.0469 16.5508C93.819 16.5508 93.6185 16.4642 93.4453 16.291C93.2721 16.1178 93.1855 15.9173 93.1855 15.6895C93.1855 15.4525 93.2721 15.2474 93.4453 15.0742C93.6003 14.9193 93.8008 14.8418 94.0469 14.8418C94.293 14.8418 94.4935 14.9193 94.6484 15.0742C94.8125 15.2383 94.8945 15.4434 94.8945 15.6895C94.8945 15.9264 94.8125 16.127 94.6484 16.291C94.4753 16.4642 94.2747 16.5508 94.0469 16.5508ZM93.459 17.8633H94.6484V25H93.459V17.8633ZM96.5078 17.8633H97.6289V18.916H97.6973C97.8887 18.5605 98.1986 18.2598 98.627 18.0137C99.0645 17.7585 99.5247 17.6309 100.008 17.6309C100.865 17.6309 101.516 17.8815 101.963 18.3828C102.419 18.8932 102.646 19.5723 102.646 20.4199V25H101.457V20.5977C101.457 19.9414 101.298 19.4629 100.979 19.1621C100.669 18.8613 100.236 18.7109 99.6797 18.7109C99.2969 18.7109 98.9551 18.8203 98.6543 19.0391C98.3353 19.276 98.0983 19.5586 97.9434 19.8867C97.7793 20.2422 97.6973 20.6068 97.6973 20.9805V25H96.5078V17.8633Z" fill="white"/>
</svg>
