<svg width="115" height="40" viewBox="0 0 115 40" fill="none" xmlns="http://www.w3.org/2000/svg">
<rect width="115" height="40" rx="8" fill="#A0ACBE"/>
<path d="M32.2 20H25.8M29 28C33.4183 28 37 24.4183 37 20C37 15.5817 33.4183 12 29 12C24.5817 12 21 15.5817 21 20C21 24.4183 24.5817 28 29 28Z" stroke="white" stroke-width="1.5" stroke-linecap="round" stroke-linejoin="round"/>
<path d="M46.1211 14.9785H49.5117C50.0586 14.9785 50.569 15.1016 51.043 15.3477C51.5078 15.5846 51.8906 15.9401 52.1914 16.4141C52.474 16.8607 52.6152 17.3711 52.6152 17.9453C52.6152 18.4102 52.5104 18.8431 52.3008 19.2441C52.0911 19.6452 51.804 19.9824 51.4395 20.2559C51.0749 20.5202 50.6647 20.7025 50.209 20.8027L50.1816 20.8438L53.0117 24.9453V25H51.6035L48.8828 20.9121H47.3105V25H46.1211V14.9785ZM49.4434 19.8047C49.8079 19.8047 50.1315 19.7272 50.4141 19.5723C50.724 19.3991 50.9655 19.1758 51.1387 18.9023C51.321 18.6107 51.4121 18.2917 51.4121 17.9453C51.4121 17.6081 51.3346 17.3118 51.1797 17.0566C51.0065 16.7741 50.7832 16.5462 50.5098 16.373C50.2272 16.1999 49.8991 16.1133 49.5254 16.1133H47.3105V19.8047H49.4434ZM54.5703 24.4668C54.1146 23.9564 53.8867 23.25 53.8867 22.3477V17.8633H55.0762V22.1699C55.0762 22.8626 55.2311 23.3639 55.541 23.6738C55.86 23.9928 56.2747 24.1523 56.7852 24.1523C57.1862 24.1523 57.5462 24.043 57.8652 23.8242C58.166 23.6146 58.4076 23.3366 58.5898 22.9902C58.763 22.653 58.8496 22.2884 58.8496 21.8965V17.8633H60.0391V25H58.9043V23.9609H58.8496C58.6673 24.3073 58.3529 24.6081 57.9062 24.8633C57.4961 25.1003 57.0404 25.2188 56.5391 25.2188C55.6732 25.2188 55.0169 24.9681 54.5703 24.4668ZM57.168 14.6914H58.4668L57.4824 16.4688H56.4434L57.168 14.6914ZM63.7988 24.9727C63.5436 24.8724 63.3385 24.7448 63.1836 24.5898C62.8099 24.2344 62.623 23.7467 62.623 23.127V18.9434H61.3789V17.8633H62.623V15.8398H63.8125V17.8633H65.5625V18.9434H63.8125V22.8262C63.8125 23.2272 63.8854 23.5189 64.0312 23.7012C64.2044 23.9017 64.4642 24.002 64.8105 24.002C65.1113 24.002 65.3711 23.9245 65.5898 23.7695V24.9316C65.4622 24.9954 65.321 25.041 65.166 25.0684C65.0202 25.0957 64.8333 25.1094 64.6055 25.1094C64.3047 25.1094 64.0358 25.0638 63.7988 24.9727ZM72.1523 24.9727C71.8971 24.8724 71.6921 24.7448 71.5371 24.5898C71.1634 24.2344 70.9766 23.7467 70.9766 23.127V18.9434H69.7324V17.8633H70.9766V15.8398H72.166V17.8633H73.916V18.9434H72.166V22.8262C72.166 23.2272 72.2389 23.5189 72.3848 23.7012C72.5579 23.9017 72.8177 24.002 73.1641 24.002C73.4648 24.002 73.7246 23.9245 73.9434 23.7695V24.9316C73.8158 24.9954 73.6745 25.041 73.5195 25.0684C73.3737 25.0957 73.1868 25.1094 72.959 25.1094C72.6582 25.1094 72.3893 25.0638 72.1523 24.9727ZM76.1035 16.5508C75.8757 16.5508 75.6751 16.4642 75.502 16.291C75.3288 16.1178 75.2422 15.9173 75.2422 15.6895C75.2422 15.4525 75.3288 15.2474 75.502 15.0742C75.6569 14.9193 75.8574 14.8418 76.1035 14.8418C76.3496 14.8418 76.5501 14.9193 76.7051 15.0742C76.8691 15.2383 76.9512 15.4434 76.9512 15.6895C76.9512 15.9264 76.8691 16.127 76.7051 16.291C76.5319 16.4642 76.3314 16.5508 76.1035 16.5508ZM75.5156 17.8633H76.7051V25H75.5156V17.8633ZM79.9043 24.7402C79.3574 24.4121 78.9336 23.9609 78.6328 23.3867C78.332 22.8125 78.1816 22.1654 78.1816 21.4453C78.1816 20.7526 78.3229 20.1191 78.6055 19.5449C78.8971 18.9525 79.3027 18.4876 79.8223 18.1504C80.36 17.804 80.9661 17.6309 81.6406 17.6309C82.3242 17.6309 82.9303 17.7904 83.459 18.1094C83.9694 18.4193 84.3613 18.8477 84.6348 19.3945C84.9173 19.9596 85.0586 20.5931 85.0586 21.2949C85.0586 21.3496 85.0495 21.4681 85.0312 21.6504H79.3711C79.3984 22.1973 79.5306 22.6576 79.7676 23.0312C79.9954 23.3867 80.2917 23.6647 80.6562 23.8652C81.0117 24.0566 81.3854 24.1523 81.7773 24.1523C82.707 24.1523 83.4134 23.7194 83.8965 22.8535L84.8945 23.3457C84.5938 23.9199 84.179 24.3757 83.6504 24.7129C83.1217 25.0501 82.4837 25.2188 81.7363 25.2188C81.0436 25.2188 80.4329 25.0592 79.9043 24.7402ZM83.7871 20.6797C83.778 20.3789 83.696 20.0781 83.541 19.7773C83.3952 19.4857 83.1628 19.235 82.8438 19.0254C82.5247 18.8158 82.1237 18.7109 81.6406 18.7109C81.0938 18.7109 80.6152 18.8932 80.2051 19.2578C79.8223 19.6042 79.5671 20.0781 79.4395 20.6797H83.7871ZM82.1328 13.0098H83.4316L84.0605 14.7188H83.0898L82.1328 13.0098ZM79.6855 16.332L81.1211 14.7051H82.1738L83.6094 16.332V16.4004H82.4609L81.6953 15.6074H81.5859L80.834 16.4004H79.6855V16.332ZM86.4395 17.8633H87.5605V18.916H87.6289C87.8203 18.5605 88.1302 18.2598 88.5586 18.0137C88.9961 17.7585 89.4564 17.6309 89.9395 17.6309C90.7962 17.6309 91.4479 17.8815 91.8945 18.3828C92.3503 18.8932 92.5781 19.5723 92.5781 20.4199V25H91.3887V20.5977C91.3887 19.9414 91.2292 19.4629 90.9102 19.1621C90.6003 18.8613 90.1673 18.7109 89.6113 18.7109C89.2285 18.7109 88.8867 18.8203 88.5859 19.0391C88.2669 19.276 88.0299 19.5586 87.875 19.8867C87.7109 20.2422 87.6289 20.6068 87.6289 20.9805V25H86.4395V17.8633Z" fill="white"/>
</svg>
