<svg width="117" height="40" viewBox="0 0 117 40" fill="none" xmlns="http://www.w3.org/2000/svg">
<rect width="117" height="40" rx="8" fill="#0050A6"/>
<path d="M28 16.8V23.2M31.2 20H24.8M28 28C32.4183 28 36 24.4183 36 20C36 15.5817 32.4183 12 28 12C23.5817 12 20 15.5817 20 20C20 24.4183 23.5817 28 28 28Z" stroke="white" stroke-width="1.5" stroke-linecap="round" stroke-linejoin="round"/>
<path d="M45.1211 14.9785H46.5703L51.6016 22.9492H51.6562L51.6016 21.0215V14.9785H52.791V25H51.5605L46.3105 16.6465H46.2559L46.3105 18.5742V25H45.1211V14.9785ZM55.6621 24.918C55.2428 24.7083 54.9238 24.4258 54.7051 24.0703C54.4863 23.7148 54.377 23.3047 54.377 22.8398C54.377 22.0833 54.6595 21.4954 55.2246 21.0762C55.8079 20.6478 56.528 20.4336 57.3848 20.4336C57.8314 20.4336 58.2324 20.4792 58.5879 20.5703C58.9525 20.6615 59.2305 20.7708 59.4219 20.8984V20.4609C59.4219 19.9414 59.2396 19.5176 58.875 19.1895C58.5104 18.8613 58.0365 18.6973 57.4531 18.6973C57.0612 18.6973 56.6966 18.7839 56.3594 18.957C56.0039 19.1393 55.735 19.3809 55.5527 19.6816L54.6504 19.0117C54.9238 18.5924 55.3112 18.2552 55.8125 18C56.3047 17.7539 56.8516 17.6309 57.4531 17.6309C58.4193 17.6309 59.1803 17.8861 59.7363 18.3965C60.2832 18.8978 60.5566 19.5905 60.5566 20.4746V25H59.4219V23.9746H59.3672C59.1576 24.3301 58.8522 24.6263 58.4512 24.8633C58.0592 25.1003 57.5944 25.2188 57.0566 25.2188C56.528 25.2188 56.0632 25.1185 55.6621 24.918ZM58.3008 23.8652C58.6471 23.6556 58.9206 23.3822 59.1211 23.0449C59.3216 22.7077 59.4219 22.3294 59.4219 21.9102C59.2031 21.7643 58.9297 21.6413 58.6016 21.541C58.2917 21.4499 57.9453 21.4043 57.5625 21.4043C56.9062 21.4043 56.4141 21.541 56.0859 21.8145C55.7578 22.0879 55.5938 22.4342 55.5938 22.8535C55.5938 23.2454 55.7441 23.5645 56.0449 23.8105C56.3457 24.0566 56.724 24.1797 57.1797 24.1797C57.5807 24.1797 57.9544 24.0749 58.3008 23.8652ZM57.002 27.4609C56.8561 27.3151 56.7832 27.1374 56.7832 26.9277C56.7832 26.709 56.8561 26.5312 57.002 26.3945C57.1569 26.2578 57.3346 26.1895 57.5352 26.1895C57.7539 26.1895 57.9316 26.2578 58.0684 26.3945C58.2142 26.5404 58.2871 26.7181 58.2871 26.9277C58.2871 27.1191 58.2142 27.2969 58.0684 27.4609C57.9316 27.6159 57.7539 27.6934 57.5352 27.6934C57.3346 27.6934 57.1569 27.6159 57.002 27.4609ZM62.1426 17.8633H63.2773V18.9297H63.332C63.5508 18.5651 63.8789 18.2598 64.3164 18.0137C64.7721 17.7585 65.2598 17.6309 65.7793 17.6309C66.4173 17.6309 66.9961 17.7949 67.5156 18.123C68.026 18.4512 68.4362 18.9069 68.7461 19.4902C69.0378 20.0462 69.1836 20.6934 69.1836 21.4316C69.1836 22.179 69.0378 22.8307 68.7461 23.3867C68.4453 23.9609 68.0352 24.4121 67.5156 24.7402C67.0143 25.0592 66.4355 25.2188 65.7793 25.2188C65.2415 25.2188 64.7539 25.0957 64.3164 24.8496C63.8789 24.6035 63.5508 24.3027 63.332 23.9473H63.2773L63.332 24.9316V28.0215H62.1426V17.8633ZM66.8047 23.8105C67.1602 23.6009 67.4518 23.2819 67.6797 22.8535C67.8893 22.4616 67.9941 21.9876 67.9941 21.4316C67.9941 20.8665 67.8893 20.388 67.6797 19.9961C67.4609 19.5859 67.1693 19.2715 66.8047 19.0527C66.4219 18.8249 66.0345 18.7109 65.6426 18.7109C65.2415 18.7109 64.8542 18.8249 64.4805 19.0527C64.1159 19.2806 63.8242 19.5951 63.6055 19.9961C63.3867 20.4062 63.2773 20.8848 63.2773 21.4316C63.2773 21.9694 63.3867 22.4434 63.6055 22.8535C63.8242 23.2728 64.1159 23.5918 64.4805 23.8105C64.8542 24.0384 65.2415 24.1523 65.6426 24.1523C66.0345 24.1523 66.4219 24.0384 66.8047 23.8105ZM75.7461 24.9727C75.4909 24.8724 75.2858 24.7448 75.1309 24.5898C74.7572 24.2344 74.5703 23.7467 74.5703 23.127V18.9434H73.3262V17.8633H74.5703V15.8398H75.7598V17.8633H77.5098V18.9434H75.7598V22.8262C75.7598 23.2272 75.8327 23.5189 75.9785 23.7012C76.1517 23.9017 76.4115 24.002 76.7578 24.002C77.0586 24.002 77.3184 23.9245 77.5371 23.7695V24.9316C77.4095 24.9954 77.2682 25.041 77.1133 25.0684C76.9674 25.0957 76.7806 25.1094 76.5527 25.1094C76.252 25.1094 75.9831 25.0638 75.7461 24.9727ZM79.6973 16.5508C79.4694 16.5508 79.2689 16.4642 79.0957 16.291C78.9225 16.1178 78.8359 15.9173 78.8359 15.6895C78.8359 15.4525 78.9225 15.2474 79.0957 15.0742C79.2507 14.9193 79.4512 14.8418 79.6973 14.8418C79.9434 14.8418 80.1439 14.9193 80.2988 15.0742C80.4629 15.2383 80.5449 15.4434 80.5449 15.6895C80.5449 15.9264 80.4629 16.127 80.2988 16.291C80.1257 16.4642 79.9251 16.5508 79.6973 16.5508ZM79.1094 17.8633H80.2988V25H79.1094V17.8633ZM83.498 24.7402C82.9512 24.4121 82.5273 23.9609 82.2266 23.3867C81.9258 22.8125 81.7754 22.1654 81.7754 21.4453C81.7754 20.7526 81.9167 20.1191 82.1992 19.5449C82.4909 18.9525 82.8965 18.4876 83.416 18.1504C83.9538 17.804 84.5599 17.6309 85.2344 17.6309C85.918 17.6309 86.5241 17.7904 87.0527 18.1094C87.5632 18.4193 87.9551 18.8477 88.2285 19.3945C88.5111 19.9596 88.6523 20.5931 88.6523 21.2949C88.6523 21.3496 88.6432 21.4681 88.625 21.6504H82.9648C82.9922 22.1973 83.1243 22.6576 83.3613 23.0312C83.5892 23.3867 83.8854 23.6647 84.25 23.8652C84.6055 24.0566 84.9792 24.1523 85.3711 24.1523C86.3008 24.1523 87.0072 23.7194 87.4902 22.8535L88.4883 23.3457C88.1875 23.9199 87.7728 24.3757 87.2441 24.7129C86.7155 25.0501 86.0775 25.2188 85.3301 25.2188C84.6374 25.2188 84.0267 25.0592 83.498 24.7402ZM87.3809 20.6797C87.3717 20.3789 87.2897 20.0781 87.1348 19.7773C86.9889 19.4857 86.7565 19.235 86.4375 19.0254C86.1185 18.8158 85.7174 18.7109 85.2344 18.7109C84.6875 18.7109 84.209 18.8932 83.7988 19.2578C83.416 19.6042 83.1608 20.0781 83.0332 20.6797H87.3809ZM85.7266 13.0098H87.0254L87.6543 14.7188H86.6836L85.7266 13.0098ZM83.2793 16.332L84.7148 14.7051H85.7676L87.2031 16.332V16.4004H86.0547L85.2891 15.6074H85.1797L84.4277 16.4004H83.2793V16.332ZM90.0332 17.8633H91.1543V18.916H91.2227C91.4141 18.5605 91.724 18.2598 92.1523 18.0137C92.5898 17.7585 93.0501 17.6309 93.5332 17.6309C94.39 17.6309 95.0417 17.8815 95.4883 18.3828C95.944 18.8932 96.1719 19.5723 96.1719 20.4199V25H94.9824V20.5977C94.9824 19.9414 94.8229 19.4629 94.5039 19.1621C94.194 18.8613 93.7611 18.7109 93.2051 18.7109C92.8223 18.7109 92.4805 18.8203 92.1797 19.0391C91.8607 19.276 91.6237 19.5586 91.4688 19.8867C91.3047 20.2422 91.2227 20.6068 91.2227 20.9805V25H90.0332V17.8633Z" fill="white"/>
</svg>
