<svg width="32" height="32" viewBox="0 0 32 32" fill="none" xmlns="http://www.w3.org/2000/svg">
<path fill-rule="evenodd" clip-rule="evenodd" d="M32 16C32 24.8366 24.8366 32 16 32C7.16344 32 0 24.8366 0 16C0 7.16344 7.16344 0 16 0C24.8366 0 32 7.16344 32 16ZM17.6 8C17.6 8.88366 16.8837 9.6 16 9.6C15.1163 9.6 14.4 8.88366 14.4 8C14.4 7.11634 15.1163 6.4 16 6.4C16.8837 6.4 17.6 7.11634 17.6 8ZM14.4 11.6C13.7373 11.6 13.2 12.1373 13.2 12.8C13.2 13.4627 13.7373 14 14.4 14H14.8V24C14.8 24.6627 15.3373 25.2 16 25.2C16.6627 25.2 17.2 24.6627 17.2 24V12.8C17.2 12.1373 16.6627 11.6 16 11.6H14.4Z" fill="white"/>
</svg>
