<svg width="24" height="24" viewBox="0 0 24 24" fill="none" xmlns="http://www.w3.org/2000/svg">
<path d="M10.4794 24C11.3088 24 11.9812 23.3283 11.9812 22.4997C11.9812 21.6711 11.3088 20.9993 10.4794 20.9993C9.64994 20.9993 8.97754 21.6711 8.97754 22.4997C8.97754 23.3283 9.64994 24 10.4794 24Z" fill="#0050A6"/>
<path d="M18.4872 24C19.3166 24 19.989 23.3283 19.989 22.4997C19.989 21.6711 19.3166 20.9993 18.4872 20.9993C17.6577 20.9993 16.9854 21.6711 16.9854 22.4997C16.9854 23.3283 17.6577 24 18.4872 24Z" fill="#0050A6"/>
<path d="M23.9996 6.50149C23.9994 7.78705 23.6175 9.04366 22.9024 10.1124C22.1873 11.1812 21.171 12.0141 19.982 12.5059C18.7931 12.9977 17.4849 13.1262 16.2228 12.8752C14.9607 12.6243 13.8014 12.0051 12.8916 11.096C11.9818 10.1869 11.3622 9.02865 11.1113 7.76777C10.8603 6.5069 10.9893 5.20003 11.4818 4.01235C11.9743 2.82468 12.8082 1.80957 13.8782 1.09538C14.9482 0.381197 16.2061 2.70576e-08 17.493 0C19.2182 0.00211819 20.8722 0.687801 22.092 1.90665C23.3118 3.12549 23.9979 4.77796 23.9996 6.50149ZM20.9959 6.50149C20.9959 6.23609 20.8905 5.98152 20.7028 5.79373C20.515 5.60594 20.2604 5.50027 19.9947 5.49992H18.4929V3.99424C18.4929 3.86289 18.467 3.73282 18.4167 3.61147C18.3663 3.49011 18.2926 3.37985 18.1996 3.28697C18.1066 3.19409 17.9963 3.12043 17.8748 3.07016C17.7533 3.0199 17.6231 2.99401 17.4917 2.99401C17.3602 2.99401 17.23 3.0199 17.1085 3.07016C16.987 3.12043 16.8766 3.19409 16.7837 3.28697C16.6907 3.37985 16.6169 3.49011 16.5666 3.61147C16.5163 3.73282 16.4904 3.86289 16.4904 3.99424V5.49459H14.9886C14.723 5.49459 14.4684 5.59996 14.2806 5.78754C14.0928 5.97512 13.9874 6.22954 13.9874 6.49482C13.9874 6.7601 14.0928 7.01451 14.2806 7.20209C14.4684 7.38967 14.723 7.49505 14.9886 7.49505H16.4904V8.99539C16.5037 9.25174 16.6149 9.49322 16.8013 9.66998C16.9876 9.84675 17.2347 9.94528 17.4917 9.94528C17.7486 9.94528 17.9957 9.84675 18.182 9.66998C18.3683 9.49322 18.4796 9.25174 18.4929 8.99539V7.49505H19.9947C20.26 7.49469 20.5143 7.38915 20.7018 7.2016C20.8893 7.01406 20.9946 6.75986 20.9946 6.49482L20.9959 6.50149Z" fill="#0050A6"/>
<path d="M8.97771 6.5017C8.97771 6.331 8.99241 6.16829 9.00309 6.00159H6.33285L5.95234 4.19449C5.82027 3.58035 5.48256 3.02954 4.99494 2.6329C4.50732 2.23625 3.89891 2.01747 3.27008 2.01268L0.719998 2.00067C0.526298 2.00883 0.34325 2.09144 0.209081 2.23123C0.0749117 2.37103 0 2.55719 0 2.75084C0 2.9445 0.0749117 3.13066 0.209081 3.27045C0.34325 3.41025 0.526298 3.49286 0.719998 3.50102L3.27143 3.51034C3.55705 3.51347 3.83315 3.61332 4.05458 3.79356C4.27601 3.9738 4.42964 4.22379 4.49038 4.50259L4.99639 6.90312L6.80814 15.4997H6.23138C5.64334 15.514 5.0842 15.7575 4.67337 16.178C4.26253 16.5985 4.03256 17.1627 4.03256 17.7503C4.03256 18.3378 4.26253 18.9021 4.67337 19.3226C5.0842 19.7431 5.64334 19.9865 6.23138 20.0008H21.2515C21.3528 20.005 21.4539 19.9888 21.5487 19.953C21.6435 19.9173 21.7302 19.8627 21.8033 19.7926C21.8765 19.7225 21.9347 19.6384 21.9745 19.5453C22.0143 19.4521 22.0348 19.3519 22.0348 19.2506C22.0348 19.1493 22.0143 19.0491 21.9745 18.956C21.9347 18.8628 21.8765 18.7787 21.8033 18.7086C21.7302 18.6386 21.6435 18.584 21.5487 18.5482C21.4539 18.5124 21.3528 18.4962 21.2515 18.5004H6.23138C6.03768 18.4923 5.85463 18.4097 5.72046 18.2699C5.58629 18.1301 5.51138 17.9439 5.51138 17.7503C5.51138 17.5566 5.58629 17.3704 5.72046 17.2306C5.85463 17.0909 6.03768 17.0082 6.23138 17.0001H21.2515C21.4236 17.0001 21.5905 16.9411 21.7242 16.8328C21.8579 16.7245 21.9503 16.5735 21.9858 16.4053L22.6534 13.2472C21.3948 14.2134 19.8903 14.8079 18.3107 14.9632C16.7311 15.1186 15.1394 14.8287 13.7164 14.1263C12.2933 13.424 11.0958 12.3374 10.2597 10.9897C9.42349 9.64199 8.98216 8.08722 8.98573 6.5017H8.97771Z" fill="#0050A6"/>
</svg>
