<svg width="40" height="40" viewBox="0 0 40 40" fill="none" xmlns="http://www.w3.org/2000/svg">
<rect width="40" height="40" rx="8" fill="#035FC1"/>
<path d="M27.9436 20V26C27.9436 28.2091 26.1527 30 23.9436 30H15.9436C13.7345 30 11.9436 28.2091 11.9436 26V20" stroke="white" stroke-width="1.5"/>
<path d="M24.7123 10H15.1748C13.3575 10 11.7232 11.2448 11.0483 13.143L10.2903 15.2749C10.0608 15.9202 9.90223 16.6107 10.0696 17.2749C10.4659 18.8478 11.7518 20 13.2769 20C15.1178 20 16.6102 18.3211 16.6102 16.25C16.6102 18.3211 18.1026 20 19.9436 20C21.7845 20 23.2769 18.3211 23.2769 16.25C23.2769 18.3211 24.7693 20 26.6102 20C28.1353 20 29.4212 18.8478 29.8176 17.2749C29.9849 16.6107 29.8263 15.9202 29.5969 15.2749L28.8389 13.143C28.1639 11.2448 26.5297 10 24.7123 10Z" stroke="white" stroke-width="1.5" stroke-linejoin="round"/>
<path d="M16.9436 25C19.2997 26.3404 20.5912 26.3263 22.9436 25" stroke="white" stroke-width="1.5" stroke-linecap="round" stroke-linejoin="round"/>
</svg>
