<svg width="32" height="32" viewBox="0 0 32 32" fill="none" xmlns="http://www.w3.org/2000/svg">
<rect width="32" height="32" rx="8" fill="#DFE3E9"/>
<path d="M14.1187 24H23M16.7465 10.0549C16.7465 10.0549 16.7465 11.5079 18.1632 12.9609C19.5798 14.4139 20.9965 14.4139 20.9965 14.4139M11.1437 21.3227L14.1187 20.8868C14.5478 20.824 14.9455 20.62 15.252 20.3056L22.4132 12.9609C23.1956 12.1584 23.1956 10.8573 22.4132 10.0549L20.9965 8.60185C20.2141 7.79938 18.9456 7.79938 18.1632 8.60185L11.002 15.9466C10.6955 16.261 10.4966 16.6689 10.4353 17.109L10.0103 20.1603C9.91589 20.8384 10.4826 21.4196 11.1437 21.3227Z" stroke="#4D5B72" stroke-width="1.5" stroke-linecap="round"/>
</svg>
