<svg width="24" height="22" viewBox="0 0 24 22" fill="none" xmlns="http://www.w3.org/2000/svg">
<path d="M8.08818 13.6986H8.08918C8.09002 13.6986 8.09086 13.6984 8.0917 13.6984H19.7774C20.0651 13.6984 20.318 13.5104 20.3971 13.2379L22.9752 4.34904C23.0308 4.15741 22.9918 3.95139 22.8701 3.79233C22.7483 3.63327 22.5578 3.53968 22.3555 3.53968H6.60172L6.14098 1.49719C6.07536 1.20668 5.81385 1 5.51173 1H1.64453C1.28853 1 1 1.28423 1 1.63492C1 1.98562 1.28853 2.26984 1.64453 2.26984H4.99476C5.07633 2.63178 7.1996 12.0441 7.32179 12.5856C6.6368 12.879 6.15626 13.5518 6.15626 14.3333C6.15626 15.3836 7.02369 16.2381 8.08986 16.2381H19.7774C20.1334 16.2381 20.4219 15.9539 20.4219 15.6032C20.4219 15.2525 20.1334 14.9683 19.7774 14.9683H8.08986C7.73452 14.9683 7.44532 14.6834 7.44532 14.3333C7.44532 13.9838 7.73352 13.6994 8.08818 13.6986ZM21.501 4.80952L19.2911 12.4286H8.60682L6.88807 4.80952H21.501Z" fill="white" stroke="white" stroke-width="0.5"/>
<path d="M7.34912 19.0952C7.34912 20.1455 8.20362 21 9.25388 21C10.3041 21 11.1586 20.1455 11.1586 19.0952C11.1586 18.0449 10.3041 17.1904 9.25388 17.1904C8.20362 17.1904 7.34912 18.0449 7.34912 19.0952ZM9.25388 18.4603C9.60392 18.4603 9.8888 18.7452 9.8888 19.0952C9.8888 19.4452 9.60392 19.7301 9.25388 19.7301C8.90385 19.7301 8.61896 19.4452 8.61896 19.0952C8.61896 18.7452 8.90385 18.4603 9.25388 18.4603Z" fill="white" stroke="white" stroke-width="0.2"/>
<path d="M16.3228 19.0952C16.3228 20.1455 17.1773 21 18.2275 21C19.2778 21 20.1323 20.1455 20.1323 19.0952C20.1323 18.0449 19.2778 17.1904 18.2275 17.1904C17.1773 17.1904 16.3228 18.0449 16.3228 19.0952ZM18.2275 18.4603C18.5775 18.4603 18.8624 18.7452 18.8624 19.0952C18.8624 19.4452 18.5775 19.7301 18.2275 19.7301C17.8775 19.7301 17.5926 19.4452 17.5926 19.0952C17.5926 18.7452 17.8775 18.4603 18.2275 18.4603Z" fill="white" stroke="white" stroke-width="0.2"/>
</svg>
