<svg width="20" height="20" viewBox="0 0 20 20" fill="none" xmlns="http://www.w3.org/2000/svg">
<path d="M10 20C4.48372 20 0 15.5163 0 10C0 4.48372 4.48372 0 10 0C15.5163 0 20 4.48372 20 10C20 15.5163 15.5163 20 10 20ZM10 1.39535C5.25581 1.39535 1.39535 5.25581 1.39535 10C1.39535 14.7442 5.25581 18.6047 10 18.6047C14.7442 18.6047 18.6047 14.7442 18.6047 10C18.6047 5.25581 14.7442 1.39535 10 1.39535Z" fill="white"/>
<path d="M13.7211 10.6977H6.27922C5.89782 10.6977 5.58154 10.3814 5.58154 10C5.58154 9.6186 5.89782 9.30233 6.27922 9.30233H13.7211C14.1025 9.30233 14.4188 9.6186 14.4188 10C14.4188 10.3814 14.1025 10.6977 13.7211 10.6977Z" fill="white"/>
<path d="M9.99992 14.4186C9.61853 14.4186 9.30225 14.1023 9.30225 13.7209V6.27907C9.30225 5.89767 9.61853 5.5814 9.99992 5.5814C10.3813 5.5814 10.6976 5.89767 10.6976 6.27907V13.7209C10.6976 14.1023 10.3813 14.4186 9.99992 14.4186Z" fill="white"/>
</svg>
