<svg width="5" height="8" viewBox="0 0 5 8" fill="none" xmlns="http://www.w3.org/2000/svg">
<path d="M4.68349 4.26551L0.889822 7.88982C0.853912 7.92475 0.811262 7.95244 0.764296 7.97134C0.71733 7.99025 0.666967 8 0.616118 8C0.565269 8 0.514969 7.99025 0.468003 7.97134C0.421037 7.95244 0.378324 7.92475 0.342414 7.88982L0.113572 7.66779C0.0775704 7.63295 0.0489985 7.59158 0.0295097 7.54601C0.0100209 7.50045 0 7.45159 0 7.40227C0 7.35294 0.0100209 7.30411 0.0295097 7.25855C0.0489985 7.21298 0.0775704 7.17158 0.113572 7.13674L3.41243 3.9995L0.120807 0.863259C0.0847746 0.828337 0.0561855 0.786855 0.0366827 0.741209C0.0171799 0.695564 0.00711002 0.646627 0.00711002 0.597216C0.00711002 0.547804 0.0171799 0.498899 0.0366827 0.453253C0.0561855 0.407607 0.0847746 0.366126 0.120807 0.331203L0.349649 0.110177C0.38556 0.0752521 0.42821 0.0475647 0.475176 0.0286583C0.522142 0.00975195 0.572505 0 0.623354 0C0.674203 0 0.724566 0.00975195 0.771532 0.0286583C0.818498 0.0475647 0.861148 0.0752521 0.897058 0.110177L4.69173 3.73446C4.7626 3.80625 4.8015 3.90224 4.79996 4.00163C4.79841 4.10102 4.75656 4.19582 4.68349 4.26551Z" fill="#0B3558"/>
</svg>
