<svg width="250" height="192" viewBox="0 0 250 192" fill="none" xmlns="http://www.w3.org/2000/svg">
<g opacity="0.2">
<path fill-rule="evenodd" clip-rule="evenodd" d="M53.9804 47.6125C54.0189 47.3014 54.3023 47.0803 54.6136 47.1187C55.1705 47.1874 55.7095 47.3329 56.2098 47.5681M53.9804 47.6125C53.942 47.9237 54.1631 48.2071 54.4744 48.2456L53.9804 47.6125ZM54.4744 48.2456C54.9269 48.3014 55.3476 48.4175 55.7265 48.5956L54.4744 48.2456ZM52.152 47.8203C52.2421 48.1206 52.0716 48.4371 51.7712 48.5271C50.9009 48.788 50.035 49.1987 49.2479 49.7244C48.9872 49.8986 48.6346 49.8284 48.4604 49.5677C48.2862 49.307 48.3563 48.9545 48.6171 48.7803C49.4942 48.1944 50.4624 47.7341 51.4451 47.4395C51.7455 47.3495 52.062 47.52 52.152 47.8203ZM56.2098 47.5682C56.6809 47.7896 57.1082 48.0863 57.4934 48.4418C57.7239 48.6544 57.7383 49.0136 57.5256 49.244C57.3129 49.4744 56.9536 49.4888 56.7232 49.2761C56.4145 48.9913 56.0825 48.763 55.7266 48.5956L55.7265 48.5956M58.4443 50.6033C58.7283 50.4705 59.0663 50.5931 59.1992 50.8771C59.5888 51.7101 59.8927 52.638 60.1195 53.6145C60.1904 53.9199 60.0002 54.225 59.6948 54.2959C59.3893 54.3668 59.0842 54.1767 59.0132 53.8713C58.8006 52.9557 58.5201 52.1055 58.1705 51.3581C58.0376 51.0741 58.1602 50.7361 58.4443 50.6033ZM47.1026 50.8067C47.3512 50.9979 47.3977 51.3543 47.2065 51.6028C46.9214 51.9735 46.6805 52.3615 46.4921 52.7612M47.1026 50.8067C46.854 50.6156 46.4975 50.6621 46.3064 50.9106L47.1026 50.8067ZM46.3064 50.9106C45.9765 51.3394 45.6914 51.7966 45.4648 52.2771L46.3064 50.9106ZM45.4648 52.2771L45.4648 52.2771L45.4648 52.2771ZM45.4648 52.2771C45.2552 52.7217 45.0996 53.1783 44.993 53.6428L45.4648 52.2771ZM46.4921 52.7612C46.3181 53.1302 46.1888 53.5094 46.0999 53.8966C46.0298 54.2022 45.7252 54.3932 45.4196 54.3231C45.1139 54.253 44.9229 53.9484 44.993 53.6428M45.3827 55.8412C45.6931 55.7965 45.981 56.0118 46.0257 56.3221C46.1398 57.1144 46.3768 57.9219 46.7129 58.7249C46.8339 59.0141 46.6976 59.3467 46.4083 59.4677C46.119 59.5888 45.7863 59.4524 45.6653 59.1632C45.2986 58.2871 45.0317 57.3866 44.9016 56.484C44.8569 56.1737 45.0723 55.8859 45.3827 55.8412ZM59.9434 55.9142C60.2558 55.8866 60.5314 56.1175 60.559 56.4298C60.6421 57.3714 60.668 58.3274 60.6407 59.2666C60.6316 59.58 60.3701 59.8267 60.0566 59.8175C59.7431 59.8084 59.4964 59.547 59.5055 59.2336C59.5316 58.337 59.5068 57.4255 59.4277 56.5296C59.4002 56.2173 59.6311 55.9418 59.9434 55.9142ZM47.126 60.8041C47.3893 60.6338 47.7409 60.7093 47.9111 60.9726C48.3744 61.689 48.8981 62.378 49.4585 63.0222C49.6642 63.2588 49.6392 63.6173 49.4026 63.8231C49.166 64.0288 48.8073 64.0038 48.6015 63.7673C48.0085 63.0855 47.4519 62.3538 46.9574 61.589C46.7872 61.3257 46.8626 60.9743 47.126 60.8041ZM59.9133 61.4496C60.2233 61.4971 60.4361 61.7869 60.3886 62.0968C60.235 63.099 60.015 64.045 59.7313 64.8856C59.6311 65.1827 59.309 65.3423 59.0118 65.2421C58.7147 65.1419 58.555 64.8198 58.6553 64.5227C58.9142 63.7553 59.1204 62.8748 59.266 61.9248C59.3135 61.6149 59.6033 61.4021 59.9133 61.4496ZM50.4706 64.8971C50.6771 64.6612 51.0358 64.6373 51.2718 64.8438C51.9571 65.4435 52.6515 65.9587 53.3187 66.3668C53.5862 66.5305 53.6704 66.88 53.5067 67.1474C53.343 67.4149 52.9935 67.499 52.726 67.3354C51.9971 66.8895 51.2512 66.3347 50.5239 65.6982C50.2879 65.4917 50.264 65.133 50.4706 64.8971ZM58.2766 66.7153C58.5092 66.9256 58.5273 67.2846 58.317 67.5172C57.9222 67.9538 57.4547 68.289 56.9119 68.4411C56.4215 68.5786 55.8809 68.5632 55.3333 68.4503C55.0262 68.3869 54.8286 68.0866 54.892 67.7796C54.9553 67.4725 55.2557 67.2749 55.5628 67.3383C55.995 67.4274 56.3419 67.4217 56.6053 67.3479C56.8887 67.2684 57.1814 67.0799 57.4746 66.7557C57.6849 66.5231 58.044 66.5051 58.2766 66.7153Z" fill="#0F31AC"/>
<path fill-rule="evenodd" clip-rule="evenodd" d="M27.2054 59.1019C27.2145 59.4154 26.9677 59.6768 26.6542 59.6859C25.8091 59.7103 24.9812 59.8143 24.187 60.016C23.883 60.0931 23.574 59.9094 23.4968 59.6055C23.4197 59.3016 23.6035 58.9926 23.9074 58.9155C24.7936 58.6904 25.7053 58.5774 26.6214 58.5509C26.9348 58.5418 27.1963 58.7885 27.2054 59.1019ZM28.6879 59.189C28.7289 58.8782 29.0142 58.6595 29.3251 58.7005C30.2204 58.8187 31.105 58.9977 31.9604 59.2154C32.2643 59.2928 32.4479 59.6018 32.3706 59.9057C32.2932 60.2095 31.9841 60.3931 31.6802 60.3158C30.8614 60.1074 30.0211 59.9376 29.1765 59.8262C28.8656 59.7851 28.6468 59.4999 28.6879 59.189ZM22.1186 60.159C22.2769 60.4296 22.1858 60.7774 21.9151 60.9357C21.5679 61.1387 21.2315 61.3699 20.9078 61.6318L20.9078 61.6318C20.5373 61.9314 20.1972 62.26 19.8869 62.6135C19.68 62.8492 19.3212 62.8725 19.0855 62.6657C18.8498 62.4589 18.8265 62.1002 19.0333 61.8645C19.385 61.464 19.7715 61.0904 20.1935 60.749M22.1186 60.159C21.9602 59.8883 21.6124 59.7973 21.3418 59.9556L22.1186 60.159ZM21.3418 59.9556C20.946 60.187 20.5624 60.4507 20.1936 60.749L21.3418 59.9556ZM33.791 60.3417C33.8957 60.0462 34.2202 59.8915 34.5158 59.9961C35.4096 60.3126 36.2434 60.6516 36.9896 60.9808C37.2766 61.1073 37.4065 61.4425 37.28 61.7293C37.1534 62.0162 36.8182 62.1462 36.5313 62.0196C35.807 61.7001 34.9998 61.3721 34.1366 61.0664C33.841 60.9617 33.6863 60.6373 33.791 60.3417ZM38.6174 62.3753C38.7636 62.0979 39.1071 61.9916 39.3845 62.1379C39.9732 62.4482 40.3777 62.6822 40.5453 62.7791L40.5453 62.7791C40.9487 63.0124 41.3717 63.2718 41.8067 63.5538C42.0698 63.7244 42.1448 64.0759 41.9742 64.339C41.8036 64.6021 41.452 64.6771 41.1889 64.5065C40.7689 64.2343 40.3623 63.985 39.9766 63.7619C39.8145 63.6681 39.4245 63.4425 38.8548 63.1422C38.5774 62.996 38.4711 62.6526 38.6174 62.3753ZM18.0789 64.2709C18.366 64.3972 18.4963 64.7322 18.37 65.0192C17.9885 65.8859 17.7202 66.8179 17.5626 67.7812C17.5119 68.0907 17.22 68.3005 16.9105 68.2499C16.601 68.1992 16.3912 67.9074 16.4418 67.5979C16.6136 66.5479 16.9074 65.523 17.3305 64.5618C17.4568 64.2748 17.7919 64.1446 18.0789 64.2709ZM43.4178 65.3658C43.6099 65.1179 43.9666 65.0728 44.2145 65.2648C44.9802 65.8583 45.7446 66.5006 46.4708 67.1757C46.7005 67.3892 46.7136 67.7485 46.5 67.9781C46.2865 68.2077 45.9272 68.2207 45.6975 68.0072C44.9987 67.3576 44.2606 66.7372 43.5187 66.1623C43.2709 65.9702 43.2257 65.6136 43.4178 65.3658ZM47.7303 69.2529C47.9703 69.051 48.3285 69.0818 48.5304 69.3217C49.2086 70.1274 49.8011 70.962 50.2509 71.8036C50.3988 72.0802 50.2944 72.4241 50.0178 72.5719C49.7412 72.7197 49.3972 72.6153 49.2494 72.3388C48.846 71.5841 48.3031 70.815 47.6615 70.0528C47.4596 69.8129 47.4904 69.4548 47.7303 69.2529ZM16.8163 70.1417C17.1294 70.1237 17.3978 70.3628 17.4159 70.6758C17.4721 71.6485 17.6323 72.6136 17.8914 73.5372C17.9761 73.8391 17.8 74.1525 17.498 74.2371C17.1961 74.3218 16.8826 74.1457 16.7979 73.8438C16.5164 72.8401 16.343 71.794 16.2822 70.7412C16.2641 70.4282 16.5032 70.1598 16.8163 70.1417ZM50.5687 74.2596C50.8821 74.2477 51.1458 74.4921 51.1577 74.8054C51.1788 75.3605 51.1063 75.91 50.921 76.4428M18.2166 75.99C18.4893 75.8353 18.8359 75.9309 18.9907 76.2036C19.2297 76.6248 19.494 77.0241 19.7824 77.397L19.3333 77.7443L19.7824 77.3971C20.0607 77.7568 20.3639 78.0952 20.6901 78.4132C20.9147 78.632 20.9193 78.9914 20.7004 79.216C20.4815 79.4405 20.122 79.4451 19.8974 79.2262C19.5346 78.8726 19.1958 78.4947 18.8841 78.0916C18.561 77.674 18.2672 77.2295 18.003 76.764C17.8482 76.4913 17.9438 76.1448 18.2166 75.99ZM48.0172 79.1064C48.1891 79.3686 48.1158 79.7205 47.8535 79.8924C47.0763 80.4016 46.1873 80.868 45.2163 81.2851C44.9282 81.4088 44.5942 81.2756 44.4704 80.9875C44.3467 80.6995 44.4799 80.3656 44.768 80.2418C45.6895 79.846 46.5184 79.4096 47.2311 78.9427C47.4933 78.7708 47.8453 78.8441 48.0172 79.1064ZM22.1031 80.2677C22.2615 79.9971 22.6093 79.9062 22.88 80.0646C23.6571 80.5196 24.5021 80.905 25.3994 81.2247C25.6948 81.3299 25.8489 81.6547 25.7437 81.95C25.6384 82.2454 25.3136 82.3995 25.0182 82.2942C24.0618 81.9535 23.1514 81.5392 22.3062 81.0444C22.0355 80.886 21.9446 80.5382 22.1031 80.2677ZM42.8186 81.5756C42.9075 81.8763 42.7359 82.1921 42.4352 82.2811C41.521 82.5515 40.5636 82.7847 39.5785 82.9761C39.2706 83.0359 38.9726 82.8349 38.9128 82.5271C38.8529 82.2193 39.054 81.9213 39.3618 81.8615C40.3129 81.6767 41.235 81.452 42.113 81.1923C42.4137 81.1033 42.7296 81.275 42.8186 81.5756ZM27.4362 82.4099C27.498 82.1025 27.7973 81.9034 28.1048 81.9651C29.0104 82.147 29.9453 82.2756 30.896 82.3548C31.2085 82.3808 31.4408 82.6552 31.4148 82.9676C31.3888 83.2801 31.1143 83.5123 30.8018 83.4863C29.8113 83.4038 28.833 83.2695 27.8811 83.0783C27.5737 83.0166 27.3745 82.7173 27.4362 82.4099ZM37.1788 82.7848C37.2113 83.0966 36.9848 83.3758 36.6729 83.4083C35.7045 83.5093 34.7231 83.5691 33.7419 83.5836C33.4283 83.5883 33.1704 83.3379 33.1657 83.0244C33.1611 82.7109 33.4115 82.453 33.7251 82.4483C34.6716 82.4343 35.6192 82.3766 36.5551 82.279C36.867 82.2465 37.1463 82.4729 37.1788 82.7848Z" fill="#0F31AC"/>
<path fill-rule="evenodd" clip-rule="evenodd" d="M134.062 18.7513C134.064 18.4377 134.319 18.1847 134.633 18.1862C135.563 18.1905 136.506 18.2217 137.458 18.2787C137.771 18.2975 138.01 18.5664 137.991 18.8794C137.972 19.1923 137.703 19.4309 137.39 19.4121C136.458 19.3563 135.536 19.3258 134.627 19.3216C134.314 19.3201 134.061 19.0648 134.062 18.7513ZM132.403 18.793C132.421 19.1061 132.182 19.3743 131.869 19.3922C130.937 19.4454 130.022 19.5286 129.125 19.6428C128.814 19.6824 128.529 19.4624 128.49 19.1514C128.45 18.8404 128.67 18.5561 128.981 18.5165C129.906 18.3988 130.847 18.3132 131.804 18.2586C132.117 18.2407 132.385 18.48 132.403 18.793ZM139.646 19.021C139.681 18.7094 139.961 18.4845 140.273 18.5188C141.198 18.6207 142.132 18.7454 143.071 18.8921C143.381 18.9405 143.593 19.2309 143.544 19.5406C143.496 19.8504 143.205 20.0623 142.896 20.0139C141.973 19.8697 141.056 19.7474 140.149 19.6475C139.837 19.6132 139.612 19.3327 139.646 19.021ZM126.849 19.4243C126.913 19.7312 126.716 20.032 126.409 20.096C125.498 20.2862 124.61 20.5123 123.748 20.7751C123.448 20.8666 123.131 20.6976 123.039 20.3977C122.948 20.0978 123.117 19.7805 123.417 19.6891C124.313 19.4158 125.234 19.1814 126.177 18.9846C126.484 18.9205 126.785 19.1174 126.849 19.4243ZM145.178 19.8317C145.24 19.5243 145.539 19.3247 145.846 19.3859C146.759 19.5678 147.677 19.7695 148.597 19.9902C148.902 20.0633 149.09 20.3698 149.016 20.6747C148.943 20.9796 148.637 21.1674 148.332 21.0943C147.425 20.8769 146.523 20.6784 145.624 20.4995C145.317 20.4382 145.117 20.1392 145.178 19.8317ZM121.476 20.96C121.597 21.249 121.461 21.5819 121.172 21.7035C120.752 21.8805 120.338 22.0678 119.933 22.2655C119.513 22.4705 119.104 22.6852 118.707 22.9093C118.434 23.0633 118.087 22.9668 117.933 22.6937C117.779 22.4206 117.876 22.0743 118.149 21.9203C118.566 21.685 118.995 21.4598 119.435 21.2451C119.86 21.0379 120.292 20.8419 120.732 20.6569C121.021 20.5353 121.354 20.671 121.476 20.96ZM150.622 21.0914C150.707 20.7893 151.02 20.6127 151.322 20.6969C152.22 20.9472 153.12 21.2148 154.02 21.4993C154.319 21.5938 154.485 21.9128 154.39 22.2118C154.295 22.5107 153.976 22.6765 153.677 22.5819C152.79 22.3013 151.902 22.0373 151.017 21.7907C150.715 21.7065 150.538 21.3934 150.622 21.0914ZM155.965 22.7385C156.069 22.4428 156.393 22.2876 156.689 22.3919C157.57 22.7025 158.45 23.0287 159.328 23.37C159.621 23.4836 159.765 23.8126 159.652 24.1048C159.538 24.3971 159.209 24.5419 158.917 24.4283C158.05 24.0913 157.181 23.7692 156.311 23.4627C156.016 23.3584 155.86 23.0341 155.965 22.7385ZM116.538 23.5958C116.724 23.848 116.671 24.2035 116.418 24.3897C115.679 24.9355 114.985 25.5204 114.331 26.1421C114.104 26.3582 113.745 26.3494 113.529 26.1223C113.312 25.8952 113.321 25.5358 113.548 25.3196C114.235 24.6659 114.966 24.0506 115.744 23.4764C115.996 23.2901 116.352 23.3436 116.538 23.5958ZM161.191 24.7306C161.313 24.442 161.647 24.3073 161.935 24.4299C162.797 24.7954 163.655 25.1751 164.509 25.5684C164.794 25.6996 164.918 26.0368 164.787 26.3216C164.656 26.6064 164.319 26.7309 164.034 26.5997C163.19 26.2111 162.342 25.8361 161.492 25.475C161.203 25.3525 161.068 25.0192 161.191 24.7306ZM166.285 27.0388C166.425 26.7581 166.766 26.6436 167.047 26.7832C167.885 27.2 168.719 27.6298 169.546 28.0721C169.823 28.2199 169.927 28.5639 169.779 28.8404C169.632 29.1169 169.288 29.2212 169.011 29.0734C168.193 28.6364 167.37 28.2118 166.541 27.7999C166.26 27.6603 166.146 27.3196 166.285 27.0388ZM112.396 27.3405C112.638 27.5401 112.672 27.898 112.472 28.1397C111.894 28.8396 111.355 29.575 110.851 30.3436C110.679 30.6058 110.327 30.679 110.064 30.5071C109.802 30.3351 109.729 29.9832 109.901 29.721C110.427 28.9194 110.991 28.1504 111.596 27.4169C111.796 27.1751 112.154 27.1409 112.396 27.3405ZM171.232 29.6447C171.388 29.3727 171.735 29.2786 172.007 29.4346C172.821 29.9013 173.628 30.38 174.427 30.8701C174.694 31.0341 174.778 31.3837 174.614 31.6509C174.45 31.9182 174.1 32.0018 173.833 31.8378C173.044 31.3536 172.247 30.8807 171.442 30.4196C171.17 30.2637 171.076 29.9167 171.232 29.6447ZM109.222 31.9442C109.499 32.09 109.606 32.4333 109.46 32.7108C109.039 33.513 108.647 34.344 108.283 35.2016C108.16 35.4902 107.827 35.6249 107.538 35.5024C107.25 35.3799 107.115 35.0466 107.238 34.758C107.613 33.8737 108.018 33.0144 108.455 32.1826C108.601 31.905 108.944 31.7983 109.222 31.9442ZM176.016 32.5412C176.188 32.2791 176.541 32.2061 176.803 32.3782C177.589 32.8942 178.365 33.4212 179.131 33.9589C179.387 34.1391 179.449 34.4932 179.269 34.7498C179.089 35.0064 178.735 35.0683 178.478 34.8881C177.722 34.3573 176.955 33.8369 176.179 33.3273C175.917 33.1552 175.844 32.8033 176.016 32.5412ZM180.612 35.7253C180.801 35.4747 181.157 35.4242 181.407 35.6126C182.16 36.1782 182.901 36.7543 183.628 37.3402C183.872 37.5368 183.911 37.8942 183.714 38.1384C183.517 38.3826 183.16 38.4211 182.916 38.2244C182.198 37.6466 181.468 37.0784 180.725 36.5202C180.474 36.3318 180.424 35.976 180.612 35.7253ZM106.942 37.0616C107.239 37.1639 107.396 37.487 107.294 37.7834C106.997 38.6448 106.722 39.528 106.468 40.4312C106.383 40.7329 106.069 40.9087 105.767 40.8236C105.465 40.7386 105.29 40.425 105.375 40.1233C105.635 39.2009 105.916 38.2968 106.221 37.4132C106.323 37.1168 106.646 36.9594 106.942 37.0616ZM184.988 39.2017C185.194 38.9646 185.552 38.9387 185.789 39.1439C186.504 39.762 187.203 40.3898 187.887 41.0269C188.116 41.2407 188.128 41.6 187.915 41.8293C187.701 42.0586 187.341 42.0711 187.112 41.8573C186.439 41.23 185.75 40.6116 185.046 40.0025C184.809 39.7973 184.783 39.4388 184.988 39.2017ZM105.356 42.4351C105.662 42.5058 105.852 42.8107 105.781 43.1162C105.575 44.0062 105.386 44.9121 105.21 45.8324C105.151 46.1404 104.853 46.3423 104.545 46.2835C104.237 46.2246 104.035 45.9273 104.094 45.6193C104.273 44.686 104.465 43.7657 104.675 42.8602C104.746 42.5547 105.051 42.3644 105.356 42.4351ZM189.108 42.986C189.331 42.7653 189.69 42.7669 189.911 42.9897C190.577 43.6623 191.226 44.344 191.854 45.0344C192.065 45.2662 192.048 45.6253 191.817 45.8364C191.585 46.0474 191.225 46.0306 191.014 45.7987C190.397 45.1205 189.76 44.4504 189.104 43.7888C188.883 43.5661 188.885 43.2066 189.108 42.986ZM192.907 47.0893C193.148 46.8891 193.506 46.9223 193.707 47.1635C194.313 47.8939 194.897 48.6329 195.457 49.3797C195.645 49.6306 195.594 49.9864 195.343 50.1745C195.093 50.3626 194.737 50.3117 194.549 50.0608C194 49.3294 193.428 48.6052 192.833 47.8888C192.633 47.6475 192.666 47.2896 192.907 47.0893ZM104.26 47.924C104.57 47.9732 104.781 48.2641 104.732 48.5737C104.587 49.4828 104.454 50.4034 104.33 51.334C104.289 51.6448 104.004 51.8632 103.693 51.8219C103.382 51.7805 103.163 51.495 103.205 51.1842C103.33 50.2452 103.464 49.3151 103.61 48.3957C103.659 48.0861 103.95 47.8749 104.26 47.924ZM196.304 51.5287C196.565 51.3545 196.918 51.4245 197.092 51.6852C197.621 52.4763 198.123 53.2754 198.595 54.0816C198.754 54.3521 198.663 54.6999 198.392 54.8585C198.122 55.017 197.774 54.9262 197.615 54.6557C197.155 53.8695 196.665 53.0895 196.148 52.3162C195.974 52.0556 196.044 51.703 196.304 51.5287ZM103.49 53.4803C103.801 53.5155 104.026 53.7966 103.99 54.1081C103.886 55.0276 103.79 55.955 103.698 56.889C103.668 57.2011 103.39 57.4293 103.078 57.3988C102.766 57.3682 102.537 57.0905 102.568 56.7784C102.66 55.8396 102.757 54.9065 102.862 53.9806C102.897 53.6691 103.178 53.4451 103.49 53.4803ZM199.186 56.3166C199.466 56.176 199.808 56.2892 199.948 56.5695C200.16 56.9918 200.364 57.4158 200.559 57.8414C200.772 58.3051 200.969 58.7594 201.154 59.2053C201.274 59.495 201.136 59.827 200.846 59.9469C200.557 60.0668 200.224 59.9291 200.105 59.6394C199.925 59.2063 199.733 58.7651 199.527 58.3149C199.337 57.9015 199.139 57.4893 198.933 57.0786C198.793 56.7983 198.906 56.4572 199.186 56.3166ZM102.926 59.055C103.238 59.0822 103.469 59.3574 103.442 59.6698C103.361 60.5949 103.285 61.5249 103.21 62.4586C103.185 62.7712 102.911 63.0042 102.598 62.9792C102.286 62.9541 102.053 62.6804 102.078 62.3679C102.153 61.4323 102.23 60.4997 102.311 59.5713C102.338 59.259 102.613 59.0278 102.926 59.055ZM201.471 61.6274C201.768 61.5281 202.09 61.6887 202.189 61.9861C202.515 62.9628 202.794 63.9013 203.052 64.8103C203.137 65.112 202.962 65.4259 202.66 65.5114C202.358 65.597 202.045 65.4218 201.959 65.1202C201.704 64.2197 201.43 63.2996 201.112 62.3457C201.012 62.0483 201.173 61.7267 201.471 61.6274ZM102.468 64.6427C102.781 64.6668 103.015 64.9397 102.991 65.2523C102.962 65.6259 102.933 65.9999 102.905 66.3744C102.862 66.9317 102.819 67.4897 102.776 68.0477C102.752 68.3603 102.479 68.5941 102.166 68.57C101.853 68.5458 101.62 68.2728 101.644 67.9602C101.687 67.4051 101.729 66.8507 101.772 66.2965C101.801 65.9193 101.83 65.5422 101.859 65.1652C101.883 64.8526 102.156 64.6187 102.468 64.6427ZM203.137 67.2384C203.439 67.1523 203.753 67.3268 203.839 67.6283C204.106 68.5634 204.384 69.4765 204.707 70.3867C204.811 70.6822 204.657 71.0068 204.361 71.1116C204.066 71.2164 203.741 71.0618 203.636 70.7663C203.302 69.8245 203.018 68.886 202.747 67.9402C202.661 67.6388 202.836 67.3246 203.137 67.2384ZM102.035 70.2313C102.348 70.2566 102.581 70.5305 102.555 70.843C102.48 71.7762 102.401 72.7092 102.319 73.6407C102.291 73.953 102.016 74.1838 101.703 74.1562C101.391 74.1286 101.16 73.853 101.188 73.5407C101.27 72.6126 101.348 71.6824 101.423 70.7512C101.449 70.4387 101.723 70.2059 102.035 70.2313ZM205.045 72.769C205.327 72.6327 205.667 72.7511 205.803 73.0335C206.197 73.8495 206.654 74.6769 207.2 75.5262C207.369 75.7901 207.292 76.1413 207.029 76.3106C206.765 76.48 206.413 76.4034 206.244 76.1395C205.673 75.2504 205.194 74.3829 204.78 73.527C204.644 73.2447 204.763 72.9053 205.045 72.769ZM101.548 75.8165C101.86 75.8475 102.088 76.1255 102.057 76.4375C101.964 77.3715 101.866 78.3029 101.76 79.2301C101.724 79.5416 101.443 79.7653 101.131 79.7298C100.82 79.6942 100.596 79.4129 100.632 79.1013C100.737 78.1803 100.835 77.2545 100.927 76.3252C100.958 76.0132 101.236 75.7854 101.548 75.8165ZM208.079 77.7607C208.323 77.5642 208.681 77.6031 208.877 77.8474C209.168 78.2096 209.478 78.5771 209.807 78.9507C210.124 79.3105 210.443 79.6602 210.762 80.0002C210.977 80.2286 210.966 80.5879 210.738 80.8027C210.509 81.0175 210.15 81.0065 209.935 80.7781C209.607 80.4291 209.28 80.0703 208.955 79.7012C208.615 79.3153 208.294 78.9347 207.992 78.5588C207.796 78.3145 207.834 77.9571 208.079 77.7607ZM100.928 81.3855C101.238 81.4269 101.457 81.7124 101.415 82.0232C101.291 82.9589 101.157 83.8892 101.012 84.8125C100.964 85.1223 100.673 85.334 100.363 85.2855C100.054 85.2369 99.8418 84.9465 99.8904 84.6367C100.034 83.7228 100.166 82.8013 100.29 81.8734C100.331 81.5626 100.617 81.3442 100.928 81.3855ZM211.958 82.0163C212.171 81.7866 212.53 81.7735 212.76 81.9869C213.467 82.6435 214.178 83.2581 214.893 83.8348C215.137 84.0318 215.175 84.3892 214.978 84.6332C214.781 84.8772 214.423 84.9153 214.179 84.7184C213.444 84.1253 212.713 83.4934 211.987 82.8186C211.757 82.6051 211.744 82.2459 211.958 82.0163ZM216.356 85.6675C216.535 85.4103 216.889 85.3472 217.147 85.5265C217.933 86.0751 218.722 86.5834 219.511 87.0567C219.78 87.218 219.868 87.5668 219.706 87.8356C219.545 88.1045 219.196 88.1917 218.927 88.0304C218.117 87.5443 217.306 87.0219 216.497 86.4579C216.24 86.2786 216.177 85.9247 216.356 85.6675ZM100.083 86.9294C100.392 86.9866 100.595 87.2829 100.538 87.5912C100.365 88.5212 100.18 89.4426 99.9786 90.354C99.9111 90.6602 99.6081 90.8537 99.3019 90.7862C98.9956 90.7187 98.8021 90.4158 98.8696 90.1096C99.0676 89.2115 99.251 88.3026 99.4214 87.384C99.4787 87.0757 99.775 86.8722 100.083 86.9294ZM221.216 88.6749C221.36 88.3963 221.702 88.2869 221.981 88.4306C222.834 88.8705 223.685 89.2756 224.531 89.6526C224.817 89.7802 224.946 90.1159 224.818 90.4022C224.69 90.6886 224.355 90.8173 224.068 90.6897C223.205 90.3048 222.334 89.8904 221.46 89.4397C221.182 89.296 221.072 88.9536 221.216 88.6749ZM226.41 91.0643C226.524 90.7723 226.853 90.6281 227.145 90.7422C228.043 91.0929 228.932 91.4187 229.809 91.728C230.105 91.8322 230.26 92.1565 230.156 92.4522C230.052 92.7479 229.727 92.9031 229.432 92.7988C228.546 92.4864 227.644 92.1561 226.732 91.7997C226.44 91.6856 226.296 91.3564 226.41 91.0643ZM98.9135 92.4019C99.2169 92.4814 99.3983 92.7918 99.3187 93.095C99.0772 94.0155 98.8175 94.9237 98.5377 95.818C98.444 96.1172 98.1255 96.2839 97.8262 96.1902C97.5269 96.0966 97.3602 95.7781 97.4538 95.4789C97.728 94.6027 97.9829 93.7115 98.2202 92.8069C98.2998 92.5037 98.6102 92.3223 98.9135 92.4019ZM231.789 93.0078C231.888 92.7104 232.21 92.5498 232.507 92.6492C232.771 92.7374 233.034 92.8248 233.295 92.9119C233.948 93.1292 234.592 93.3436 235.222 93.558C235.519 93.659 235.678 93.9814 235.577 94.2783C235.476 94.5751 235.154 94.7339 234.857 94.633C234.23 94.4198 233.591 94.2071 232.939 93.9901C232.677 93.9029 232.413 93.815 232.147 93.7261C231.85 93.6267 231.689 93.3051 231.789 93.0078ZM237.202 94.8536C237.313 94.5604 237.641 94.4128 237.934 94.524C238.86 94.875 239.755 95.2424 240.61 95.6413C240.894 95.7738 241.017 96.1117 240.884 96.3958C240.751 96.6799 240.414 96.8028 240.129 96.6702C239.307 96.2864 238.439 95.9297 237.532 95.5857C237.238 95.4746 237.091 95.1468 237.202 94.8536ZM242.405 97.2114C242.573 96.9465 242.924 96.8676 243.189 97.0352C244.032 97.5685 244.819 98.1609 245.54 98.8335C245.769 99.0474 245.781 99.4067 245.567 99.6359C245.353 99.8651 244.994 99.8774 244.765 99.6635C244.103 99.0457 243.373 98.4955 242.582 97.9947C242.317 97.8271 242.238 97.4764 242.405 97.2114ZM97.2862 97.77C97.58 97.8797 97.7291 98.2068 97.6194 98.5005C97.2857 99.3931 96.9283 100.269 96.5448 101.127C96.4168 101.413 96.081 101.541 95.7947 101.413C95.5084 101.285 95.3801 100.95 95.5081 100.663C95.8813 99.8288 96.2297 98.9748 96.5556 98.1031C96.6654 97.8093 96.9925 97.6602 97.2862 97.77ZM246.69 100.943C246.95 100.768 247.303 100.836 247.479 101.095C247.753 101.5 248.01 101.927 248.247 102.378C248.474 102.81 248.678 103.254 248.861 103.709C248.977 104 248.836 104.33 248.545 104.447C248.254 104.564 247.923 104.422 247.806 104.131C247.638 103.712 247.45 103.303 247.241 102.907C247.024 102.493 246.789 102.102 246.539 101.732C246.363 101.472 246.431 101.119 246.69 100.943ZM95.0628 102.909C95.3392 103.057 95.4431 103.401 95.295 103.678C94.8449 104.517 94.3649 105.335 93.8526 106.13C93.6827 106.393 93.3313 106.469 93.0677 106.299C92.8041 106.129 92.7282 105.778 92.8981 105.514C93.3931 104.747 93.8577 103.955 94.2941 103.141C94.4422 102.865 94.7864 102.761 95.0628 102.909ZM249.015 106.06C249.322 106 249.621 106.201 249.681 106.508C249.863 107.442 249.969 108.407 250 109.396C250.01 109.709 249.764 109.971 249.45 109.981C249.137 109.991 248.874 109.745 248.865 109.432C248.835 108.5 248.736 107.596 248.566 106.726C248.506 106.418 248.707 106.12 249.015 106.06ZM92.1056 107.658C92.3531 107.851 92.3977 108.208 92.2051 108.455C91.6216 109.205 91.003 109.928 90.3469 110.624C90.1317 110.852 89.7723 110.862 89.5442 110.647C89.3161 110.432 89.3056 110.073 89.5208 109.845C90.1515 109.176 90.7467 108.48 91.3088 107.758C91.5014 107.51 91.8581 107.466 92.1056 107.658ZM88.3425 111.802C88.5484 112.039 88.5235 112.397 88.2869 112.603C87.5778 113.22 86.8315 113.808 86.0461 114.366C85.7904 114.548 85.4359 114.488 85.2543 114.232C85.0728 113.976 85.1328 113.622 85.3885 113.44C86.1434 112.904 86.8603 112.339 87.5414 111.747C87.778 111.541 88.1367 111.566 88.3425 111.802ZM249.383 111.663C249.695 111.696 249.921 111.975 249.889 112.287C249.791 113.22 249.634 114.169 249.42 115.127C249.352 115.433 249.048 115.626 248.742 115.558C248.436 115.489 248.243 115.186 248.312 114.88C248.517 113.962 248.666 113.056 248.759 112.168C248.792 111.857 249.071 111.63 249.383 111.663ZM83.8568 115.126C84.0132 115.398 83.9197 115.745 83.6479 115.901C83.2337 116.14 82.8102 116.37 82.377 116.593C81.9561 116.81 81.5371 117.015 81.1199 117.207C80.8351 117.339 80.4978 117.214 80.3663 116.93C80.2349 116.645 80.3591 116.308 80.6439 116.176C81.0461 115.991 81.4504 115.793 81.8569 115.584C82.2746 115.369 82.6827 115.147 83.0815 114.917C83.3533 114.761 83.7004 114.854 83.8568 115.126ZM42.8619 115.775C42.8741 115.461 43.138 115.217 43.4514 115.229C44.3747 115.265 45.2926 115.336 46.206 115.434C46.5178 115.467 46.7436 115.747 46.7103 116.059C46.6769 116.371 46.3971 116.596 46.0853 116.563C45.194 116.468 44.3018 116.399 43.4072 116.364C43.0938 116.352 42.8497 116.088 42.8619 115.775ZM41.2729 115.776C41.2868 116.089 41.0442 116.354 40.7309 116.368C39.8494 116.407 38.9643 116.486 38.0742 116.612C37.7637 116.656 37.4764 116.44 37.4325 116.13C37.3886 115.819 37.6047 115.532 37.9152 115.488C38.8435 115.357 39.7649 115.275 40.6803 115.234C40.9936 115.22 41.2589 115.463 41.2729 115.776ZM48.2849 116.271C48.3338 115.961 48.6245 115.75 48.9343 115.799C49.8376 115.941 50.7381 116.102 51.6362 116.274C51.9442 116.332 52.1463 116.63 52.0875 116.938C52.0287 117.246 51.7313 117.448 51.4233 117.389C50.5336 117.219 49.6456 117.06 48.7573 116.92C48.4476 116.871 48.2361 116.581 48.2849 116.271ZM35.8724 116.432C35.948 116.736 35.7626 117.044 35.4582 117.12C34.6161 117.329 33.768 117.585 32.9128 117.895C32.6179 118.001 32.2923 117.849 32.1856 117.554C32.0789 117.259 32.2315 116.934 32.5264 116.827C33.4189 116.504 34.3047 116.236 35.1844 116.018C35.4887 115.942 35.7968 116.128 35.8724 116.432ZM53.6452 117.251C53.7085 116.944 54.0088 116.746 54.3159 116.809C54.6251 116.873 54.9337 116.937 55.2421 117.001C55.8224 117.121 56.402 117.241 56.9834 117.359C57.2907 117.422 57.4892 117.721 57.4267 118.028C57.3643 118.336 57.0645 118.534 56.7572 118.472C56.1744 118.353 55.5914 118.233 55.0101 118.112C54.7018 118.048 54.3939 117.985 54.0868 117.921C53.7796 117.858 53.5819 117.558 53.6452 117.251ZM248.292 117.178C248.59 117.276 248.752 117.597 248.653 117.895C248.36 118.783 248.02 119.677 247.636 120.571C247.512 120.859 247.178 120.993 246.89 120.869C246.602 120.745 246.469 120.411 246.593 120.123C246.965 119.258 247.292 118.395 247.575 117.539C247.673 117.241 247.994 117.079 248.292 117.178ZM78.903 117.528C79.0081 117.823 78.8537 118.148 78.5582 118.253C77.6626 118.571 76.7753 118.838 75.8954 119.058C75.5913 119.135 75.2829 118.95 75.2066 118.646C75.1304 118.342 75.3151 118.033 75.6193 117.957C76.4642 117.745 77.3168 117.489 78.1778 117.183C78.4732 117.078 78.7979 117.232 78.903 117.528ZM30.7131 118.173C30.8485 118.455 30.7289 118.794 30.4461 118.93C29.6707 119.301 28.8884 119.719 28.0986 120.188C27.8291 120.349 27.4806 120.26 27.3204 119.99C27.1601 119.721 27.2487 119.373 27.5183 119.212C28.3367 118.726 29.149 118.292 29.9558 117.906C30.2387 117.77 30.5777 117.89 30.7131 118.173ZM58.9863 118.334C59.0428 118.025 59.3386 117.821 59.6471 117.877C60.5346 118.04 61.4233 118.189 62.3147 118.319C62.625 118.364 62.8399 118.653 62.7947 118.963C62.7495 119.273 62.4613 119.488 62.151 119.443C61.243 119.311 60.3404 119.158 59.4426 118.994C59.1342 118.938 58.9298 118.642 58.9863 118.334ZM73.6493 118.957C73.696 119.267 73.4825 119.556 73.1724 119.603C72.2444 119.742 71.3249 119.835 70.4132 119.888C70.1001 119.907 69.8315 119.668 69.8133 119.355C69.7951 119.042 70.0341 118.773 70.3472 118.755C71.2263 118.704 72.1113 118.614 73.0033 118.48C73.3134 118.433 73.6026 118.647 73.6493 118.957ZM64.3723 119.154C64.401 118.842 64.6775 118.612 64.9898 118.641C65.8792 118.722 66.7721 118.778 67.6699 118.799C67.9834 118.806 68.2316 119.066 68.2243 119.379C68.2169 119.693 67.9567 119.941 67.6432 119.934C66.7168 119.912 65.7979 119.855 64.8857 119.771C64.5734 119.743 64.3435 119.466 64.3723 119.154ZM25.994 120.855C26.1752 121.111 26.1147 121.465 25.8588 121.647C25.4956 121.904 25.1308 122.172 24.7642 122.453C24.3903 122.738 24.0134 123.028 23.6343 123.322C23.3864 123.515 23.0298 123.469 22.8376 123.222C22.6454 122.974 22.6905 122.617 22.9383 122.425C23.3196 122.129 23.6986 121.838 24.0744 121.551C24.4518 121.262 24.8277 120.985 25.2024 120.72C25.4583 120.539 25.8127 120.599 25.994 120.855ZM246.166 122.383C246.443 122.529 246.55 122.872 246.404 123.15C245.969 123.979 245.495 124.805 244.985 125.627C244.819 125.894 244.469 125.976 244.203 125.81C243.937 125.645 243.855 125.295 244.02 125.029C244.516 124.229 244.976 123.426 245.399 122.622C245.545 122.344 245.888 122.237 246.166 122.383ZM21.4816 124.29C21.6778 124.535 21.6386 124.892 21.3941 125.088C20.6605 125.677 19.9235 126.279 19.1874 126.894C18.9468 127.095 18.5887 127.064 18.3876 126.823C18.1864 126.582 18.2184 126.224 18.4589 126.023C19.2014 125.403 19.9444 124.795 20.6833 124.203C20.9279 124.006 21.2853 124.046 21.4816 124.29ZM243.268 127.209C243.523 127.392 243.581 127.746 243.398 128.001C242.852 128.763 242.274 129.518 241.665 130.264C241.467 130.507 241.109 130.543 240.866 130.345C240.623 130.147 240.587 129.789 240.785 129.546C241.38 128.818 241.943 128.082 242.475 127.34C242.658 127.085 243.013 127.026 243.268 127.209ZM17.075 127.946C17.2818 128.182 17.2585 128.54 17.0228 128.747C16.3116 129.372 15.6057 130.007 14.9094 130.654C14.6797 130.868 14.3204 130.855 14.1069 130.625C13.8935 130.395 13.9067 130.036 14.1364 129.823C14.8411 129.168 15.555 128.525 16.2736 127.894C16.5093 127.687 16.8681 127.711 17.075 127.946ZM239.765 131.614C239.996 131.826 240.011 132.185 239.798 132.416C239.162 133.107 238.498 133.788 237.807 134.456C237.581 134.674 237.222 134.668 237.004 134.443C236.786 134.217 236.792 133.858 237.017 133.64C237.692 132.987 238.341 132.322 238.963 131.647C239.175 131.416 239.535 131.401 239.765 131.614ZM12.8604 131.82C13.0814 132.043 13.0801 132.402 12.8576 132.623C12.1829 133.293 11.5224 133.973 10.8801 134.662C10.6664 134.892 10.3071 134.904 10.0776 134.691C9.8481 134.477 9.83534 134.118 10.0491 133.888C10.7022 133.187 11.3731 132.497 12.0574 131.817C12.2799 131.596 12.6394 131.598 12.8604 131.82ZM235.765 135.575C235.97 135.812 235.944 136.17 235.707 136.375C234.995 136.99 234.259 137.592 233.5 138.179C233.252 138.37 232.895 138.324 232.703 138.076C232.512 137.828 232.557 137.472 232.806 137.28C233.548 136.706 234.268 136.118 234.964 135.516C235.201 135.311 235.56 135.337 235.765 135.575ZM8.9282 135.98C9.16729 136.183 9.19659 136.541 8.99365 136.78C8.37679 137.507 7.78396 138.243 7.21967 138.986C7.03015 139.236 6.67397 139.285 6.42412 139.096C6.17426 138.906 6.12535 138.55 6.31487 138.3C6.89269 137.538 7.49864 136.787 8.12785 136.046C8.33079 135.807 8.68912 135.777 8.9282 135.98ZM231.348 139.066C231.526 139.324 231.461 139.677 231.203 139.855C230.429 140.389 229.633 140.908 228.816 141.408C228.549 141.572 228.199 141.489 228.035 141.221C227.871 140.954 227.955 140.604 228.222 140.441C229.021 139.95 229.8 139.443 230.558 138.92C230.817 138.742 231.17 138.807 231.348 139.066ZM5.42436 140.502C5.68613 140.675 5.75835 141.027 5.58567 141.289C5.06053 142.085 4.57208 142.888 4.12536 143.699C3.97401 143.974 3.62865 144.074 3.354 143.922C3.07934 143.771 2.97938 143.426 3.13073 143.151C3.59314 142.312 4.09738 141.483 4.6377 140.664C4.81039 140.402 5.16258 140.33 5.42436 140.502ZM226.581 142.061C226.73 142.337 226.628 142.681 226.353 142.831C225.937 143.056 225.516 143.278 225.091 143.494C224.673 143.706 224.262 143.918 223.856 144.129C223.578 144.273 223.235 144.164 223.09 143.886C222.946 143.608 223.054 143.265 223.333 143.121C223.742 142.909 224.156 142.696 224.575 142.482C224.992 142.27 225.404 142.054 225.811 141.833C226.086 141.683 226.431 141.785 226.581 142.061ZM221.654 144.645C221.802 144.921 221.699 145.265 221.423 145.414C220.594 145.859 219.787 146.3 219 146.736C218.725 146.888 218.38 146.789 218.228 146.515C218.076 146.241 218.175 145.895 218.449 145.743C219.24 145.305 220.051 144.862 220.885 144.414C221.161 144.265 221.506 144.369 221.654 144.645ZM2.59024 145.471C2.87816 145.595 3.0108 145.929 2.8865 146.217C2.51137 147.086 2.18866 147.961 1.92407 148.841C1.8338 149.141 1.51716 149.311 1.21683 149.221C0.916506 149.131 0.74622 148.814 0.836489 148.514C1.11462 147.589 1.45274 146.673 1.84387 145.767C1.96816 145.479 2.30232 145.347 2.59024 145.471ZM216.805 147.314C216.96 147.586 216.864 147.933 216.591 148.088C215.775 148.551 214.979 149.008 214.199 149.458C213.927 149.614 213.58 149.521 213.423 149.249C213.267 148.978 213.36 148.631 213.632 148.474C214.413 148.023 215.212 147.565 216.031 147.1C216.303 146.946 216.65 147.041 216.805 147.314ZM212.009 150.068C212.166 150.339 212.074 150.687 211.802 150.844C210.991 151.314 210.193 151.775 209.407 152.225C209.135 152.381 208.788 152.287 208.632 152.015C208.476 151.743 208.57 151.396 208.842 151.24C209.626 150.791 210.422 150.331 211.233 149.861C211.505 149.704 211.852 149.797 212.009 150.068ZM0.828558 150.904C1.13835 150.953 1.35 151.243 1.30128 151.553C1.22984 152.007 1.17504 152.463 1.13766 152.919C1.13759 152.921 1.13752 152.923 1.13744 152.926C1.13706 152.938 1.13655 152.958 1.13617 152.986C1.13541 153.04 1.13518 153.124 1.13754 153.235C1.14225 153.456 1.15735 153.784 1.19936 154.2C1.23083 154.512 1.0034 154.79 0.691381 154.822C0.379364 154.853 0.100912 154.626 0.0694418 154.314C0.0241961 153.865 0.00745428 153.507 0.00214843 153.259C-0.000504954 153.134 -0.000299773 153.037 0.000636512 152.97C0.00110465 152.936 0.00175572 152.91 0.0023241 152.891C0.00260829 152.882 0.00287184 152.875 0.00308158 152.869L0.00335168 152.862L0.00344867 152.86L0.00350223 152.859L0.00350943 152.859C0.00351284 152.859 0.00351619 152.859 0.570726 152.885L0.0035162 152.859L0.00397205 152.849L0.00476629 152.839C0.0445267 152.35 0.103064 151.862 0.179424 151.377C0.228137 151.067 0.518764 150.855 0.828558 150.904ZM207.213 152.819C207.366 153.093 207.268 153.439 206.994 153.591C206.176 154.047 205.365 154.49 204.555 154.92C204.278 155.067 203.935 154.962 203.787 154.685C203.64 154.408 203.746 154.065 204.023 153.918C204.825 153.492 205.629 153.052 206.441 152.6C206.715 152.447 207.061 152.545 207.213 152.819ZM202.339 155.43C202.478 155.711 202.362 156.051 202.081 156.19C201.247 156.602 200.409 156.998 199.561 157.379C199.275 157.507 198.939 157.379 198.81 157.093C198.682 156.806 198.81 156.471 199.096 156.342C199.93 155.969 200.756 155.578 201.578 155.172C201.859 155.033 202.2 155.148 202.339 155.43ZM0.989418 156.427C1.29271 156.347 1.60322 156.528 1.68298 156.832C1.88754 157.609 2.16776 158.47 2.55131 159.382C2.67286 159.671 2.53704 160.004 2.24795 160.125C1.95886 160.247 1.62598 160.111 1.50443 159.822C1.09861 158.857 0.801705 157.946 0.584673 157.12C0.504918 156.817 0.686129 156.507 0.989418 156.427ZM197.31 157.727C197.425 158.018 197.283 158.348 196.991 158.463C196.134 158.803 195.263 159.125 194.37 159.428C194.074 159.53 193.751 159.371 193.65 159.074C193.549 158.777 193.707 158.455 194.004 158.354C194.878 158.056 195.733 157.74 196.573 157.408C196.865 157.292 197.195 157.435 197.31 157.727ZM192.093 159.561C192.179 159.863 192.004 160.177 191.703 160.263C190.826 160.513 189.927 160.746 189.002 160.961C188.697 161.032 188.392 160.842 188.321 160.537C188.25 160.232 188.44 159.926 188.745 159.855C189.652 159.644 190.533 159.416 191.391 159.171C191.693 159.085 192.007 159.26 192.093 159.561ZM186.719 160.869C186.776 161.178 186.572 161.474 186.263 161.53C185.374 161.694 184.459 161.842 183.516 161.974C183.206 162.017 182.919 161.801 182.875 161.49C182.832 161.18 183.048 160.893 183.359 160.849C184.286 160.72 185.185 160.574 186.058 160.414C186.366 160.357 186.662 160.561 186.719 160.869ZM181.255 161.684C181.287 161.996 181.059 162.274 180.747 162.306C179.846 162.396 178.919 162.474 177.964 162.537C177.651 162.558 177.381 162.321 177.36 162.008C177.339 161.695 177.576 161.425 177.889 161.404C178.832 161.342 179.746 161.265 180.634 161.176C180.946 161.145 181.224 161.372 181.255 161.684ZM155.427 161.435C156.372 161.431 157.323 161.431 158.281 161.434C158.594 161.435 158.848 161.69 158.847 162.003C158.846 162.317 158.591 162.57 158.277 162.569C157.322 162.566 156.373 162.567 155.431 162.57C155.117 162.571 154.862 162.318 154.861 162.004C154.86 161.691 155.113 161.436 155.427 161.435ZM160.551 162.013C160.554 161.7 160.811 161.448 161.124 161.451C162.071 161.46 163.024 161.471 163.983 161.486C164.297 161.491 164.547 161.749 164.542 162.062C164.537 162.376 164.279 162.626 163.966 162.621C163.009 162.607 162.058 162.595 161.114 162.586C160.8 162.583 160.549 162.327 160.551 162.013ZM153.147 162.016C153.15 162.329 152.898 162.586 152.585 162.589C151.633 162.599 150.689 162.612 149.751 162.627C149.438 162.632 149.179 162.383 149.174 162.069C149.169 161.756 149.419 161.497 149.732 161.492C150.673 161.476 151.62 161.464 152.573 161.454C152.887 161.451 153.144 161.702 153.147 162.016ZM2.98134 161.582C3.25136 161.422 3.59954 161.512 3.75901 161.782C4.1911 162.513 4.69426 163.26 5.28021 164.008C5.47352 164.255 5.43005 164.612 5.18311 164.805C4.93618 164.998 4.57929 164.955 4.38598 164.708C3.76855 163.919 3.23762 163.132 2.78117 162.359C2.6217 162.089 2.71131 161.741 2.98134 161.582ZM166.247 162.094C166.254 161.78 166.513 161.532 166.827 161.538C167.304 161.549 167.782 161.56 168.263 161.571C168.733 161.583 169.197 161.592 169.655 161.598C169.969 161.602 170.219 161.86 170.215 162.173C170.211 162.487 169.953 162.738 169.64 162.733C169.177 162.727 168.709 162.718 168.235 162.706C167.756 162.695 167.278 162.684 166.802 162.674C166.489 162.667 166.24 162.407 166.247 162.094ZM175.74 162.09C175.752 162.403 175.507 162.666 175.193 162.677C174.293 162.71 173.368 162.731 172.417 162.74C172.104 162.743 171.847 162.491 171.844 162.177C171.841 161.864 172.093 161.607 172.406 161.604C173.347 161.595 174.262 161.575 175.152 161.543C175.466 161.531 175.729 161.776 175.74 162.09ZM147.455 162.104C147.463 162.417 147.214 162.677 146.901 162.685C145.946 162.707 144.999 162.733 144.058 162.761C143.744 162.771 143.483 162.525 143.473 162.211C143.463 161.898 143.71 161.636 144.023 161.626C144.967 161.598 145.917 161.572 146.874 161.549C147.188 161.542 147.448 161.79 147.455 162.104ZM141.771 162.269C141.783 162.582 141.538 162.846 141.225 162.858C140.269 162.894 139.32 162.933 138.378 162.975C138.064 162.989 137.799 162.746 137.785 162.433C137.771 162.12 138.014 161.854 138.327 161.84C139.272 161.798 140.224 161.759 141.182 161.723C141.496 161.711 141.759 161.956 141.771 162.269ZM136.074 162.516C136.09 162.829 135.849 163.096 135.536 163.112C134.585 163.162 133.641 163.214 132.703 163.27C132.39 163.289 132.121 163.05 132.103 162.737C132.084 162.424 132.323 162.155 132.636 162.137C133.576 162.081 134.523 162.028 135.477 161.978C135.79 161.962 136.057 162.203 136.074 162.516ZM130.394 162.845C130.415 163.158 130.178 163.429 129.865 163.45C128.912 163.514 127.965 163.581 127.025 163.651C126.713 163.674 126.44 163.44 126.417 163.127C126.394 162.814 126.628 162.542 126.941 162.519C127.883 162.448 128.833 162.381 129.79 162.317C130.102 162.296 130.373 162.532 130.394 162.845ZM124.712 163.261C124.738 163.573 124.505 163.848 124.193 163.873C123.244 163.952 122.302 164.033 121.367 164.118C121.055 164.146 120.779 163.916 120.75 163.603C120.722 163.291 120.952 163.015 121.265 162.987C122.202 162.902 123.147 162.82 124.1 162.742C124.412 162.716 124.686 162.949 124.712 163.261ZM119.043 163.764C119.074 164.076 118.845 164.354 118.533 164.385C117.582 164.478 116.639 164.575 115.702 164.674C115.391 164.708 115.111 164.482 115.078 164.17C115.045 163.858 115.27 163.578 115.582 163.545C116.522 163.445 117.468 163.349 118.422 163.255C118.734 163.224 119.012 163.452 119.043 163.764ZM113.377 164.358C113.413 164.669 113.189 164.95 112.878 164.986C111.93 165.095 110.991 165.206 110.058 165.32C109.747 165.358 109.464 165.137 109.425 164.826C109.387 164.515 109.609 164.231 109.92 164.193C110.855 164.079 111.798 163.967 112.748 163.858C113.06 163.822 113.341 164.046 113.377 164.358ZM107.731 165.04C107.772 165.351 107.552 165.636 107.241 165.677C106.294 165.801 105.353 165.928 104.42 166.057C104.11 166.1 103.823 165.884 103.78 165.573C103.737 165.262 103.953 164.976 104.264 164.933C105.2 164.803 106.143 164.675 107.094 164.551C107.405 164.51 107.69 164.729 107.731 165.04ZM102.084 165.816C102.129 166.126 101.915 166.414 101.605 166.46C100.66 166.599 99.7234 166.74 98.7938 166.885C98.4839 166.933 98.1937 166.721 98.1456 166.411C98.0975 166.101 98.3097 165.811 98.6196 165.763C99.5521 165.618 100.492 165.476 101.439 165.337C101.749 165.291 102.038 165.505 102.084 165.816ZM6.26647 166.023C6.48785 165.801 6.84738 165.8 7.06949 166.022C7.67738 166.627 8.34792 167.227 9.08766 167.814C9.33332 168.009 9.37445 168.366 9.17953 168.612C8.9846 168.857 8.62744 168.899 8.38178 168.704C7.60855 168.09 6.90601 167.462 6.26779 166.826C6.04568 166.605 6.04508 166.245 6.26647 166.023ZM96.4566 166.68C96.5071 166.989 96.2972 167.281 95.9877 167.332C95.0466 167.485 94.1128 167.642 93.186 167.8C92.8769 167.853 92.5834 167.646 92.5305 167.337C92.4775 167.028 92.6852 166.734 92.9942 166.681C93.9239 166.522 94.8606 166.365 95.8047 166.211C96.1142 166.161 96.406 166.37 96.4566 166.68ZM90.8471 167.632C90.9024 167.94 90.697 168.235 90.3884 168.291C89.4492 168.459 88.5171 168.63 87.5918 168.803C87.2835 168.86 86.987 168.657 86.9293 168.349C86.8717 168.041 87.0749 167.744 87.3832 167.686C88.3112 167.513 89.246 167.342 90.1881 167.173C90.4967 167.118 90.7918 167.323 90.8471 167.632ZM85.2464 168.67C85.3063 168.977 85.1052 169.275 84.7974 169.335C83.8606 169.517 82.9308 169.701 82.0074 169.888C81.7 169.95 81.4005 169.751 81.3385 169.443C81.2766 169.136 81.4755 168.837 81.7829 168.775C82.7088 168.588 83.6413 168.403 84.5807 168.221C84.8885 168.161 85.1866 168.362 85.2464 168.67ZM10.5109 169.558C10.6798 169.294 11.0309 169.217 11.2952 169.386C12.029 169.855 12.8164 170.31 13.6613 170.748C13.9398 170.892 14.0486 171.234 13.9044 171.513C13.7602 171.791 13.4175 171.9 13.139 171.756C12.2642 171.303 11.4469 170.83 10.6835 170.342C10.4193 170.174 10.342 169.823 10.5109 169.558ZM79.6615 169.787C79.7255 170.094 79.5286 170.395 79.2216 170.459C78.2879 170.654 77.3607 170.85 76.4397 171.048C76.1331 171.114 75.8311 170.919 75.7651 170.613C75.6991 170.306 75.8942 170.004 76.2008 169.938C77.124 169.74 78.0536 169.543 78.9897 169.347C79.2967 169.283 79.5975 169.48 79.6615 169.787ZM74.0931 170.978C74.1608 171.284 73.9676 171.587 73.6614 171.655C72.7305 171.861 71.8057 172.068 70.8865 172.277C70.5807 172.346 70.2765 172.155 70.207 171.849C70.1376 171.543 70.3292 171.239 70.635 171.17C71.556 170.961 72.4829 170.753 73.4159 170.546C73.7221 170.478 74.0253 170.672 74.0931 170.978ZM68.5393 172.232C68.6102 172.538 68.4202 172.843 68.1147 172.914C67.1863 173.13 66.2634 173.346 65.3456 173.564C65.0405 173.636 64.7345 173.448 64.6622 173.142C64.5898 172.837 64.7785 172.531 65.0837 172.459C66.003 172.241 66.9275 172.024 67.8576 171.808C68.1631 171.737 68.4683 171.927 68.5393 172.232ZM15.3738 172.199C15.4955 171.91 15.8284 171.774 16.1175 171.896C16.9217 172.234 17.7697 172.557 18.6635 172.862C18.9603 172.964 19.1188 173.286 19.0176 173.583C18.9163 173.88 18.5936 174.038 18.2968 173.937C17.3786 173.624 16.506 173.291 15.6767 172.942C15.3877 172.82 15.2521 172.488 15.3738 172.199ZM62.9979 173.54C63.0714 173.845 62.8838 174.152 62.579 174.225C61.6527 174.449 60.7313 174.673 59.8143 174.897C59.5097 174.971 59.2023 174.785 59.1278 174.48C59.0534 174.176 59.2399 173.868 59.5446 173.794C60.4626 173.569 61.3851 173.345 62.3128 173.122C62.6176 173.048 62.9244 173.236 62.9979 173.54ZM20.5779 174.06C20.6608 173.758 20.9732 173.58 21.2756 173.663C22.1261 173.896 23.0128 174.114 23.9372 174.314C24.2437 174.381 24.4383 174.683 24.3718 174.989C24.3053 175.296 24.003 175.49 23.6965 175.424C22.7527 175.219 21.8462 174.997 20.9754 174.758C20.673 174.675 20.495 174.363 20.5779 174.06ZM57.4661 174.889C57.5414 175.193 57.3556 175.501 57.0512 175.576C56.8118 175.635 56.5727 175.694 56.3339 175.754C56.1133 175.808 55.8929 175.863 55.6728 175.918L55.6389 175.926L55.6042 175.93C55.1286 175.988 54.657 176.043 54.1895 176.095C53.8779 176.13 53.5969 175.906 53.5619 175.594C53.527 175.283 53.7513 175.002 54.0629 174.967C54.5158 174.916 54.9725 174.863 55.4332 174.807C55.8807 174.696 56.3292 174.585 56.7787 174.474C57.0831 174.399 57.3909 174.584 57.4661 174.889ZM25.9847 175.298C26.0365 174.988 26.3292 174.78 26.6385 174.831C27.5141 174.978 28.4199 175.11 29.3571 175.226C29.6683 175.265 29.8892 175.549 29.8505 175.86C29.8119 176.171 29.5282 176.392 29.217 176.353C28.2645 176.235 27.3428 176.101 26.451 175.951C26.1417 175.9 25.9329 175.607 25.9847 175.298ZM51.9446 175.761C51.974 176.073 51.7447 176.35 51.4325 176.38C50.4879 176.469 49.5606 176.547 48.6504 176.615C48.3376 176.638 48.0652 176.403 48.0419 176.091C48.0186 175.778 48.2532 175.506 48.5659 175.482C49.4687 175.415 50.3886 175.338 51.3261 175.249C51.6383 175.22 51.9152 175.449 51.9446 175.761ZM31.4562 176.028C31.4832 175.716 31.7584 175.484 32.0708 175.511C32.9574 175.588 33.8694 175.651 34.8076 175.701C35.1208 175.717 35.3613 175.984 35.3449 176.297C35.3284 176.61 35.0612 176.851 34.748 176.834C33.7974 176.784 32.8726 176.72 31.973 176.642C31.6606 176.615 31.4292 176.34 31.4562 176.028ZM46.4427 176.194C46.4595 176.507 46.2193 176.774 45.9061 176.791C44.9495 176.842 44.0128 176.882 43.0956 176.91C42.7821 176.919 42.5203 176.673 42.5107 176.36C42.5012 176.046 42.7475 175.784 43.061 175.775C43.9692 175.747 44.8972 175.708 45.8452 175.657C46.1584 175.64 46.4259 175.881 46.4427 176.194ZM36.9941 176.358C37.001 176.045 37.2607 175.796 37.5742 175.803C38.4679 175.822 39.3835 175.83 40.3217 175.825C40.6353 175.823 40.8909 176.076 40.8926 176.389C40.8944 176.703 40.6416 176.958 40.328 176.96C39.3797 176.965 38.4537 176.958 37.5493 176.938C37.2358 176.931 36.9872 176.671 36.9941 176.358Z" fill="#0F31AC"/>
<path d="M215.183 142.74C215.183 142.74 209.949 149.679 204.713 159.199C199.994 167.784 196.404 179.351 195.612 189.009C193.389 188.904 190.947 188.805 188.307 188.712C172.673 188.157 150.102 187.81 125.005 187.81C96.4727 187.81 71.2063 188.259 55.6848 188.951C55.1505 188.975 54.6275 188.999 54.1165 189.023C34.7384 165.009 -4.28297 123.173 31.6273 105.962C31.6273 105.962 34.258 105.161 38.2021 103.44C50.6851 97.993 76.3371 83.3352 73.4838 55.6983C73.4838 55.6983 72.5117 50.5412 72.5117 43.3653C72.5117 26.586 77.8248 -1.22742 113.296 0.041982C134.776 0.811801 154.558 11.7403 166.518 29.2327C178.249 46.3895 197.007 67.4988 212.282 55.4474C215.809 52.6645 220.471 51.6335 224.824 52.8569C235.819 55.9447 248.31 71.9298 215.183 142.74Z" fill="#ACBCF8"/>
</g>
<path opacity="0.15" d="M243.707 189.944C243.707 191.08 190.562 192.001 125.005 192.001C88.0149 192.001 54.9767 191.708 33.2069 191.248C28.1925 191.142 23.7771 191.028 20.0482 190.905C17.5924 190.825 15.4346 190.741 13.6 190.655C8.88025 190.434 6.30234 190.195 6.30234 189.944C6.30234 189.626 10.4861 189.324 17.9535 189.055C21.0118 188.944 24.6197 188.84 28.7172 188.742C50.2768 188.225 85.3723 187.888 125.004 187.888C159.865 187.888 191.216 188.148 212.933 188.563C232.055 188.928 243.707 189.413 243.707 189.944Z" fill="#040C2B"/>
<path d="M163.187 38.9486L155.411 53.5178C155.116 54.0696 154.43 54.2785 153.878 53.9839L140.993 47.1089C140.441 46.8142 140.232 46.1284 140.527 45.5766L149.734 28.3261C150.028 27.7743 150.714 27.5653 151.266 27.86L161.403 33.268L161.434 33.3696L163.187 38.9486Z" fill="#E3E9F7"/>
<path opacity="0.1" d="M163.187 38.9486L160.319 37.4186C159.869 37.179 159.699 36.6204 159.939 36.1713L161.434 33.3697L163.187 38.9486Z" fill="black"/>
<path d="M150.589 41.794L150.833 41.3364C151.044 40.9407 151.312 40.6415 151.638 40.4394C151.963 40.2367 152.438 40.0908 153.064 40.0006C153.661 39.9222 154.081 39.8234 154.322 39.7031C154.564 39.5833 154.748 39.4033 154.876 39.1643C155.019 38.8964 155.029 38.6398 154.906 38.3939C154.783 38.1481 154.544 37.9307 154.19 37.7416C153.571 37.4118 152.759 37.2375 151.751 37.2193L151.8 35.506C152.994 35.481 154.107 35.7439 155.138 36.294C155.987 36.747 156.553 37.3113 156.836 37.9863C157.119 38.6619 157.079 39.3392 156.716 40.0193C156.474 40.4729 156.162 40.8096 155.78 41.0293C155.398 41.249 154.808 41.4113 154.011 41.5152C153.459 41.597 153.09 41.6855 152.903 41.7821C152.717 41.8786 152.558 42.0506 152.426 42.2975L152.228 42.6683L150.589 41.794ZM149.263 43.8031C149.447 43.4568 149.68 43.2445 149.96 43.1661C150.24 43.0878 150.557 43.1434 150.912 43.3325C151.254 43.5153 151.471 43.7469 151.562 44.0285C151.652 44.3101 151.608 44.6195 151.427 44.9578C151.253 45.2837 151.022 45.4892 150.732 45.5761C150.442 45.6624 150.128 45.6153 149.791 45.4353C149.444 45.2508 149.225 45.0158 149.134 44.7313C149.041 44.4463 149.084 44.1369 149.263 43.8031Z" fill="#CDD7FB"/>
<path d="M57.265 116.323L48.073 130.425C47.725 130.959 47.0095 131.11 46.4752 130.761L34.0029 122.635C33.4686 122.287 33.3176 121.571 33.6662 121.037L44.5503 104.34C44.8983 103.806 45.6138 103.655 46.1481 104.003L55.9595 110.396L55.9828 110.502L57.265 116.323Z" fill="#E3E9F7"/>
<path opacity="0.1" d="M57.265 116.323L54.4889 114.514C54.0539 114.231 53.9313 113.648 54.2146 113.213L55.9823 110.501L57.265 116.323Z" fill="black"/>
<path d="M47.282 122.906L45.6189 121.823L45.7148 118.185L42.4243 119.741L40.8645 118.725L45.4514 116.668L45.486 111.954L47.0924 113L46.9618 116.435L50.0235 114.91L51.5924 115.933L47.2162 117.933L47.282 122.906Z" fill="#CDD7FB"/>
<path d="M217.046 71.6647L223.076 87.3801C223.304 87.9757 223.007 88.6433 222.412 88.8715L208.513 94.2023C207.917 94.4305 207.249 94.1331 207.021 93.5381L199.881 74.9302C199.653 74.3346 199.95 73.667 200.545 73.4388L211.479 69.2451L211.579 69.2882L217.046 71.6647Z" fill="#E3E9F7"/>
<path opacity="0.1" d="M217.046 71.6652L213.952 72.8519C213.468 73.0376 212.924 72.7957 212.738 72.3108L211.578 69.2883L217.046 71.6652Z" fill="black"/>
<path d="M215.636 85.204L214.459 85.6554L212.814 84.747L212.199 86.5223L211.095 86.9458L212.005 84.4978L209.837 83.359L210.974 82.923L212.511 83.7972L213.048 82.127L214.158 81.7012L213.307 84.0453L215.636 85.204Z" fill="#CDD7FB"/>
<path d="M215.13 74.6447L204.386 78.7666C204.257 78.816 204.113 78.7518 204.064 78.6235C204.014 78.4951 204.079 78.3509 204.207 78.3015L214.951 74.1797C215.079 74.1303 215.223 74.1945 215.273 74.3228C215.322 74.4511 215.258 74.5953 215.13 74.6447Z" fill="#CDD7FB"/>
<path d="M215.593 75.8059L204.85 79.9277C204.721 79.9771 204.577 79.9129 204.528 79.7846C204.478 79.6563 204.542 79.5121 204.671 79.4627L215.415 75.3408C215.543 75.2914 215.687 75.3556 215.736 75.4839C215.786 75.6128 215.722 75.757 215.593 75.8059Z" fill="#CDD7FB"/>
<path d="M216.057 76.9672L205.313 81.089C205.185 81.1384 205.041 81.0743 204.992 80.946C204.942 80.8176 205.006 80.6734 205.135 80.624L215.878 76.5022C216.007 76.4528 216.151 76.5169 216.2 76.6453C216.25 76.7736 216.186 76.9178 216.057 76.9672Z" fill="#CDD7FB"/>
<path d="M216.521 78.1282L205.777 82.25C205.649 82.2994 205.505 82.2353 205.455 82.1069C205.406 81.9786 205.47 81.8344 205.598 81.785L216.342 77.6631C216.471 77.6137 216.615 77.6779 216.664 77.8062C216.714 77.9351 216.649 78.0788 216.521 78.1282Z" fill="#CDD7FB"/>
<path d="M216.898 79.3277L206.154 83.4496C206.026 83.499 205.881 83.4348 205.832 83.3065C205.783 83.1782 205.847 83.0339 205.975 82.9845L216.719 78.8627C216.847 78.8133 216.991 78.8775 217.041 79.0058C217.09 79.1347 217.026 79.2783 216.898 79.3277Z" fill="#CDD7FB"/>
<path d="M59.7452 157.568L66.5267 172.974C66.7834 173.557 66.5188 174.239 65.9351 174.496L52.309 180.491C51.7253 180.748 51.0439 180.483 50.7867 179.9L42.7571 161.658C42.5004 161.074 42.765 160.393 43.3488 160.136L54.0676 155.419L54.1692 155.457L59.7452 157.568Z" fill="#E3E9F7"/>
<path opacity="0.1" d="M59.7452 157.568L56.7124 158.903C56.2371 159.112 55.6824 158.896 55.4734 158.422L54.1691 155.459L59.7452 157.568Z" fill="black"/>
<path d="M58.991 171.159L57.8372 171.667L56.1502 170.839L55.621 172.642L54.5393 173.118L55.3303 170.629L53.1095 169.597L54.2241 169.106L55.8015 169.906L56.2581 168.212L57.3466 167.732L56.6096 170.115L58.991 171.159Z" fill="#CDD7FB"/>
<path d="M57.9747 160.637L47.4421 165.272C47.3161 165.328 47.169 165.27 47.1139 165.144C47.0583 165.018 47.1156 164.871 47.2417 164.816L57.7742 160.181C57.9003 160.125 58.0474 160.183 58.1024 160.309C58.1581 160.435 58.1007 160.581 57.9747 160.637Z" fill="#CDD7FB"/>
<path d="M58.4942 161.775L47.9616 166.41C47.8356 166.465 47.6885 166.408 47.6334 166.282C47.5778 166.156 47.6351 166.009 47.7612 165.954L58.2937 161.319C58.4198 161.263 58.5669 161.32 58.6219 161.446C58.677 161.572 58.6202 161.719 58.4942 161.775Z" fill="#CDD7FB"/>
<path d="M59.0138 162.912L48.4812 167.547C48.3552 167.602 48.2081 167.545 48.153 167.419C48.0974 167.293 48.1547 167.146 48.2808 167.091L58.8134 162.456C58.9394 162.4 59.0865 162.457 59.1416 162.583C59.1966 162.709 59.1399 162.856 59.0138 162.912Z" fill="#CDD7FB"/>
<path d="M59.5333 164.049L49.0007 168.684C48.8747 168.74 48.7276 168.683 48.6725 168.557C48.6169 168.431 48.6742 168.284 48.8003 168.228L59.3328 163.593C59.4589 163.538 59.6059 163.595 59.661 163.721C59.7161 163.847 59.6587 163.994 59.5333 164.049Z" fill="#CDD7FB"/>
<path d="M59.9666 165.229L49.4341 169.864C49.308 169.92 49.1609 169.862 49.1059 169.736C49.0502 169.61 49.1076 169.463 49.2336 169.408L59.7662 164.773C59.8922 164.717 60.0393 164.775 60.0944 164.901C60.15 165.027 60.0927 165.174 59.9666 165.229Z" fill="#CDD7FB"/>
<path d="M106.818 46.3527L113.599 61.7587C113.856 62.3423 113.591 63.0236 113.008 63.2808L99.3815 69.2764C98.7978 69.533 98.1164 69.2684 97.8592 68.6848L89.8296 50.4431C89.5729 49.8595 89.8376 49.1782 90.4213 48.921L101.14 44.2045L101.242 44.2425L106.818 46.3527Z" fill="#E3E9F7"/>
<path opacity="0.1" d="M106.818 46.3531L103.785 47.688C103.31 47.897 102.755 47.6812 102.546 47.2065L101.242 44.2436L106.818 46.3531Z" fill="black"/>
<path d="M106.064 59.9443L104.91 60.4519L103.223 59.6241L102.694 61.4272L101.612 61.9035L102.403 59.4147L100.182 58.382L101.297 57.8915L102.874 58.6908L103.331 56.9968L104.419 56.5176L103.682 58.9003L106.064 59.9443Z" fill="#CDD7FB"/>
<path d="M105.047 49.4218L94.5147 54.057C94.3886 54.1126 94.2416 54.0553 94.1865 53.9292C94.1308 53.8032 94.1882 53.6561 94.3142 53.601L104.847 48.9659C104.973 48.9102 105.12 48.9676 105.175 49.0936C105.231 49.2197 105.173 49.3662 105.047 49.4218Z" fill="#CDD7FB"/>
<path d="M105.567 50.5598L95.0342 55.1949C94.9082 55.2505 94.7611 55.1932 94.706 55.0671C94.6504 54.9411 94.7077 54.794 94.8338 54.7389L105.366 50.1038C105.492 50.0481 105.639 50.1055 105.695 50.2315C105.75 50.357 105.693 50.5041 105.567 50.5598Z" fill="#CDD7FB"/>
<path d="M106.086 51.6966L95.5538 56.3318C95.4278 56.3874 95.2807 56.3301 95.2256 56.204C95.17 56.078 95.2273 55.9309 95.3534 55.8758L105.886 51.2407C106.012 51.185 106.159 51.2424 106.214 51.3684C106.269 51.4945 106.212 51.6416 106.086 51.6966Z" fill="#CDD7FB"/>
<path d="M106.606 52.8343L96.0733 57.4695C95.9473 57.5251 95.8002 57.4678 95.7451 57.3417C95.6895 57.2157 95.7468 57.0686 95.8729 57.0135L106.405 52.3784C106.532 52.3227 106.679 52.3801 106.734 52.5061C106.789 52.6316 106.731 52.7787 106.606 52.8343Z" fill="#CDD7FB"/>
<path d="M107.039 54.0141L96.5066 58.6492C96.3805 58.7049 96.2335 58.6475 96.1784 58.5214C96.1227 58.3954 96.1801 58.2483 96.3061 58.1932L106.839 53.5581C106.965 53.5025 107.112 53.5598 107.167 53.6859C107.223 53.8119 107.165 53.959 107.039 54.0141Z" fill="#CDD7FB"/>
<path d="M177.674 89.35H72.3363V165.772H177.674V89.35Z" fill="#E3E9F7"/>
<path d="M177.672 79.7568H72.3754V89.3716H177.672V79.7568Z" fill="#ACBCF8"/>
<path d="M77.2456 85.6543C78.1394 85.6543 78.8639 84.9653 78.8639 84.1155C78.8639 83.2656 78.1394 82.5767 77.2456 82.5767C76.3519 82.5767 75.6273 83.2656 75.6273 84.1155C75.6273 84.9653 76.3519 85.6543 77.2456 85.6543Z" fill="#E3E9F7"/>
<path d="M81.9654 85.6543C82.8592 85.6543 83.5837 84.9654 83.5837 84.1155C83.5837 83.2657 82.8592 82.5767 81.9654 82.5767C81.0716 82.5767 80.3471 83.2657 80.3471 84.1155C80.3471 84.9654 81.0716 85.6543 81.9654 85.6543Z" fill="#E3E9F7"/>
<path d="M86.6851 85.6543C87.5789 85.6543 88.3034 84.9654 88.3034 84.1155C88.3034 83.2657 87.5789 82.5767 86.6851 82.5767C85.7914 82.5767 85.0668 83.2657 85.0668 84.1155C85.0668 84.9654 85.7914 85.6543 86.6851 85.6543Z" fill="#E3E9F7"/>
<path d="M174.504 93.3734H75.5059V161.749H174.504V93.3734Z" fill="#F4F6FC"/>
<path d="M140.362 110.186V140.249C140.362 141.388 139.439 142.311 138.3 142.311H111.711C110.572 142.311 109.648 141.388 109.648 140.249V104.653C109.648 103.514 110.572 102.591 111.711 102.591H132.627L132.765 102.726L140.362 110.186Z" fill="#ACBCF8"/>
<path opacity="0.15" d="M140.362 110.186H134.444C133.517 110.186 132.765 109.434 132.765 108.507V102.726L140.362 110.186Z" fill="black"/>
<path d="M132.38 127.531C132.147 127.531 131.942 127.38 131.868 127.159C131.673 126.585 131.037 126.017 130.056 125.561C128.716 124.937 126.922 124.593 125.005 124.593C123.088 124.593 121.293 124.936 119.953 125.561C118.973 126.017 118.336 126.585 118.141 127.159C118.066 127.38 117.862 127.531 117.629 127.531C117.261 127.531 117 127.171 117.116 126.822C117.404 125.954 118.225 125.177 119.498 124.584C120.978 123.894 122.933 123.515 125.004 123.515C127.075 123.515 129.031 123.894 130.51 124.584C131.783 125.177 132.604 125.954 132.892 126.822C133.01 127.171 132.748 127.531 132.38 127.531Z" fill="white"/>
<path d="M121.043 121.845C122.278 121.845 123.28 120.843 123.28 119.608C123.28 118.373 122.278 117.371 121.043 117.371C119.808 117.371 118.806 118.373 118.806 119.608C118.806 120.843 119.808 121.845 121.043 121.845Z" fill="white"/>
<path d="M128.967 121.845C130.202 121.845 131.204 120.843 131.204 119.608C131.204 118.373 130.202 117.371 128.967 117.371C127.732 117.371 126.73 118.373 126.73 119.608C126.73 120.843 127.732 121.845 128.967 121.845Z" fill="white"/>
<path d="M116.396 152.481H115.365L113.7 149.585H113.677C113.709 150.097 113.727 150.461 113.727 150.679V152.481H113.001V148.653H114.025L115.688 151.52H115.706C115.68 151.022 115.667 150.671 115.667 150.465V148.653H116.397V152.481H116.396Z" fill="black"/>
<path d="M120.833 150.562C120.833 151.195 120.676 151.682 120.362 152.023C120.048 152.363 119.598 152.533 119.011 152.533C118.425 152.533 117.974 152.363 117.66 152.023C117.346 151.683 117.189 151.194 117.189 150.557C117.189 149.92 117.346 149.434 117.662 149.097C117.977 148.761 118.428 148.594 119.016 148.594C119.605 148.594 120.054 148.763 120.366 149.101C120.678 149.44 120.833 149.926 120.833 150.562ZM118.04 150.562C118.04 150.989 118.122 151.311 118.284 151.528C118.446 151.744 118.689 151.852 119.012 151.852C119.659 151.852 119.983 151.422 119.983 150.562C119.983 149.7 119.661 149.269 119.017 149.269C118.694 149.269 118.451 149.377 118.287 149.595C118.122 149.812 118.04 150.134 118.04 150.562Z" fill="black"/>
<path d="M126.195 150.53C126.195 151.16 126.015 151.642 125.657 151.977C125.298 152.312 124.78 152.48 124.104 152.48H123.02V148.653H124.221C124.846 148.653 125.331 148.817 125.676 149.147C126.022 149.478 126.195 149.938 126.195 150.53ZM125.352 150.551C125.352 149.729 124.989 149.318 124.262 149.318H123.83V151.81H124.178C124.961 151.81 125.352 151.391 125.352 150.551Z" fill="black"/>
<path d="M129.331 152.48L129.053 151.57H127.658L127.38 152.48H126.506L127.857 148.637H128.849L130.205 152.48H129.331ZM128.859 150.889C128.603 150.063 128.459 149.597 128.426 149.489C128.394 149.38 128.371 149.295 128.357 149.232C128.3 149.455 128.134 150.008 127.862 150.889H128.859Z" fill="black"/>
<path d="M132.163 152.481H131.352V149.329H130.313V148.653H133.203V149.329H132.164V152.481H132.163Z" fill="black"/>
<path d="M136.134 152.48L135.857 151.57H134.462L134.184 152.48H133.31L134.66 148.637H135.653L137.009 152.48H136.134ZM135.663 150.889C135.406 150.063 135.262 149.597 135.23 149.489C135.198 149.38 135.174 149.295 135.161 149.232C135.103 149.455 134.938 150.008 134.666 150.889H135.663Z" fill="black"/>
<path d="M192.113 131.98H195.312C197.721 131.98 199.674 130.028 199.674 127.62C199.674 125.211 197.721 123.259 195.312 123.259H192.113C189.705 123.259 187.752 125.211 187.752 127.62C187.752 130.028 189.705 131.98 192.113 131.98Z" fill="white"/>
<path d="M192.33 131.277H195.096C195.096 131.277 194.848 133.504 192.33 134.611C192.33 134.611 193.654 132.66 192.33 131.277Z" fill="white"/>
<path d="M193.031 128.486V128.222C193.031 127.994 193.08 127.795 193.177 127.626C193.275 127.458 193.453 127.278 193.713 127.088C193.963 126.909 194.127 126.764 194.207 126.652C194.287 126.54 194.327 126.415 194.327 126.277C194.327 126.123 194.27 126.005 194.156 125.924C194.042 125.844 193.882 125.803 193.678 125.803C193.32 125.803 192.914 125.919 192.457 126.153L192.068 125.371C192.598 125.073 193.161 124.925 193.756 124.925C194.246 124.925 194.636 125.042 194.925 125.278C195.214 125.513 195.358 125.827 195.358 126.22C195.358 126.481 195.299 126.707 195.18 126.897C195.061 127.088 194.835 127.302 194.502 127.539C194.274 127.709 194.129 127.837 194.068 127.925C194.008 128.013 193.977 128.128 193.977 128.271V128.485H193.031V128.486ZM192.917 129.707C192.917 129.507 192.97 129.356 193.077 129.254C193.185 129.152 193.34 129.101 193.545 129.101C193.742 129.101 193.895 129.153 194.004 129.258C194.112 129.362 194.166 129.512 194.166 129.708C194.166 129.895 194.111 130.044 194.002 130.152C193.892 130.261 193.74 130.314 193.545 130.314C193.345 130.314 193.19 130.262 193.081 130.155C192.972 130.049 192.917 129.899 192.917 129.707Z" fill="#ACBCF8"/>
<path opacity="0.67" d="M183.457 186.691L184.952 187.273L184.516 189.383L181.961 188.583L183.457 186.691Z" fill="#050505"/>
<path d="M162.606 182.016C162.606 182.016 158.616 181.543 157.743 183.689C157.743 183.689 157.681 189.037 160.174 189.4C160.174 189.4 162.293 189.618 163.665 188.673L171.644 187.763L177.067 187.399L162.606 182.016Z" fill="#040C2B"/>
<path d="M186.573 184.581C186.573 184.581 188.667 187.948 187.428 189.286C187.236 189.493 187.504 189.744 187.907 189.743L196.329 189.727C196.329 189.727 201.128 190.601 202.063 186.926C202.063 186.926 202.624 183.034 196.516 182.379C190.407 181.724 196.453 182.161 196.453 182.161C196.453 182.161 189.347 182.671 186.573 184.581Z" fill="#040C2B"/>
<path d="M189.908 184.744L189.885 184.959L189.409 189.401L180.527 188.619L183.45 184.793L183.488 184.743C189.908 184.89 189.908 184.744 189.908 184.744Z" fill="#DE995F"/>
<path opacity="0.38" d="M189.908 184.744L189.885 184.959L185.202 185.089L183.45 184.793L183.487 184.743C189.908 184.89 189.908 184.744 189.908 184.744Z" fill="#050505"/>
<path d="M203.538 177.079L193.195 179.088L179.623 181.725L168.843 179.216L151.82 175.255C151.042 169.411 163.291 172.776 163.291 172.776L171.265 173.67H171.267L175.945 174.195L186.542 175.65L189.908 174.318L193.897 172.74C204.65 171.812 203.538 177.079 203.538 177.079Z" fill="#081956"/>
<path opacity="0.3" d="M193.194 179.089L179.623 181.725L168.843 179.216L165.909 177.468L171.266 173.67H171.267L175.946 174.194L186.542 175.65L189.908 174.318L193.194 179.089Z" fill="black"/>
<path d="M164.476 183.726L179.125 179.906C179.125 179.906 189.597 176.013 191.405 176.232C191.405 176.232 204.37 169.574 203.497 177.723C203.497 177.723 204.994 184.126 181.867 185.108L164.476 183.726Z" fill="#081956"/>
<path opacity="0.13" d="M174.543 181.088L176.164 180.615C177.39 181.433 179.695 182.113 181.213 182.798C182.93 183.574 185.015 184.29 187.01 184.763C185.701 184.921 184.391 185.078 183.083 185.236L174.543 181.088Z" fill="black"/>
<path d="M185.888 184.872C185.888 184.872 181.618 188.273 184.485 189.401C184.485 189.401 167.914 187.541 154.659 180.138C153.655 179.577 152.942 178.861 152.607 178.073C151.393 175.218 149.716 168.725 162.792 174.267C162.792 174.267 172.951 177.718 176.298 180.687C176.939 181.255 177.7 181.774 178.583 182.218C180.679 183.273 184.231 184.921 185.888 184.872Z" fill="#081956"/>
<path d="M175.758 147.115L183.487 147.128L185.981 151.821C185.981 151.821 181.118 159.17 174.137 152.622C174.448 151.567 175.478 150.02 175.789 148.966C176.288 147.874 176.226 147.947 175.758 147.115Z" fill="#CC8B5B"/>
<path d="M195.813 154.792L194.085 168.628L167.468 168.374C167.468 168.374 169.295 161.328 168.931 160.184C168.909 160.114 168.878 160.066 168.839 160.043L161.484 159.789C161.484 159.789 161.54 158.779 161.78 157.447C162.187 155.2 163.118 152.034 165.193 151.258C165.534 151.13 166.533 150.73 166.533 150.73C166.533 150.73 175.603 148.347 175.789 148.966C175.789 148.966 175.291 156.205 185.14 150.203C185.14 150.203 196.543 153.032 195.813 154.792Z" fill="white"/>
<path d="M190.407 169.32L190.952 173.905L197.097 172.04C198.49 171.618 199.444 170.82 199.616 169.91C199.769 169.099 199.672 167.945 198.946 166.337L197.575 160.261C197.575 160.261 198.23 156.06 195.051 153.695C195.051 153.695 193.897 160.662 191.84 161.826L191.404 167.647L190.407 169.32Z" fill="white"/>
<path opacity="0.1" d="M173.173 152.367L168.931 160.184C168.909 160.114 168.878 160.066 168.839 160.043L161.484 159.788C161.484 159.788 161.54 158.779 161.78 157.447L169.246 150.475C169.246 150.475 172.426 152.33 173.173 152.367Z" fill="black"/>
<path d="M174.555 147.719C174.373 148.935 174.158 149.308 173.514 151.239L172.517 153.131L169.712 151.239L170.46 150.475L170.086 147.019L171.032 144.704C171.369 143.881 172.204 143.356 173.088 143.451C174.079 143.558 175.047 144.428 174.555 147.719Z" fill="#DE995F"/>
<path opacity="0.13" d="M167.031 159.461L168.978 160.723L168.372 164.608L173.514 153.058L171.676 152.564L167.031 159.461Z" fill="black"/>
<path d="M169.587 150.475C169.587 150.475 172.766 152.33 173.514 152.367L167.53 163.389C167.53 163.389 163.683 168.153 159.734 164.57C157.302 162.364 158.085 159.422 161.643 157.818C161.693 157.795 161.744 157.773 161.795 157.75L169.587 150.475Z" fill="white"/>
<path opacity="0.13" d="M175.727 148.857C175.727 148.857 179.426 154.197 184.278 148.616L182.771 146.419L176.631 147.116L175.727 148.857Z" fill="black"/>
<path d="M174.138 139.561C174.138 139.561 181.244 135.669 184.111 139.088C184.111 139.088 190.033 145.091 180.807 150.475C180.807 150.475 174.824 153.131 174.138 139.561Z" fill="#DE995F"/>
<path d="M174.908 145.235L173.056 142.137C172.631 141.426 172.439 140.674 172.493 139.922C172.665 137.566 174.104 133.042 182.926 135.014C182.926 135.014 190.656 138.397 186.355 142.726L184.921 145.855C184.921 145.855 185.108 140.217 182.926 139.925C182.926 139.925 177.94 141.016 174.698 140.944C174.699 140.944 174.605 144.818 174.908 145.235Z" fill="black"/>
<path d="M176.631 144.582C177.561 144.582 178.314 144.142 178.314 143.6C178.314 143.057 177.561 142.617 176.631 142.617C175.702 142.617 174.948 143.057 174.948 143.6C174.948 144.142 175.702 144.582 176.631 144.582Z" stroke="black" stroke-width="2.0633" stroke-miterlimit="10"/>
<path d="M181.743 144.437C182.672 144.437 183.426 143.997 183.426 143.454C183.426 142.912 182.672 142.472 181.743 142.472C180.813 142.472 180.06 142.912 180.06 143.454C180.06 143.997 180.813 144.437 181.743 144.437Z" stroke="black" stroke-width="2.0633" stroke-miterlimit="10"/>
<path d="M178.296 143.454C178.296 143.454 179.062 143.964 180.059 143.454" stroke="black" stroke-width="2.0633" stroke-miterlimit="10"/>
<path d="M174.948 143.6L174.106 143.036" stroke="black" stroke-width="2.0633" stroke-miterlimit="10"/>
<path d="M183.425 143.454L185.545 143.2" stroke="black" stroke-width="2.0633" stroke-miterlimit="10"/>
<path opacity="0.13" d="M190.937 169.156C190.937 169.156 192.807 167.701 195.051 167.555C195.051 167.555 194.552 167.227 193.181 167.555C193.181 167.555 194.428 166.791 195.861 167.082C195.861 167.083 192.869 165.954 190.937 169.156Z" fill="black"/>
<path d="M166.206 164.655L191.185 164.344C191.546 164.339 191.841 164.631 191.841 164.991V175.378C191.841 175.733 191.555 176.021 191.201 176.025L166.72 176.298C166.372 176.302 166.083 176.03 166.067 175.682L165.568 165.333C165.55 164.967 165.84 164.66 166.206 164.655Z" fill="#829CF8"/>
<path opacity="0.13" d="M166.689 175.705C166.689 175.705 162.514 173.1 154.908 172.321C154.908 172.321 158.71 172.066 167.063 174.941L166.689 175.705Z" fill="black"/>
<path opacity="0.13" d="M191.872 176.032C191.872 176.032 199.418 172.17 202.424 174.237C202.424 174.237 200.848 171.957 190.937 175.813L191.872 176.032Z" fill="black"/>
<path opacity="0.13" d="M191.809 161.807C191.809 161.807 195.986 158.679 195.861 157.078C195.861 157.078 194.739 158.497 194.427 158.752C194.427 158.752 195.985 156.824 195.362 156.06C195.362 156.06 194.492 158.482 193.837 158.526L191.809 161.807Z" fill="black"/>
<path opacity="0.13" d="M191.778 161.789C191.778 161.789 194.895 155.678 194.271 155.35C194.271 155.35 194.147 156.551 191.778 161.789Z" fill="black"/>
</svg>
