<svg width="23" height="23" viewBox="0 0 23 23" fill="none" xmlns="http://www.w3.org/2000/svg">
<path d="M1.78003 6.94L10.61 12.05L19.38 6.96997" stroke="#0B3558" stroke-width="2" stroke-linecap="round" stroke-linejoin="round"/>
<path d="M10.61 21.11V12.04" stroke="#0B3558" stroke-width="2" stroke-linecap="round" stroke-linejoin="round"/>
<path d="M20.22 12.33V8.67C20.22 7.29 19.23 5.61002 18.02 4.94002L12.68 1.98C11.54 1.34 9.67998 1.34 8.53998 1.98L3.19998 4.94002C1.98998 5.61002 1 7.29 1 8.67V14.33C1 15.71 1.98998 17.39 3.19998 18.06L8.53998 21.02C9.10998 21.34 9.85999 21.5 10.61 21.5C11.36 21.5 12.11 21.34 12.68 21.02" stroke="#0B3558" stroke-width="2" stroke-linecap="round" stroke-linejoin="round"/>
<path d="M17.81 20.9C19.5773 20.9 21.01 19.4673 21.01 17.7C21.01 15.9327 19.5773 14.5 17.81 14.5C16.0427 14.5 14.61 15.9327 14.61 17.7C14.61 19.4673 16.0427 20.9 17.81 20.9Z" stroke="#0B3558" stroke-width="2" stroke-linecap="round" stroke-linejoin="round"/>
<path d="M21.61 21.5L20.61 20.5" stroke="#0B3558" stroke-width="2" stroke-linecap="round" stroke-linejoin="round"/>
</svg>
