<svg width="32" height="32" viewBox="0 0 32 32" fill="none" xmlns="http://www.w3.org/2000/svg">
<path d="M16 32C24.8366 32 32 24.8366 32 16C32 7.16344 24.8366 0 16 0C7.16344 0 0 7.16344 0 16C0 24.8366 7.16344 32 16 32Z" fill="#EAF0F7"/>
<path d="M20.5 13H19C19 12.2044 18.6839 11.4413 18.1213 10.8787C17.5587 10.3161 16.7956 10 16 10C15.2044 10 14.4413 10.3161 13.8787 10.8787C13.3161 11.4413 13 12.2044 13 13H11.5C11.1022 13 10.7206 13.158 10.4393 13.4393C10.158 13.7206 10 14.1022 10 14.5V19.5C10.0008 20.1628 10.2644 20.7982 10.7331 21.2669C11.2018 21.7356 11.8372 21.9992 12.5 22H19.5C20.1628 21.9992 20.7982 21.7356 21.2669 21.2669C21.7356 20.7982 21.9992 20.1628 22 19.5V14.5C22 14.1022 21.842 13.7206 21.5607 13.4393C21.2794 13.158 20.8978 13 20.5 13ZM16 11C16.5304 11 17.0391 11.2107 17.4142 11.5858C17.7893 11.9609 18 12.4696 18 13H14C14 12.4696 14.2107 11.9609 14.5858 11.5858C14.9609 11.2107 15.4696 11 16 11ZM21 19.5C21 19.8978 20.842 20.2794 20.5607 20.5607C20.2794 20.842 19.8978 21 19.5 21H12.5C12.1022 21 11.7206 20.842 11.4393 20.5607C11.158 20.2794 11 19.8978 11 19.5V14.5C11 14.3674 11.0527 14.2402 11.1464 14.1464C11.2402 14.0527 11.3674 14 11.5 14H13V15C13 15.1326 13.0527 15.2598 13.1464 15.3536C13.2402 15.4473 13.3674 15.5 13.5 15.5C13.6326 15.5 13.7598 15.4473 13.8536 15.3536C13.9473 15.2598 14 15.1326 14 15V14H18V15C18 15.1326 18.0527 15.2598 18.1464 15.3536C18.2402 15.4473 18.3674 15.5 18.5 15.5C18.6326 15.5 18.7598 15.4473 18.8536 15.3536C18.9473 15.2598 19 15.1326 19 15V14H20.5C20.6326 14 20.7598 14.0527 20.8536 14.1464C20.9473 14.2402 21 14.3674 21 14.5V19.5Z" fill="#71829E"/>
</svg>
