<svg width="32" height="32" viewBox="0 0 32 32" fill="none" xmlns="http://www.w3.org/2000/svg">
<path d="M16 32C24.8366 32 32 24.8366 32 16C32 7.16345 24.8366 0 16 0C7.16344 0 0 7.16345 0 16C0 24.8366 7.16344 32 16 32Z" fill="#EAF0F7"/>
<path d="M24.6705 18.1486C24.6705 18.1489 24.6705 18.1489 24.6705 18.1486H24.2692L21.9556 11.5685H23.8564C24.0216 11.5685 24.1695 11.4532 24.1931 11.292C24.2225 11.0913 24.0652 10.9188 23.867 10.9188H17.2167C17.1441 10.6558 16.986 10.4231 16.7663 10.2572C16.5466 10.0913 16.2778 10.0008 16.0012 10H15.9985C15.7219 10.0008 15.4531 10.0913 15.2334 10.2572C15.0141 10.4231 14.856 10.6555 14.783 10.9188H8.14286C7.97769 10.9188 7.82978 11.0344 7.80663 11.1957C7.7776 11.3964 7.93453 11.5685 8.13266 11.5685H10.0445L7.73248 18.1486H7.32956C7.14869 18.1486 7 18.2924 7 18.4711C6.99922 19.7317 7.68108 20.8968 8.78863 21.5272C9.89539 22.1571 11.2595 22.1571 12.3663 21.5272C13.4738 20.8968 14.1557 19.7317 14.1549 18.4711C14.1549 18.2928 14.0062 18.1486 13.8254 18.1486H13.4244L11.1112 11.5685H14.7834C14.9011 11.9942 15.2381 12.3268 15.6701 12.4432V14.0577C15.6701 14.2514 15.8294 14.408 16.0255 14.408C16.1935 14.408 16.3296 14.2738 16.3296 14.1083V12.4439C16.7616 12.3276 17.0986 11.995 17.2163 11.5692H20.8896L18.5773 18.1489H18.1743C17.9935 18.1489 17.8448 18.2928 17.8448 18.4715C17.844 19.7321 18.5259 20.8972 19.6334 21.5275C20.7406 22.1575 22.1043 22.1575 23.2111 21.5275C24.3661 20.8702 25.0581 19.6316 24.9962 18.3094C24.9867 18.1107 24.838 18.0383 24.6705 18.1486ZM13.4778 18.799C13.3961 19.5008 13.0556 20.1486 12.5209 20.6192C11.9861 21.0898 11.2944 21.3501 10.5777 21.3508C9.86087 21.3501 9.16958 21.0898 8.63484 20.6192C8.10009 20.1486 7.75955 19.5008 7.67795 18.799H13.4778ZM12.6868 18.1493H8.46849L10.5773 11.971L12.6868 18.1493ZM16.6019 11.2436V11.2502C16.6003 11.4064 16.536 11.5561 16.4234 11.6663C16.3108 11.7765 16.1585 11.8384 16 11.8388C15.8415 11.8384 15.6893 11.7765 15.5767 11.6663C15.4641 11.5561 15.3998 11.4068 15.3982 11.2502V11.2436V11.2374C15.3982 11.0255 15.5132 10.8295 15.6991 10.7235C15.8855 10.6176 16.115 10.6176 16.301 10.7235C16.4873 10.8295 16.6019 11.0255 16.6019 11.2374V11.2436ZM21.4224 11.9702L23.5316 18.1486H19.3133L21.4224 11.9702ZM23.3652 20.6192C22.8305 21.0898 22.1388 21.3501 21.422 21.3508C20.7052 21.3501 20.014 21.0898 19.4792 20.6192C18.9445 20.149 18.6039 19.5008 18.5223 18.799H24.3221C24.2405 19.5008 23.9 20.1486 23.3652 20.6192Z" fill="#71829E" stroke="#71829E" stroke-width="0.2"/>
</svg>
