<svg width="26" height="21" viewBox="0 0 26 21" fill="none" xmlns="http://www.w3.org/2000/svg">
<path d="M19.0609 20.5H6.93914C4.84899 20.5 3.14929 18.7507 3.14929 16.5995V11.2834H4.58213V16.5995C4.58213 17.9368 5.63974 19.0253 6.93914 19.0253H19.0618C20.3612 19.0253 21.4188 17.9368 21.4188 16.5995V11.2474H22.8517V16.5995C22.8508 18.7507 21.1511 20.5 19.0609 20.5Z" fill="#0B3558" stroke="#0B3558" stroke-width="0.5"/>
<path d="M3.86571 7.67512C3.46989 7.67512 3.14929 7.34516 3.14929 6.93779V4.40046C3.14929 2.24931 4.84899 0.5 6.93914 0.5H19.0618C21.1511 0.5 22.8508 2.24931 22.8508 4.40046V6.93318C22.8508 7.34055 22.5302 7.67051 22.1344 7.67051C21.7385 7.67051 21.4179 7.34055 21.4179 6.93318V4.40046C21.4179 3.06313 20.3603 1.97465 19.0609 1.97465H6.93914C5.63974 1.97465 4.58213 3.06313 4.58213 4.40046V6.93779C4.58213 7.34516 4.26153 7.67512 3.86571 7.67512Z" fill="#0B3558" stroke="#0B3558" stroke-width="0.5"/>
<path d="M24.2836 12.1128H1.71642C1.3206 12.1128 1 11.7829 1 11.3755C1 10.9681 1.3206 10.6382 1.71642 10.6382H24.2836C24.6794 10.6382 25 10.9681 25 11.3755C25 11.7829 24.6794 12.1128 24.2836 12.1128Z" fill="#0B3558" stroke="#0B3558" stroke-width="0.5"/>
<path d="M17.8022 7.10178V8.2292H8.19775V7.10178C8.19775 6.06308 9.00979 5.25916 9.96596 5.25916H16.0331C16.9902 5.25916 17.8022 6.064 17.8022 7.10178Z" stroke="#0B3558" stroke-width="1.5"/>
<path d="M8.19775 13.3461V12.2178H17.8031V13.3461C17.8031 14.3845 16.9905 15.1887 16.034 15.1887H9.96686C9.00979 15.1887 8.19775 14.3839 8.19775 13.3461Z" stroke="#0B3558" stroke-width="1.5"/>
</svg>
