<svg width="22" height="21" viewBox="0 0 22 21" fill="none" xmlns="http://www.w3.org/2000/svg">
<path d="M18.0346 9.11625L18.0031 5.63949C18.0031 5.07123 17.7774 4.52624 17.3756 4.12442C16.9738 3.72261 16.4288 3.49687 15.8605 3.49687H12.3895V3.38473C12.3899 2.9599 12.2961 2.54025 12.1148 2.15604C11.9335 1.77183 11.6692 1.43261 11.341 1.16284C10.9141 0.809261 10.3943 0.586215 9.8439 0.520401C9.29349 0.454586 8.73577 0.548792 8.23752 0.79174C7.73927 1.03469 7.32159 1.41608 7.03448 1.89027C6.74737 2.36445 6.60301 2.91133 6.61867 3.46544L3.14262 3.49687C2.57436 3.49687 2.02938 3.72261 1.62756 4.12442C1.22574 4.52624 1 5.07123 1 5.63949V9.83046C1 10.0199 1.07525 10.2015 1.20919 10.3355C1.34313 10.4694 1.52479 10.5447 1.71421 10.5447H2.54055C2.75713 10.5439 2.97115 10.5916 3.16696 10.6841C3.36277 10.7767 3.53544 10.9118 3.67233 11.0797C3.80923 11.2475 3.90691 11.4438 3.95823 11.6542C4.00955 11.8647 4.01322 12.0839 3.96896 12.2959C3.88743 12.633 3.69311 12.9321 3.41823 13.1436C3.14335 13.3551 2.80443 13.4662 2.4577 13.4586H1.71421C1.52479 13.4586 1.34313 13.5339 1.20919 13.6678C1.07525 13.8018 1 13.9834 1 14.1728V18.3574C1 18.9256 1.22574 19.4706 1.62756 19.8724C2.02938 20.2743 2.57436 20.5 3.14262 20.5H7.33288C7.5223 20.5 7.70396 20.4248 7.8379 20.2908C7.97184 20.1569 8.04708 19.9752 8.04708 19.7858V18.9595C8.04674 18.743 8.09465 18.5292 8.18734 18.3336C8.28002 18.1379 8.41515 17.9655 8.58289 17.8286C8.75063 17.6918 8.94676 17.5941 9.15701 17.5426C9.36726 17.4912 9.58635 17.4872 9.79832 17.531C10.1354 17.6128 10.4345 17.8073 10.6459 18.0823C10.8574 18.3573 10.9686 18.6962 10.9611 19.043V19.7858C10.9611 19.9752 11.0363 20.1569 11.1702 20.2908C11.3042 20.4248 11.4858 20.5 11.6753 20.5H15.8605C16.4288 20.5 16.9738 20.2743 17.3756 19.8724C17.7774 19.4706 18.0031 18.9256 18.0031 18.3574V14.887H18.1153C18.5424 14.8862 18.964 14.7906 19.3498 14.6073C19.7356 14.424 20.076 14.1574 20.3464 13.8267C20.6168 13.4961 20.8105 13.1096 20.9136 12.6951C21.0168 12.2806 21.0267 11.8484 20.9428 11.4296C20.8006 10.767 20.433 10.1743 19.9027 9.75247C19.3723 9.33064 18.7121 9.10578 18.0346 9.11625ZM19.2359 12.9294C19.1001 13.0954 18.9291 13.2291 18.7353 13.3209C18.5415 13.4127 18.3297 13.4602 18.1153 13.4601H17.2889C17.0995 13.4601 16.9178 13.5353 16.7839 13.6692C16.65 13.8032 16.5747 13.9848 16.5747 14.1743V18.3574C16.5747 18.5468 16.4995 18.7285 16.3655 18.8624C16.2316 18.9963 16.0499 19.0716 15.8605 19.0716H12.3895V19.0459C12.4012 18.3664 12.1762 17.7041 11.7531 17.1723C11.33 16.6405 10.7351 16.2725 10.0704 16.1312C9.65198 16.0476 9.22021 16.058 8.80622 16.1614C8.39223 16.2648 8.00633 16.4587 7.67632 16.7292C7.34631 16.9998 7.0804 17.3401 6.89776 17.7257C6.71512 18.1114 6.62029 18.5327 6.6201 18.9595V19.0716H3.14262C2.9532 19.0716 2.77154 18.9963 2.6376 18.8624C2.50366 18.7285 2.42841 18.5468 2.42841 18.3574V14.887H2.45413C3.13365 14.8985 3.796 14.6733 4.32765 14.2499C4.85929 13.8265 5.22713 13.2314 5.36809 12.5666C5.45203 12.1481 5.44203 11.7163 5.33881 11.3022C5.2356 10.8881 5.04174 10.5021 4.77123 10.172C4.50072 9.84187 4.1603 9.57594 3.77455 9.39338C3.38879 9.21081 2.96732 9.11616 2.54055 9.11625H2.42841V5.63949C2.42841 5.45007 2.50366 5.26841 2.6376 5.13447C2.77154 5.00053 2.9532 4.92528 3.14262 4.92528H7.33288C7.5223 4.92528 7.70396 4.85003 7.8379 4.71609C7.97184 4.58215 8.04708 4.40049 8.04708 4.21107V3.46544C8.03941 3.12029 8.14987 2.78287 8.36015 2.50907C8.57044 2.23527 8.86794 2.04152 9.20339 1.95989C9.41543 1.91583 9.63462 1.91948 9.84509 1.97058C10.0555 2.02168 10.252 2.11894 10.4203 2.25532C10.5885 2.3917 10.7243 2.56379 10.8178 2.75913C10.9114 2.95447 10.9603 3.16816 10.9611 3.38473V4.21107C10.9611 4.40049 11.0363 4.58215 11.1702 4.71609C11.3042 4.85003 11.4858 4.92528 11.6753 4.92528H15.8605C16.0499 4.92528 16.2316 5.00053 16.3655 5.13447C16.4995 5.26841 16.5747 5.45007 16.5747 5.63949V9.83046C16.5747 10.0199 16.65 10.2015 16.7839 10.3355C16.9178 10.4694 17.0995 10.5447 17.2889 10.5447H18.0346C18.3797 10.5372 18.7171 10.6477 18.991 10.858C19.2649 11.0682 19.4588 11.3656 19.5408 11.701C19.5856 11.9155 19.5814 12.1373 19.5286 12.35C19.4758 12.5627 19.3758 12.7607 19.2359 12.9294Z" fill="#0B3558" stroke="#0B3558" stroke-width="0.5"/>
</svg>
