<svg width="22" height="23" viewBox="0 0 22 23" fill="none" xmlns="http://www.w3.org/2000/svg">
<path d="M21 5.5H5C2.79086 5.5 1 7.29086 1 9.5V17.5C1 19.7091 2.79086 21.5 5 21.5H17C19.2091 21.5 21 19.7091 21 17.5V5.5Z" stroke="#0B3558" stroke-width="2" stroke-linejoin="round"/>
<path d="M21 5.5C21 3.29086 19.2091 1.5 17 1.5H11C8.79086 1.5 7 3.29086 7 5.5V5.5H21V5.5Z" stroke="#0B3558" stroke-width="2" stroke-linejoin="round"/>
<path d="M1 11.5L1 15.5L5 15.5C6.10457 15.5 7 14.6046 7 13.5V13.5C7 12.3954 6.10457 11.5 5 11.5L1 11.5Z" stroke="#0B3558" stroke-width="2" stroke-linejoin="round"/>
</svg>
