<svg width="24" height="24" viewBox="0 0 24 24" fill="none" xmlns="http://www.w3.org/2000/svg">
<circle cx="12" cy="12" r="12" fill="#DFE3E9"/>
<path d="M16.1667 11.1667H12.8333V7.83333C12.8333 7.61232 12.7455 7.40036 12.5893 7.24408C12.433 7.0878 12.221 7 12 7C11.779 7 11.567 7.0878 11.4107 7.24408C11.2545 7.40036 11.1667 7.61232 11.1667 7.83333V11.1667H7.83333C7.61232 11.1667 7.40036 11.2545 7.24408 11.4107C7.0878 11.567 7 11.779 7 12C7 12.221 7.0878 12.433 7.24408 12.5893C7.40036 12.7455 7.61232 12.8333 7.83333 12.8333H11.1667V16.1667C11.1667 16.3877 11.2545 16.5996 11.4107 16.7559C11.567 16.9122 11.779 17 12 17C12.221 17 12.433 16.9122 12.5893 16.7559C12.7455 16.5996 12.8333 16.3877 12.8333 16.1667V12.8333H16.1667C16.3877 12.8333 16.5996 12.7455 16.7559 12.5893C16.9122 12.433 17 12.221 17 12C17 11.779 16.9122 11.567 16.7559 11.4107C16.5996 11.2545 16.3877 11.1667 16.1667 11.1667Z" fill="#0B3558"/>
</svg>
