<svg width="22" height="20" viewBox="0 0 22 20" fill="none" xmlns="http://www.w3.org/2000/svg">
<path d="M12 9.16919H6" stroke="white" stroke-width="1.5" stroke-linecap="round" stroke-linejoin="round"/>
<path d="M1 9.16939V4.62757C1 2.62208 2.65 1 4.69 1H10.31C12.35 1 14 2.24851 14 4.25399" stroke="white" stroke-width="1.5" stroke-linecap="round" stroke-linejoin="round"/>
<path d="M16.48 10.2015C15.98 10.6734 15.74 11.4009 15.94 12.148C16.19 13.0623 17.11 13.6423 18.07 13.6423H19V15.0678C19 17.2404 17.21 19.0001 15 19.0001H5C2.79 19.0001 1 17.2404 1 15.0678V8.18622C1 6.01362 2.79 4.25391 5 4.25391H15C17.2 4.25391 19 6.02345 19 8.18622V9.61164H17.92C17.36 9.61164 16.85 9.82795 16.48 10.2015Z" stroke="white" stroke-width="1.5" stroke-linecap="round" stroke-linejoin="round"/>
<path d="M21 10.6146V12.6397C21 13.1902 20.5399 13.6425 19.9699 13.6425H18.0399C16.9599 13.6425 15.97 12.8658 15.88 11.8041C15.82 11.1848 16.0599 10.6048 16.4799 10.2017C16.8499 9.82813 17.36 9.61182 17.92 9.61182H19.9699C20.5399 9.61182 21 10.0641 21 10.6146Z" stroke="white" stroke-width="1.5" stroke-linecap="round" stroke-linejoin="round"/>
</svg>
