<svg width="16" height="16" viewBox="0 0 16 16" fill="none" xmlns="http://www.w3.org/2000/svg">
<path d="M8 16C12.42 16 16 12.42 16 8C16 3.58 12.42 0 8 0C3.58 0 0 3.58 0 8C0 12.42 3.58 16 8 16ZM8.93 6.59L7.93 11.29C7.86 11.63 7.96 11.82 8.23 11.82C8.42 11.82 8.72 11.75 8.92 11.57L8.83 12C8.54 12.35 7.91 12.6 7.36 12.6C6.66 12.6 6.36 12.18 6.55 11.28L7.3 7.81C7.36 7.52 7.31 7.41 7.01 7.34L6.56 7.26L6.64 6.88L8.93 6.59ZM8 5.5C7.45 5.5 7 5.05 7 4.5C7 3.95 7.45 3.5 8 3.5C8.55 3.5 9 3.95 9 4.5C9 5.05 8.55 5.5 8 5.5Z" fill="#0B3558"/>
</svg>
