<svg width="16" height="14" viewBox="0 0 16 14" fill="none" xmlns="http://www.w3.org/2000/svg">
<path fill-rule="evenodd" clip-rule="evenodd" d="M14.5009 13.0002C14.6335 13.0002 14.7607 12.9476 14.8544 12.8538C14.9482 12.76 15.0009 12.6329 15.0009 12.5002V7.70024C15.0009 7.37194 14.9362 7.04685 14.8106 6.74354C14.685 6.44022 14.5008 6.16462 14.2687 5.93248C14.0365 5.70033 13.7609 5.51618 13.4576 5.39054C13.1543 5.26491 12.8292 5.20024 12.5009 5.20024H2.70789L6.05489 1.85424C6.14878 1.76036 6.20153 1.63302 6.20153 1.50024C6.20153 1.36747 6.14878 1.24013 6.05489 1.14624C5.96101 1.05236 5.83367 0.999613 5.70089 0.999613C5.56812 0.999613 5.44078 1.05236 5.34689 1.14624L1.14689 5.34624C1.10033 5.39269 1.06339 5.44787 1.03818 5.50861C1.01297 5.56936 1 5.63448 1 5.70024C1 5.76601 1.01297 5.83113 1.03818 5.89188C1.06339 5.95262 1.10033 6.0078 1.14689 6.05424L5.14689 10.0542C5.24078 10.1481 5.36812 10.2009 5.50089 10.2009C5.63367 10.2009 5.76101 10.1481 5.85489 10.0542C5.94878 9.96036 6.00153 9.83302 6.00153 9.70024C6.00153 9.56747 5.94878 9.44013 5.85489 9.34624L2.70789 6.20024H12.5009C12.8987 6.20024 13.2802 6.35828 13.5616 6.63958C13.8429 6.92089 14.0009 7.30242 14.0009 7.70024V12.5002C14.0009 12.6329 14.0536 12.76 14.1473 12.8538C14.2411 12.9476 14.3683 13.0002 14.5009 13.0002Z" fill="white" stroke="white" stroke-width="0.2"/>
</svg>
