<svg width="56" height="56" viewBox="0 0 56 56" fill="none" xmlns="http://www.w3.org/2000/svg">
<g filter="url(#filter0_d_292_893)">
<circle cx="28" cy="28" r="20" fill="white"/>
</g>
<path d="M34.6 27.4H28.6V21.4C28.6 21.2409 28.5368 21.0883 28.4243 20.9758C28.3117 20.8633 28.1591 20.8 28 20.8V20.8C27.8409 20.8 27.6882 20.8633 27.5757 20.9758C27.4632 21.0883 27.4 21.2409 27.4 21.4V27.4H21.4C21.2409 27.4 21.0882 27.4633 20.9757 27.5758C20.8632 27.6883 20.8 27.8409 20.8 28V28C20.8 28.1592 20.8632 28.3118 20.9757 28.4243C21.0882 28.5368 21.2409 28.6 21.4 28.6H27.4V34.6C27.4 34.7592 27.4632 34.9118 27.5757 35.0243C27.6882 35.1368 27.8409 35.2 28 35.2C28.1591 35.2 28.3117 35.1368 28.4243 35.0243C28.5368 34.9118 28.6 34.7592 28.6 34.6V28.6H34.6C34.7591 28.6 34.9117 28.5368 35.0243 28.4243C35.1368 28.3118 35.2 28.1592 35.2 28C35.2 27.8409 35.1368 27.6883 35.0243 27.5758C34.9117 27.4633 34.7591 27.4 34.6 27.4Z" fill="#DFE3E9"/>
<defs>
<filter id="filter0_d_292_893" x="0" y="0" width="56" height="56" filterUnits="userSpaceOnUse" color-interpolation-filters="sRGB">
<feFlood flood-opacity="0" result="BackgroundImageFix"/>
<feColorMatrix in="SourceAlpha" type="matrix" values="0 0 0 0 0 0 0 0 0 0 0 0 0 0 0 0 0 0 127 0" result="hardAlpha"/>
<feOffset/>
<feGaussianBlur stdDeviation="4"/>
<feComposite in2="hardAlpha" operator="out"/>
<feColorMatrix type="matrix" values="0 0 0 0 0 0 0 0 0 0 0 0 0 0 0 0 0 0 0.25 0"/>
<feBlend mode="normal" in2="BackgroundImageFix" result="effect1_dropShadow_292_893"/>
<feBlend mode="normal" in="SourceGraphic" in2="effect1_dropShadow_292_893" result="shape"/>
</filter>
</defs>
</svg>
