<svg width="34" height="20" viewBox="0 0 34 20" fill="none" xmlns="http://www.w3.org/2000/svg">
<path d="M34 18.4577H0V20H34V18.4577Z" fill="#CB001C"/>
<path d="M34 16.9245H0V18.4668H34V16.9245Z" fill="white"/>
<path d="M34 15.3816H0V16.9137H34V15.3816Z" fill="#CB001C"/>
<path d="M34 13.8499H0V15.3922H34V13.8499Z" fill="white"/>
<path d="M34 12.3084H0V13.8507H34V12.3084Z" fill="#CB001C"/>
<path d="M34 10.7654H0V12.2976H34V10.7654Z" fill="white"/>
<path d="M34 9.23373H0V10.7761H34V9.23373Z" fill="#CB001C"/>
<path d="M34 7.6908H0V9.22291H34V7.6908Z" fill="white"/>
<path d="M34 6.15906H0V7.70138H34V6.15906Z" fill="#CB001C"/>
<path d="M34 4.61615H0V6.15848H34V4.61615Z" fill="white"/>
<path d="M34 3.07465H0V4.61697H34V3.07465Z" fill="#CB001C"/>
<path d="M34 1.5415H0V3.08383H34V1.5415Z" fill="white"/>
<path d="M34 0H0V1.54233H34V0Z" fill="#CB001C"/>
<path d="M15.531 0H0V10.7656H15.531V0Z" fill="#2A3560"/>
<path d="M1.39803 1.18484L1.53987 1.59341H1.96537L1.62092 1.84876L1.74249 2.25732L1.39803 2.00197L1.05357 2.25732L1.19541 1.84876L0.850952 1.59341H1.26633L1.39803 1.18484Z" fill="white"/>
<path d="M1.39803 2.98334L1.53987 3.3919H1.96537L1.62092 3.64725L1.74249 4.05582L1.39803 3.80046L1.05357 4.05582L1.19541 3.64725L0.850952 3.3919H1.26633L1.39803 2.98334Z" fill="white"/>
<path d="M1.39803 4.78015L1.53987 5.18871H1.96537L1.62092 5.44407L1.74249 5.85263L1.39803 5.59728L1.05357 5.85263L1.19541 5.44407L0.850952 5.18871H1.26633L1.39803 4.78015Z" fill="white"/>
<path d="M1.39803 6.57861L1.53987 6.98718H1.96537L1.62092 7.24253L1.74249 7.64088L1.39803 7.39574L1.05357 7.64088L1.19541 7.24253L0.850952 6.98718H1.26633L1.39803 6.57861Z" fill="white"/>
<path d="M1.39803 8.37543L1.53987 8.78399H1.96537L1.62092 9.03934L1.74249 9.43769L1.39803 9.19255L1.05357 9.43769L1.19541 9.03934L0.850952 8.78399H1.26633L1.39803 8.37543Z" fill="white"/>
<path d="M2.64425 2.13373L2.77595 2.54229H3.20146L2.857 2.79764L2.98871 3.19599L2.64425 2.95086L2.29979 3.19599L2.43149 2.79764L2.08704 2.54229H2.51254L2.64425 2.13373Z" fill="white"/>
<path d="M2.64425 3.93219L2.77595 4.34075H3.20146L2.857 4.58589L2.98871 4.99445L2.64425 4.74932L2.29979 4.99445L2.43149 4.58589L2.08704 4.34075H2.51254L2.64425 3.93219Z" fill="white"/>
<path d="M2.64425 5.73065L2.77595 6.13922H3.20146L2.857 6.38435L2.98871 6.79292L2.64425 6.54778L2.29979 6.79292L2.43149 6.38435L2.08704 6.13922H2.51254L2.64425 5.73065Z" fill="white"/>
<path d="M2.64425 7.52747L2.77595 7.93603H3.20146L2.857 8.18117L2.98871 8.58973L2.64425 8.33438L2.29979 8.58973L2.43149 8.18117L2.08704 7.93603H2.51254L2.64425 7.52747Z" fill="white"/>
<path d="M3.90035 1.18484L4.03206 1.59341H4.45756L4.1131 1.84876L4.24481 2.25732L3.90035 2.00197L3.55589 2.25732L3.6876 1.84876L3.34314 1.59341H3.76865L3.90035 1.18484Z" fill="white"/>
<path d="M3.90035 2.98334L4.03206 3.3919H4.45756L4.1131 3.64725L4.24481 4.05582L3.90035 3.80046L3.55589 4.05582L3.6876 3.64725L3.34314 3.3919H3.76865L3.90035 2.98334Z" fill="white"/>
<path d="M3.90035 4.78015L4.03206 5.18871H4.45756L4.1131 5.44407L4.24481 5.85263L3.90035 5.59728L3.55589 5.85263L3.6876 5.44407L3.34314 5.18871H3.76865L3.90035 4.78015Z" fill="white"/>
<path d="M3.90035 6.57861L4.03206 6.98718H4.45756L4.1131 7.24253L4.24481 7.64088L3.90035 7.39574L3.55589 7.64088L3.6876 7.24253L3.34314 6.98718H3.76865L3.90035 6.57861Z" fill="white"/>
<path d="M3.90035 8.37543L4.03206 8.78399H4.45756L4.1131 9.03934L4.24481 9.43769L3.90035 9.19255L3.55589 9.43769L3.6876 9.03934L3.34314 8.78399H3.76865L3.90035 8.37543Z" fill="white"/>
<path d="M5.14657 2.13373L5.27827 2.54229H5.70378L5.35932 2.79764L5.49102 3.19599L5.14657 2.95086L4.80211 3.19599L4.93381 2.79764L4.58936 2.54229H5.01486L5.14657 2.13373Z" fill="white"/>
<path d="M5.14657 3.93219L5.27827 4.34075H5.70378L5.35932 4.58589L5.49102 4.99445L5.14657 4.74932L4.80211 4.99445L4.93381 4.58589L4.58936 4.34075H5.01486L5.14657 3.93219Z" fill="white"/>
<path d="M5.14657 5.73065L5.27827 6.13922H5.70378L5.35932 6.38435L5.49102 6.79292L5.14657 6.54778L4.80211 6.79292L4.93381 6.38435L4.58936 6.13922H5.01486L5.14657 5.73065Z" fill="white"/>
<path d="M5.14657 7.52747L5.27827 7.93603H5.70378L5.35932 8.18117L5.49102 8.58973L5.14657 8.33438L4.80211 8.58973L4.93381 8.18117L4.58936 7.93603H5.01486L5.14657 7.52747Z" fill="white"/>
<path d="M6.40279 1.18484L6.5345 1.59341H6.96L6.61555 1.84876L6.74725 2.25732L6.40279 2.00197L6.05833 2.25732L6.19004 1.84876L5.84558 1.59341H6.27109L6.40279 1.18484Z" fill="white"/>
<path d="M6.40279 2.98334L6.5345 3.3919H6.96L6.61555 3.64725L6.74725 4.05582L6.40279 3.80046L6.05833 4.05582L6.19004 3.64725L5.84558 3.3919H6.27109L6.40279 2.98334Z" fill="white"/>
<path d="M6.40279 4.78015L6.5345 5.18871H6.96L6.61555 5.44407L6.74725 5.85263L6.40279 5.59728L6.05833 5.85263L6.19004 5.44407L5.84558 5.18871H6.27109L6.40279 4.78015Z" fill="white"/>
<path d="M6.40279 6.57861L6.5345 6.98718H6.96L6.61555 7.24253L6.74725 7.64088L6.40279 7.39574L6.05833 7.64088L6.19004 7.24253L5.84558 6.98718H6.27109L6.40279 6.57861Z" fill="white"/>
<path d="M6.40279 8.37543L6.5345 8.78399H6.96L6.61555 9.03934L6.74725 9.43769L6.40279 9.19255L6.05833 9.43769L6.19004 9.03934L5.84558 8.78399H6.27109L6.40279 8.37543Z" fill="white"/>
<path d="M7.64901 2.13373L7.77058 2.54229H8.19609L7.85163 2.79764L7.98333 3.19599L7.64901 2.95086L7.30455 3.19599L7.42612 2.79764L7.0918 2.54229H7.50717L7.64901 2.13373Z" fill="white"/>
<path d="M7.64901 3.93219L7.77058 4.34075H8.19609L7.85163 4.58589L7.98333 4.99445L7.64901 4.74932L7.30455 4.99445L7.42612 4.58589L7.0918 4.34075H7.50717L7.64901 3.93219Z" fill="white"/>
<path d="M7.64901 5.73065L7.77058 6.13922H8.19609L7.85163 6.38435L7.98333 6.79292L7.64901 6.54778L7.30455 6.79292L7.42612 6.38435L7.0918 6.13922H7.50717L7.64901 5.73065Z" fill="white"/>
<path d="M7.64901 7.52747L7.77058 7.93603H8.19609L7.85163 8.18117L7.98333 8.58973L7.64901 8.33438L7.30455 8.58973L7.42612 8.18117L7.0918 7.93603H7.50717L7.64901 7.52747Z" fill="white"/>
<path d="M8.8951 1.18484L9.02681 1.59341H9.45231L9.10786 1.84876L9.24969 2.25732L8.8951 2.00197L8.56078 2.25732L8.68235 1.84876L8.34802 1.59341H8.7634L8.8951 1.18484Z" fill="white"/>
<path d="M8.8951 2.98334L9.02681 3.3919H9.45231L9.10786 3.64725L9.24969 4.05582L8.8951 3.80046L8.56078 4.05582L8.68235 3.64725L8.34802 3.3919H8.7634L8.8951 2.98334Z" fill="white"/>
<path d="M8.8951 4.78015L9.02681 5.18871H9.45231L9.10786 5.44407L9.24969 5.85263L8.8951 5.59728L8.56078 5.85263L8.68235 5.44407L8.34802 5.18871H8.7634L8.8951 4.78015Z" fill="white"/>
<path d="M8.8951 6.57861L9.02681 6.98718H9.45231L9.10786 7.24253L9.24969 7.64088L8.8951 7.39574L8.56078 7.64088L8.68235 7.24253L8.34802 6.98718H8.7634L8.8951 6.57861Z" fill="white"/>
<path d="M8.8951 8.37543L9.02681 8.78399H9.45231L9.10786 9.03934L9.24969 9.43769L8.8951 9.19255L8.56078 9.43769L8.68235 9.03934L8.34802 8.78399H8.7634L8.8951 8.37543Z" fill="white"/>
<path d="M10.1412 2.13373L10.2729 2.54229H10.6984L10.3539 2.79764L10.4857 3.19599L10.1412 2.95086L9.79674 3.19599L9.92844 2.79764L9.58398 2.54229H10.0095L10.1412 2.13373Z" fill="white"/>
<path d="M10.1412 3.93219L10.2729 4.34075H10.6984L10.3539 4.58589L10.4857 4.99445L10.1412 4.74932L9.79674 4.99445L9.92844 4.58589L9.58398 4.34075H10.0095L10.1412 3.93219Z" fill="white"/>
<path d="M10.1412 5.73065L10.2729 6.13922H10.6984L10.3539 6.38435L10.4857 6.79292L10.1412 6.54778L9.79674 6.79292L9.92844 6.38435L9.58398 6.13922H10.0095L10.1412 5.73065Z" fill="white"/>
<path d="M10.1412 7.52747L10.2729 7.93603H10.6984L10.3539 8.18117L10.4857 8.58973L10.1412 8.33438L9.79674 8.58973L9.92844 8.18117L9.58398 7.93603H10.0095L10.1412 7.52747Z" fill="white"/>
<path d="M11.3974 1.18484L11.5291 1.59341H11.9546L11.6102 1.84876L11.7419 2.25732L11.3974 2.00197L11.0631 2.25732L11.1847 1.84876L10.8503 1.59341H11.2657L11.3974 1.18484Z" fill="white"/>
<path d="M11.3974 2.98334L11.5291 3.3919H11.9546L11.6102 3.64725L11.7419 4.05582L11.3974 3.80046L11.0631 4.05582L11.1847 3.64725L10.8503 3.3919H11.2657L11.3974 2.98334Z" fill="white"/>
<path d="M11.3974 4.78015L11.5291 5.18871H11.9546L11.6102 5.44407L11.7419 5.85263L11.3974 5.59728L11.0631 5.85263L11.1847 5.44407L10.8503 5.18871H11.2657L11.3974 4.78015Z" fill="white"/>
<path d="M11.3974 6.57861L11.5291 6.98718H11.9546L11.6102 7.24253L11.7419 7.64088L11.3974 7.39574L11.0631 7.64088L11.1847 7.24253L10.8503 6.98718H11.2657L11.3974 6.57861Z" fill="white"/>
<path d="M11.3974 8.37543L11.5291 8.78399H11.9546L11.6102 9.03934L11.7419 9.43769L11.3974 9.19255L11.0631 9.43769L11.1847 9.03934L10.8503 8.78399H11.2657L11.3974 8.37543Z" fill="white"/>
<path d="M12.6436 2.13373L12.7753 2.54229H13.2008L12.8564 2.79764L12.978 3.19599L12.6436 2.95086L12.2992 3.19599L12.4309 2.79764L12.0864 2.54229H12.5119L12.6436 2.13373Z" fill="white"/>
<path d="M12.6436 3.93219L12.7753 4.34075H13.2008L12.8564 4.58589L12.978 4.99445L12.6436 4.74932L12.2992 4.99445L12.4309 4.58589L12.0864 4.34075H12.5119L12.6436 3.93219Z" fill="white"/>
<path d="M12.6436 5.73065L12.7753 6.13922H13.2008L12.8564 6.38435L12.978 6.79292L12.6436 6.54778L12.2992 6.79292L12.4309 6.38435L12.0864 6.13922H12.5119L12.6436 5.73065Z" fill="white"/>
<path d="M12.6436 7.52747L12.7753 7.93603H13.2008L12.8564 8.18117L12.978 8.58973L12.6436 8.33438L12.2992 8.58973L12.4309 8.18117L12.0864 7.93603H12.5119L12.6436 7.52747Z" fill="white"/>
<path d="M13.9 1.18484L14.0317 1.59341H14.4572L14.1127 1.84876L14.2444 2.25732L13.9 2.00197L13.5555 2.25732L13.6872 1.84876L13.3428 1.59341H13.7683L13.9 1.18484Z" fill="white"/>
<path d="M13.9 2.98334L14.0317 3.3919H14.4572L14.1127 3.64725L14.2444 4.05582L13.9 3.80046L13.5555 4.05582L13.6872 3.64725L13.3428 3.3919H13.7683L13.9 2.98334Z" fill="white"/>
<path d="M13.9 4.78015L14.0317 5.18871H14.4572L14.1127 5.44407L14.2444 5.85263L13.9 5.59728L13.5555 5.85263L13.6872 5.44407L13.3428 5.18871H13.7683L13.9 4.78015Z" fill="white"/>
<path d="M13.9 6.57861L14.0317 6.98718H14.4572L14.1127 7.24253L14.2444 7.64088L13.9 7.39574L13.5555 7.64088L13.6872 7.24253L13.3428 6.98718H13.7683L13.9 6.57861Z" fill="white"/>
<path d="M13.9 8.37543L14.0317 8.78399H14.4572L14.1127 9.03934L14.2444 9.43769L13.9 9.19255L13.5555 9.43769L13.6872 9.03934L13.3428 8.78399H13.7683L13.9 8.37543Z" fill="white"/>
</svg>
