<svg width="18" height="18" viewBox="0 0 18 18" fill="none" xmlns="http://www.w3.org/2000/svg">
<path d="M9.00003 2.33347C9.88775 2.33637 10.7661 2.51462 11.5842 2.85791C12.4023 3.20119 13.1439 3.7027 13.7662 4.3334H11.6769C11.4994 4.3334 11.3292 4.40363 11.2037 4.52865C11.0782 4.65367 11.0077 4.82323 11.0077 5.00004C11.0077 5.17684 11.0782 5.34641 11.2037 5.47143C11.3292 5.59645 11.4994 5.66668 11.6769 5.66668H14.4495C14.779 5.6665 15.095 5.53602 15.328 5.3039C15.561 5.07177 15.692 4.757 15.6922 4.42873V1.66683C15.6922 1.49002 15.6217 1.32046 15.4962 1.19544C15.3707 1.07042 15.2005 1.00018 15.023 1.00018C14.8455 1.00018 14.6753 1.07042 14.5498 1.19544C14.4243 1.32046 14.3538 1.49002 14.3538 1.66683V3.05211C13.2477 2.05978 11.8861 1.39378 10.4215 1.12868C8.95693 0.863581 7.44719 1.00986 6.06135 1.55113C4.67551 2.0924 3.46829 3.00729 2.57488 4.19335C1.68147 5.37941 1.13715 6.7898 1.00288 8.26659C0.994236 8.35942 1.0051 8.45303 1.03478 8.54145C1.06446 8.62988 1.1123 8.71117 1.17525 8.78016C1.23821 8.84914 1.31491 8.90431 1.40045 8.94214C1.48599 8.97998 1.5785 8.99964 1.6721 8.99989C1.83578 9.00197 1.99435 8.94312 2.11676 8.83486C2.23918 8.7266 2.31663 8.57673 2.33395 8.41458C2.48293 6.75514 3.24943 5.21117 4.48286 4.08596C5.7163 2.96076 7.32753 2.33566 9.00003 2.33347Z" fill="#0B3558" stroke="#0B3558" stroke-width="0.3"/>
<path d="M16.3286 9.00005C16.1649 8.99798 16.0064 9.05683 15.884 9.16508C15.7615 9.27334 15.6841 9.42322 15.6668 9.58537C15.5561 10.8541 15.0825 12.0647 14.302 13.0734C13.5215 14.0821 12.467 14.8466 11.2634 15.2762C10.0599 15.7058 8.75791 15.7825 7.51193 15.4972C6.26595 15.2119 5.12827 14.5766 4.23387 13.6666H6.32316C6.50065 13.6666 6.67087 13.5963 6.79637 13.4713C6.92188 13.3463 6.99238 13.1767 6.99238 12.9999C6.99238 12.8231 6.92188 12.6535 6.79637 12.5285C6.67087 12.4035 6.50065 12.3333 6.32316 12.3333H3.5506C3.38737 12.3332 3.22573 12.3651 3.07492 12.4273C2.9241 12.4895 2.78707 12.5807 2.67165 12.6957C2.55624 12.8106 2.4647 12.9471 2.40228 13.0974C2.33986 13.2476 2.30777 13.4086 2.30786 13.5712V16.3331C2.30786 16.5099 2.37837 16.6795 2.50387 16.8045C2.62937 16.9295 2.79959 16.9998 2.97708 16.9998C3.15457 16.9998 3.32478 16.9295 3.45029 16.8045C3.57579 16.6795 3.6463 16.5099 3.6463 16.3331V14.9479C4.7524 15.9402 6.11398 16.6062 7.57855 16.8713C9.04313 17.1364 10.5529 16.9901 11.9387 16.4488C13.3246 15.9076 14.5318 14.9927 15.4252 13.8066C16.3186 12.6205 16.8629 11.2101 16.9972 9.73336C17.0058 9.64053 16.995 9.54692 16.9653 9.45849C16.9356 9.37007 16.8878 9.28878 16.8248 9.21979C16.7618 9.1508 16.6852 9.09563 16.5996 9.0578C16.5141 9.01997 16.4216 9.0003 16.328 9.00005H16.3286Z" fill="#0B3558" stroke="#0B3558" stroke-width="0.3"/>
</svg>
