<svg width="16" height="16" viewBox="0 0 16 16" fill="none" xmlns="http://www.w3.org/2000/svg">
<path d="M6.58555 12.0815C6.77129 12.2673 6.99182 12.4148 7.23456 12.5153C7.4773 12.6159 7.73748 12.6677 8.00023 12.6677C8.26299 12.6677 8.52317 12.6159 8.7659 12.5153C9.00864 12.4148 9.22918 12.2673 9.41491 12.0815L11.5556 9.94077C11.6704 9.81384 11.7319 9.64762 11.7275 9.47654C11.7232 9.30546 11.6531 9.14263 11.532 9.02174C11.4109 8.90086 11.2479 8.83119 11.0768 8.82717C10.9057 8.82314 10.7396 8.88505 10.6129 9.0001L8.66224 10.9515L8.6669 0.666674C8.6669 0.489861 8.59667 0.32029 8.47164 0.195264C8.34661 0.0702387 8.17704 0 8.00023 0V0C7.82342 0 7.65385 0.0702387 7.52882 0.195264C7.4038 0.32029 7.33356 0.489861 7.33356 0.666674L7.32756 10.9388L5.38754 9.0001C5.26244 8.87509 5.09281 8.8049 4.91596 8.80496C4.73911 8.80502 4.56953 8.87534 4.44453 9.00043C4.31952 9.12553 4.24933 9.29516 4.24939 9.472C4.24945 9.64885 4.31976 9.81843 4.44486 9.94344L6.58555 12.0815Z" fill="white"/>
<path d="M15.3335 10.6665C15.1567 10.6665 14.9871 10.7367 14.8621 10.8618C14.7371 10.9868 14.6668 11.1564 14.6668 11.3332V13.9999C14.6668 14.1767 14.5966 14.3463 14.4716 14.4713C14.3465 14.5963 14.177 14.6665 14.0002 14.6665H2.00002C1.82321 14.6665 1.65364 14.5963 1.52861 14.4713C1.40359 14.3463 1.33335 14.1767 1.33335 13.9999V11.3332C1.33335 11.1564 1.26311 10.9868 1.13808 10.8618C1.01306 10.7367 0.843487 10.6665 0.666674 10.6665C0.489861 10.6665 0.32029 10.7367 0.195264 10.8618C0.0702387 10.9868 0 11.1564 0 11.3332L0 13.9999C0 14.5303 0.210716 15.039 0.585793 15.4141C0.960869 15.7892 1.46958 15.9999 2.00002 15.9999H14.0002C14.5306 15.9999 15.0393 15.7892 15.4144 15.4141C15.7895 15.039 16.0002 14.5303 16.0002 13.9999V11.3332C16.0002 11.1564 15.9299 10.9868 15.8049 10.8618C15.6799 10.7367 15.5103 10.6665 15.3335 10.6665Z" fill="white"/>
</svg>
