<svg width="26" height="22" viewBox="0 0 26 22" fill="none" xmlns="http://www.w3.org/2000/svg">
<path d="M19.0609 21H6.93914C4.84899 21 3.14929 19.2507 3.14929 17.0995V11.7834H4.58213V17.0995C4.58213 18.4368 5.63974 19.5253 6.93914 19.5253H19.0618C20.3612 19.5253 21.4188 18.4368 21.4188 17.0995V11.7474H22.8517V17.0995C22.8508 19.2507 21.1511 21 19.0609 21Z" fill="#0B3558" stroke="#0B3558" stroke-width="0.5"/>
<path d="M3.86571 8.17512C3.46989 8.17512 3.14929 7.84516 3.14929 7.43779V4.90046C3.14929 2.74931 4.84899 1 6.93914 1H19.0618C21.1511 1 22.8508 2.74931 22.8508 4.90046V7.43318C22.8508 7.84055 22.5302 8.17051 22.1344 8.17051C21.7385 8.17051 21.4179 7.84055 21.4179 7.43318V4.90046C21.4179 3.56313 20.3603 2.47465 19.0609 2.47465H6.93914C5.63974 2.47465 4.58213 3.56313 4.58213 4.90046V7.43779C4.58213 7.84516 4.26153 8.17512 3.86571 8.17512Z" fill="#0B3558" stroke="#0B3558" stroke-width="0.5"/>
<path d="M24.2836 12.6128H1.71642C1.3206 12.6128 1 12.2829 1 11.8755C1 11.4681 1.3206 11.1382 1.71642 11.1382H24.2836C24.6794 11.1382 25 11.4681 25 11.8755C25 12.2829 24.6794 12.6128 24.2836 12.6128Z" fill="#0B3558" stroke="#0B3558" stroke-width="0.5"/>
<path d="M17.8022 7.60178V8.7292H8.19775V7.60178C8.19775 6.56308 9.00979 5.75916 9.96596 5.75916H16.0331C16.9902 5.75916 17.8022 6.564 17.8022 7.60178Z" stroke="#0B3558" stroke-width="1.5"/>
<path d="M8.19775 13.8461V12.7178H17.8031V13.8461C17.8031 14.8845 16.9905 15.6887 16.034 15.6887H9.96686C9.00979 15.6887 8.19775 14.8839 8.19775 13.8461Z" stroke="#0B3558" stroke-width="1.5"/>
</svg>
