<svg width="207" height="48" viewBox="0 0 207 48" fill="none" xmlns="http://www.w3.org/2000/svg">
<rect x="0.5" y="0.5" width="206" height="47" rx="3.5" fill="#E7F2FF"/>
<rect x="0.5" y="0.5" width="206" height="47" rx="3.5" stroke="#0050A6"/>
<path d="M34.4794 36C35.3088 36 35.9812 35.3283 35.9812 34.4997C35.9812 33.6711 35.3088 32.9993 34.4794 32.9993C33.6499 32.9993 32.9775 33.6711 32.9775 34.4997C32.9775 35.3283 33.6499 36 34.4794 36Z" fill="#0050A6"/>
<path d="M42.4872 36C43.3166 36 43.989 35.3283 43.989 34.4997C43.989 33.6711 43.3166 32.9993 42.4872 32.9993C41.6577 32.9993 40.9854 33.6711 40.9854 34.4997C40.9854 35.3283 41.6577 36 42.4872 36Z" fill="#0050A6"/>
<path d="M47.9996 18.5015C47.9994 19.787 47.6175 21.0437 46.9024 22.1124C46.1873 23.1812 45.171 24.0141 43.982 24.5059C42.7931 24.9977 41.4849 25.1262 40.2228 24.8752C38.9607 24.6243 37.8014 24.0051 36.8916 23.096C35.9818 22.1869 35.3622 21.0286 35.1113 19.7678C34.8603 18.5069 34.9893 17.2 35.4818 16.0124C35.9743 14.8247 36.8082 13.8096 37.8782 13.0954C38.9482 12.3812 40.2061 12 41.493 12C43.2182 12.0021 44.8722 12.6878 46.092 13.9066C47.3118 15.1255 47.9979 16.778 47.9996 18.5015ZM44.9959 18.5015C44.9959 18.2361 44.8905 17.9815 44.7028 17.7937C44.515 17.6059 44.2604 17.5003 43.9947 17.4999H42.4929V15.9942C42.4929 15.8629 42.467 15.7328 42.4167 15.6115C42.3663 15.4901 42.2926 15.3798 42.1996 15.287C42.1066 15.1941 41.9963 15.1204 41.8748 15.0702C41.7533 15.0199 41.6231 14.994 41.4917 14.994C41.3602 14.994 41.23 15.0199 41.1085 15.0702C40.987 15.1204 40.8766 15.1941 40.7837 15.287C40.6907 15.3798 40.6169 15.4901 40.5666 15.6115C40.5163 15.7328 40.4904 15.8629 40.4904 15.9942V17.4946H38.9886C38.723 17.4946 38.4684 17.6 38.2806 17.7875C38.0928 17.9751 37.9874 18.2295 37.9874 18.4948C37.9874 18.7601 38.0928 19.0145 38.2806 19.2021C38.4684 19.3897 38.723 19.495 38.9886 19.495H40.4904V20.9954C40.5037 21.2517 40.6149 21.4932 40.8013 21.67C40.9876 21.8467 41.2347 21.9453 41.4917 21.9453C41.7486 21.9453 41.9957 21.8467 42.182 21.67C42.3683 21.4932 42.4796 21.2517 42.4929 20.9954V19.495H43.9947C44.26 19.4947 44.5143 19.3891 44.7018 19.2016C44.8893 19.0141 44.9946 18.7599 44.9946 18.4948L44.9959 18.5015Z" fill="#0050A6"/>
<path d="M32.9777 18.5017C32.9777 18.331 32.9924 18.1683 33.0031 18.0016H30.3329L29.9523 16.1945C29.8203 15.5803 29.4826 15.0295 28.9949 14.6329C28.5073 14.2362 27.8989 14.0175 27.2701 14.0127L24.72 14.0007C24.5263 14.0088 24.3433 14.0914 24.2091 14.2312C24.0749 14.371 24 14.5572 24 14.7508C24 14.9445 24.0749 15.1307 24.2091 15.2705C24.3433 15.4102 24.5263 15.4929 24.72 15.501L27.2714 15.5103C27.557 15.5135 27.8331 15.6133 28.0546 15.7936C28.276 15.9738 28.4296 16.2238 28.4904 16.5026L28.9964 18.9031L30.8081 27.4997H30.2314C29.6433 27.514 29.0842 27.7575 28.6734 28.178C28.2625 28.5985 28.0326 29.1627 28.0326 29.7503C28.0326 30.3378 28.2625 30.9021 28.6734 31.3226C29.0842 31.7431 29.6433 31.9865 30.2314 32.0008H45.2515C45.3528 32.005 45.4539 31.9888 45.5487 31.953C45.6435 31.9173 45.7302 31.8627 45.8033 31.7926C45.8765 31.7225 45.9347 31.6384 45.9745 31.5453C46.0143 31.4521 46.0348 31.3519 46.0348 31.2506C46.0348 31.1493 46.0143 31.0491 45.9745 30.956C45.9347 30.8628 45.8765 30.7787 45.8033 30.7086C45.7302 30.6386 45.6435 30.584 45.5487 30.5482C45.4539 30.5124 45.3528 30.4962 45.2515 30.5004H30.2314C30.0377 30.4923 29.8546 30.4097 29.7205 30.2699C29.5863 30.1301 29.5114 29.9439 29.5114 29.7503C29.5114 29.5566 29.5863 29.3704 29.7205 29.2306C29.8546 29.0909 30.0377 29.0082 30.2314 29.0001H45.2515C45.4236 29.0001 45.5905 28.9411 45.7242 28.8328C45.8579 28.7245 45.9503 28.5735 45.9858 28.4053L46.6534 25.2472C45.3948 26.2134 43.8903 26.8079 42.3107 26.9632C40.7311 27.1186 39.1394 26.8287 37.7164 26.1263C36.2933 25.424 35.0958 24.3374 34.2597 22.9897C33.4235 21.642 32.9822 20.0872 32.9857 18.5017H32.9777Z" fill="#0050A6"/>
<path d="M59.1714 20.7695H56.3823V18.9785H63.8608V20.7695H61.0718V29H59.1714V20.7695ZM65.1323 18.9785H66.9644V21.5078L66.8413 22.752H66.9644C67.1649 22.4147 67.4611 22.1458 67.853 21.9453C68.2541 21.7357 68.6779 21.6309 69.1245 21.6309C69.9904 21.6309 70.6558 21.8906 71.1206 22.4102C71.5854 22.9297 71.8179 23.6452 71.8179 24.5566V29H69.9858V24.7891C69.9858 24.3242 69.8628 23.9688 69.6167 23.7227C69.3615 23.4674 69.0334 23.3398 68.6323 23.3398C68.1401 23.3398 67.7391 23.5358 67.4292 23.9277C67.1193 24.3197 66.9644 24.8027 66.9644 25.377V29H65.1323V18.9785ZM74.9761 28.7402C74.411 28.4212 73.9644 27.9701 73.6362 27.3867C73.3172 26.8307 73.1577 26.1836 73.1577 25.4453C73.1577 24.7708 73.3172 24.1374 73.6362 23.5449C73.9461 22.9525 74.3836 22.4876 74.9487 22.1504C75.5138 21.804 76.1382 21.6309 76.8218 21.6309C77.5509 21.6309 78.1844 21.7904 78.7222 22.1094C79.2599 22.4284 79.6655 22.8613 79.939 23.4082C80.2124 23.9551 80.3491 24.5703 80.3491 25.2539C80.3491 25.4727 80.3354 25.6777 80.3081 25.8691H74.9487C75.0399 26.416 75.2677 26.8444 75.6323 27.1543C75.9878 27.4551 76.4162 27.6055 76.9175 27.6055C77.3368 27.6055 77.7013 27.5143 78.0112 27.332C78.3029 27.1589 78.5399 26.9128 78.7222 26.5938L80.2124 27.3184C79.4924 28.5853 78.3849 29.2188 76.8901 29.2188C76.1701 29.2188 75.5321 29.0592 74.9761 28.7402ZM78.5854 24.5566C78.5672 24.3379 78.4852 24.1191 78.3394 23.9004C78.1844 23.6816 77.9839 23.4993 77.7378 23.3535C77.4826 23.2077 77.1818 23.1348 76.8354 23.1348C76.3979 23.1348 76.0243 23.2624 75.7144 23.5176C75.3953 23.7819 75.1675 24.1283 75.0308 24.5566H78.5854ZM74.4155 20.4551L76.0151 18.6914H77.6011L79.2007 20.4551V20.5781H77.4507L76.8901 19.7578H76.7261L76.1655 20.5781H74.4155V20.4551ZM81.771 21.8633H83.48V22.752H83.603C83.8218 22.4147 84.1226 22.1413 84.5054 21.9316C84.8791 21.7311 85.2983 21.6309 85.7632 21.6309C86.2736 21.6309 86.7157 21.7493 87.0894 21.9863C87.4448 22.2142 87.7091 22.5195 87.8823 22.9023C88.1284 22.5195 88.4474 22.2142 88.8394 21.9863C89.2586 21.7493 89.7371 21.6309 90.2749 21.6309C91.0952 21.6309 91.715 21.8815 92.1343 22.3828C92.5535 22.8841 92.7632 23.5586 92.7632 24.4062V29H90.9448V24.748C90.9448 24.3105 90.84 23.9642 90.6304 23.709C90.4299 23.4629 90.1382 23.3398 89.7554 23.3398C89.2814 23.3398 88.9032 23.5312 88.6206 23.9141C88.3381 24.2878 88.1968 24.7845 88.1968 25.4043V29H86.3511V24.748C86.3511 24.3014 86.2417 23.9551 86.0229 23.709C85.8042 23.4629 85.4943 23.3398 85.0933 23.3398C84.6466 23.3398 84.2866 23.5312 84.0132 23.9141C83.7397 24.2969 83.603 24.7936 83.603 25.4043V29H81.771V21.8633ZM96.9741 21.8633H99.0659L100.871 26.5117H100.98L102.812 21.8633H104.876L101.814 29H99.9956L96.9741 21.8633ZM107.898 29.2188C107.141 29.2188 106.522 29 106.039 28.5625C105.556 28.125 105.314 27.5417 105.314 26.8125C105.314 26.3385 105.437 25.9193 105.683 25.5547C105.92 25.1992 106.266 24.9212 106.722 24.7207C107.178 24.5202 107.666 24.4199 108.185 24.4199C108.923 24.4199 109.552 24.5293 110.072 24.748V24.4336C110.072 24.0417 109.926 23.7272 109.634 23.4902C109.333 23.2441 108.937 23.1211 108.445 23.1211C108.126 23.1211 107.802 23.1986 107.474 23.3535C107.164 23.4993 106.904 23.6999 106.695 23.9551L105.519 23.0391C105.856 22.6016 106.289 22.2552 106.818 22C107.337 21.7539 107.907 21.6309 108.527 21.6309C109.611 21.6309 110.445 21.8861 111.029 22.3965C111.594 22.8978 111.876 23.6315 111.876 24.5977V29H110.072V28.2754H109.962C109.735 28.5671 109.452 28.7949 109.115 28.959C108.768 29.1322 108.363 29.2188 107.898 29.2188ZM108.335 27.7969C108.873 27.7969 109.297 27.6283 109.607 27.291C109.917 26.9538 110.072 26.5527 110.072 26.0879C109.57 25.86 109.069 25.7461 108.568 25.7461C107.62 25.7461 107.146 26.1016 107.146 26.8125C107.146 27.1042 107.251 27.3411 107.46 27.5234C107.67 27.7057 107.962 27.7969 108.335 27.7969ZM106.585 18.582H108.732L109.32 20.4824H107.83L106.585 18.582ZM116.908 29.2188C116.169 29.2188 115.513 29.0547 114.939 28.7266C114.365 28.3984 113.914 27.9473 113.585 27.373C113.266 26.8171 113.107 26.1699 113.107 25.4316C113.107 24.7025 113.266 24.0599 113.585 23.5039C113.923 22.9206 114.374 22.4648 114.939 22.1367C115.531 21.7995 116.188 21.6309 116.908 21.6309C117.628 21.6309 118.284 21.7995 118.876 22.1367C119.442 22.4648 119.893 22.9206 120.23 23.5039C120.549 24.0599 120.708 24.7025 120.708 25.4316C120.708 26.1699 120.549 26.8171 120.23 27.373C119.902 27.9473 119.451 28.3984 118.876 28.7266C118.302 29.0547 117.646 29.2188 116.908 29.2188ZM117.892 27.2773C118.184 27.1224 118.421 26.8809 118.603 26.5527C118.785 26.2337 118.876 25.86 118.876 25.4316C118.876 25.0124 118.785 24.6432 118.603 24.3242C118.421 23.9961 118.184 23.7546 117.892 23.5996C117.573 23.4264 117.245 23.3398 116.908 23.3398C116.58 23.3398 116.256 23.4264 115.937 23.5996C115.636 23.7637 115.395 24.0052 115.212 24.3242C115.03 24.6432 114.939 25.0124 114.939 25.4316C114.939 25.8327 115.03 26.2018 115.212 26.5391C115.386 26.8672 115.627 27.1133 115.937 27.2773C116.238 27.4414 116.561 27.5234 116.908 27.5234C117.263 27.5234 117.591 27.4414 117.892 27.2773ZM128.652 32.2539C127.75 32.2539 126.998 32.0488 126.396 31.6387C125.794 31.2285 125.393 30.7409 125.193 30.1758L126.916 29.4785C127.07 29.834 127.298 30.112 127.599 30.3125C127.918 30.5221 128.269 30.627 128.652 30.627C129.235 30.627 129.695 30.4492 130.033 30.0938C130.37 29.7474 130.539 29.2415 130.539 28.5762V28.0156H130.429C130.192 28.3529 129.901 28.599 129.554 28.7539C129.19 28.918 128.775 29 128.31 29C127.718 29 127.166 28.8496 126.656 28.5488C126.164 28.2572 125.758 27.8288 125.439 27.2637C125.129 26.7077 124.974 26.0605 124.974 25.3223C124.974 24.584 125.129 23.9368 125.439 23.3809C125.758 22.8158 126.164 22.3874 126.656 22.0957C127.175 21.7858 127.727 21.6309 128.31 21.6309C128.748 21.6309 129.162 21.7174 129.554 21.8906C129.91 22.0456 130.201 22.2871 130.429 22.6152H130.539V21.8633H132.302V28.5078C132.302 29.2917 132.156 29.957 131.865 30.5039C131.573 31.0508 131.145 31.4792 130.58 31.7891C130.014 32.099 129.372 32.2539 128.652 32.2539ZM128.679 27.332C129.19 27.332 129.627 27.1543 129.992 26.7988C130.356 26.4434 130.539 25.9512 130.539 25.3223C130.539 24.6842 130.361 24.1875 130.005 23.832C129.65 23.4766 129.208 23.2988 128.679 23.2988C128.169 23.2988 127.727 23.4766 127.353 23.832C126.988 24.1875 126.806 24.6842 126.806 25.3223C126.806 25.9512 126.988 26.4434 127.353 26.7988C127.727 27.1543 128.169 27.332 128.679 27.332ZM134.285 20.7285C134.048 20.4915 133.929 20.209 133.929 19.8809C133.929 19.5618 134.048 19.2839 134.285 19.0469C134.513 18.819 134.791 18.7051 135.119 18.7051C135.447 18.7051 135.725 18.819 135.953 19.0469C136.181 19.2747 136.294 19.5527 136.294 19.8809C136.294 20.2181 136.181 20.5007 135.953 20.7285C135.725 20.9564 135.447 21.0703 135.119 21.0703C134.791 21.0703 134.513 20.9564 134.285 20.7285ZM134.203 21.8633H136.035V29H134.203V21.8633ZM141.339 29.2188C140.601 29.2188 139.945 29.0547 139.371 28.7266C138.796 28.3984 138.345 27.9473 138.017 27.373C137.698 26.8171 137.539 26.1699 137.539 25.4316C137.539 24.7025 137.698 24.0599 138.017 23.5039C138.354 22.9206 138.806 22.4648 139.371 22.1367C139.963 21.7995 140.619 21.6309 141.339 21.6309C142.059 21.6309 142.716 21.7995 143.308 22.1367C143.873 22.4648 144.324 22.9206 144.662 23.5039C144.981 24.0599 145.14 24.7025 145.14 25.4316C145.14 26.1699 144.981 26.8171 144.662 27.373C144.333 27.9473 143.882 28.3984 143.308 28.7266C142.734 29.0547 142.078 29.2188 141.339 29.2188ZM142.324 27.2773C142.615 27.1224 142.852 26.8809 143.035 26.5527C143.217 26.2337 143.308 25.86 143.308 25.4316C143.308 25.0124 143.217 24.6432 143.035 24.3242C142.852 23.9961 142.615 23.7546 142.324 23.5996C142.005 23.4264 141.677 23.3398 141.339 23.3398C141.011 23.3398 140.688 23.4264 140.369 23.5996C140.068 23.7637 139.826 24.0052 139.644 24.3242C139.462 24.6432 139.371 25.0124 139.371 25.4316C139.371 25.8327 139.462 26.2018 139.644 26.5391C139.817 26.8672 140.059 27.1133 140.369 27.2773C140.669 27.4414 140.993 27.5234 141.339 27.5234C141.695 27.5234 142.023 27.4414 142.324 27.2773ZM140.642 20.1543C141.098 19.9902 141.326 19.7852 141.326 19.5391C141.326 19.293 141.148 19.1699 140.792 19.1699C140.546 19.1699 140.328 19.2155 140.136 19.3066L139.808 18.4043C140.355 18.2402 140.761 18.1582 141.025 18.1582C141.517 18.1582 141.895 18.2676 142.16 18.4863C142.415 18.7051 142.542 19.0241 142.542 19.4434C142.542 19.8991 142.41 20.2546 142.146 20.5098C141.863 20.7832 141.472 20.9518 140.97 21.0156L140.642 20.1543ZM149.802 18.9785H151.634V21.5078L151.511 22.752H151.634C151.835 22.4147 152.131 22.1458 152.523 21.9453C152.924 21.7357 153.348 21.6309 153.794 21.6309C154.66 21.6309 155.326 21.8906 155.791 22.4102C156.255 22.9297 156.488 23.6452 156.488 24.5566V29H154.656V24.7891C154.656 24.3242 154.533 23.9688 154.287 23.7227C154.031 23.4674 153.703 23.3398 153.302 23.3398C152.81 23.3398 152.409 23.5358 152.099 23.9277C151.789 24.3197 151.634 24.8027 151.634 25.377V29H149.802V18.9785ZM160.33 29.2188C159.573 29.2188 158.953 29 158.47 28.5625C157.987 28.125 157.746 27.5417 157.746 26.8125C157.746 26.3385 157.869 25.9193 158.115 25.5547C158.352 25.1992 158.698 24.9212 159.154 24.7207C159.61 24.5202 160.097 24.4199 160.617 24.4199C161.355 24.4199 161.984 24.5293 162.503 24.748V24.4336C162.503 24.0417 162.358 23.7272 162.066 23.4902C161.765 23.2441 161.369 23.1211 160.876 23.1211C160.557 23.1211 160.234 23.1986 159.906 23.3535C159.596 23.4993 159.336 23.6999 159.126 23.9551L157.951 23.0391C158.288 22.6016 158.721 22.2552 159.25 22C159.769 21.7539 160.339 21.6309 160.958 21.6309C162.043 21.6309 162.877 21.8861 163.46 22.3965C164.026 22.8978 164.308 23.6315 164.308 24.5977V29H162.503V28.2754H162.394C162.166 28.5671 161.884 28.7949 161.546 28.959C161.2 29.1322 160.794 29.2188 160.33 29.2188ZM160.767 27.7969C161.305 27.7969 161.729 27.6283 162.039 27.291C162.348 26.9538 162.503 26.5527 162.503 26.0879C162.002 25.86 161.501 25.7461 161 25.7461C160.052 25.7461 159.578 26.1016 159.578 26.8125C159.578 27.1042 159.682 27.3411 159.892 27.5234C160.102 27.7057 160.393 27.7969 160.767 27.7969ZM159.017 18.582H161.164L161.751 20.4824H160.261L159.017 18.582ZM166.003 21.8633H167.712V22.752H167.835C168.063 22.3965 168.364 22.123 168.738 21.9316C169.13 21.7311 169.554 21.6309 170.009 21.6309C170.866 21.6309 171.522 21.8952 171.978 22.4238C172.425 22.9342 172.648 23.6452 172.648 24.5566V29H170.816V24.7891C170.816 24.3333 170.697 23.9779 170.46 23.7227C170.223 23.4674 169.9 23.3398 169.49 23.3398C168.988 23.3398 168.587 23.5312 168.287 23.9141C167.986 24.2969 167.835 24.7799 167.835 25.3633V29H166.003V21.8633ZM177.597 32.2539C176.695 32.2539 175.943 32.0488 175.341 31.6387C174.74 31.2285 174.339 30.7409 174.138 30.1758L175.861 29.4785C176.016 29.834 176.244 30.112 176.544 30.3125C176.863 30.5221 177.214 30.627 177.597 30.627C178.181 30.627 178.641 30.4492 178.978 30.0938C179.315 29.7474 179.484 29.2415 179.484 28.5762V28.0156H179.375C179.138 28.3529 178.846 28.599 178.5 28.7539C178.135 28.918 177.72 29 177.255 29C176.663 29 176.111 28.8496 175.601 28.5488C175.109 28.2572 174.703 27.8288 174.384 27.2637C174.074 26.7077 173.919 26.0605 173.919 25.3223C173.919 24.584 174.074 23.9368 174.384 23.3809C174.703 22.8158 175.109 22.3874 175.601 22.0957C176.121 21.7858 176.672 21.6309 177.255 21.6309C177.693 21.6309 178.108 21.7174 178.5 21.8906C178.855 22.0456 179.147 22.2871 179.375 22.6152H179.484V21.8633H181.248V28.5078C181.248 29.2917 181.102 29.957 180.81 30.5039C180.518 31.0508 180.09 31.4792 179.525 31.7891C178.96 32.099 178.317 32.2539 177.597 32.2539ZM177.625 27.332C178.135 27.332 178.572 27.1543 178.937 26.7988C179.302 26.4434 179.484 25.9512 179.484 25.3223C179.484 24.6842 179.306 24.1875 178.951 23.832C178.595 23.4766 178.153 23.2988 177.625 23.2988C177.114 23.2988 176.672 23.4766 176.298 23.832C175.934 24.1875 175.751 24.6842 175.751 25.3223C175.751 25.9512 175.934 26.4434 176.298 26.7988C176.672 27.1543 177.114 27.332 177.625 27.332Z" fill="#0050A6"/>
</svg>
