<svg width="40" height="40" viewBox="0 0 40 40" fill="none" xmlns="http://www.w3.org/2000/svg">
<rect width="40" height="40" rx="4" fill="#DFE3E9"/>
<path d="M18.8595 29.0001C19.4816 29.0001 19.9859 28.4963 19.9859 27.8748C19.9859 27.2534 19.4816 26.7496 18.8595 26.7496C18.2375 26.7496 17.7332 27.2534 17.7332 27.8748C17.7332 28.4963 18.2375 29.0001 18.8595 29.0001Z" fill="#4D5B72"/>
<path d="M24.8654 29.0001C25.4875 29.0001 25.9918 28.4963 25.9918 27.8748C25.9918 27.2534 25.4875 26.7496 24.8654 26.7496C24.2433 26.7496 23.739 27.2534 23.739 27.8748C23.739 28.4963 24.2433 29.0001 24.8654 29.0001Z" fill="#4D5B72"/>
<path d="M28.9997 15.8761C28.9995 16.8403 28.7131 17.7827 28.1768 18.5843C27.6405 19.3859 26.8782 20.0106 25.9865 20.3794C25.0948 20.7482 24.1136 20.8446 23.1671 20.6564C22.2205 20.4682 21.3511 20.0038 20.6687 19.322C19.9863 18.6401 19.5217 17.7715 19.3334 16.8258C19.1452 15.8802 19.2419 14.9 19.6113 14.0093C19.9807 13.1185 20.6062 12.3572 21.4087 11.8215C22.2111 11.2859 23.1546 11 24.1197 11C25.4137 11.0016 26.6541 11.5159 27.569 12.43C28.4839 13.3441 28.9984 14.5835 28.9997 15.8761ZM26.747 15.8761C26.747 15.6771 26.6679 15.4861 26.5271 15.3453C26.3863 15.2045 26.1953 15.1252 25.996 15.1249H24.8697V13.9957C24.8697 13.8972 24.8502 13.7996 24.8125 13.7086C24.7748 13.6176 24.7194 13.5349 24.6497 13.4652C24.58 13.3956 24.4972 13.3403 24.4061 13.3026C24.315 13.2649 24.2174 13.2455 24.1187 13.2455C24.0201 13.2455 23.9225 13.2649 23.8314 13.3026C23.7403 13.3403 23.6575 13.3956 23.5878 13.4652C23.518 13.5349 23.4627 13.6176 23.425 13.7086C23.3872 13.7996 23.3678 13.8972 23.3678 13.9957V15.1209H22.2414C22.0423 15.1209 21.8513 15.2 21.7105 15.3407C21.5696 15.4813 21.4905 15.6722 21.4905 15.8711C21.4905 16.0701 21.5696 16.2609 21.7105 16.4016C21.8513 16.5423 22.0423 16.6213 22.2414 16.6213H23.3678V17.7465C23.3778 17.9388 23.4612 18.1199 23.6009 18.2525C23.7407 18.3851 23.926 18.459 24.1187 18.459C24.3114 18.459 24.4968 18.3851 24.6365 18.2525C24.7763 18.1199 24.8597 17.9388 24.8697 17.7465V16.6213H25.996C26.195 16.621 26.3858 16.5419 26.5264 16.4012C26.667 16.2605 26.746 16.0699 26.746 15.8711L26.747 15.8761Z" fill="#4D5B72"/>
<path d="M17.7333 15.8763C17.7333 15.7482 17.7443 15.6262 17.7523 15.5012H15.7496L15.4643 14.1459C15.3652 13.6852 15.1119 13.2721 14.7462 12.9747C14.3805 12.6772 13.9242 12.5131 13.4526 12.5095L11.54 12.5005C11.3947 12.5066 11.2574 12.5686 11.1568 12.6734C11.0562 12.7783 11 12.9179 11 13.0631C11 13.2084 11.0562 13.348 11.1568 13.4528C11.2574 13.5577 11.3947 13.6196 11.54 13.6257L13.4536 13.6327C13.6678 13.6351 13.8749 13.71 14.0409 13.8452C14.207 13.9803 14.3222 14.1678 14.3678 14.3769L14.7473 16.1773L16.1061 22.6248H15.6735C15.2325 22.6355 14.8132 22.8181 14.505 23.1335C14.1969 23.4488 14.0244 23.872 14.0244 24.3127C14.0244 24.7534 14.1969 25.1766 14.505 25.4919C14.8132 25.8073 15.2325 25.9898 15.6735 26.0006H26.9386C27.0146 26.0038 27.0904 25.9916 27.1615 25.9648C27.2327 25.9379 27.2976 25.897 27.3525 25.8444C27.4074 25.7919 27.4511 25.7288 27.4809 25.6589C27.5107 25.5891 27.5261 25.5139 27.5261 25.4379C27.5261 25.362 27.5107 25.2868 27.4809 25.217C27.4511 25.1471 27.4074 25.084 27.3525 25.0315C27.2976 24.9789 27.2327 24.938 27.1615 24.9111C27.0904 24.8843 27.0146 24.8721 26.9386 24.8753H15.6735C15.5283 24.8692 15.391 24.8073 15.2903 24.7024C15.1897 24.5976 15.1335 24.4579 15.1335 24.3127C15.1335 24.1674 15.1897 24.0278 15.2903 23.923C15.391 23.8181 15.5283 23.7562 15.6735 23.75H26.9386C27.0677 23.7501 27.1929 23.7058 27.2932 23.6246C27.3934 23.5433 27.4627 23.4301 27.4893 23.304L27.99 20.9354C27.0461 21.66 25.9178 22.1059 24.733 22.2224C23.5483 22.339 22.3546 22.1215 21.2873 21.5947C20.22 21.068 19.3219 20.253 18.6947 19.2422C18.0676 18.2315 17.7366 17.0654 17.7393 15.8763H17.7333Z" fill="#4D5B72"/>
</svg>
