<svg width="32" height="32" viewBox="0 0 32 32" fill="none" xmlns="http://www.w3.org/2000/svg">
<path d="M16 32C24.8366 32 32 24.8366 32 16C32 7.16344 24.8366 0 16 0C7.16344 0 0 7.16344 0 16C0 24.8366 7.16344 32 16 32Z" fill="#EAF0F7"/>
<path d="M21.8598 21.1533L18.8777 18.1713C19.6904 17.1774 20.0899 15.9092 19.9937 14.629C19.8975 13.3488 19.313 12.1545 18.3609 11.2932C17.4089 10.4319 16.1622 9.96948 14.8788 10.0016C13.5954 10.0337 12.3734 10.5578 11.4656 11.4656C10.5578 12.3734 10.0337 13.5954 10.0016 14.8788C9.96948 16.1622 10.4319 17.4089 11.2932 18.3609C12.1545 19.313 13.3488 19.8975 14.629 19.9937C15.9092 20.0899 17.1774 19.6904 18.1713 18.8777L21.1533 21.8598C21.2476 21.9508 21.3738 22.0011 21.5048 22C21.6357 21.9988 21.761 21.9463 21.8537 21.8537C21.9463 21.761 21.9988 21.6357 22 21.5048C22.0011 21.3738 21.9508 21.2476 21.8598 21.1533ZM15.0119 19.0086C14.2214 19.0086 13.4487 18.7742 12.7914 18.335C12.1342 17.8959 11.6219 17.2717 11.3194 16.5414C11.0169 15.8111 10.9378 15.0075 11.092 14.2322C11.2462 13.4569 11.6268 12.7447 12.1858 12.1858C12.7447 11.6268 13.4569 11.2462 14.2322 11.092C15.0075 10.9378 15.8111 11.0169 16.5414 11.3194C17.2717 11.6219 17.8959 12.1342 18.335 12.7914C18.7742 13.4487 19.0086 14.2214 19.0086 15.0119C19.0074 16.0715 18.5859 17.0874 17.8367 17.8367C17.0874 18.5859 16.0715 19.0074 15.0119 19.0086Z" fill="#71829E"/>
</svg>
