<svg width="22" height="21" viewBox="0 0 22 21" fill="none" xmlns="http://www.w3.org/2000/svg">
<path d="M17.4167 4.13229H15.4917C15.2789 3.10745 14.716 2.1866 13.8978 1.52496C13.0796 0.863311 12.0562 0.501321 11 0.5H4.58333C3.3682 0.501442 2.20326 0.980263 1.34403 1.83143C0.484808 2.6826 0.00145554 3.83662 0 5.04036L0 13.213C0.00230432 14.0263 0.280076 14.8153 0.788825 15.4536C1.29757 16.092 2.00786 16.5427 2.80592 16.7336C2.71953 17.188 2.7343 17.6557 2.84918 18.1039C2.96405 18.5521 3.17628 18.9701 3.47105 19.3287C3.76581 19.6872 4.13602 19.9778 4.55582 20.18C4.97563 20.3822 5.43492 20.4913 5.90166 20.4995C6.36839 20.5077 6.83131 20.415 7.25813 20.2277C7.68494 20.0404 8.06536 19.7632 8.37284 19.4152C8.68032 19.0673 8.90745 18.6571 9.03839 18.2132C9.16932 17.7693 9.2009 17.3025 9.13092 16.8453H12.8728C12.8492 16.9955 12.8366 17.1473 12.8352 17.2993C12.8352 18.1423 13.1732 18.9507 13.7749 19.5467C14.3765 20.1427 15.1926 20.4776 16.0435 20.4776C16.8944 20.4776 17.7105 20.1427 18.3121 19.5467C18.9138 18.9507 19.2518 18.1423 19.2518 17.2993C19.2508 17.1095 19.2321 16.9201 19.1959 16.7336C19.9936 16.5423 20.7035 16.0915 21.2119 15.4532C21.7203 14.8149 21.9978 14.0261 22 13.213V8.67265C21.9985 7.46891 21.5152 6.31489 20.656 5.46372C19.7967 4.61255 18.6318 4.13373 17.4167 4.13229ZM20.1667 8.67265V9.58072H15.5833V5.94843H17.4167C18.146 5.94843 18.8455 6.23545 19.3612 6.74634C19.8769 7.25723 20.1667 7.95014 20.1667 8.67265ZM1.83333 13.213V5.04036C1.83333 4.31785 2.12306 3.62494 2.63879 3.11405C3.15451 2.60316 3.85399 2.31614 4.58333 2.31614H11C11.7293 2.31614 12.4288 2.60316 12.9445 3.11405C13.4603 3.62494 13.75 4.31785 13.75 5.04036V15.0292H3.66667C3.18044 15.0292 2.71412 14.8378 2.3703 14.4972C2.02649 14.1566 1.83333 13.6947 1.83333 13.213ZM7.33333 17.2993C7.33333 17.6606 7.18847 18.007 6.93061 18.2625C6.67274 18.5179 6.32301 18.6614 5.95833 18.6614C5.59366 18.6614 5.24392 18.5179 4.98606 18.2625C4.7282 18.007 4.58333 17.6606 4.58333 17.2993C4.5839 17.1441 4.61278 16.9903 4.66858 16.8453H7.24808C7.30389 16.9903 7.33277 17.1441 7.33333 17.2993ZM16.0417 18.6614C15.677 18.6614 15.3273 18.5179 15.0694 18.2625C14.8115 18.007 14.6667 17.6606 14.6667 17.2993C14.6671 17.1441 14.696 16.9903 14.7519 16.8453H17.3314C17.3874 16.9903 17.4163 17.1441 17.4167 17.2993C17.4167 17.6606 17.2718 18.007 17.0139 18.2625C16.7561 18.5179 16.4063 18.6614 16.0417 18.6614ZM18.3333 15.0292H15.5833V11.3969H20.1667V13.213C20.1667 13.6947 19.9735 14.1566 19.6297 14.4972C19.2859 14.8378 18.8196 15.0292 18.3333 15.0292Z" fill="#0B3558"/>
</svg>
