<svg width="32" height="32" viewBox="0 0 32 32" fill="none" xmlns="http://www.w3.org/2000/svg">
<path d="M16 32C24.8366 32 32 24.8366 32 16C32 7.16344 24.8366 0 16 0C7.16344 0 0 7.16344 0 16C0 24.8366 7.16344 32 16 32Z" fill="#71829E"/>
<path d="M20.7385 10.8249C19.3515 9.57989 17.2817 9.78989 16.0014 11.1849L15.5036 11.7324L15.0057 11.1849C13.9601 10.0524 11.869 9.37738 10.2615 10.8249C8.66828 12.2574 8.58293 14.8374 10.0126 16.3899L14.9274 21.745C15.0768 21.91 15.2902 22 15.4964 22C15.7027 22 15.9161 21.9175 16.0726 21.7375L20.9874 16.3824C22.4171 14.8374 22.3317 12.2574 20.7385 10.8249ZM20.4042 15.7899L15.5036 21.145L10.5887 15.7899C9.61427 14.7324 9.41511 12.7074 10.7879 11.4774C12.1819 10.2249 13.8179 11.1324 14.4153 11.7849L15.5036 12.9699L16.5918 11.7849C17.1821 11.1399 18.8323 10.2324 20.2193 11.4774C21.5849 12.7074 21.3786 14.7324 20.4042 15.7899Z" fill="white" stroke="white" stroke-width="0.3"/>
</svg>
