<svg width="22" height="23" viewBox="0 0 22 23" fill="none" xmlns="http://www.w3.org/2000/svg">
<path d="M5 3.5H17C19.2091 3.5 21 5.29086 21 7.5V12.5C21 14.7091 19.2091 16.5 17 16.5H9C6.79086 16.5 5 14.7091 5 12.5V3.5ZM5 3.5C5 2.39543 4.10457 1.5 3 1.5H1" stroke="#0B3558" stroke-width="2" stroke-linecap="round" stroke-linejoin="round"/>
<path d="M10 20C10 20.8284 9.32843 21.5 8.5 21.5C7.67157 21.5 7 20.8284 7 20C7 19.1716 7.67157 18.5 8.5 18.5C9.32843 18.5 10 19.1716 10 20Z" stroke="#0B3558" stroke-width="2"/>
<path d="M19 20C19 20.8284 18.3284 21.5 17.5 21.5C16.6716 21.5 16 20.8284 16 20C16 19.1716 16.6716 18.5 17.5 18.5C18.3284 18.5 19 19.1716 19 20Z" stroke="#0B3558" stroke-width="2"/>
<path d="M10 8H16" stroke="#0B3558" stroke-width="2" stroke-linecap="round" stroke-linejoin="round"/>
<path d="M10 12H16" stroke="#0B3558" stroke-width="2" stroke-linecap="round" stroke-linejoin="round"/>
</svg>
