<svg width="32" height="32" viewBox="0 0 32 32" fill="none" xmlns="http://www.w3.org/2000/svg">
<g opacity="0.5">
<circle cx="16" cy="16" r="16" transform="matrix(-1 0 0 1 32 0)" fill="#D1D5DB"/>
<path d="M10.2858 15.9963C10.2898 15.5951 10.4628 15.2116 10.7674 14.9288L14.2695 11.6503C14.4224 11.5083 14.6293 11.4286 14.845 11.4286C15.0606 11.4286 15.2675 11.5083 15.4205 11.6503C15.497 11.7212 15.5577 11.8055 15.5992 11.8984C15.6406 11.9913 15.6619 12.091 15.6619 12.1916C15.6619 12.2923 15.6406 12.3919 15.5992 12.4849C15.5577 12.5778 15.497 12.6621 15.4205 12.733L12.7348 15.2338H20.898C21.1145 15.2338 21.3222 15.3142 21.4753 15.4571C21.6283 15.6001 21.7144 15.7941 21.7144 15.9963C21.7144 16.1985 21.6283 16.3924 21.4753 16.5354C21.3222 16.6784 21.1145 16.7587 20.898 16.7587H12.7348L15.4205 19.2672C15.5742 19.4098 15.661 19.6035 15.6617 19.8059C15.6625 20.0082 15.5772 20.2025 15.4246 20.3461C15.2719 20.4897 15.0645 20.5707 14.8479 20.5714C14.6312 20.5721 14.4232 20.4925 14.2695 20.3499L10.7674 17.0713C10.4608 16.7867 10.2876 16.4001 10.2858 15.9963Z" fill="#374957"/>
</g>
</svg>
