<svg width="32" height="32" viewBox="0 0 32 32" fill="none" xmlns="http://www.w3.org/2000/svg">
<g opacity="0.5">
<circle cx="16" cy="16" r="16" fill="#D1D5DB"/>
<path d="M21.7143 15.9963C21.7104 15.5951 21.5373 15.2116 21.2327 14.9288L17.7307 11.6503C17.5777 11.5083 17.3708 11.4286 17.1552 11.4286C16.9395 11.4286 16.7326 11.5083 16.5796 11.6503C16.5031 11.7212 16.4424 11.8055 16.401 11.8984C16.3595 11.9913 16.3382 12.091 16.3382 12.1916C16.3382 12.2923 16.3595 12.3919 16.401 12.4849C16.4424 12.5778 16.5031 12.6621 16.5796 12.733L19.2654 15.2338H11.1021C10.8856 15.2338 10.678 15.3142 10.5249 15.4571C10.3718 15.6001 10.2858 15.7941 10.2858 15.9963C10.2858 16.1985 10.3718 16.3924 10.5249 16.5354C10.678 16.6784 10.8856 16.7587 11.1021 16.7587H19.2654L16.5796 19.2672C16.4259 19.4098 16.3391 19.6035 16.3384 19.8059C16.3376 20.0082 16.4229 20.2025 16.5756 20.3461C16.7282 20.4897 16.9356 20.5707 17.1523 20.5714C17.3689 20.5721 17.5769 20.4925 17.7307 20.3499L21.2327 17.0713C21.5393 16.7867 21.7125 16.4001 21.7143 15.9963Z" fill="#374957"/>
</g>
</svg>
