<svg width="48" height="8" viewBox="0 0 48 8" fill="none" xmlns="http://www.w3.org/2000/svg">
<path d="M3.57272 0.280025L2.5965 2.34687L0.414352 2.68024C0.0187581 2.74024 -0.140755 3.24695 0.146369 3.53365L1.72236 5.14045L1.34591 7.41399C1.27572 7.82736 1.69046 8.13405 2.04139 7.9407L3.99384 6.86727L5.94628 7.9407C6.29083 8.13405 6.70556 7.82736 6.64176 7.41399L6.27169 5.14045L7.85406 3.53365C8.14119 3.24695 7.98167 2.74024 7.59246 2.68024L5.41032 2.34687L4.43409 0.280025C4.25544 -0.0933416 3.74499 -0.0933416 3.57272 0.280025Z" fill="#FFB703"/>
<path d="M13.5675 0.280025L12.5913 2.34687L10.4092 2.68024C10.02 2.74024 9.8605 3.24695 10.1476 3.53365L11.7299 5.14045L11.3535 7.41399C11.2833 7.82736 11.698 8.13405 12.049 7.9407L14.0013 6.86727L15.9537 7.9407C16.2982 8.13405 16.713 7.82736 16.6492 7.41399L16.2727 5.14045L17.855 3.53365C18.1422 3.24695 17.9826 2.74024 17.5935 2.68024L15.4114 2.34687L14.4352 0.280025C14.2502 -0.0933416 13.7397 -0.0933416 13.5675 0.280025Z" fill="#FFB703"/>
<path d="M23.5682 0.280025L22.592 2.34687L20.4099 2.68024C20.0207 2.74024 19.8612 3.24695 20.1483 3.53365L21.7307 5.14045L21.3542 7.41399C21.284 7.82736 21.6988 8.13405 22.0497 7.9407L24.0021 6.86727L25.9544 7.9407C26.299 8.13405 26.7137 7.82736 26.6499 7.41399L26.2735 5.14045L27.8558 3.53365C28.1429 3.24695 27.9834 2.74024 27.5942 2.68024L25.4121 2.34687L24.4359 0.280025C24.2509 -0.0933416 23.7405 -0.0933416 23.5682 0.280025Z" fill="#FFB703"/>
<path d="M33.5692 0.280025L32.593 2.34687L30.4109 2.68024C30.0217 2.74024 29.8622 3.24695 30.1493 3.53365L31.7316 5.14045L31.3552 7.41399C31.285 7.82736 31.6997 8.13405 32.0507 7.9407L34.003 6.86727L35.9554 7.9407C36.3 8.13405 36.7147 7.82736 36.6509 7.41399L36.2744 5.14045L37.8568 3.53365C38.1439 3.24695 37.9844 2.74024 37.5952 2.68024L35.4131 2.34687L34.4369 0.280025C34.2519 -0.0933416 33.7414 -0.0933416 33.5692 0.280025Z" fill="#FFB703"/>
<path d="M43.5699 0.280025L42.5937 2.34687L40.4117 2.68024C40.0225 2.74024 39.8629 3.24695 40.1501 3.53365L41.7324 5.14045L41.3559 7.41399C41.2858 7.82736 41.7005 8.13405 42.0514 7.9407L44.0038 6.86727L45.9561 7.9407C46.3007 8.13405 46.7154 7.82736 46.6516 7.41399L46.2752 5.14045L47.8575 3.53365C48.1446 3.24695 47.9851 2.74024 47.5959 2.68024L45.4138 2.34687L44.4376 0.280025C44.2526 -0.0933416 43.7422 -0.0933416 43.5699 0.280025Z" fill="#FFB703"/>
</svg>
