<svg width="84" height="14" viewBox="0 0 84 14" fill="none" xmlns="http://www.w3.org/2000/svg">
<path d="M6.25171 0.490043L4.54347 4.10703L0.725051 4.69041C0.0328238 4.79542 -0.2463 5.68217 0.256123 6.18388L3.01387 8.99579L2.35514 12.9745C2.23232 13.6979 2.95804 14.2346 3.57212 13.8962L6.9886 12.0177L10.4051 13.8962C11.008 14.2346 11.7337 13.6979 11.6221 12.9745L10.9745 8.99579L13.7434 6.18388C14.2458 5.68217 13.9667 4.79542 13.2856 4.69041L9.46722 4.10703L7.75898 0.490043C7.44636 -0.163348 6.55316 -0.163348 6.25171 0.490043Z" fill="#FFB703"/>
<path d="M23.7408 0.490043L22.0326 4.10703L18.2143 4.69041C17.5333 4.79542 17.2542 5.68217 17.7566 6.18388L20.5254 8.99579L19.8667 12.9745C19.7439 13.6979 20.4696 14.2346 21.0836 13.8962L24.5 12.0177L27.9164 13.8962C28.5192 14.2346 29.2449 13.6979 29.1333 12.9745L28.4746 8.99579L31.2434 6.18388C31.7458 5.68217 31.4667 4.79542 30.7857 4.69041L26.9674 4.10703L25.2592 0.490043C24.9354 -0.163348 24.0423 -0.163348 23.7408 0.490043Z" fill="#FFB704"/>
<path d="M41.2408 0.490043L39.5326 4.10703L35.7143 4.69041C35.0333 4.79542 34.7542 5.68217 35.2566 6.18388L38.0254 8.99579L37.3667 12.9745C37.2439 13.6979 37.9696 14.2346 38.5836 13.8962L42 12.0177L45.4164 13.8962C46.0192 14.2346 46.7449 13.6979 46.6333 12.9745L45.9746 8.99579L48.7434 6.18388C49.2458 5.68217 48.9667 4.79542 48.2857 4.69041L44.4674 4.10703L42.7592 0.490043C42.4354 -0.163348 41.5423 -0.163348 41.2408 0.490043Z" fill="#FFB703"/>
<path d="M58.7408 0.490043L57.0326 4.10703L53.2143 4.69041C52.5333 4.79542 52.2542 5.68217 52.7566 6.18388L55.5254 8.99579L54.8667 12.9745C54.7439 13.6979 55.4696 14.2346 56.0836 13.8962L59.5 12.0177L62.9164 13.8962C63.5192 14.2346 64.2449 13.6979 64.1333 12.9745L63.4746 8.99579L66.2434 6.18388C66.7458 5.68217 66.4667 4.79542 65.7857 4.69041L61.9674 4.10703L60.2592 0.490043C59.9354 -0.163348 59.0423 -0.163348 58.7408 0.490043Z" fill="#FFB703"/>
<path d="M76.2408 0.490043L74.5326 4.10703L70.7143 4.69041C70.0333 4.79542 69.7542 5.68217 70.2566 6.18388L73.0254 8.99579L72.3667 12.9745C72.2439 13.6979 72.9696 14.2346 73.5836 13.8962L77 12.0177L80.4164 13.8962C81.0192 14.2346 81.7449 13.6979 81.6333 12.9745L80.9746 8.99579L83.7434 6.18388C84.2458 5.68217 83.9667 4.79542 83.2857 4.69041L79.4674 4.10703L77.7592 0.490043C77.4354 -0.163348 76.5423 -0.163348 76.2408 0.490043Z" fill="#909EB4"/>
</svg>
