<svg width="20" height="22" viewBox="0 0 20 22" fill="none" xmlns="http://www.w3.org/2000/svg">
<path d="M13.8029 9.46154V4.84615C13.8029 3.82609 13.4023 2.84781 12.6892 2.12651C11.9761 1.40522 11.0089 1 10.0004 1C8.99196 1 8.02479 1.40522 7.31168 2.12651C6.59858 2.84781 6.19796 3.82609 6.19796 4.84615V9.46154M17.7129 7.41744L18.9936 19.7251C19.0646 20.4072 18.5373 21 17.8589 21H2.14197C1.98197 21.0002 1.82372 20.9663 1.67751 20.9006C1.53129 20.8349 1.40038 20.7388 1.29328 20.6185C1.18617 20.4983 1.10527 20.3566 1.05583 20.2027C1.00639 20.0488 0.98951 19.8861 1.00629 19.7251L2.28798 7.41744C2.31755 7.13391 2.44984 6.87149 2.65936 6.68078C2.86888 6.49006 3.14078 6.38456 3.42265 6.38462H16.5782C17.1623 6.38462 17.6521 6.83077 17.7129 7.41744ZM6.57821 9.46154C6.57821 9.56355 6.53814 9.66137 6.46683 9.7335C6.39552 9.80563 6.29881 9.84615 6.19796 9.84615C6.09711 9.84615 6.00039 9.80563 5.92908 9.7335C5.85777 9.66137 5.81771 9.56355 5.81771 9.46154C5.81771 9.35953 5.85777 9.2617 5.92908 9.18957C6.00039 9.11745 6.09711 9.07692 6.19796 9.07692C6.29881 9.07692 6.39552 9.11745 6.46683 9.18957C6.53814 9.2617 6.57821 9.35953 6.57821 9.46154ZM14.1832 9.46154C14.1832 9.56355 14.1431 9.66137 14.0718 9.7335C14.0005 9.80563 13.9038 9.84615 13.8029 9.84615C13.7021 9.84615 13.6054 9.80563 13.5341 9.7335C13.4627 9.66137 13.4227 9.56355 13.4227 9.46154C13.4227 9.35953 13.4627 9.2617 13.5341 9.18957C13.6054 9.11745 13.7021 9.07692 13.8029 9.07692C13.9038 9.07692 14.0005 9.11745 14.0718 9.18957C14.1431 9.2617 14.1832 9.35953 14.1832 9.46154Z" stroke="#A91116" stroke-width="1.8" stroke-linecap="round" stroke-linejoin="round"/>
</svg>
