<svg width="73" height="40" viewBox="0 0 73 40" fill="none" xmlns="http://www.w3.org/2000/svg">
<rect width="73" height="40" rx="4" fill="#A0ACBE"/>
<path d="M25.1211 14.9785H26.3105V19.2988H31.4648V14.9785H32.6543V25H31.4648V20.4336H26.3105V25H25.1211V14.9785ZM35.2656 24.4668C34.8099 23.9564 34.582 23.25 34.582 22.3477V17.8633H35.7715V22.1699C35.7715 22.8626 35.9264 23.3639 36.2363 23.6738C36.5553 23.9928 36.9701 24.1523 37.4805 24.1523C37.8815 24.1523 38.2415 24.043 38.5605 23.8242C38.8613 23.6146 39.1029 23.3366 39.2852 22.9902C39.4583 22.653 39.5449 22.2884 39.5449 21.8965V17.8633H40.7344V25H39.5996V23.9609H39.5449C39.3626 24.3073 39.0482 24.6081 38.6016 24.8633C38.1914 25.1003 37.7357 25.2188 37.2344 25.2188C36.3685 25.2188 35.7122 24.9681 35.2656 24.4668ZM37.084 16.2227C37.3665 16.1406 37.5716 16.0449 37.6992 15.9355C37.8268 15.8262 37.8906 15.6803 37.8906 15.498C37.8906 15.3431 37.8359 15.2155 37.7266 15.1152C37.6263 15.0241 37.4714 14.9785 37.2617 14.9785C37.0065 14.9785 36.7513 15.0332 36.4961 15.1426L36.25 14.3906C36.6055 14.2357 36.9792 14.1582 37.3711 14.1582C37.8359 14.1582 38.1914 14.2676 38.4375 14.4863C38.6927 14.7142 38.8203 15.0332 38.8203 15.4434C38.8203 15.8717 38.679 16.2135 38.3965 16.4688C38.1048 16.7331 37.7357 16.8971 37.2891 16.9609L37.084 16.2227ZM44.6719 24.5488L41.7188 17.8633H43.0039L45.2461 23.168H45.2734L47.4336 17.8633H48.7188L44.3164 28.0215H43.0859L44.6719 24.5488Z" fill="white"/>
</svg>
