<svg width="131" height="40" viewBox="0 0 131 40" fill="none" xmlns="http://www.w3.org/2000/svg">
<rect width="131" height="40" rx="8" fill="#0050A6"/>
<path d="M23.6367 19.8184L20.4512 14.9785H21.873L24.4023 18.8887H24.457L26.9727 14.9785H28.3809L25.1953 19.8184L28.5859 25H27.1777L24.457 20.8164H24.4023L21.6543 25H20.2461L23.6367 19.8184ZM30.5957 24.918C30.1764 24.7083 29.8574 24.4258 29.6387 24.0703C29.4199 23.7148 29.3105 23.3047 29.3105 22.8398C29.3105 22.0833 29.5931 21.4954 30.1582 21.0762C30.7415 20.6478 31.4616 20.4336 32.3184 20.4336C32.765 20.4336 33.166 20.4792 33.5215 20.5703C33.8861 20.6615 34.1641 20.7708 34.3555 20.8984V20.4609C34.3555 19.9414 34.1732 19.5176 33.8086 19.1895C33.444 18.8613 32.9701 18.6973 32.3867 18.6973C31.9948 18.6973 31.6302 18.7839 31.293 18.957C30.9375 19.1393 30.6686 19.3809 30.4863 19.6816L29.584 19.0117C29.8574 18.5924 30.2448 18.2552 30.7461 18C31.2383 17.7539 31.7852 17.6309 32.3867 17.6309C33.3529 17.6309 34.1139 17.8861 34.6699 18.3965C35.2168 18.8978 35.4902 19.5905 35.4902 20.4746V25H34.3555V23.9746H34.3008C34.0911 24.3301 33.7858 24.6263 33.3848 24.8633C32.9928 25.1003 32.528 25.2188 31.9902 25.2188C31.4616 25.2188 30.9967 25.1185 30.5957 24.918ZM33.2344 23.8652C33.5807 23.6556 33.8542 23.3822 34.0547 23.0449C34.2552 22.7077 34.3555 22.3294 34.3555 21.9102C34.1367 21.7643 33.8633 21.6413 33.5352 21.541C33.2253 21.4499 32.8789 21.4043 32.4961 21.4043C31.8398 21.4043 31.3477 21.541 31.0195 21.8145C30.6914 22.0879 30.5273 22.4342 30.5273 22.8535C30.5273 23.2454 30.6777 23.5645 30.9785 23.8105C31.2793 24.0566 31.6576 24.1797 32.1133 24.1797C32.5143 24.1797 32.888 24.0749 33.2344 23.8652ZM32.6738 14.6914H33.9727L32.9746 16.4688H31.9355L32.6738 14.6914ZM38.4434 24.7266C37.9056 24.3984 37.4772 23.9473 37.1582 23.373C36.8483 22.8079 36.6934 22.1608 36.6934 21.4316C36.6934 20.7025 36.8483 20.0553 37.1582 19.4902C37.4863 18.8978 37.9147 18.4421 38.4434 18.123C38.9902 17.7949 39.61 17.6309 40.3027 17.6309C41.0592 17.6309 41.7109 17.8132 42.2578 18.1777C42.7865 18.5332 43.1602 19.0117 43.3789 19.6133L42.2988 20.0645C42.1165 19.6087 41.8568 19.2715 41.5195 19.0527C41.1732 18.8249 40.7493 18.7109 40.248 18.7109C39.8288 18.7109 39.4368 18.8249 39.0723 19.0527C38.7077 19.2806 38.416 19.5996 38.1973 20.0098C37.9785 20.4199 37.8691 20.8939 37.8691 21.4316C37.8691 21.9603 37.9785 22.4297 38.1973 22.8398C38.416 23.25 38.7077 23.569 39.0723 23.7969C39.446 24.0339 39.8379 24.1523 40.248 24.1523C40.7402 24.1523 41.1732 24.0339 41.5469 23.7969C41.9115 23.569 42.1849 23.2363 42.3672 22.7988L43.4199 23.25C43.1738 23.8333 42.7865 24.3073 42.2578 24.6719C41.7292 25.0365 41.0775 25.2188 40.3027 25.2188C39.61 25.2188 38.9902 25.0547 38.4434 24.7266ZM49.8867 24.9727C49.6315 24.8724 49.4264 24.7448 49.2715 24.5898C48.8978 24.2344 48.7109 23.7467 48.7109 23.127V18.9434H47.4668V17.8633H48.7109V15.8398H49.9004V17.8633H51.6504V18.9434H49.9004V22.8262C49.9004 23.2272 49.9733 23.5189 50.1191 23.7012C50.2923 23.9017 50.5521 24.002 50.8984 24.002C51.1992 24.002 51.459 23.9245 51.6777 23.7695V24.9316C51.5501 24.9954 51.4089 25.041 51.2539 25.0684C51.1081 25.0957 50.9212 25.1094 50.6934 25.1094C50.3926 25.1094 50.1237 25.0638 49.8867 24.9727ZM53.1406 14.9785H54.3301V17.9316L54.2617 18.916H54.3301C54.5124 18.5605 54.8223 18.2552 55.2598 18C55.679 17.7539 56.1439 17.6309 56.6543 17.6309C57.5202 17.6309 58.181 17.8861 58.6367 18.3965C59.0924 18.9069 59.3203 19.5814 59.3203 20.4199V25H58.1309V20.5977C58.1309 19.9596 57.9668 19.4857 57.6387 19.1758C57.3197 18.8659 56.8958 18.7109 56.3672 18.7109C56.0117 18.7109 55.6699 18.8249 55.3418 19.0527C55.0319 19.2715 54.7858 19.5586 54.6035 19.9141C54.4212 20.2786 54.3301 20.6478 54.3301 21.0215V25H53.1406V14.9785ZM61.6445 24.4668C61.1888 23.9564 60.9609 23.25 60.9609 22.3477V17.8633H62.1504V22.1699C62.1504 22.8626 62.3053 23.3639 62.6152 23.6738C62.9342 23.9928 63.349 24.1523 63.8594 24.1523C64.2604 24.1523 64.6204 24.043 64.9395 23.8242C65.2402 23.6146 65.4818 23.3366 65.6641 22.9902C65.8372 22.653 65.9238 22.2884 65.9238 21.8965V17.8633H67.2637C67.61 17.8633 67.7832 17.6764 67.7832 17.3027V16.3457H68.7402V17.3027C68.7402 17.804 68.6172 18.1686 68.3711 18.3965C68.1159 18.6335 67.7467 18.752 67.2637 18.752H67.1133V25H65.9785V23.9609H65.9238C65.7415 24.3073 65.4271 24.6081 64.9805 24.8633C64.5703 25.1003 64.1146 25.2188 63.6133 25.2188C62.7474 25.2188 62.0911 24.9681 61.6445 24.4668ZM64.0645 27.6934C63.8639 27.6934 63.6862 27.6159 63.5312 27.4609C63.3763 27.306 63.2988 27.1283 63.2988 26.9277C63.2988 26.709 63.3763 26.5312 63.5312 26.3945C63.6771 26.2578 63.8548 26.1895 64.0645 26.1895C64.2832 26.1895 64.4609 26.2578 64.5977 26.3945C64.7344 26.5312 64.8027 26.709 64.8027 26.9277C64.8027 27.1374 64.7344 27.3151 64.5977 27.4609C64.4609 27.6159 64.2832 27.6934 64.0645 27.6934ZM70.8184 24.7266C70.2806 24.3984 69.8522 23.9473 69.5332 23.373C69.2233 22.8079 69.0684 22.1608 69.0684 21.4316C69.0684 20.7025 69.2233 20.0553 69.5332 19.4902C69.8613 18.8978 70.2897 18.4421 70.8184 18.123C71.3652 17.7949 71.985 17.6309 72.6777 17.6309C73.4342 17.6309 74.0859 17.8132 74.6328 18.1777C75.1615 18.5332 75.5352 19.0117 75.7539 19.6133L74.6738 20.0645C74.4915 19.6087 74.2318 19.2715 73.8945 19.0527C73.5482 18.8249 73.1243 18.7109 72.623 18.7109C72.2038 18.7109 71.8118 18.8249 71.4473 19.0527C71.0827 19.2806 70.791 19.5996 70.5723 20.0098C70.3535 20.4199 70.2441 20.8939 70.2441 21.4316C70.2441 21.9603 70.3535 22.4297 70.5723 22.8398C70.791 23.25 71.0827 23.569 71.4473 23.7969C71.821 24.0339 72.2129 24.1523 72.623 24.1523C73.1152 24.1523 73.5482 24.0339 73.9219 23.7969C74.2865 23.569 74.5599 23.2363 74.7422 22.7988L75.7949 23.25C75.5488 23.8333 75.1615 24.3073 74.6328 24.6719C74.1042 25.0365 73.4525 25.2188 72.6777 25.2188C71.985 25.2188 71.3652 25.0547 70.8184 24.7266ZM80.334 17.8633H81.4551V18.916H81.5234C81.7148 18.5605 82.0247 18.2598 82.4531 18.0137C82.8906 17.7585 83.3509 17.6309 83.834 17.6309C84.6908 17.6309 85.3424 17.8815 85.7891 18.3828C86.2448 18.8932 86.4727 19.5723 86.4727 20.4199V25H85.2832V20.5977C85.2832 19.9414 85.1237 19.4629 84.8047 19.1621C84.4948 18.8613 84.0618 18.7109 83.5059 18.7109C83.123 18.7109 82.7812 18.8203 82.4805 19.0391C82.1615 19.276 81.9245 19.5586 81.7695 19.8867C81.6055 20.2422 81.5234 20.6068 81.5234 20.9805V25H80.334V17.8633ZM89.166 27.666C88.6191 27.2741 88.25 26.8001 88.0586 26.2441L89.1523 25.7793C89.3073 26.1986 89.5671 26.5358 89.9316 26.791C90.2962 27.0462 90.7337 27.1738 91.2441 27.1738C91.9733 27.1738 92.543 26.9596 92.9531 26.5312C93.3633 26.112 93.5684 25.5013 93.5684 24.6992V23.9062H93.5137C93.2858 24.2617 92.9577 24.5579 92.5293 24.7949C92.11 25.0228 91.627 25.1367 91.0801 25.1367C90.4603 25.1367 89.8952 24.9772 89.3848 24.6582C88.8835 24.3483 88.4824 23.9062 88.1816 23.332C87.8809 22.7578 87.7305 22.1107 87.7305 21.3906C87.7305 20.6706 87.8809 20.0234 88.1816 19.4492C88.4915 18.8659 88.8926 18.4193 89.3848 18.1094C89.8952 17.7904 90.4603 17.6309 91.0801 17.6309C91.627 17.6309 92.11 17.7448 92.5293 17.9727C92.9486 18.2005 93.2767 18.5059 93.5137 18.8887H93.5684V17.8633H94.7031V24.7266C94.7031 25.8659 94.3841 26.7409 93.7461 27.3516C93.1172 27.9531 92.2832 28.2539 91.2441 28.2539C90.3965 28.2539 89.7038 28.0579 89.166 27.666ZM92.4062 23.7422C92.7617 23.5234 93.0443 23.2135 93.2539 22.8125C93.4635 22.4115 93.5684 21.9375 93.5684 21.3906C93.5684 20.8255 93.4635 20.3424 93.2539 19.9414C93.0443 19.5312 92.7617 19.2259 92.4062 19.0254C92.0417 18.8158 91.6543 18.7109 91.2441 18.7109C90.8158 18.7109 90.4238 18.8203 90.0684 19.0391C89.7038 19.2669 89.4212 19.5723 89.2207 19.9551C89.0111 20.3561 88.9062 20.8346 88.9062 21.3906C88.9062 21.9284 89.0111 22.4069 89.2207 22.8262C89.4212 23.2272 89.7038 23.5326 90.0684 23.7422C90.4329 23.9518 90.8249 24.0566 91.2441 24.0566C91.6816 24.0566 92.069 23.9518 92.4062 23.7422ZM97.2734 24.918C96.8542 24.7083 96.5352 24.4258 96.3164 24.0703C96.0977 23.7148 95.9883 23.3047 95.9883 22.8398C95.9883 22.0833 96.2708 21.4954 96.8359 21.0762C97.4193 20.6478 98.1393 20.4336 98.9961 20.4336C99.4427 20.4336 99.8438 20.4792 100.199 20.5703C100.564 20.6615 100.842 20.7708 101.033 20.8984V20.4609C101.033 19.9414 100.851 19.5176 100.486 19.1895C100.122 18.8613 99.6478 18.6973 99.0645 18.6973C98.6725 18.6973 98.3079 18.7839 97.9707 18.957C97.6152 19.1393 97.3464 19.3809 97.1641 19.6816L96.2617 19.0117C96.5352 18.5924 96.9225 18.2552 97.4238 18C97.916 17.7539 98.4629 17.6309 99.0645 17.6309C100.031 17.6309 100.792 17.8861 101.348 18.3965C101.895 18.8978 102.168 19.5905 102.168 20.4746V25H101.033V23.9746H100.979C100.769 24.3301 100.464 24.6263 100.062 24.8633C99.6706 25.1003 99.2057 25.2188 98.668 25.2188C98.1393 25.2188 97.6745 25.1185 97.2734 24.918ZM99.9121 23.8652C100.258 23.6556 100.532 23.3822 100.732 23.0449C100.933 22.7077 101.033 22.3294 101.033 21.9102C100.814 21.7643 100.541 21.6413 100.213 21.541C99.903 21.4499 99.5566 21.4043 99.1738 21.4043C98.5176 21.4043 98.0254 21.541 97.6973 21.8145C97.3691 22.0879 97.2051 22.4342 97.2051 22.8535C97.2051 23.2454 97.3555 23.5645 97.6562 23.8105C97.957 24.0566 98.3353 24.1797 98.791 24.1797C99.1921 24.1797 99.5658 24.0749 99.9121 23.8652ZM105.859 24.5488L102.906 17.8633H104.191L106.434 23.168H106.461L108.621 17.8633H109.906L105.504 28.0215H104.273L105.859 24.5488Z" fill="white"/>
</svg>
