<svg width="102" height="102" viewBox="0 0 102 102" fill="none" xmlns="http://www.w3.org/2000/svg">
<rect x="1" y="1" width="100" height="100" rx="12" fill="white" stroke="#0B3558" stroke-dasharray="2 2"/>
<path d="M61.1152 30.743C60.5621 28.5323 59.2863 26.5696 57.4904 25.1668C55.6944 23.764 53.4813 23.0013 51.2024 23C48.9235 22.9987 46.7095 23.7587 44.9119 25.1595C43.1143 26.5602 41.8363 28.5214 41.2806 30.7315C38.6597 30.9775 36.2343 32.2236 34.5081 34.2111C32.7819 36.1986 31.8878 38.7747 32.0113 41.4043C32.1348 44.0338 33.2666 46.5147 35.1714 48.3317C37.0763 50.1486 39.6079 51.1619 42.2404 51.1611H46.0793C46.4187 51.1611 46.7442 51.0262 46.9842 50.7863C47.2241 50.5463 47.359 50.2208 47.359 49.8814C47.359 49.542 47.2241 49.2165 46.9842 48.9766C46.7442 48.7366 46.4187 48.6018 46.0793 48.6018H42.2404C41.2321 48.6047 40.2331 48.409 39.3005 48.0259C38.3678 47.6428 37.5198 47.0797 36.8047 46.3688C35.3607 44.9331 34.546 42.9826 34.5401 40.9463C34.5342 38.91 35.3374 36.9547 36.7731 35.5106C38.2087 34.0666 40.1593 33.2519 42.1956 33.246C42.5239 33.2707 42.8498 33.1726 43.1098 32.9707C43.3699 32.7687 43.5458 32.4774 43.6032 32.1532C43.8638 30.3259 44.7748 28.654 46.169 27.4445C47.5633 26.235 49.347 25.5691 51.1928 25.5691C53.0385 25.5691 54.8223 26.235 56.2165 27.4445C57.6107 28.654 58.5218 30.3259 58.7824 32.1532C58.8493 32.4662 59.0228 32.7462 59.2732 32.9455C59.5236 33.1448 59.8354 33.251 60.1554 33.246C62.1917 33.246 64.1446 34.0549 65.5845 35.4948C67.0244 36.9347 67.8333 38.8876 67.8333 40.9239C67.8333 42.9602 67.0244 44.9131 65.5845 46.353C64.1446 47.7929 62.1917 48.6018 60.1554 48.6018H56.3165C55.9771 48.6018 55.6516 48.7366 55.4116 48.9766C55.1717 49.2165 55.0368 49.542 55.0368 49.8814C55.0368 50.2208 55.1717 50.5463 55.4116 50.7863C55.6516 51.0262 55.9771 51.1611 56.3165 51.1611H60.1554C62.7686 51.1337 65.2724 50.108 67.1538 48.2941C69.0351 46.4803 70.1515 44.0156 70.2742 41.4051C70.3969 38.7947 69.5166 36.2361 67.8137 34.2538C66.1108 32.2714 63.7143 31.0154 61.1152 30.743Z" fill="#0050A6"/>
<path d="M56.6916 41.8287C56.933 42.0618 57.2562 42.1907 57.5917 42.1878C57.9273 42.1849 58.2482 42.0503 58.4855 41.8131C58.7227 41.5758 58.8573 41.2549 58.8602 40.9193C58.8631 40.5838 58.7342 40.2606 58.5011 40.0192L52.1028 33.621C51.8628 33.3811 51.5374 33.2463 51.1981 33.2463C50.8588 33.2463 50.5334 33.3811 50.2934 33.621L43.8952 40.0192C43.6621 40.2606 43.5331 40.5838 43.536 40.9193C43.5389 41.2549 43.6735 41.5758 43.9107 41.8131C44.148 42.0503 44.469 42.1849 44.8045 42.1878C45.14 42.1907 45.4632 42.0618 45.7046 41.8287L49.9185 37.6148V53.7204C49.9185 54.0598 50.0533 54.3853 50.2933 54.6253C50.5332 54.8652 50.8587 55.0001 51.1981 55.0001C51.5375 55.0001 51.863 54.8652 52.103 54.6253C52.3429 54.3853 52.4778 54.0598 52.4778 53.7204V37.6148L56.6916 41.8287Z" fill="#0050A6"/>
<path d="M23.9453 67.748H21.3428V66.6943H27.6523V67.748H25.0498V76H23.9453V67.748ZM29.6201 75.9238C29.2308 75.7292 28.9346 75.4668 28.7314 75.1367C28.5283 74.8066 28.4268 74.4258 28.4268 73.9941C28.4268 73.2917 28.6891 72.7458 29.2139 72.3564C29.7555 71.9587 30.4242 71.7598 31.2197 71.7598C31.6344 71.7598 32.0068 71.8021 32.3369 71.8867C32.6755 71.9714 32.9336 72.0729 33.1113 72.1914V71.7852C33.1113 71.3027 32.9421 70.9092 32.6035 70.6045C32.265 70.2998 31.8249 70.1475 31.2832 70.1475C30.9193 70.1475 30.5807 70.2279 30.2676 70.3887C29.9375 70.5579 29.6878 70.7822 29.5186 71.0615L28.6807 70.4395C28.9346 70.0501 29.2943 69.737 29.7598 69.5C30.2168 69.2715 30.7246 69.1572 31.2832 69.1572C32.1803 69.1572 32.887 69.3942 33.4033 69.8682C33.9111 70.3337 34.165 70.9769 34.165 71.7979V76H33.1113V75.0479H33.0605C32.8659 75.3779 32.5824 75.653 32.21 75.873C31.846 76.0931 31.4144 76.2031 30.915 76.2031C30.4242 76.2031 29.9925 76.11 29.6201 75.9238ZM32.0703 74.9463C32.3919 74.7516 32.6458 74.4977 32.832 74.1846C33.0182 73.8714 33.1113 73.5202 33.1113 73.1309C32.9082 72.9954 32.6543 72.8812 32.3496 72.7881C32.0618 72.7035 31.7402 72.6611 31.3848 72.6611C30.7754 72.6611 30.3184 72.7881 30.0137 73.042C29.709 73.2959 29.5566 73.6175 29.5566 74.0068C29.5566 74.3708 29.6963 74.667 29.9756 74.8955C30.2549 75.124 30.6061 75.2383 31.0293 75.2383C31.4017 75.2383 31.7487 75.141 32.0703 74.9463ZM30.8135 67.8496C31.0928 67.7734 31.2874 67.6846 31.3975 67.583C31.516 67.4814 31.5752 67.346 31.5752 67.1768C31.5752 67.0329 31.5244 66.9144 31.4229 66.8213C31.3298 66.7367 31.1859 66.6943 30.9912 66.6943C30.7458 66.6943 30.5046 66.7451 30.2676 66.8467L30.0518 66.1484C30.3818 66.0046 30.7288 65.9326 31.0928 65.9326C31.5244 65.9326 31.8545 66.0342 32.083 66.2373C32.3115 66.4404 32.4258 66.7367 32.4258 67.126C32.4258 67.5322 32.2988 67.8496 32.0449 68.0781C31.7741 68.3236 31.4313 68.4759 31.0166 68.5352L30.8135 67.8496ZM36.3486 68.1543C36.137 68.1543 35.9508 68.0739 35.79 67.9131C35.6292 67.7523 35.5488 67.5661 35.5488 67.3545C35.5488 67.1344 35.6292 66.944 35.79 66.7832C35.9339 66.6393 36.1201 66.5674 36.3486 66.5674C36.5771 66.5674 36.7633 66.6393 36.9072 66.7832C37.0596 66.9355 37.1357 67.126 37.1357 67.3545C37.1357 67.5745 37.0596 67.7607 36.9072 67.9131C36.7464 68.0739 36.5602 68.1543 36.3486 68.1543ZM35.8027 69.373H36.9072V76H35.8027V69.373ZM43.4326 75.9746C43.1956 75.8815 43.0052 75.763 42.8613 75.6191C42.5143 75.2891 42.3408 74.8363 42.3408 74.2607V70.376H41.1855V69.373H42.3408V67.4941H43.4453V69.373H45.0703V70.376H43.4453V73.9814C43.4453 74.3538 43.513 74.6247 43.6484 74.7939C43.8092 74.9801 44.0505 75.0732 44.3721 75.0732C44.6514 75.0732 44.8926 75.0013 45.0957 74.8574V75.9365C44.9772 75.9958 44.846 76.0381 44.7021 76.0635C44.5667 76.0889 44.3932 76.1016 44.1816 76.1016C43.9023 76.1016 43.6527 76.0592 43.4326 75.9746ZM47.6348 75.7588C47.127 75.4541 46.7334 75.0352 46.4541 74.502C46.1748 73.9688 46.0352 73.3678 46.0352 72.6992C46.0352 72.056 46.1663 71.4678 46.4287 70.9346C46.6995 70.3844 47.0762 69.9528 47.5586 69.6396C48.0579 69.318 48.6208 69.1572 49.2471 69.1572C49.8818 69.1572 50.4447 69.3053 50.9355 69.6016C51.4095 69.8893 51.7734 70.2871 52.0273 70.7949C52.2897 71.3197 52.4209 71.9079 52.4209 72.5596C52.4209 72.6104 52.4124 72.7204 52.3955 72.8896H47.1396C47.165 73.3975 47.2878 73.8249 47.5078 74.1719C47.7194 74.502 47.9945 74.7601 48.333 74.9463C48.6631 75.124 49.0101 75.2129 49.374 75.2129C50.2373 75.2129 50.8932 74.8109 51.3418 74.0068L52.2686 74.4639C51.9893 74.9971 51.6042 75.4202 51.1133 75.7334C50.6224 76.0465 50.0299 76.2031 49.3359 76.2031C48.6927 76.2031 48.1257 76.055 47.6348 75.7588ZM51.2402 71.9883C51.2318 71.709 51.1556 71.4297 51.0117 71.1504C50.8763 70.8796 50.6605 70.6468 50.3643 70.4521C50.068 70.2575 49.6956 70.1602 49.2471 70.1602C48.7393 70.1602 48.2949 70.3294 47.9141 70.668C47.5586 70.9896 47.3216 71.4297 47.2031 71.9883H51.2402ZM49.2471 78.501C49.0609 78.501 48.8958 78.429 48.752 78.2852C48.6081 78.1413 48.5361 77.9762 48.5361 77.79C48.5361 77.5869 48.6081 77.4219 48.752 77.2949C48.8958 77.168 49.0609 77.1045 49.2471 77.1045C49.4502 77.1045 49.6152 77.168 49.7422 77.2949C49.8691 77.4219 49.9326 77.5869 49.9326 77.79C49.9326 77.9847 49.8691 78.1497 49.7422 78.2852C49.6152 78.429 49.4502 78.501 49.2471 78.501ZM47.4443 67.9512L48.7773 66.4277H49.7549L51.0752 67.9512V68.0146H50.0088L49.3105 67.1895H49.209L48.5107 68.0146H47.4443V67.9512ZM53.6396 69.373H54.6934V70.3633H54.7441C54.9473 70.0247 55.252 69.7412 55.6582 69.5127C56.0814 69.2757 56.5342 69.1572 57.0166 69.1572C57.609 69.1572 58.1465 69.3096 58.6289 69.6143C59.1029 69.9189 59.4837 70.3421 59.7715 70.8838C60.0423 71.4001 60.1777 72.001 60.1777 72.6865C60.1777 73.3805 60.0423 73.9857 59.7715 74.502C59.4922 75.0352 59.1113 75.4541 58.6289 75.7588C58.1634 76.055 57.626 76.2031 57.0166 76.2031C56.5173 76.2031 56.0645 76.0889 55.6582 75.8604C55.252 75.6318 54.9473 75.3525 54.7441 75.0225H54.6934L54.7441 75.9365V78.8057H53.6396V69.373ZM57.9688 74.8955C58.2988 74.7008 58.5697 74.4046 58.7812 74.0068C58.9759 73.6429 59.0732 73.2028 59.0732 72.6865C59.0732 72.1618 58.9759 71.7174 58.7812 71.3535C58.5781 70.9727 58.3073 70.6807 57.9688 70.4775C57.6133 70.266 57.2536 70.1602 56.8896 70.1602C56.5173 70.1602 56.1576 70.266 55.8105 70.4775C55.472 70.6891 55.2012 70.9811 54.998 71.3535C54.7949 71.7344 54.6934 72.1787 54.6934 72.6865C54.6934 73.1859 54.7949 73.626 54.998 74.0068C55.2012 74.3962 55.472 74.6924 55.8105 74.8955C56.1576 75.1071 56.5173 75.2129 56.8896 75.2129C57.2536 75.2129 57.6133 75.1071 57.9688 74.8955ZM64.4814 66.6943H65.5859V76H64.4814V66.6943ZM68.4043 75.7588C67.8965 75.4541 67.5029 75.0352 67.2236 74.502C66.9443 73.9688 66.8047 73.3678 66.8047 72.6992C66.8047 72.056 66.9359 71.4678 67.1982 70.9346C67.4691 70.3844 67.8457 69.9528 68.3281 69.6396C68.8275 69.318 69.3903 69.1572 70.0166 69.1572C70.6514 69.1572 71.2142 69.3053 71.7051 69.6016C72.179 69.8893 72.543 70.2871 72.7969 70.7949C73.0592 71.3197 73.1904 71.9079 73.1904 72.5596C73.1904 72.6104 73.182 72.7204 73.165 72.8896H67.9092C67.9346 73.3975 68.0573 73.8249 68.2773 74.1719C68.4889 74.502 68.764 74.7601 69.1025 74.9463C69.4326 75.124 69.7796 75.2129 70.1436 75.2129C71.0068 75.2129 71.6628 74.8109 72.1113 74.0068L73.0381 74.4639C72.7588 74.9971 72.3737 75.4202 71.8828 75.7334C71.3919 76.0465 70.7995 76.2031 70.1055 76.2031C69.4622 76.2031 68.8952 76.055 68.4043 75.7588ZM72.0098 71.9883C72.0013 71.709 71.9251 71.4297 71.7812 71.1504C71.6458 70.8796 71.43 70.6468 71.1338 70.4521C70.8376 70.2575 70.4652 70.1602 70.0166 70.1602C69.5088 70.1602 69.0645 70.3294 68.6836 70.668C68.3281 70.9896 68.0911 71.4297 67.9727 71.9883H72.0098ZM68.2139 67.9512L69.5469 66.4277H70.5244L71.8447 67.9512V68.0146H70.7783L70.0801 67.1895H69.9785L69.2803 68.0146H68.2139V67.9512ZM74.4727 69.373H75.5137V70.3506H75.5771C75.7549 70.0205 76.0426 69.7412 76.4404 69.5127C76.8467 69.2757 77.2741 69.1572 77.7227 69.1572C78.5182 69.1572 79.1234 69.39 79.5381 69.8555C79.9613 70.3294 80.1729 70.96 80.1729 71.7471V76H79.0684V71.9121C79.0684 71.3027 78.9202 70.8584 78.624 70.5791C78.3363 70.2998 77.9342 70.1602 77.418 70.1602C77.0625 70.1602 76.7451 70.2617 76.4658 70.4648C76.1696 70.6849 75.9495 70.9473 75.8057 71.252C75.6533 71.582 75.5771 71.9206 75.5771 72.2676V76H74.4727V69.373Z" fill="#0B3558"/>
</svg>
