<svg width="102" height="102" viewBox="0 0 102 102" fill="none" xmlns="http://www.w3.org/2000/svg">
<rect x="1" y="1" width="100" height="100" rx="12" fill="white" stroke="#0B3558" stroke-dasharray="2 2"/>
<path d="M24.9453 75.5684C24.2259 75.1621 23.6504 74.5781 23.2188 73.8164C22.7956 73.0716 22.584 72.2464 22.584 71.3408C22.584 70.4352 22.7956 69.61 23.2188 68.8652C23.6419 68.1204 24.2174 67.5407 24.9453 67.126C25.707 66.6943 26.528 66.4785 27.4082 66.4785C28.0853 66.4785 28.7201 66.6097 29.3125 66.8721C29.888 67.126 30.3874 67.5026 30.8105 68.002L30.0234 68.7764C29.668 68.3532 29.2786 68.04 28.8555 67.8369C28.4323 67.6338 27.9499 67.5322 27.4082 67.5322C26.7396 67.5322 26.1217 67.693 25.5547 68.0146C24.9876 68.3363 24.5391 68.7806 24.209 69.3477C23.8704 69.9316 23.7012 70.596 23.7012 71.3408C23.7012 72.0941 23.8704 72.7627 24.209 73.3467C24.5391 73.9137 24.9876 74.3581 25.5547 74.6797C26.1048 74.9928 26.7227 75.1494 27.4082 75.1494C28.5339 75.1494 29.4902 74.6882 30.2773 73.7656L31.0898 74.54C30.6751 75.0394 30.1419 75.4456 29.4902 75.7588C28.8724 76.055 28.1784 76.2031 27.4082 76.2031C26.5111 76.2031 25.6901 75.9915 24.9453 75.5684ZM32.3213 66.6943H33.4258V69.4365L33.3623 70.3506H33.4258C33.5951 70.0205 33.8828 69.737 34.2891 69.5C34.6784 69.2715 35.11 69.1572 35.584 69.1572C36.388 69.1572 37.0016 69.3942 37.4248 69.8682C37.848 70.3421 38.0596 70.9684 38.0596 71.7471V76H36.9551V71.9121C36.9551 71.3197 36.8027 70.8796 36.498 70.5918C36.2018 70.304 35.8083 70.1602 35.3174 70.1602C34.9873 70.1602 34.6699 70.266 34.3652 70.4775C34.0775 70.6807 33.849 70.9473 33.6797 71.2773C33.5104 71.6159 33.4258 71.9587 33.4258 72.3057V76H32.3213V66.6943ZM40.2178 75.5049C39.7946 75.0309 39.583 74.375 39.583 73.5371V69.373H40.6875V73.3721C40.6875 74.0153 40.8314 74.4808 41.1191 74.7686C41.4154 75.0648 41.8005 75.2129 42.2744 75.2129C42.6468 75.2129 42.9811 75.1113 43.2773 74.9082C43.5566 74.7135 43.7809 74.4554 43.9502 74.1338C44.111 73.8206 44.1914 73.4821 44.1914 73.1182V69.373H45.2959V76H44.2422V75.0352H44.1914C44.0221 75.3568 43.7301 75.6361 43.3154 75.873C42.9346 76.0931 42.5114 76.2031 42.0459 76.2031C41.2419 76.2031 40.6325 75.9704 40.2178 75.5049ZM42.4648 78.501C42.2786 78.501 42.1136 78.429 41.9697 78.2852C41.8258 78.1413 41.7539 77.9762 41.7539 77.79C41.7539 77.5869 41.8258 77.4219 41.9697 77.2949C42.1051 77.168 42.2702 77.1045 42.4648 77.1045C42.668 77.1045 42.833 77.168 42.96 77.2949C43.0869 77.4219 43.1504 77.5869 43.1504 77.79C43.1504 77.9847 43.0869 78.1497 42.96 78.2852C42.833 78.429 42.668 78.501 42.4648 78.501ZM46.8701 69.373H47.9238V70.3633H47.9746C48.1777 70.0247 48.4824 69.7412 48.8887 69.5127C49.3118 69.2757 49.7646 69.1572 50.2471 69.1572C50.8395 69.1572 51.377 69.3096 51.8594 69.6143C52.3333 69.9189 52.7142 70.3421 53.002 70.8838C53.2728 71.4001 53.4082 72.001 53.4082 72.6865C53.4082 73.3805 53.2728 73.9857 53.002 74.502C52.7227 75.0352 52.3418 75.4541 51.8594 75.7588C51.3939 76.055 50.8564 76.2031 50.2471 76.2031C49.7477 76.2031 49.2949 76.0889 48.8887 75.8604C48.4824 75.6318 48.1777 75.3525 47.9746 75.0225H47.9238L47.9746 75.9365V78.8057H46.8701V69.373ZM51.1992 74.8955C51.5293 74.7008 51.8001 74.4046 52.0117 74.0068C52.2064 73.6429 52.3037 73.2028 52.3037 72.6865C52.3037 72.1618 52.2064 71.7174 52.0117 71.3535C51.8086 70.9727 51.5378 70.6807 51.1992 70.4775C50.8438 70.266 50.484 70.1602 50.1201 70.1602C49.7477 70.1602 49.388 70.266 49.041 70.4775C48.7025 70.6891 48.4316 70.9811 48.2285 71.3535C48.0254 71.7344 47.9238 72.1787 47.9238 72.6865C47.9238 73.1859 48.0254 73.626 48.2285 74.0068C48.4316 74.3962 48.7025 74.6924 49.041 74.8955C49.388 75.1071 49.7477 75.2129 50.1201 75.2129C50.484 75.2129 50.8438 75.1071 51.1992 74.8955ZM58.5244 75.9238C58.1351 75.7292 57.8389 75.4668 57.6357 75.1367C57.4326 74.8066 57.3311 74.4258 57.3311 73.9941C57.3311 73.2917 57.5934 72.7458 58.1182 72.3564C58.6598 71.9587 59.3285 71.7598 60.124 71.7598C60.5387 71.7598 60.9111 71.8021 61.2412 71.8867C61.5798 71.9714 61.8379 72.0729 62.0156 72.1914V71.7852C62.0156 71.3027 61.8464 70.9092 61.5078 70.6045C61.1693 70.2998 60.7292 70.1475 60.1875 70.1475C59.8236 70.1475 59.485 70.2279 59.1719 70.3887C58.8418 70.5579 58.5921 70.7822 58.4229 71.0615L57.585 70.4395C57.8389 70.0501 58.1986 69.737 58.6641 69.5C59.1211 69.2715 59.6289 69.1572 60.1875 69.1572C61.0846 69.1572 61.7913 69.3942 62.3076 69.8682C62.8154 70.3337 63.0693 70.9769 63.0693 71.7979V76H62.0156V75.0479H61.9648C61.7702 75.3779 61.4867 75.653 61.1143 75.873C60.7503 76.0931 60.3187 76.2031 59.8193 76.2031C59.3285 76.2031 58.8968 76.11 58.5244 75.9238ZM60.9746 74.9463C61.2962 74.7516 61.5501 74.4977 61.7363 74.1846C61.9225 73.8714 62.0156 73.5202 62.0156 73.1309C61.8125 72.9954 61.5586 72.8812 61.2539 72.7881C60.9661 72.7035 60.6445 72.6611 60.2891 72.6611C59.6797 72.6611 59.2227 72.7881 58.918 73.042C58.6133 73.2959 58.4609 73.6175 58.4609 74.0068C58.4609 74.3708 58.6006 74.667 58.8799 74.8955C59.1592 75.124 59.5104 75.2383 59.9336 75.2383C60.306 75.2383 60.653 75.141 60.9746 74.9463ZM59.7178 67.8496C59.9971 67.7734 60.1917 67.6846 60.3018 67.583C60.4202 67.4814 60.4795 67.346 60.4795 67.1768C60.4795 67.0329 60.4287 66.9144 60.3271 66.8213C60.234 66.7367 60.0902 66.6943 59.8955 66.6943C59.6501 66.6943 59.4089 66.7451 59.1719 66.8467L58.9561 66.1484C59.2861 66.0046 59.6331 65.9326 59.9971 65.9326C60.4287 65.9326 60.7588 66.0342 60.9873 66.2373C61.2158 66.4404 61.3301 66.7367 61.3301 67.126C61.3301 67.5322 61.2031 67.8496 60.9492 68.0781C60.6784 68.3236 60.3356 68.4759 59.9209 68.5352L59.7178 67.8496ZM64.6055 69.373H65.6465V70.3506H65.71C65.8877 70.0205 66.1755 69.7412 66.5732 69.5127C66.9795 69.2757 67.4069 69.1572 67.8555 69.1572C68.651 69.1572 69.2562 69.39 69.6709 69.8555C70.0941 70.3294 70.3057 70.96 70.3057 71.7471V76H69.2012V71.9121C69.2012 71.3027 69.0531 70.8584 68.7568 70.5791C68.4691 70.2998 68.0671 70.1602 67.5508 70.1602C67.1953 70.1602 66.8779 70.2617 66.5986 70.4648C66.3024 70.6849 66.0824 70.9473 65.9385 71.252C65.7861 71.582 65.71 71.9206 65.71 72.2676V76H64.6055V69.373ZM71.8926 66.6943H72.9971V69.4365L72.9336 70.3506H72.9971C73.1663 70.0205 73.4541 69.737 73.8604 69.5C74.2497 69.2715 74.6813 69.1572 75.1553 69.1572C75.9593 69.1572 76.5729 69.3942 76.9961 69.8682C77.4193 70.3421 77.6309 70.9684 77.6309 71.7471V76H76.5264V71.9121C76.5264 71.3197 76.374 70.8796 76.0693 70.5918C75.7731 70.304 75.3796 70.1602 74.8887 70.1602C74.5586 70.1602 74.2412 70.266 73.9365 70.4775C73.6488 70.6807 73.4202 70.9473 73.251 71.2773C73.0817 71.6159 72.9971 71.9587 72.9971 72.3057V76H71.8926V66.6943Z" fill="#0B3558"/>
<path d="M64.4959 27.9231H59.1999L58.5833 26.0769C58.286 25.1805 57.713 24.4005 56.9457 23.8481C56.1784 23.2956 55.2559 22.9988 54.3098 23H46.6902C45.7443 22.9993 44.8223 23.2963 44.0552 23.8487C43.2882 24.4011 42.7153 25.1808 42.418 26.0769L41.8001 27.9231H36.5041C35.31 27.9244 34.1651 28.3984 33.3207 29.241C32.4763 30.0837 32.0013 31.2262 32 32.4178V50.5102C32.0026 51.701 32.4781 52.8422 33.3224 53.6838C34.1667 54.5254 35.3108 54.9987 36.5041 55H64.5008C65.6941 54.9974 66.8377 54.5228 67.6811 53.6803C68.5244 52.8378 68.9987 51.6961 69 50.5052V32.4129C68.9974 31.2221 68.5219 30.0809 67.6776 29.2393C66.8333 28.3977 65.6892 27.9244 64.4959 27.9231ZM66.5333 50.5052C66.5327 51.0443 66.3178 51.5611 65.9359 51.9422C65.5539 52.3234 65.036 52.5378 64.4959 52.5385H36.5041C35.964 52.5378 35.4461 52.3234 35.0641 51.9422C34.6822 51.5611 34.4673 51.0443 34.4667 50.5052V32.4129C34.4686 31.8747 34.6841 31.3592 35.0659 30.9791C35.4477 30.599 35.9648 30.3853 36.5041 30.3846H42.6893C42.948 30.3844 43.2002 30.303 43.41 30.1519C43.6198 30.0009 43.7767 29.7877 43.8585 29.5428L44.7576 26.8511C44.8926 26.4462 45.152 26.0941 45.4989 25.8447C45.8458 25.5952 46.2627 25.4612 46.6902 25.4615H54.3098C54.7375 25.4611 55.1546 25.5952 55.5016 25.8449C55.8485 26.0946 56.1078 26.4471 56.2424 26.8523L57.1415 29.5428C57.2233 29.7877 57.3802 30.0009 57.59 30.1519C57.7998 30.303 58.052 30.3844 58.3107 30.3846H64.4959C65.036 30.3853 65.5539 30.5997 65.9359 30.9809C66.3178 31.362 66.5327 31.8788 66.5333 32.4178V50.5052Z" fill="#0050A6"/>
<path d="M50.4999 31.6154C48.6705 31.6154 46.8821 32.1567 45.3609 33.171C43.8398 34.1853 42.6542 35.627 41.9541 37.3137C41.2539 39.0004 41.0708 40.8564 41.4277 42.647C41.7846 44.4376 42.6656 46.0823 43.9592 47.3733C45.2528 48.6642 46.901 49.5434 48.6954 49.8995C50.4897 50.2557 52.3495 50.0729 54.0398 49.3742C55.73 48.6756 57.1746 47.4925 58.191 45.9745C59.2074 44.4565 59.7499 42.6718 59.7499 40.8461C59.7473 38.3988 58.7719 36.0524 57.0378 34.3219C55.3037 32.5913 52.9524 31.618 50.4999 31.6154ZM50.4999 47.6154C49.1583 47.6154 47.8468 47.2183 46.7313 46.4745C45.6158 45.7307 44.7464 44.6735 44.233 43.4366C43.7195 42.1997 43.5852 40.8386 43.8469 39.5255C44.1087 38.2124 44.7547 37.0062 45.7034 36.0596C46.6521 35.1129 47.8607 34.4682 49.1766 34.207C50.4924 33.9458 51.8563 34.0798 53.0958 34.5922C54.3353 35.1045 55.3947 35.9721 56.1401 37.0853C56.8854 38.1985 57.2833 39.5073 57.2833 40.8461C57.2813 42.6408 56.566 44.3615 55.2943 45.6305C54.0226 46.8996 52.2984 47.6134 50.4999 47.6154Z" fill="#0050A6"/>
<path d="M62.8334 35.3077C63.5146 35.3077 64.0668 34.7567 64.0668 34.077C64.0668 33.3972 63.5146 32.8462 62.8334 32.8462C62.1523 32.8462 61.6001 33.3972 61.6001 34.077C61.6001 34.7567 62.1523 35.3077 62.8334 35.3077Z" fill="#0050A6"/>
</svg>
