<svg width="16" height="17" viewBox="0 0 16 17" fill="none" xmlns="http://www.w3.org/2000/svg">
<path d="M14.997 2.82682L14.3043 2.8161C14.2877 2.8161 12.7348 2.78391 11.1308 2.16369C9.48586 1.52687 8.42571 0.795485 8.41589 0.788643L7.99857 0.5L7.58213 0.788643C7.57233 0.795466 6.51124 1.52687 4.86717 2.16369C3.26424 2.78487 1.71032 2.81608 1.69663 2.81608L1 2.82682V9.55273C1 12.9298 5.55202 16.5 7.99949 16.5C10.4479 16.5 15 12.9298 15 9.55273L14.997 2.82682ZM7.99951 15.5014C5.96648 15.5014 2.0033 12.2901 2.0033 9.55268V3.80102C2.57648 3.76203 3.87565 3.61965 5.23066 3.09498C6.619 2.55666 7.62817 1.94816 8.00049 1.71021C8.40023 1.96865 9.38 2.55666 10.7674 3.09498C12.1273 3.62062 13.4294 3.76203 13.9947 3.80102L13.9967 9.55268C13.9967 12.2901 10.0325 15.5014 7.99951 15.5014Z" fill="#0B3558" stroke="#0B3558" stroke-width="0.3"/>
<path d="M12.1753 9.64505L9.49172 12.3132L8.36701 11.0435C8.1828 10.8367 7.8663 10.8172 7.65861 10.9987C7.44993 11.182 7.43035 11.497 7.61453 11.7037L9.09202 13.3723C9.18406 13.4756 9.31438 13.5361 9.45255 13.54C9.45845 13.541 9.46334 13.541 9.46829 13.541C9.60146 13.541 9.7289 13.4893 9.82293 13.3957L12.8848 10.3531C13.0807 10.1581 13.0807 9.84209 12.8857 9.6461C12.6897 9.45094 12.3713 9.45201 12.1753 9.64505Z" fill="#0B3558" stroke="#0B3558" stroke-width="0.3"/>
<path d="M9.43087 10.0598C9.6582 9.82674 9.93645 9.58291 10.1706 9.38984C9.83457 9.03389 9.42596 8.74815 8.97037 8.55023C9.51907 8.12895 9.87862 7.47362 9.87862 6.73243C9.87862 5.45983 8.83811 4.42415 7.5595 4.42415C6.28091 4.42415 5.24037 5.45979 5.24037 6.73243C5.24037 7.47165 5.59797 8.12406 6.14372 8.54633C4.86515 9.0944 3.96667 10.3601 3.96667 11.8317C3.96667 12.1077 4.19106 12.331 4.46833 12.331C4.74558 12.331 4.96995 12.1077 4.96995 11.8317C4.96995 10.4109 6.13097 9.25434 7.55948 9.25434C8.29632 9.25432 8.95865 9.56537 9.43087 10.0598ZM7.55954 5.42277C8.28455 5.42277 8.87539 6.01081 8.87539 6.73243C8.87539 7.45407 8.28451 8.04116 7.55954 8.04116C6.83453 8.04116 6.2437 7.45407 6.2437 6.73243C6.2437 6.01079 6.83453 5.42277 7.55954 5.42277Z" fill="#0B3558" stroke="#0B3558" stroke-width="0.3"/>
</svg>
