<svg width="13" height="17" viewBox="0 0 13 17" fill="none" xmlns="http://www.w3.org/2000/svg">
<path d="M9.976 0.5H3.024C2.48739 0.500605 1.97294 0.70758 1.5935 1.07552C1.21407 1.44346 1.00062 1.94232 1 2.46267V14.5373C1.00062 15.0577 1.21407 15.5565 1.5935 15.9245C1.97294 16.2924 2.48739 16.4994 3.024 16.5H9.976C10.5126 16.4994 11.0271 16.2924 11.4065 15.9245C11.7859 15.5565 11.9994 15.0577 12 14.5373V2.46267C11.9994 1.94232 11.7859 1.44346 11.4065 1.07552C11.0271 0.70758 10.5126 0.500605 9.976 0.5ZM11.2143 14.5373C11.2139 14.8557 11.0833 15.1609 10.8511 15.386C10.619 15.6111 10.3043 15.7377 9.976 15.7381H3.024C2.69571 15.7377 2.38099 15.6111 2.14886 15.386C1.91673 15.1609 1.78613 14.8557 1.78571 14.5373V2.46267C1.78613 2.14433 1.91673 1.83914 2.14886 1.61405C2.38099 1.38895 2.69571 1.26231 3.024 1.2619H9.976C10.3043 1.26231 10.619 1.38895 10.8511 1.61405C11.0833 1.83914 11.2139 2.14433 11.2143 2.46267V14.5373Z" fill="#0B3558" stroke="#0B3558" stroke-width="0.4"/>
<path d="M8.07148 2.66223H4.92862C4.82443 2.66223 4.72451 2.70237 4.65083 2.77381C4.57716 2.84525 4.53577 2.94215 4.53577 3.04318C4.53577 3.14422 4.57716 3.24112 4.65083 3.31256C4.72451 3.384 4.82443 3.42414 4.92862 3.42414H8.07148C8.17567 3.42414 8.2756 3.384 8.34927 3.31256C8.42295 3.24112 8.46434 3.14422 8.46434 3.04318C8.46434 2.94215 8.42295 2.84525 8.34927 2.77381C8.2756 2.70237 8.17567 2.66223 8.07148 2.66223Z" fill="#0B3558" stroke="#0B3558" stroke-width="0.3"/>
<path d="M6.30357 12.2807C6.07047 12.2807 5.84261 12.3477 5.64879 12.4733C5.45498 12.5989 5.30392 12.7774 5.21471 12.9862C5.12551 13.195 5.10217 13.4248 5.14765 13.6465C5.19312 13.8682 5.30537 14.0718 5.4702 14.2317C5.63502 14.3915 5.84502 14.5004 6.07364 14.5445C6.30226 14.5886 6.53924 14.5659 6.75459 14.4794C6.96995 14.3929 7.15402 14.2464 7.28352 14.0585C7.41302 13.8706 7.48214 13.6496 7.48214 13.4236C7.48214 13.1205 7.35797 12.8298 7.13695 12.6154C6.91592 12.4011 6.61615 12.2807 6.30357 12.2807ZM6.30357 13.8045C6.22587 13.8045 6.14992 13.7822 6.08531 13.7403C6.02071 13.6984 5.97035 13.639 5.94062 13.5693C5.91088 13.4997 5.90311 13.4231 5.91826 13.3492C5.93342 13.2753 5.97084 13.2075 6.02578 13.1542C6.08072 13.1009 6.15072 13.0646 6.22693 13.0499C6.30314 13.0352 6.38213 13.0428 6.45391 13.0716C6.5257 13.1004 6.58705 13.1493 6.63022 13.2119C6.67339 13.2746 6.69643 13.3482 6.69643 13.4236C6.69643 13.5246 6.65504 13.6215 6.58136 13.6929C6.50769 13.7644 6.40776 13.8045 6.30357 13.8045Z" fill="#0B3558"/>
</svg>
