<svg width="22" height="22" viewBox="0 0 22 22" fill="none" xmlns="http://www.w3.org/2000/svg">
<path d="M1 5C1 2.79086 2.79086 1 5 1H17C19.2091 1 21 2.79086 21 5V17C21 19.2091 19.2091 21 17 21H5C2.79086 21 1 19.2091 1 17V5Z" stroke="#0B3558" stroke-width="2"/>
<path d="M10.9999 10.66C12.2867 10.66 13.3299 9.61678 13.3299 8.32996C13.3299 7.04313 12.2867 6 10.9999 6C9.7131 6 8.66992 7.04313 8.66992 8.32996C8.66992 9.61678 9.7131 10.66 10.9999 10.66Z" stroke="#0B3558" stroke-width="1.8" stroke-linecap="round" stroke-linejoin="round"/>
<path d="M15 16.32C15 14.52 13.21 13.0601 11 13.0601C8.79 13.0601 7 14.52 7 16.32" stroke="#0B3558" stroke-width="1.8" stroke-linecap="round" stroke-linejoin="round"/>
</svg>
