<svg width="40" height="40" viewBox="0 0 40 40" fill="none" xmlns="http://www.w3.org/2000/svg">
<circle cx="19.712" cy="19.712" r="19.712" fill="#DFE3E9"/>
<path d="M17.858 27.5967H26.6114M20.4479 13.8524C20.4479 13.8524 20.4479 15.2845 21.8442 16.7166C23.2405 18.1486 24.6367 18.1486 24.6367 18.1486M14.9258 24.958L17.858 24.5284C18.2809 24.4664 18.6729 24.2654 18.975 23.9556L26.033 16.7166C26.8042 15.9257 26.8042 14.6433 26.033 13.8524L24.6368 12.4203C23.8656 11.6294 22.6153 11.6294 21.8442 12.4203L14.7862 19.6593C14.4841 19.9692 14.2881 20.3712 14.2277 20.805L13.8088 23.8124C13.7157 24.4807 14.2742 25.0535 14.9258 24.958Z" stroke="#637591" stroke-width="1.5" stroke-linecap="round"/>
</svg>
