<svg width="83" height="18" viewBox="0 0 83 18" fill="none" xmlns="http://www.w3.org/2000/svg">
<path d="M3.63672 8.81836L0.451172 3.97852H1.87305L4.40234 7.88867H4.45703L6.97266 3.97852H8.38086L5.19531 8.81836L8.58594 14H7.17773L4.45703 9.81641H4.40234L1.6543 14H0.246094L3.63672 8.81836ZM10.7051 13.7402C10.1582 13.4121 9.73438 12.9609 9.43359 12.3867C9.13281 11.8125 8.98242 11.1654 8.98242 10.4453C8.98242 9.7526 9.1237 9.11914 9.40625 8.54492C9.69792 7.95247 10.1035 7.48763 10.623 7.15039C11.1608 6.80404 11.7669 6.63086 12.4414 6.63086C13.125 6.63086 13.7311 6.79036 14.2598 7.10938C14.7702 7.41927 15.1621 7.84766 15.4355 8.39453C15.7181 8.95964 15.8594 9.5931 15.8594 10.2949C15.8594 10.3496 15.8503 10.4681 15.832 10.6504H10.1719C10.1992 11.1973 10.3314 11.6576 10.5684 12.0312C10.7962 12.3867 11.0924 12.6647 11.457 12.8652C11.8125 13.0566 12.1862 13.1523 12.5781 13.1523C13.5078 13.1523 14.2142 12.7194 14.6973 11.8535L15.6953 12.3457C15.3945 12.9199 14.9798 13.3757 14.4512 13.7129C13.9225 14.0501 13.2845 14.2188 12.5371 14.2188C11.8444 14.2188 11.2337 14.0592 10.7051 13.7402ZM14.5879 9.67969C14.5788 9.37891 14.4967 9.07812 14.3418 8.77734C14.196 8.48568 13.9635 8.23503 13.6445 8.02539C13.3255 7.81576 12.9245 7.71094 12.4414 7.71094C11.8945 7.71094 11.416 7.89323 11.0059 8.25781C10.623 8.60417 10.3678 9.07812 10.2402 9.67969H14.5879ZM17.2402 6.86328H18.3613V7.91602H18.4297C18.6302 7.55143 18.9355 7.24609 19.3457 7C19.7559 6.75391 20.1888 6.63086 20.6445 6.63086C21.1549 6.63086 21.6107 6.75846 22.0117 7.01367C22.4036 7.26888 22.6816 7.60612 22.8457 8.02539C23.0918 7.60612 23.4245 7.26888 23.8438 7.01367C24.2721 6.75846 24.7552 6.63086 25.293 6.63086C26.1224 6.63086 26.7422 6.88151 27.1523 7.38281C27.5716 7.90234 27.7812 8.58138 27.7812 9.41992V14H26.6055V9.59766C26.6055 8.94141 26.4688 8.46289 26.1953 8.16211C25.9219 7.86133 25.5208 7.71094 24.9922 7.71094C24.6367 7.71094 24.3132 7.81576 24.0215 8.02539C23.7298 8.23503 23.502 8.50846 23.3379 8.8457C23.1829 9.16471 23.1055 9.53841 23.1055 9.9668V14H21.916V9.61133C21.916 8.94596 21.7793 8.46289 21.5059 8.16211C21.2324 7.86133 20.8359 7.71094 20.3164 7.71094C19.9609 7.71094 19.6374 7.81576 19.3457 8.02539C19.054 8.23503 18.8262 8.51758 18.6621 8.87305C18.5072 9.21029 18.4297 9.58398 18.4297 9.99414V14H17.2402V6.86328ZM34.6719 13.9727C34.4167 13.8724 34.2116 13.7448 34.0566 13.5898C33.6829 13.2344 33.4961 12.7467 33.4961 12.127V7.94336H32.252V6.86328H33.4961V4.83984H34.6855V6.86328H36.4355V7.94336H34.6855V11.8262C34.6855 12.2272 34.7585 12.5189 34.9043 12.7012C35.0775 12.9017 35.3372 13.002 35.6836 13.002C35.9844 13.002 36.2441 12.9245 36.4629 12.7695V13.9316C36.3353 13.9954 36.194 14.041 36.0391 14.0684C35.8932 14.0957 35.7064 14.1094 35.4785 14.1094C35.1777 14.1094 34.9089 14.0638 34.6719 13.9727ZM37.9258 3.97852H39.1152V6.93164L39.0469 7.91602H39.1152C39.2975 7.56055 39.6074 7.25521 40.0449 7C40.4642 6.75391 40.929 6.63086 41.4395 6.63086C42.3053 6.63086 42.9661 6.88607 43.4219 7.39648C43.8776 7.9069 44.1055 8.58138 44.1055 9.41992V14H42.916V9.59766C42.916 8.95964 42.752 8.48568 42.4238 8.17578C42.1048 7.86589 41.681 7.71094 41.1523 7.71094C40.7969 7.71094 40.4551 7.82487 40.127 8.05273C39.8171 8.27148 39.571 8.55859 39.3887 8.91406C39.2064 9.27865 39.1152 9.64779 39.1152 10.0215V14H37.9258V3.97852ZM47.1543 13.7402C46.6074 13.4121 46.1836 12.9609 45.8828 12.3867C45.582 11.8125 45.4316 11.1654 45.4316 10.4453C45.4316 9.7526 45.5729 9.11914 45.8555 8.54492C46.1471 7.95247 46.5527 7.48763 47.0723 7.15039C47.61 6.80404 48.2161 6.63086 48.8906 6.63086C49.5742 6.63086 50.1803 6.79036 50.709 7.10938C51.2194 7.41927 51.6113 7.84766 51.8848 8.39453C52.1673 8.95964 52.3086 9.5931 52.3086 10.2949C52.3086 10.3496 52.2995 10.4681 52.2812 10.6504H46.6211C46.6484 11.1973 46.7806 11.6576 47.0176 12.0312C47.2454 12.3867 47.5417 12.6647 47.9062 12.8652C48.2617 13.0566 48.6354 13.1523 49.0273 13.1523C49.957 13.1523 50.6634 12.7194 51.1465 11.8535L52.1445 12.3457C51.8438 12.9199 51.429 13.3757 50.9004 13.7129C50.3717 14.0501 49.7337 14.2188 48.9863 14.2188C48.2936 14.2188 47.6829 14.0592 47.1543 13.7402ZM51.0371 9.67969C51.028 9.37891 50.946 9.07812 50.791 8.77734C50.6452 8.48568 50.4128 8.23503 50.0938 8.02539C49.7747 7.81576 49.3737 7.71094 48.8906 7.71094C48.3438 7.71094 47.8652 7.89323 47.4551 8.25781C47.0723 8.60417 46.8171 9.07812 46.6895 9.67969H51.0371ZM46.9492 5.33203L48.3848 3.69141H49.4375L50.8594 5.33203V5.40039H49.7109L48.959 4.51172H48.8496L48.0977 5.40039H46.9492V5.33203ZM53.6895 6.86328H54.8105V7.91602H54.8789C55.0794 7.55143 55.3848 7.24609 55.7949 7C56.2051 6.75391 56.638 6.63086 57.0938 6.63086C57.6042 6.63086 58.0599 6.75846 58.4609 7.01367C58.8529 7.26888 59.1309 7.60612 59.2949 8.02539C59.541 7.60612 59.8737 7.26888 60.293 7.01367C60.7214 6.75846 61.2044 6.63086 61.7422 6.63086C62.5716 6.63086 63.1914 6.88151 63.6016 7.38281C64.0208 7.90234 64.2305 8.58138 64.2305 9.41992V14H63.0547V9.59766C63.0547 8.94141 62.918 8.46289 62.6445 8.16211C62.3711 7.86133 61.9701 7.71094 61.4414 7.71094C61.0859 7.71094 60.7624 7.81576 60.4707 8.02539C60.179 8.23503 59.9512 8.50846 59.7871 8.8457C59.6322 9.16471 59.5547 9.53841 59.5547 9.9668V14H58.3652V9.61133C58.3652 8.94596 58.2285 8.46289 57.9551 8.16211C57.6816 7.86133 57.2852 7.71094 56.7656 7.71094C56.4102 7.71094 56.0866 7.81576 55.7949 8.02539C55.5033 8.23503 55.2754 8.51758 55.1113 8.87305C54.9564 9.21029 54.8789 9.58398 54.8789 9.99414V14H53.6895V6.86328Z" fill="#0050A6"/>
<path d="M83 8.99674C82.9965 8.64575 82.8451 8.31018 82.5786 8.06273L79.5143 5.194C79.3805 5.06974 79.1994 5 79.0107 5C78.822 5 78.641 5.06974 78.5071 5.194C78.4402 5.25602 78.3871 5.32981 78.3508 5.41111C78.3145 5.4924 78.2959 5.5796 78.2959 5.66768C78.2959 5.75575 78.3145 5.84295 78.3508 5.92425C78.3871 6.00554 78.4402 6.07933 78.5071 6.14135L80.8571 8.32959H73.7143C73.5248 8.32959 73.3432 8.39988 73.2092 8.525C73.0753 8.65011 73 8.8198 73 8.99674C73 9.17368 73.0753 9.34337 73.2092 9.46848C73.3432 9.5936 73.5248 9.66389 73.7143 9.66389H80.8571L78.5071 11.8588C78.3726 11.9835 78.2967 12.1531 78.296 12.3301C78.2954 12.5072 78.37 12.6772 78.5036 12.8028C78.6371 12.9284 78.8186 12.9994 79.0082 13C79.1977 13.0006 79.3798 12.9309 79.5143 12.8062L82.5786 9.93742C82.8468 9.68834 82.9984 9.35005 83 8.99674Z" fill="#0050A6"/>
</svg>
