<svg width="19" height="25" viewBox="0 0 19 25" fill="none" xmlns="http://www.w3.org/2000/svg">
<path d="M2.7 22.6667C2.14772 22.6667 1.7 23.1144 1.7 23.6667C1.7 24.219 2.14772 24.6667 2.7 24.6667V22.6667ZM16.3 24.6667C16.8523 24.6667 17.3 24.219 17.3 23.6667C17.3 23.1144 16.8523 22.6667 16.3 22.6667V24.6667ZM17 9.5C17 11.3826 15.7902 13.8504 14.0927 15.9179C13.2608 16.9312 12.3552 17.7937 11.5061 18.3936C10.6259 19.0156 9.93233 19.2667 9.5 19.2667V21.2667C10.5552 21.2667 11.6678 20.7283 12.6603 20.027C13.6839 19.3037 14.7173 18.309 15.6385 17.187C17.4473 14.9839 19 12.0685 19 9.5H17ZM9.5 19.2667C9.08787 19.2667 8.40326 19.007 7.51719 18.3417C6.66643 17.703 5.75795 16.7867 4.9226 15.7167C3.21859 13.5341 2 10.9517 2 9.05926H0C0 11.6178 1.54391 14.6391 3.34615 16.9475C4.26392 18.123 5.29451 19.1739 6.31641 19.9411C7.30299 20.6818 8.42463 21.2667 9.5 21.2667V19.2667ZM2 9.05926C2 5.04079 5.57796 2 9.5 2V0C4.65912 0 0 3.75922 0 9.05926H2ZM9.5 2C13.3852 2 17 5.00671 17 9.5H19C19 3.79329 14.3777 0 9.5 0V2ZM11.9 8.93333C11.9 10.2588 10.8255 11.3333 9.5 11.3333V13.3333C11.9301 13.3333 13.9 11.3634 13.9 8.93333H11.9ZM9.5 11.3333C8.17452 11.3333 7.1 10.2588 7.1 8.93333H5.1C5.1 11.3634 7.06995 13.3333 9.5 13.3333V11.3333ZM7.1 8.93333C7.1 7.60785 8.17452 6.53333 9.5 6.53333V4.53333C7.06995 4.53333 5.1 6.50328 5.1 8.93333H7.1ZM9.5 6.53333C10.8255 6.53333 11.9 7.60785 11.9 8.93333H13.9C13.9 6.50328 11.9301 4.53333 9.5 4.53333V6.53333ZM2.7 24.6667H16.3V22.6667H2.7V24.6667Z" fill="#0B3558"/>
</svg>
