<svg width="60" height="18" viewBox="0 0 60 18" fill="none" xmlns="http://www.w3.org/2000/svg">
<path d="M58.4482 15.6045C58.4482 15.86 58.4997 16.047 58.6056 16.1639C58.71 16.2823 58.8409 16.3399 58.9983 16.3399C59.1556 16.3399 59.285 16.2807 59.3925 16.1654C59.4984 16.047 59.5514 15.8647 59.5514 15.6154C59.5514 15.3661 59.4953 15.1963 59.3878 15.0763C59.2787 14.9548 59.1478 14.894 58.9936 14.894C58.8393 14.894 58.7147 14.9548 58.6072 15.0732C58.5012 15.1932 58.4482 15.3692 58.4482 15.6045ZM58.1662 16.7747L58.4981 16.823C58.5106 16.9227 58.5511 16.9943 58.6134 17.0395C58.6991 17.1003 58.8144 17.1315 58.9593 17.1315C59.1182 17.1315 59.2398 17.1003 59.3255 17.0395C59.4112 16.9788 59.4704 16.8931 59.5 16.784C59.5171 16.717 59.5265 16.5752 59.5233 16.3602C59.3753 16.53 59.1899 16.6157 58.9671 16.6157C58.6913 16.6157 58.4779 16.5191 58.3252 16.3259C58.174 16.1327 58.0977 15.9005 58.0977 15.631C58.0977 15.4456 58.1335 15.2742 58.2021 15.1168C58.2722 14.9594 58.3719 14.8379 58.5043 14.7522C58.6352 14.6665 58.791 14.6244 58.9687 14.6244C59.2055 14.6244 59.4018 14.7179 59.5561 14.9034V14.6681H59.8693V16.3524C59.8693 16.6547 59.8381 16.8713 59.7742 16.9975C59.7103 17.1237 59.609 17.2234 59.4704 17.2966C59.3333 17.3699 59.1619 17.4072 58.9609 17.4072C58.7209 17.4072 58.5277 17.3543 58.3813 17.2499C58.2332 17.1455 58.1616 16.9881 58.1662 16.7778M56.0721 16.6126V14.665H56.3791V14.9423C56.5255 14.7273 56.739 14.6213 57.0179 14.6213C57.1394 14.6213 57.2501 14.6416 57.3529 14.6852C57.4542 14.7273 57.5305 14.7834 57.5804 14.8519C57.6318 14.9189 57.6661 15.0015 57.6879 15.095C57.6988 15.1558 57.705 15.2633 57.705 15.416V16.6142H57.3638V15.4284C57.3638 15.2944 57.3513 15.1932 57.3248 15.1262C57.2984 15.0592 57.2516 15.0077 57.1846 14.9672C57.1161 14.9267 57.0366 14.908 56.9462 14.908C56.8013 14.908 56.6751 14.9532 56.5692 15.042C56.4648 15.1308 56.4118 15.3007 56.4118 15.55V16.6142H56.0706L56.0721 16.6126ZM54.1369 16.8339H54.5249V17.2094H54.1369V16.8339ZM55.332 15V14.6167H55.6966V14.9205C55.6966 15.0716 55.6732 15.1885 55.6249 15.2695C55.5626 15.3739 55.4489 15.4705 55.2853 15.5578V15.6107C55.2853 16.0657 55.1341 16.3758 54.8319 16.5378C54.6838 16.6173 54.5218 16.6578 54.3457 16.6578C54.0575 16.6578 53.83 16.5705 53.6633 16.396C53.4888 16.2153 53.4031 15.9644 53.4031 15.6403C53.4031 15.2804 53.5075 15.0124 53.7131 14.8395C53.8876 14.6946 54.098 14.6229 54.3457 14.6229C54.6231 14.6229 54.849 14.7101 55.0235 14.8847C55.1559 15.0187 55.237 15.19 55.2697 15.4004C55.3554 15.349 55.4177 15.296 55.4535 15.2415C55.4909 15.1854 55.5096 15.1059 55.5081 15.0031H55.3305L55.332 15ZM53.7536 15.6388C53.7536 15.8803 53.8097 16.0657 53.9219 16.1981C54.0279 16.3228 54.1697 16.3851 54.3457 16.3851C54.5218 16.3851 54.6636 16.3228 54.768 16.1981C54.8802 16.0641 54.9378 15.8741 54.9378 15.6279C54.9378 15.3942 54.8802 15.2119 54.7664 15.081C54.6605 14.9563 54.5202 14.894 54.3457 14.894C54.1712 14.894 54.0263 14.9563 53.9219 15.0794C53.8097 15.2119 53.7536 15.3973 53.7536 15.6388ZM52.7923 15.0483V14.665H53.1584V14.9688C53.1584 15.1604 53.1351 15.2944 53.0899 15.3708C52.973 15.5656 52.7954 15.6762 52.5586 15.6996V16.6126H52.2547V16.3259C52.0974 16.5472 51.8855 16.6562 51.6159 16.6562C51.499 16.6562 51.3884 16.636 51.2856 16.5908C51.1827 16.5487 51.1064 16.4926 51.055 16.4256C51.0051 16.3586 50.9693 16.2776 50.949 16.181C50.9366 16.1156 50.9288 16.0127 50.9288 15.8725V14.665H51.27V15.7447C51.27 15.9192 51.2762 16.0361 51.2903 16.0938C51.3354 16.2792 51.4663 16.3727 51.6845 16.3727C51.7889 16.3727 51.8855 16.3462 51.9758 16.2948C52.0631 16.2433 52.127 16.1748 52.1644 16.0875C52.2002 16.0003 52.2189 15.8741 52.2189 15.7089V14.665H52.5601V15.5593C52.719 15.5328 52.8406 15.4596 52.9201 15.3412C52.9559 15.2898 52.973 15.1916 52.973 15.0483H52.7954H52.7923ZM49.1852 16.6126L48.1101 13.9233H48.5075L49.2289 15.8756C49.2865 16.0314 49.3348 16.1795 49.3738 16.315C49.4174 16.1685 49.4673 16.0221 49.5233 15.8756L50.2728 13.9233H50.6483L49.5607 16.6126H49.1837H49.1852ZM45.117 16.6126V13.9233H45.4582V14.8878C45.6156 14.7086 45.8166 14.6198 46.0597 14.6198C46.2077 14.6198 46.337 14.6478 46.4461 14.7055C46.5567 14.7616 46.6362 14.841 46.6829 14.9407C46.7312 15.042 46.753 15.1869 46.753 15.377V16.611H46.4118V15.377C46.4118 15.2119 46.376 15.0919 46.3027 15.0171C46.2279 14.9423 46.1235 14.9034 45.988 14.9034C45.8867 14.9034 45.7932 14.9298 45.7044 14.9797C45.6156 15.0296 45.5517 15.0981 45.5143 15.1854C45.4769 15.2711 45.4582 15.391 45.4582 15.5453V16.611H45.117V16.6126ZM42.9606 16.6126V14.665H43.2675V14.9423C43.4155 14.7273 43.629 14.6213 43.9079 14.6213C44.0279 14.6213 44.1401 14.6416 44.2413 14.6852C44.3442 14.7273 44.419 14.7834 44.4688 14.8519C44.5202 14.9189 44.5561 15.0015 44.5763 15.095C44.5872 15.1558 44.595 15.2633 44.595 15.416V16.6142H44.2538V15.4284C44.2538 15.2944 44.2413 15.1932 44.2133 15.1262C44.1868 15.0592 44.1416 15.0077 44.0731 14.9672C44.0045 14.9267 43.9266 14.908 43.8347 14.908C43.6898 14.908 43.5651 14.9532 43.4592 15.042C43.3532 15.1308 43.3002 15.3007 43.3002 15.55V16.6142H42.9606V16.6126ZM42.0771 16.8339H42.4651V17.2094H42.0771V16.8339ZM42.1005 14.665H42.4401V16.6126H42.1005V14.665ZM42.1005 13.9233H42.4401V14.3035H42.1005V13.9233ZM39.944 16.6126V13.9233H40.2853V14.8878C40.4442 14.7086 40.6436 14.6198 40.8867 14.6198C41.0347 14.6198 41.164 14.6478 41.2747 14.7055C41.3853 14.7616 41.4632 14.841 41.51 14.9407C41.5567 15.042 41.5816 15.1869 41.5816 15.377V16.611H41.2404V15.377C41.2404 15.2119 41.2046 15.0919 41.1313 15.0171C41.0581 14.9423 40.9521 14.9034 40.8181 14.9034C40.7169 14.9034 40.6218 14.9298 40.533 14.9797C40.4426 15.0296 40.3803 15.0981 40.3429 15.1854C40.304 15.2711 40.2853 15.391 40.2853 15.5453V16.611H39.944V16.6126ZM38.3252 16.6126V14.2412H37.4105V13.9233H39.6106V14.2412H38.6929V16.6126H38.3252ZM33.3392 16.6126V14.665H33.643V14.9376C33.7069 14.8426 33.791 14.7647 33.8954 14.707C33.9998 14.6494 34.1198 14.6198 34.2522 14.6198C34.4018 14.6198 34.5233 14.6494 34.6168 14.7101C34.7134 14.7694 34.7804 14.8535 34.8194 14.961C34.9799 14.7335 35.1856 14.6198 35.4411 14.6198C35.6405 14.6198 35.7948 14.6743 35.9007 14.7803C36.0082 14.8878 36.0628 15.0514 36.0628 15.2742V16.611H35.7247V15.3833C35.7247 15.2508 35.7137 15.1558 35.6904 15.0981C35.6686 15.0405 35.6281 14.9937 35.5704 14.9579C35.5112 14.922 35.4426 14.9049 35.3647 14.9049C35.2229 14.9049 35.1076 14.9501 35.0126 15.042C34.9191 15.1324 34.8724 15.2789 34.8724 15.4783V16.611H34.5311V15.3459C34.5311 15.1978 34.5031 15.0888 34.4486 15.014C34.394 14.9407 34.3037 14.9049 34.1759 14.9049C34.0793 14.9049 33.992 14.9298 33.9095 14.9781C33.8284 15.0264 33.7692 15.0981 33.7318 15.1916C33.6944 15.2866 33.6773 15.4222 33.6773 15.5998V16.6095H33.3361L33.3392 16.6126ZM32.4666 15.6357C32.342 15.6855 32.1566 15.726 31.9104 15.7603C31.7702 15.779 31.6704 15.8024 31.6128 15.8258C31.5551 15.8507 31.5084 15.8865 31.4788 15.9333C31.4476 15.98 31.4305 16.033 31.4305 16.0891C31.4305 16.1763 31.4663 16.2511 31.5364 16.3103C31.6034 16.368 31.7047 16.3976 31.8372 16.3976C31.9696 16.3976 32.0865 16.3695 32.1877 16.3134C32.289 16.2574 32.3654 16.181 32.4137 16.0844C32.4495 16.0096 32.4682 15.899 32.4682 15.7541V15.6326L32.4666 15.6357ZM32.4947 16.3727C32.3685 16.4771 32.2469 16.5503 32.1316 16.5939C32.0148 16.636 31.8886 16.6578 31.7546 16.6578C31.5333 16.6578 31.365 16.6064 31.2451 16.5004C31.1267 16.396 31.0674 16.262 31.0674 16.1C31.0674 16.0049 31.0877 15.9177 31.1344 15.8382C31.1781 15.7603 31.2388 15.6964 31.3105 15.6481C31.3837 15.5998 31.4648 15.564 31.5567 15.5391C31.6237 15.5219 31.7234 15.5048 31.859 15.4892C32.1332 15.4565 32.3373 15.4206 32.4666 15.3755C32.4666 15.3303 32.4682 15.3007 32.4682 15.2898C32.4682 15.1558 32.4355 15.0607 32.37 15.0062C32.2843 14.9314 32.155 14.894 31.9821 14.894C31.8216 14.894 31.7032 14.9205 31.6268 14.975C31.5505 15.0296 31.4959 15.1262 31.4585 15.2648L31.1251 15.2196C31.1547 15.0825 31.2046 14.9704 31.2747 14.8862C31.3432 14.8005 31.4445 14.7351 31.5754 14.6899C31.7063 14.6447 31.8574 14.6213 32.0319 14.6213C32.2064 14.6213 32.342 14.6416 32.4495 14.6805C32.557 14.7195 32.6365 14.7678 32.6863 14.8286C32.7377 14.8878 32.772 14.9626 32.7923 15.0529C32.8032 15.109 32.8094 15.2103 32.8094 15.3568V15.7962C32.8094 16.1031 32.8172 16.2979 32.8328 16.3789C32.8468 16.4599 32.8749 16.5378 32.9185 16.6126H32.5632C32.5274 16.5441 32.5056 16.4646 32.4947 16.3727ZM28.4233 16.6126V13.9233H28.8004L30.2572 16.0345V13.9233H30.6094V16.6126H30.2338L28.7754 14.4998V16.6126H28.4233ZM26.9727 16.3166L27.021 16.6079C26.926 16.6266 26.8403 16.6375 26.7639 16.6375C26.6393 16.6375 26.5442 16.6188 26.4757 16.5814C26.4087 16.544 26.3604 16.4942 26.3323 16.4319C26.3043 16.3711 26.2903 16.2402 26.2903 16.0423V14.9205H26.041V14.6634H26.2903V14.1804L26.6299 13.9825V14.6618H26.9727V14.9189H26.6299V16.0579C26.6299 16.153 26.6362 16.2137 26.6486 16.2402C26.6611 16.2667 26.6798 16.2885 26.7063 16.3041C26.7328 16.3197 26.7717 16.3275 26.8231 16.3275C26.8621 16.3275 26.9104 16.3228 26.9727 16.3134M24.7197 16.8339H25.1076V17.2094H24.7197V16.8339ZM24.8911 14.1103L24.6776 14.4219H24.2865L24.6963 13.9077H25.0609L25.4863 14.4219H25.0999L24.8926 14.1103H24.8911ZM24.3317 15.4503H25.4535C25.4395 15.2866 25.3959 15.1636 25.3258 15.0825C25.2183 14.9563 25.0765 14.8924 24.9051 14.8924C24.7493 14.8924 24.6168 14.9423 24.5093 15.0451C24.4018 15.1464 24.3442 15.282 24.3317 15.4518M25.4504 15.9862L25.801 16.0283C25.7449 16.2278 25.6436 16.382 25.4925 16.4942C25.3414 16.6033 25.1497 16.6578 24.916 16.6578C24.6231 16.6578 24.3893 16.5705 24.2164 16.3945C24.045 16.2184 23.9593 15.9738 23.9593 15.6559C23.9593 15.3381 24.0466 15.0732 24.2195 14.8924C24.394 14.7117 24.62 14.6213 24.8973 14.6213C25.1746 14.6213 25.385 14.7101 25.5564 14.8878C25.7262 15.0654 25.8119 15.3147 25.8119 15.6357C25.8119 15.6559 25.8119 15.6855 25.8104 15.7245H24.3114C24.3255 15.9379 24.3878 16.1031 24.5 16.2153C24.6122 16.329 24.7524 16.3867 24.9191 16.3867C25.0453 16.3867 25.1513 16.3555 25.2385 16.2901C25.3289 16.2278 25.3975 16.1249 25.4504 15.9862ZM23.213 14.665H23.5542V16.6126H23.213V14.665ZM23.213 13.9233H23.5542V14.3035H23.213V13.9233ZM21.5333 16.6126L20.4582 13.9233H20.8571L21.5785 15.8756C21.6362 16.0314 21.686 16.1795 21.725 16.315C21.7686 16.1685 21.8169 16.0221 21.8745 15.8756L22.624 13.9233H22.998L21.9104 16.6126H21.5349H21.5333ZM17.6832 15.6045C17.6832 15.86 17.7346 16.047 17.8406 16.1639C17.9465 16.2823 18.0774 16.3399 18.2348 16.3399C18.3922 16.3399 18.5215 16.2807 18.629 16.1654C18.7334 16.047 18.7879 15.8647 18.7879 15.6154C18.7879 15.3661 18.7349 15.1963 18.6228 15.0763C18.5152 14.9548 18.3828 14.894 18.2286 14.894C18.0743 14.894 17.9496 14.9548 17.8421 15.0732C17.7362 15.1932 17.6832 15.3692 17.6832 15.6045ZM17.4012 16.7747L17.7331 16.823C17.7471 16.9227 17.7845 16.9943 17.8484 17.0395C17.9341 17.1003 18.0494 17.1315 18.1943 17.1315C18.3532 17.1315 18.4732 17.1003 18.5604 17.0395C18.6477 16.9788 18.7053 16.8931 18.7349 16.784C18.7536 16.717 18.7599 16.5752 18.7599 16.3602C18.6118 16.53 18.4264 16.6157 18.2036 16.6157C17.9278 16.6157 17.7144 16.5191 17.5617 16.3259C17.4105 16.1327 17.3342 15.9005 17.3342 15.631C17.3342 15.4456 17.37 15.2742 17.437 15.1168C17.5071 14.9594 17.6084 14.8379 17.7409 14.7522C17.8717 14.6665 18.0276 14.6244 18.2052 14.6244C18.4436 14.6244 18.6383 14.7179 18.7926 14.9034V14.6681H19.1073V16.3524C19.1073 16.6547 19.0762 16.8713 19.0123 16.9975C18.9484 17.1237 18.8471 17.2234 18.7085 17.2966C18.5713 17.3699 18.3999 17.4072 18.1989 17.4072C17.959 17.4072 17.7658 17.3543 17.6178 17.2499C17.4697 17.1455 17.4012 16.9881 17.4043 16.7778M15.3071 16.6126V14.665H15.614V14.9423C15.7621 14.7273 15.974 14.6213 16.2529 14.6213C16.3744 14.6213 16.4866 14.6416 16.5879 14.6852C16.6907 14.7273 16.7655 14.7834 16.8169 14.8519C16.8683 14.9189 16.9026 15.0015 16.9228 15.095C16.9353 15.1558 16.9415 15.2633 16.9415 15.416V16.6142H16.6003V15.4284C16.6003 15.2944 16.5879 15.1932 16.5614 15.1262C16.5349 15.0592 16.4881 15.0077 16.4196 14.9672C16.351 14.9267 16.2731 14.908 16.1827 14.908C16.0378 14.908 15.9132 14.9532 15.8072 15.042C15.7028 15.1308 15.6499 15.3007 15.6499 15.55V16.6142H15.3086L15.3071 16.6126ZM14.2491 14.4235H13.9749L13.5386 13.9093H13.9936L14.2491 14.4235ZM14.4345 15.6357C14.3099 15.6855 14.1245 15.726 13.8783 15.7603C13.7381 15.779 13.6383 15.8024 13.5822 15.8258C13.5246 15.8507 13.4778 15.8865 13.4482 15.9333C13.4155 15.98 13.3999 16.033 13.3999 16.0891C13.3999 16.1763 13.4342 16.2511 13.5028 16.3103C13.5713 16.368 13.6726 16.3976 13.8051 16.3976C13.9375 16.3976 14.0544 16.3695 14.1556 16.3134C14.2569 16.2574 14.3333 16.181 14.3816 16.0844C14.419 16.0096 14.4361 15.899 14.4361 15.7541V15.6326L14.4345 15.6357ZM14.4626 16.3727C14.3364 16.4771 14.2148 16.5503 14.0995 16.5939C13.9827 16.636 13.8565 16.6578 13.7225 16.6578C13.5028 16.6578 13.3329 16.6064 13.213 16.5004C13.0946 16.396 13.0353 16.262 13.0353 16.1C13.0353 16.0049 13.0587 15.9177 13.1039 15.8382C13.1475 15.7603 13.2067 15.6964 13.2784 15.6481C13.3516 15.5998 13.4327 15.564 13.5246 15.5391C13.5916 15.5219 13.6913 15.5048 13.8269 15.4892C14.1011 15.4565 14.3052 15.4206 14.4345 15.3755C14.4345 15.3303 14.4361 15.3007 14.4361 15.2898C14.4361 15.1558 14.4034 15.0607 14.3379 15.0062C14.2522 14.9314 14.1214 14.894 13.95 14.894C13.7895 14.894 13.6711 14.9205 13.5947 14.975C13.5168 15.0296 13.4623 15.1262 13.4249 15.2648L13.0914 15.2196C13.1226 15.0825 13.1709 14.9704 13.241 14.8862C13.3096 14.8005 13.4109 14.7351 13.5417 14.6899C13.6742 14.6447 13.8253 14.6213 13.9983 14.6213C14.1712 14.6213 14.3083 14.6416 14.4158 14.6805C14.5233 14.7195 14.6028 14.7678 14.6527 14.8286C14.7025 14.8878 14.7384 14.9626 14.7586 15.0529C14.7695 15.109 14.7742 15.2103 14.7742 15.3568V15.7962C14.7742 16.1031 14.782 16.2979 14.7976 16.3789C14.8116 16.4599 14.8412 16.5378 14.8833 16.6126H14.528C14.4922 16.5441 14.4704 16.4646 14.4595 16.3727M10.4068 16.6126V13.9233H10.7745V15.028H12.2158V13.9233H12.5835V16.6126H12.2158V15.3459H10.7745V16.6126H10.4068ZM7.12073 16.6126V14.665H7.42612V14.9423C7.57258 14.7273 7.7876 14.6213 8.06495 14.6213C8.18648 14.6213 8.29711 14.6416 8.39839 14.6852C8.50122 14.7273 8.57601 14.7834 8.62743 14.8519C8.67885 14.9189 8.71469 15.0015 8.73494 15.095C8.74585 15.1558 8.75364 15.2633 8.75364 15.416V16.6142H8.41241V15.4284C8.41241 15.2944 8.39995 15.1932 8.37346 15.1262C8.34697 15.0592 8.30023 15.0077 8.23323 14.9672C8.16467 14.9267 8.08676 14.908 7.99639 14.908C7.84993 14.908 7.72528 14.9532 7.62089 15.042C7.51493 15.1308 7.46352 15.3007 7.46352 15.55V16.6142H7.12385L7.12073 16.6126ZM5.77919 14.1103L5.56573 14.4219H5.1762L5.58443 13.9077H5.94903L6.37439 14.4219H5.98798L5.78075 14.1103H5.77919ZM6.24663 15.6357C6.12042 15.6855 5.93656 15.726 5.69038 15.7603C5.54859 15.779 5.45043 15.8024 5.39122 15.8258C5.33357 15.8507 5.28838 15.8865 5.25878 15.9333C5.22606 15.98 5.21048 16.033 5.21048 16.0891C5.21048 16.1763 5.24476 16.2511 5.31331 16.3103C5.38187 16.368 5.48315 16.3976 5.61559 16.3976C5.74803 16.3976 5.86333 16.3695 5.96617 16.3134C6.069 16.2574 6.14379 16.181 6.19209 16.0844C6.22793 16.0096 6.24663 15.899 6.24663 15.7541V15.6326V15.6357ZM6.27467 16.3727C6.14846 16.4771 6.02693 16.5503 5.91007 16.5939C5.79321 16.636 5.66856 16.6578 5.53457 16.6578C5.31331 16.6578 5.14504 16.6064 5.02506 16.5004C4.90664 16.396 4.84744 16.262 4.84744 16.1C4.84744 16.0049 4.87081 15.9177 4.91599 15.8382C4.95962 15.7603 5.01883 15.6964 5.0905 15.6481C5.16373 15.5998 5.24476 15.564 5.33669 15.5391C5.40368 15.5219 5.50496 15.5048 5.63896 15.4892C5.91475 15.4565 6.1173 15.4206 6.24818 15.3755C6.24818 15.3303 6.24974 15.3007 6.24974 15.2898C6.24974 15.1558 6.21702 15.0607 6.15158 15.0062C6.06588 14.9314 5.935 14.894 5.76361 14.894C5.60312 14.894 5.48471 14.9205 5.40836 14.975C5.33201 15.0296 5.27592 15.1262 5.23852 15.2648L4.90664 15.2196C4.93625 15.0825 4.98611 14.9704 5.05622 14.8862C5.12478 14.8005 5.22606 14.7351 5.35694 14.6899C5.48782 14.6447 5.64052 14.6213 5.81347 14.6213C5.98642 14.6213 6.12354 14.6416 6.23105 14.6805C6.33856 14.7195 6.41802 14.7678 6.46788 14.8286C6.5193 14.8878 6.55358 14.9626 6.57383 15.0529C6.58474 15.109 6.59097 15.2103 6.59097 15.3568V15.7962C6.59097 16.1031 6.5972 16.2979 6.61278 16.3789C6.62836 16.4599 6.65641 16.5378 6.69848 16.6126H6.34323C6.30739 16.5441 6.28402 16.4646 6.27467 16.3727ZM3.026 15.6045C3.026 15.86 3.07897 16.047 3.18337 16.1639C3.28776 16.2823 3.41864 16.3399 3.57601 16.3399C3.73338 16.3399 3.86271 16.2807 3.97022 16.1654C4.07617 16.047 4.12759 15.8647 4.12759 15.6154C4.12759 15.3661 4.07461 15.1963 3.96398 15.0763C3.85492 14.9548 3.72248 14.894 3.56978 14.894C3.41708 14.894 3.28932 14.9548 3.18181 15.0732C3.07586 15.1932 3.02288 15.3692 3.02288 15.6045M2.74554 16.7747L3.07586 16.823C3.08988 16.9227 3.12727 16.9943 3.19116 17.0395C3.2753 17.1003 3.3906 17.1315 3.53706 17.1315C3.69599 17.1315 3.81752 17.1003 3.90322 17.0395C3.98891 16.9788 4.04656 16.8931 4.07773 16.784C4.09642 16.717 4.10421 16.5752 4.1011 16.3602C3.95152 16.53 3.7661 16.6157 3.54485 16.6157C3.26906 16.6157 3.05404 16.5191 2.90446 16.3259C2.75333 16.1327 2.67698 15.9005 2.67698 15.631C2.67698 15.4456 2.71281 15.2742 2.78137 15.1168C2.85149 14.9594 2.95121 14.8379 3.08365 14.7522C3.21609 14.6665 3.37034 14.6244 3.54797 14.6244C3.7848 14.6244 3.98112 14.7179 4.13382 14.9034V14.6681H4.44856V16.3524C4.44856 16.6547 4.41584 16.8713 4.35351 16.9975C4.28807 17.1237 4.18835 17.2234 4.05124 17.2966C3.91257 17.3699 3.74273 17.4072 3.54018 17.4072C3.30023 17.4072 3.10702 17.3543 2.959 17.2499C2.81098 17.1455 2.7393 16.9881 2.74554 16.7778M0.046875 16.6126V13.9233H0.422381L1.87922 16.0345V13.9233H2.23136V16.6126H1.85429L0.397452 14.4998V16.6126H0.046875Z" fill="#ED1C24"/>
<path fill-rule="evenodd" clip-rule="evenodd" d="M0 5.71973C1.60019 7.28563 2.84201 8.75961 4.23652 10.1463C5.38641 11.3508 6.52696 12.5521 7.4665 12.711C7.47429 11.586 7.48364 10.4595 7.49299 9.33456C6.06731 7.91823 4.66033 6.09212 3.19103 5.71973H0Z" fill="#ED1C24"/>
<path fill-rule="evenodd" clip-rule="evenodd" d="M15.4876 5.71973C13.8874 7.28563 12.6456 8.75961 11.2511 10.1463C10.1012 11.3508 8.96066 12.5521 8.02112 12.711C8.01177 11.586 8.00398 10.4595 7.99463 9.33456C9.42031 7.91823 10.8257 6.09212 12.295 5.71973H15.4876Z" fill="#ED1C24"/>
<path fill-rule="evenodd" clip-rule="evenodd" d="M7.46458 3.40126V8.59447L5.49045 6.5175C4.92797 5.85997 4.34367 5.44396 4.24707 4.10086V0.013916L7.46614 3.40126H7.46458Z" fill="#ED1C24"/>
<path fill-rule="evenodd" clip-rule="evenodd" d="M7.99277 3.40137V8.59458L9.9669 6.51761C10.5278 5.86008 11.0794 5.4316 11.176 4.08694V0L7.99121 3.40137H7.99277Z" fill="#ED1C24"/>
<path fill-rule="evenodd" clip-rule="evenodd" d="M55.5718 8.70368L57.2 7.01935C57.6955 6.59554 58.0398 6.40078 58.2595 6.38208H59.9999L56.502 9.94705C56.1374 10.2914 55.8912 10.4332 55.5733 10.4846V8.70368H55.5718Z" fill="#ED1C24"/>
<path d="M26.1004 12.5428L26.0957 3.41064H28.7663C29.7775 3.41064 30.4382 3.45739 30.7451 3.54776C31.2172 3.68332 31.6161 3.97936 31.934 4.43433C32.2534 4.89086 32.4123 5.48138 32.4123 6.20279C32.4123 6.7606 32.2861 7.19687 32.1022 7.57549C31.9184 7.95567 31.6862 8.25483 31.3995 8.47297C31.1175 8.68799 30.8308 8.83601 30.5379 8.90145C30.1406 8.99182 29.5968 9.06661 28.8442 9.06661H27.7582L27.7629 12.5443H26.0988L26.1004 12.5428ZM27.7395 4.78958V7.67989H28.6027C29.3397 7.67989 29.8336 7.62691 30.0798 7.5194C30.3291 7.41345 30.5223 7.24673 30.6641 7.01925C30.8043 6.79176 30.876 6.52844 30.876 6.22772C30.876 5.85689 30.7778 5.5515 30.5784 5.30999C30.3836 5.07004 30.1297 4.92046 29.829 4.85969C29.6046 4.81451 29.1574 4.79114 28.4843 4.79114H27.7395V4.78958Z" fill="#008445"/>
<path d="M33.4873 3.40137H36.9526C38.2271 3.4263 39.3863 4.17887 39.377 5.59208C39.3708 6.41321 39.1994 7.09878 38.2474 7.58959C39.2274 7.94172 39.8881 8.87659 39.9675 9.89249C40.0641 11.1218 39.4767 12.2686 37.5961 12.4992C37.3483 12.5319 36.9713 12.5506 36.0177 12.5506H33.4967L33.4889 3.40293L33.4873 3.40137ZM34.9831 4.73512V7.0458H35.7918C36.4306 7.0458 36.7204 7.04736 36.8747 7.02555C37.1551 6.98504 37.4543 6.81832 37.6132 6.62044C37.7737 6.42256 37.8812 6.19663 37.8812 5.8741C37.8812 5.55157 37.7908 5.34122 37.6537 5.14802C37.515 4.95481 37.2735 4.83795 37.0009 4.799C36.8388 4.77563 36.429 4.73667 35.6593 4.73667H34.9831V4.73512ZM34.9847 8.32346V11.1359H36.3511C36.951 11.1359 37.3296 11.1078 37.4932 11.072C38.0152 10.9567 38.4047 10.388 38.3798 9.86132C38.3237 8.60236 36.9572 8.33125 36.3761 8.32346H34.9847Z" fill="#008445"/>
<path fill-rule="evenodd" clip-rule="evenodd" d="M44.7851 9.42339V10.8304C44.3987 11.2931 42.8764 12.2031 42.6832 10.7805L42.6676 10.2881C42.7175 9.80357 43.026 9.47325 43.8518 9.40781C44.1619 9.41249 44.4735 9.41872 44.7851 9.42339ZM41.4149 6.55646V6.7559C41.552 7.03168 41.6814 7.32617 41.8029 7.65026C42.3217 7.38382 42.8531 7.27319 43.3891 7.18282C44.2086 7.06908 44.7337 7.35421 44.7742 7.85904V8.46359C43.2909 8.48385 42.3669 8.68329 41.7078 9.16942C41.1687 9.68516 40.9023 10.4346 41.2404 11.7029C41.5551 12.415 42.1239 12.6939 42.8671 12.6767C43.7272 12.6549 44.3364 12.2903 44.8521 11.7964C44.8989 12.0457 44.9799 12.2934 45.1326 12.5427H46.4134C46.3791 12.3651 46.3588 12.0831 46.3464 11.7559C46.3464 10.4003 46.3495 9.27693 46.3495 7.92137C46.3121 7.07219 46.0005 6.35546 45.1871 6.14356C43.9936 5.83816 42.7082 6.09058 41.4134 6.55646" fill="#008445"/>
<path fill-rule="evenodd" clip-rule="evenodd" d="M49.1678 12.5241H47.563V6.17322H48.7565L48.9482 6.2745L48.9949 6.8214L49.0666 6.8323C49.7646 6.3337 50.5702 6.02052 51.4489 6.0548C52.3059 6.12492 52.817 6.61417 52.8434 7.63941V12.5397H51.2059V7.85287C51.0797 6.77621 49.7864 7.43062 49.1694 7.78899V12.5257L49.1678 12.5241Z" fill="#008445"/>
<path fill-rule="evenodd" clip-rule="evenodd" d="M57.423 8.9856L59.7758 12.5397H57.892C57.4199 11.6796 56.82 10.8211 56.4336 9.99526L57.423 8.9856Z" fill="#008445"/>
<path d="M55.5798 3.39355H53.9609V12.5568H55.5798V3.39355Z" fill="#008445"/>
<path fill-rule="evenodd" clip-rule="evenodd" d="M17.8188 3.37793H19.4658C19.8662 6.26201 20.5128 8.80797 21.4804 10.9177C22.6147 8.10214 23.1959 5.62474 23.4 3.37793H25.0283C24.6154 6.396 23.8581 9.40473 22.2564 12.5256H20.611C19.0809 9.70233 18.3128 6.61414 17.8204 3.37793" fill="#008445"/>
</svg>
