<svg width="40" height="40" viewBox="0 0 40 40" fill="none" xmlns="http://www.w3.org/2000/svg">
<circle cx="20" cy="20" r="20" fill="#DFE3E9"/>
<path d="M19.9996 16.3481C19.5201 16.3481 19.0452 16.4426 18.6021 16.6261C18.159 16.8097 17.7564 17.0787 17.4173 17.4178C17.0782 17.7569 16.8092 18.1595 16.6256 18.6026C16.4421 19.0456 16.3477 19.5205 16.3477 20.0001C16.3477 20.4797 16.4421 20.9546 16.6256 21.3977C16.8092 21.8408 17.0782 22.2433 17.4173 22.5825C17.7564 22.9216 18.159 23.1906 18.6021 23.3741C19.0452 23.5576 19.5201 23.6521 19.9996 23.6521C20.9682 23.6521 21.8971 23.2673 22.582 22.5825C23.2669 21.8976 23.6516 20.9687 23.6516 20.0001C23.6516 19.0316 23.2669 18.1027 22.582 17.4178C21.8971 16.7329 20.9682 16.3481 19.9996 16.3481ZM17.4727 20.0001C17.4727 19.3299 17.739 18.6872 18.2128 18.2133C18.6867 17.7394 19.3295 17.4732 19.9996 17.4732C20.6698 17.4732 21.3125 17.7394 21.7864 18.2133C22.2603 18.6872 22.5265 19.3299 22.5265 20.0001C22.5265 20.6703 22.2603 21.313 21.7864 21.7869C21.3125 22.2608 20.6698 22.527 19.9996 22.527C19.3295 22.527 18.6867 22.2608 18.2128 21.7869C17.739 21.313 17.4727 20.6703 17.4727 20.0001Z" fill="#0B3558" stroke="#0B3558" stroke-width="0.2"/>
<path d="M22.0206 12.5104C21.4277 10.4965 18.5723 10.4965 17.9794 12.5104L17.8736 12.8693C17.8322 13.0099 17.7599 13.1394 17.6619 13.2484C17.5639 13.3574 17.4428 13.4431 17.3074 13.4992C17.172 13.5553 17.0258 13.5804 16.8795 13.5726C16.7331 13.5648 16.5904 13.5244 16.4617 13.4543L16.1331 13.2743C14.288 12.2708 12.2708 14.2891 13.2755 16.1331L13.4543 16.4617C13.5244 16.5904 13.5648 16.7331 13.5726 16.8795C13.5804 17.0258 13.5553 17.172 13.4992 17.3074C13.4431 17.4428 13.3574 17.5639 13.2484 17.6619C13.1394 17.7599 13.0099 17.8322 12.8693 17.8736L12.5104 17.9794C10.4965 18.5723 10.4965 21.4277 12.5104 22.0206L12.8693 22.1264C13.0099 22.1678 13.1394 22.2401 13.2484 22.3381C13.3574 22.4361 13.4431 22.5572 13.4992 22.6926C13.5553 22.828 13.5804 22.9742 13.5726 23.1205C13.5648 23.2669 13.5244 23.4096 13.4543 23.5383L13.2743 23.8669C12.2708 25.712 14.288 27.7304 16.1331 26.7245L16.4617 26.5457C16.5904 26.4756 16.7331 26.4352 16.8795 26.4274C17.0258 26.4196 17.172 26.4447 17.3074 26.5008C17.4428 26.5569 17.5639 26.6426 17.6619 26.7516C17.7599 26.8606 17.8322 26.9901 17.8736 27.1307L17.9794 27.4896C18.5723 29.5035 21.4277 29.5035 22.0206 27.4896L22.1264 27.1307C22.1678 26.9901 22.2401 26.8606 22.3381 26.7516C22.4361 26.6426 22.5572 26.5569 22.6926 26.5008C22.828 26.4447 22.9742 26.4196 23.1205 26.4274C23.2669 26.4352 23.4096 26.4756 23.5383 26.5457L23.8669 26.7257C25.712 27.7304 27.7304 25.7109 26.7245 23.8669L26.5457 23.5383C26.4756 23.4096 26.4352 23.2669 26.4274 23.1205C26.4196 22.9742 26.4447 22.828 26.5008 22.6926C26.5569 22.5572 26.6426 22.4361 26.7516 22.3381C26.8606 22.2401 26.9901 22.1678 27.1307 22.1264L27.4896 22.0206C29.5035 21.4277 29.5035 18.5723 27.4896 17.9794L27.1307 17.8736C26.9901 17.8322 26.8606 17.7599 26.7516 17.6619C26.6426 17.5639 26.5569 17.4428 26.5008 17.3074C26.4447 17.172 26.4196 17.0258 26.4274 16.8795C26.4352 16.7331 26.4756 16.5904 26.5457 16.4617L26.7257 16.1331C27.7304 14.288 25.7109 12.2708 23.8669 13.2755L23.5383 13.4543C23.4096 13.5244 23.2669 13.5648 23.1205 13.5726C22.9742 13.5804 22.828 13.5553 22.6926 13.4992C22.5572 13.4431 22.4361 13.3574 22.3381 13.2484C22.2401 13.1394 22.1678 13.0099 22.1264 12.8693L22.0206 12.5104ZM19.0583 12.8288C19.3351 11.8894 20.6649 11.8894 20.9417 12.8288L21.0474 13.1877C21.1363 13.4893 21.2916 13.7672 21.5019 14.001C21.7122 14.2348 21.9721 14.4186 22.2626 14.5389C22.5531 14.6592 22.8669 14.7129 23.1809 14.6962C23.4949 14.6794 23.8012 14.5926 24.0773 14.4422L24.4047 14.2621C25.2642 13.7952 26.2048 14.7347 25.7367 15.5953L25.5578 15.9239C25.4076 16.2 25.321 16.5062 25.3044 16.8202C25.2879 17.1341 25.3418 17.4477 25.4622 17.7381C25.5825 18.0285 25.7664 18.2883 26.0002 18.4985C26.234 18.7086 26.5119 18.8637 26.8134 18.9526L27.1712 19.0583C28.1106 19.3351 28.1106 20.6649 27.1712 20.9417L26.8123 21.0474C26.5107 21.1363 26.2328 21.2916 25.999 21.5019C25.7652 21.7122 25.5814 21.9721 25.4611 22.2626C25.3408 22.5531 25.2871 22.8669 25.3038 23.1809C25.3206 23.4949 25.4074 23.8012 25.5578 24.0773L25.7379 24.4047C26.2048 25.2642 25.2653 26.2048 24.4047 25.7367L24.0773 25.5578C23.8011 25.4074 23.4947 25.3206 23.1807 25.3039C22.8666 25.2873 22.5528 25.3411 22.2623 25.4615C21.9717 25.5819 21.7118 25.7658 21.5016 25.9998C21.2914 26.2337 21.1362 26.5117 21.0474 26.8134L20.9417 27.1712C20.6649 28.1106 19.3351 28.1106 19.0583 27.1712L18.9526 26.8123C18.8636 26.5108 18.7084 26.2331 18.4982 25.9994C18.288 25.7657 18.0282 25.582 17.7378 25.4617C17.4474 25.3415 17.1338 25.2877 16.82 25.3043C16.5061 25.3209 16.1999 25.4076 15.9239 25.5578L15.5953 25.7379C14.7358 26.2048 13.7952 25.2653 14.2633 24.4047L14.4422 24.0773C14.5929 23.8011 14.6798 23.4947 14.6967 23.1806C14.7135 22.8665 14.6598 22.5526 14.5395 22.2619C14.4192 21.9712 14.2354 21.7112 14.0014 21.5008C13.7675 21.2905 13.4895 21.1352 13.1877 21.0463L12.8288 20.9406C11.8894 20.6638 11.8894 19.334 12.8288 19.0572L13.1877 18.9514C13.489 18.8625 13.7666 18.7072 14.0002 18.4971C14.2337 18.287 14.4174 18.0273 14.5376 17.7371C14.6579 17.4469 14.7117 17.1334 14.6952 16.8197C14.6787 16.5059 14.5922 16.1999 14.4422 15.9239L14.2621 15.5953C13.7952 14.7358 14.7347 13.7952 15.5953 14.2633L15.9239 14.4422C16.1999 14.5924 16.5061 14.6791 16.82 14.6957C17.1338 14.7123 17.4474 14.6585 17.7378 14.5383C18.0282 14.418 18.288 14.2343 18.4982 14.0006C18.7084 13.7669 18.8636 13.4892 18.9526 13.1877L19.0583 12.8288Z" fill="#0B3558" stroke="#0B3558" stroke-width="0.2"/>
</svg>
