<svg width="60" height="28" viewBox="0 0 60 28" fill="none" xmlns="http://www.w3.org/2000/svg">
<path d="M41.8091 15.7471C41.7689 15.7107 41.7225 15.6819 41.672 15.6621C41.7979 15.6569 41.9172 15.6045 42.006 15.5151C42.0466 15.4749 42.0787 15.4269 42.1004 15.374C42.122 15.3211 42.1328 15.2642 42.1321 15.207C42.1324 15.1227 42.1062 15.0406 42.0571 14.9722C42.0091 14.8998 41.9389 14.8448 41.857 14.8159C41.7291 14.781 41.5965 14.7662 41.464 14.772H40.894V16.3808H41.154V15.6982H41.3061C41.36 15.6962 41.4137 15.7049 41.464 15.7241C41.4824 15.7312 41.4996 15.7408 41.5151 15.7529C41.6275 15.8603 41.7194 15.9874 41.7861 16.1279L41.9291 16.3799H42.2461L42.0461 16.0669C41.979 15.9519 41.8996 15.8447 41.8091 15.7471ZM41.4661 15.4761H41.1511V14.9893H41.4611C41.5444 14.9852 41.6279 14.9948 41.7081 15.0181C41.7521 15.0343 41.7904 15.0632 41.818 15.1011C41.844 15.1387 41.858 15.1833 41.8581 15.229C41.859 15.2632 41.8519 15.2971 41.8375 15.3281C41.8231 15.3592 41.8018 15.3868 41.7751 15.4082C41.6813 15.4635 41.5723 15.4872 41.464 15.4761H41.4661Z" fill="#EA2125"/>
<path d="M42.8413 14.8069C42.7125 14.572 42.5183 14.3794 42.2823 14.2527C42.0566 14.1278 41.8032 14.0616 41.5453 14.0598H41.4593C41.2313 14.075 41.0095 14.1398 40.8093 14.2498C40.5732 14.3767 40.3788 14.5692 40.2493 14.8039C40.1192 15.0329 40.0503 15.2915 40.0493 15.5549C40.0502 15.8158 40.1192 16.0715 40.2493 16.2976C40.3776 16.5317 40.5702 16.7245 40.8043 16.8527C41.0055 16.9687 41.2306 17.0373 41.4623 17.0529H41.5483C41.8098 17.0519 42.0665 16.9828 42.2933 16.8527C42.5271 16.7247 42.7191 16.5319 42.8463 16.2976C42.9764 16.0715 43.0454 15.8158 43.0463 15.5549C43.0436 15.2921 42.9729 15.0344 42.8413 14.8069ZM42.6283 16.177C42.5218 16.3724 42.3615 16.533 42.1663 16.6399C41.9771 16.7478 41.7631 16.805 41.5453 16.8059H41.4593C41.2714 16.7915 41.0891 16.7358 40.9253 16.6428C40.7305 16.535 40.5701 16.3747 40.4623 16.1799C40.3533 15.9906 40.2958 15.7759 40.2958 15.5574C40.2958 15.3389 40.3533 15.1241 40.4623 14.9348C40.5701 14.739 40.7323 14.5786 40.9293 14.4729C41.0919 14.3827 41.272 14.3284 41.4573 14.3137H41.5433C41.7579 14.3158 41.9686 14.3716 42.1563 14.4758C42.3532 14.5817 42.5153 14.742 42.6233 14.9377C42.7323 15.1271 42.7898 15.3418 42.7898 15.5603C42.7898 15.7788 42.7323 15.9935 42.6233 16.1828L42.6283 16.177Z" fill="#EA2125"/>
<path d="M42.1846 8.09901L41.5036 7.41982L34.0647 0L30.0308 4.03413L25.9508 0.00097655L17.8569 8.11269L25.9728 16.2127L30.0128 12.1727H30.0327L34.0817 16.2146L41.5046 8.77381L42.1846 8.09901ZM30.0297 12.1258L30.0238 12.1317C29.8988 12.0797 26.8238 8.95193 26.2378 8.37294C25.9318 8.07294 25.8718 8.21271 26.4928 7.59072L28.0008 6.0839C28.5858 5.49891 29.3278 4.78418 29.8848 4.19819C29.9478 4.13219 29.9917 4.09809 30.0297 4.09809C30.1067 4.09809 30.1567 4.19807 30.2827 4.32807C30.5407 4.58806 30.7828 4.83397 31.0368 5.08196C31.5797 5.61496 32.0267 6.08981 32.5457 6.5878C32.7347 6.7678 33.9737 7.9749 34.0457 8.1039L30.0297 12.1258Z" fill="#EA2125"/>
<path d="M4.73077 21.6258L4.61279 21.6971V27.0188C4.89379 27.0468 7.35977 27.0325 7.81276 27.0285H7.91274C7.92674 26.7455 7.92274 26.1209 7.91274 25.8289H6.06877C6.04877 25.5929 6.05679 25.1868 6.06279 24.9358L7.81777 24.9216C7.83477 24.6466 7.82677 24.0687 7.81777 23.7718L6.06279 23.7527C6.04779 23.5627 6.05079 23.0337 6.06279 22.8367C6.19878 22.8057 7.27079 22.825 7.55678 22.826C7.74378 22.826 7.92073 22.8877 7.92073 22.7117C7.92073 22.4037 7.93073 21.9358 7.92073 21.6458C7.70974 21.6068 4.75677 21.6188 4.73077 21.6258Z" fill="#EA2125"/>
<path d="M27.4193 21.5118C27.3193 21.5048 27.2273 21.5016 27.1333 21.5026C26.3973 21.4908 25.6856 21.7654 25.1484 22.2687C24.6112 22.7719 24.2906 23.4646 24.2544 24.1998C24.2182 24.935 24.4692 25.6554 24.9543 26.209C25.4394 26.7626 26.1207 27.1059 26.8543 27.1665C26.9543 27.1775 27.0423 27.1836 27.1333 27.1856C27.8715 27.1996 28.5861 26.9256 29.1259 26.4219C29.6658 25.9183 29.9885 25.2247 30.0256 24.4874C30.0628 23.75 29.8116 23.0272 29.3251 22.4718C28.8386 21.9164 28.1551 21.5721 27.4193 21.5118ZM28.5193 24.5748C28.4955 24.9325 28.3407 25.2689 28.0844 25.5196C27.8282 25.7703 27.4885 25.9177 27.1303 25.9337C26.9323 25.9245 26.7381 25.8762 26.5587 25.7921C26.3793 25.7079 26.2182 25.5894 26.0847 25.4429C25.9511 25.2965 25.8478 25.1254 25.7805 24.939C25.7131 24.7526 25.6832 24.5545 25.6923 24.3565C25.697 24.2643 25.7097 24.1727 25.7303 24.0826C25.7571 23.726 25.915 23.3922 26.1735 23.1451C26.432 22.898 26.7729 22.7553 27.1303 22.7447C27.2113 22.7466 27.2919 22.7555 27.3713 22.7716C27.7571 22.8673 28.0914 23.1076 28.3055 23.4425C28.5196 23.7773 28.5972 24.1815 28.5223 24.5719L28.5193 24.5748Z" fill="#EA2125"/>
<path d="M0.00984341 21.6326C-0.00815635 21.8876 0.00383861 22.5436 0.00483859 22.8386C0.00483859 22.9746 0.894778 22.8759 1.20477 22.9109V27.03H2.6768L2.68681 22.9099L3.89578 22.9016C3.91278 22.7306 3.90878 21.8317 3.89578 21.6287C3.73478 21.6177 0.23184 21.6136 0.00984341 21.6326Z" fill="#EA2125"/>
<path d="M10.6677 23.0254C10.8727 22.8721 11.1143 22.7757 11.3684 22.7452C11.6226 22.7146 11.8802 22.7512 12.1157 22.8516C12.6387 23.0866 12.6997 23.3436 12.8287 23.3516L12.8187 21.7667C12.7054 21.6817 12.5762 21.6203 12.4387 21.5865L12.3187 21.5455C12.1261 21.487 11.9281 21.4484 11.7277 21.4297C11.1882 21.3582 10.6395 21.4426 10.1467 21.6734C9.64259 21.9236 9.22675 22.3218 8.95471 22.8145C8.71725 23.2808 8.59569 23.7976 8.60022 24.3208C8.60475 24.8441 8.73522 25.3582 8.98071 25.8203C9.09352 26.014 9.22771 26.1946 9.38073 26.3584C9.45773 26.4244 9.53274 26.5136 9.61974 26.5786C9.66718 26.6094 9.71287 26.6429 9.7567 26.6787C9.79488 26.7149 9.83802 26.7453 9.88475 26.7695C9.94175 26.8025 9.96875 26.8296 10.0278 26.8696C10.5048 27.1034 11.0329 27.2136 11.5637 27.1904L12.1637 27.0903C12.2277 27.0703 12.1937 27.0706 12.2517 27.0556C12.4535 27.0091 12.6483 26.9365 12.8317 26.8403V25.2246C12.7747 25.2306 12.7737 25.2387 12.7317 25.2857C12.5443 25.5364 12.2809 25.7201 11.9807 25.8091C11.6806 25.8981 11.3597 25.8874 11.0659 25.7793C10.7721 25.6712 10.5211 25.4713 10.3503 25.209C10.1794 24.9467 10.0978 24.6362 10.1177 24.3238C10.1177 24.2298 10.1177 24.1057 10.1247 24.0137C10.1808 23.6297 10.3736 23.2786 10.6677 23.0254Z" fill="#EA2125"/>
<path d="M36.3163 21.6388L34.8444 21.6256L33.8524 24.9874L32.8784 21.6407L31.9194 21.6256C31.3614 21.6256 31.4194 21.4978 31.3464 22.0138C31.2704 22.5598 31.1545 23.1346 31.0875 23.6656C31.0155 24.2356 30.9094 24.7855 30.8304 25.3345C30.7184 25.8934 30.6366 26.4578 30.5854 27.0254C30.7364 27.0314 31.8564 27.0456 31.9124 27.0176C32.0155 26.6532 32.0792 26.2785 32.1024 25.9004C32.1504 25.5005 32.2114 25.1438 32.2554 24.7398C32.2784 24.5268 32.3414 23.7476 32.3894 23.5816L33.3544 27.0127L34.3414 27.0284L35.3343 23.6285L35.7474 27.0196L37.1374 27.0308L36.3163 21.6388Z" fill="#EA2125"/>
<path d="M17.0878 21.948C17.1155 22.5371 17.1122 23.1268 17.0778 23.7156C16.8598 23.7156 15.1918 23.7518 15.1288 23.7058V21.635L13.6599 21.6248L13.6509 27.0246L15.1288 27.0139V24.8367L17.0788 24.8308L17.0888 27.0158L18.5768 27.0256V21.6258H17.6598C16.9858 21.6238 17.0858 21.561 17.0878 21.948Z" fill="#EA2125"/>
<path d="M21.3971 23.0254C21.6021 22.8721 21.8437 22.7757 22.0978 22.7452C22.3519 22.7146 22.6097 22.7512 22.8451 22.8516C23.3681 23.0866 23.4291 23.3436 23.558 23.3516L23.5481 21.7667C23.4348 21.6817 23.3056 21.6203 23.1681 21.5865L23.0481 21.5455C22.8555 21.487 22.6575 21.4484 22.4571 21.4297C21.9176 21.3582 21.369 21.4426 20.8761 21.6734C20.372 21.9236 19.9561 22.3217 19.6841 22.8145C19.4464 23.2807 19.3247 23.7975 19.3292 24.3208C19.3337 24.8441 19.4644 25.3583 19.7101 25.8203C19.823 26.014 19.9571 26.1946 20.1101 26.3584C20.1871 26.4244 20.2621 26.5136 20.3491 26.5786C20.3965 26.6094 20.4423 26.6429 20.4861 26.6787C20.5243 26.7149 20.5674 26.7454 20.6141 26.7695C20.6711 26.8025 20.6971 26.8296 20.7571 26.8696C21.2342 27.1034 21.7623 27.2136 22.2931 27.1904L22.8931 27.0903C22.9571 27.0703 22.9231 27.0706 22.9811 27.0556C23.1828 27.0091 23.3778 26.9365 23.5611 26.8403V25.2246C23.5041 25.2306 23.5021 25.2387 23.4611 25.2857C23.2735 25.536 23.0102 25.7189 22.7103 25.8076C22.4103 25.8963 22.0898 25.8859 21.7963 25.7778C21.5028 25.6698 21.2519 25.47 21.0811 25.208C20.9103 24.946 20.8286 24.6359 20.8481 24.3238C20.8481 24.2298 20.8481 24.1057 20.8551 24.0137C20.9107 23.6298 21.1033 23.2787 21.3971 23.0254Z" fill="#EA2125"/>
<path d="M57.9318 24.3547C57.8078 24.1897 58.1888 23.8427 58.3188 23.6697C58.5588 23.3477 59.8188 21.7336 59.8378 21.6316C59.4378 21.6096 58.6768 21.6316 58.2378 21.6316C57.8941 21.9959 57.5848 22.3914 57.3138 22.8127C57.0419 23.2351 56.7482 23.6431 56.4338 24.0349V21.635C56.2608 21.617 55.1508 21.619 54.9648 21.635V27.0246C55.4546 27.0477 55.9453 27.0455 56.4348 27.0178V24.6496L57.7888 26.4855C57.8658 26.5915 58.1118 27.0358 58.2888 27.0358H59.9998C59.9918 26.9068 58.1458 24.6407 57.9318 24.3547Z" fill="#060202"/>
<path d="M52.3973 24.4387C52.3973 24.6897 52.4743 25.0545 52.4533 25.2775L51.9053 24.2878C51.7053 24.0178 51.4793 23.7065 51.2573 23.4035C50.8203 22.8035 50.3963 22.2417 49.9573 21.6287H48.5363L48.5293 27.0285H49.9613L49.9303 23.4778C49.9213 23.4634 49.9113 23.4497 49.9003 23.4367H49.9293V23.4778C50.0383 23.6478 50.3603 24.2689 50.4663 24.4109C50.6783 24.6948 50.9093 25.0236 51.1133 25.2946C51.5313 25.8486 51.9643 26.5527 52.3953 27.0427H53.8193L53.8243 21.6428L52.4042 21.6287L52.3973 24.4387Z" fill="#060202"/>
<path d="M45.2201 21.6316H44.2981L42.4541 27.0417C44.1231 27.0787 43.8691 27.1505 44.0271 26.5915C44.0781 26.4115 44.1151 26.2638 44.1771 26.0778H46.2561L46.5351 27.0475C46.7121 27.0475 47.9351 27.0655 48.0051 27.0475L46.1371 21.635C46.0971 21.631 45.6611 21.6326 45.2201 21.6316ZM45.2201 25.0075H44.4991L45.2201 22.5886L45.2251 22.572L45.9421 25.0075H45.2201Z" fill="#060202"/>
<path d="M41.0234 24.118C41.208 24.037 41.388 23.9459 41.5624 23.845C41.7906 23.6192 41.9236 23.3143 41.934 22.9935C41.9444 22.6726 41.8315 22.3601 41.6184 22.1199C41.1723 21.7587 40.6048 21.5818 40.0324 21.6258C39.6524 21.6128 39.2625 21.6258 38.9115 21.6258C37.8115 21.6258 37.9115 21.5458 37.9225 21.8538C37.9365 22.4748 37.9225 23.2121 37.9225 23.8431C37.9225 24.29 37.8925 26.818 37.9345 27.033H40.0344C40.6172 27.0775 41.1988 26.9333 41.6934 26.6218C41.9009 26.4302 42.0515 26.185 42.1288 25.9133C42.206 25.6417 42.2069 25.354 42.1314 25.0818C41.9194 24.2068 41.2384 24.23 41.0234 24.118ZM40.0324 22.7181C40.3204 22.7661 40.5374 22.9039 40.5374 23.2478C40.5374 23.5918 40.3214 23.7198 40.0324 23.7708C39.7894 23.8029 39.5435 23.8071 39.2995 23.783V22.7127C39.5433 22.6884 39.7891 22.6911 40.0324 22.72V22.7181ZM40.6035 25.762C40.4318 25.8679 40.2342 25.9239 40.0324 25.9246C39.8327 25.9372 39.6324 25.9393 39.4325 25.9299C39.2635 25.9249 39.2925 25.9016 39.2975 25.7166C39.3035 25.4366 39.2835 24.993 39.3055 24.761C39.5473 24.74 39.7906 24.74 40.0324 24.761C40.1984 24.7682 40.3622 24.8016 40.5175 24.8606C40.6466 24.9495 40.7352 25.0859 40.7639 25.24C40.7925 25.3941 40.7589 25.5535 40.6704 25.6829C40.6506 25.7118 40.6282 25.739 40.6035 25.7639V25.762Z" fill="#060202"/>
</svg>
