<svg width="40" height="40" viewBox="0 0 40 40" fill="none" xmlns="http://www.w3.org/2000/svg">
<circle cx="20" cy="20" r="20" fill="white"/>
<path fill-rule="evenodd" clip-rule="evenodd" d="M18.6746 11.648L17.986 12.5571C17.7778 12.8328 17.4077 12.9481 17.0704 12.8427L15.9568 12.4953C15.4582 12.34 14.9116 12.4228 14.4875 12.7187C14.0631 13.0145 13.8119 13.4875 13.8119 13.991V15.1146C13.8119 15.455 13.5836 15.7568 13.2457 15.862L12.1321 16.2093C11.6335 16.365 11.2424 16.7401 11.0802 17.2188C10.9181 17.6977 11.0048 18.2218 11.3131 18.6291L12.0012 19.5378C12.2099 19.8135 12.2099 20.1866 12.0012 20.4623L11.3131 21.371C11.0048 21.7783 10.9181 22.3023 11.0802 22.7813C11.2424 23.2599 11.6335 23.6351 12.1321 23.7908L13.2457 24.1381C13.5836 24.2432 13.8119 24.5451 13.8119 24.8856V26.009C13.8119 26.5124 14.0631 26.9854 14.4875 27.2813C14.9116 27.5772 15.4582 27.66 15.9568 27.5048L17.0704 27.1575C17.4077 27.0519 17.7778 27.1673 17.986 27.4431L18.6746 28.3521C18.9829 28.759 19.4754 29 20 29C20.5246 29 21.0171 28.759 21.3254 28.3521L22.014 27.4431C22.2222 27.1673 22.5923 27.0519 22.9296 27.1575L24.0432 27.5048C24.5418 27.66 25.0884 27.5772 25.5125 27.2813C25.9369 26.9855 26.1881 26.5125 26.1881 26.009V24.8856C26.1881 24.5451 26.4164 24.2432 26.7542 24.1381L27.8679 23.7908C28.3665 23.6351 28.7576 23.2599 28.9198 22.7813C29.0819 22.3023 28.9952 21.7783 28.6869 21.371L27.9987 20.4623C27.7901 20.1866 27.7901 19.8135 27.9987 19.5378L28.6869 18.6291C28.9952 18.2218 29.0819 17.6977 28.9198 17.2188C28.7576 16.7401 28.3665 16.365 27.8679 16.2093L26.7542 15.862C26.4164 15.7568 26.1881 15.4551 26.1881 15.1146V13.991C26.1881 13.4876 25.9369 13.0146 25.5125 12.7187C25.0884 12.4228 24.5418 12.34 24.0432 12.4953L22.9296 12.8427C22.5923 12.9481 22.2222 12.8328 22.014 12.5571L21.3254 11.648C21.0171 11.2411 20.5246 11 20 11C19.4754 11 18.9829 11.2411 18.6746 11.648ZM19.3373 12.1103C19.4914 11.9065 19.7376 11.7861 20 11.7861C20.2622 11.7861 20.5085 11.9065 20.6627 12.1103C20.9004 12.4238 21.1444 12.7466 21.3508 13.0193C21.7683 13.5703 22.5078 13.8011 23.183 13.5905C23.5172 13.4863 23.9122 13.3628 24.2965 13.2432C24.5459 13.1655 24.8189 13.2071 25.0312 13.3546C25.2434 13.5026 25.369 13.7393 25.369 13.991V15.1146C25.369 15.7955 25.8258 16.3992 26.5009 16.6098C26.8352 16.714 27.2302 16.8371 27.6144 16.9571C27.8638 17.0348 28.0596 17.2226 28.1404 17.4619C28.2217 17.7011 28.1784 17.9632 28.0242 18.1668C27.787 18.4803 27.5426 18.8033 27.3361 19.0759C26.9186 19.627 26.9186 20.3731 27.3361 20.9241C27.5426 21.1968 27.787 21.5197 28.0242 21.8332C28.1784 22.0369 28.2217 22.2988 28.1404 22.5381C28.0596 22.7774 27.8638 22.9653 27.6144 23.0428C27.2302 23.163 26.8352 23.286 26.5009 23.3901C25.8258 23.6007 25.369 24.2046 25.369 24.8855V26.009C25.369 26.2607 25.2434 26.4974 25.0312 26.6453C24.8189 26.7929 24.5459 26.8344 24.2965 26.7568C23.9122 26.6372 23.5172 26.5137 23.183 26.4095C22.5078 26.199 21.7683 26.4296 21.3508 26.9806C21.1444 27.2533 20.9004 27.5763 20.6627 27.8898C20.5086 28.0934 20.2622 28.214 20 28.214C19.7376 28.214 19.4915 28.0934 19.3373 27.8898C19.0996 27.5763 18.8556 27.2533 18.6491 26.9806C18.2317 26.4296 17.4922 26.199 16.817 26.4095C16.4828 26.5137 16.0877 26.6371 15.7033 26.7568C15.454 26.8344 15.1811 26.7929 14.9688 26.6453C14.7565 26.4974 14.631 26.2607 14.631 26.009V24.8855C14.631 24.2046 14.1742 23.6007 13.4991 23.3901C13.1648 23.286 12.7697 23.163 12.3854 23.0428C12.1361 22.9653 11.9404 22.7773 11.8596 22.5381C11.7782 22.2988 11.8216 22.0369 11.9757 21.8332C12.213 21.5197 12.4574 21.1968 12.6638 20.9241C13.0812 20.3731 13.0812 19.627 12.6638 19.0759C12.4574 18.8032 12.213 18.4802 11.9757 18.1668C11.8216 17.9632 11.7782 17.7011 11.8596 17.4619C11.9403 17.2226 12.1361 17.0348 12.3854 16.9571C12.7697 16.8371 13.1648 16.7141 13.4991 16.6098C14.1742 16.3992 14.631 15.7955 14.631 15.1146V13.991C14.631 13.7393 14.7565 13.5026 14.9688 13.3546C15.1811 13.2071 15.454 13.1655 15.7033 13.2432C16.0876 13.3628 16.4828 13.4862 16.817 13.5905C17.4922 13.8011 18.2317 13.5704 18.6491 13.0193L19.3373 12.1103Z" fill="#0B3558" stroke="#0B3558" stroke-width="0.5"/>
<path fill-rule="evenodd" clip-rule="evenodd" d="M17.9515 16.4624C17.047 16.4624 16.313 17.1668 16.313 18.0348C16.313 18.9026 17.047 19.607 17.9515 19.607C18.8559 19.607 19.5899 18.9026 19.5899 18.0348C19.5899 17.1668 18.8559 16.4624 17.9515 16.4624ZM17.9515 17.2485C18.4037 17.2485 18.7707 17.6007 18.7707 18.0348C18.7707 18.4687 18.4037 18.8209 17.9515 18.8209C17.4992 18.8209 17.1322 18.4687 17.1322 18.0348C17.1322 17.6007 17.4992 17.2485 17.9515 17.2485Z" fill="#0B3558" stroke="#0B3558" stroke-width="0.5"/>
<path fill-rule="evenodd" clip-rule="evenodd" d="M22.0471 20.3933C21.1427 20.3933 20.4087 21.0977 20.4087 21.9655C20.4087 22.8335 21.1427 23.5379 22.0471 23.5379C22.9516 23.5379 23.6856 22.8335 23.6856 21.9655C23.6856 21.0977 22.9516 20.3933 22.0471 20.3933ZM22.0471 21.1794C22.4994 21.1794 22.8664 21.5316 22.8664 21.9655C22.8664 22.3996 22.4994 22.7518 22.0471 22.7518C21.5949 22.7518 21.2279 22.3996 21.2279 21.9655C21.2279 21.5316 21.5949 21.1794 22.0471 21.1794Z" fill="#0B3558" stroke="#0B3558" stroke-width="0.5"/>
<path fill-rule="evenodd" clip-rule="evenodd" d="M17.012 23.4226L23.566 17.1332C23.7258 16.9799 23.7258 16.7307 23.566 16.5774C23.4063 16.4241 23.1467 16.4241 22.9869 16.5774L16.4328 22.8668C16.273 23.0201 16.273 23.2693 16.4328 23.4226C16.5926 23.5759 16.8522 23.5759 17.012 23.4226Z" fill="#0B3558" stroke="#0B3558" stroke-width="0.5"/>
</svg>
