<svg width="60" height="20" viewBox="0 0 60 20" fill="none" xmlns="http://www.w3.org/2000/svg">
<path d="M15.893 2.94312H12.8726V16.5301H15.893V2.94312Z" fill="#204496"/>
<path d="M34.0798 11.7582C33.745 10.8762 30.679 2.94434 30.679 2.94434H27.3994L27.4571 3.08945L32.6554 16.5311H35.4994L40.7315 2.94434H37.4434C37.4434 2.94434 34.6162 10.2939 34.0834 11.7559" fill="#204496"/>
<path d="M24.2329 13.6852C23.2376 14.2478 22.0978 14.5042 20.957 14.4212H20.435V5.04389H20.8597C22.8373 5.04389 23.5261 5.19732 24.2893 5.74137C24.8407 6.24166 25.2698 6.86175 25.5438 7.55353C25.8177 8.24531 25.9293 8.99045 25.8698 9.73199C25.9334 10.4738 25.8179 11.22 25.5331 11.9081C25.2483 12.5962 24.8025 13.2058 24.2329 13.6863V13.6852ZM26.6258 4.27737C25.3538 3.31029 23.8082 2.93972 21.0818 2.94092H17.4146V16.5277H20.8826C23.5802 16.5277 24.9937 16.2561 26.2249 15.4891C27.9781 14.383 28.8913 12.3657 28.8901 9.71619C28.9709 8.69469 28.8072 7.66903 28.4124 6.72323C28.0177 5.77742 27.4032 4.93912 26.6198 4.27737" fill="#204496"/>
<path d="M7.28883 14.1947C6.28429 14.4283 5.24865 14.4989 4.2216 14.4042H3.0216V10.8958H4.24445C5.23585 10.8495 6.22905 10.9297 7.19999 11.1351C7.54407 11.2057 7.85102 11.3981 8.06425 11.6769C8.27748 11.9557 8.38269 12.3022 8.36044 12.6523C8.38819 12.9933 8.2963 13.333 8.10058 13.6137C7.90485 13.8944 7.61742 14.0989 7.28759 14.1912L7.28883 14.1947ZM3.02519 5.03095H3.97082C5.03223 4.91763 6.10541 4.9985 7.13759 5.27027C7.39333 5.38997 7.60997 5.57941 7.76249 5.81679C7.91502 6.05417 7.99727 6.32995 7.99965 6.61199C8.00203 6.89402 7.92446 7.17077 7.77597 7.41069C7.62748 7.65061 7.41412 7.84375 7.16044 7.96774C6.1698 8.27968 5.12974 8.40533 4.09321 8.33813H3.02644L3.02519 5.03095ZM8.47924 9.54C9.19864 9.43747 9.85534 9.07528 10.3247 8.52128C10.7941 7.96727 11.0435 7.26022 11.0256 6.53475C11.0372 5.89498 10.8572 5.26656 10.5087 4.72961C10.1602 4.19265 9.65915 3.77146 9.06964 3.52072C7.6478 2.97903 6.12203 2.76412 4.60561 2.8917H0V16.4785H5.14921C6.60466 16.6034 8.06867 16.373 9.4152 15.8074C10.0098 15.5299 10.5122 15.0878 10.8625 14.5335C11.2129 13.9793 11.3966 13.3364 11.3916 12.681C11.4024 11.0321 10.4052 9.9762 8.48041 9.54" fill="#204496"/>
<path d="M48.8545 3.56977V11.0753H51.8737V3.5686H50.4337" fill="#EC2227"/>
<path d="M47.1973 5.05713H48.7069V9.60245H47.1973V5.05713ZM52.8373 9.60128H52.0225V5.05713H52.8385C53.6665 5.05713 54.2965 6.07681 54.3013 7.33389C54.3109 8.5574 53.6677 9.61064 52.8361 9.61064" fill="#204496"/>
<path d="M50.3594 18.5891L41.339 9.60146L50.3642 0.613806L59.3894 9.60146L50.3594 18.5891ZM40.7222 9.60146L40.8014 9.68163L49.9994 18.8407L50.3594 19.2L50.7194 18.8407L60.0001 9.60146L50.363 0" fill="#EC2227"/>
<path d="M50.3596 13.9333L46.0109 9.60156H41.7412L49.2568 17.0889L49.3372 17.1691L50.3584 18.1866L58.9828 9.60156H54.712" fill="#EC2227"/>
</svg>
