<svg width="15" height="19" viewBox="0 0 15 19" fill="none" xmlns="http://www.w3.org/2000/svg">
<path d="M10.4643 5.05556C10.4643 6.57449 9.16834 7.86111 7.5 7.86111V9.36111C9.93435 9.36111 11.9643 7.46398 11.9643 5.05556H10.4643ZM7.5 7.86111C5.83166 7.86111 4.53571 6.57449 4.53571 5.05556H3.03571C3.03571 7.46398 5.06565 9.36111 7.5 9.36111V7.86111ZM4.53571 5.05556C4.53571 3.53662 5.83166 2.25 7.5 2.25V0.75C5.06565 0.75 3.03571 2.64713 3.03571 5.05556H4.53571ZM7.5 2.25C9.16834 2.25 10.4643 3.53662 10.4643 5.05556H11.9643C11.9643 2.64713 9.93435 0.75 7.5 0.75V2.25ZM13.25 14.3889C13.25 14.7936 12.8817 15.3813 11.7724 15.9123C10.7178 16.417 9.20815 16.75 7.5 16.75V18.25C9.3817 18.25 11.1221 17.8865 12.42 17.2653C13.6632 16.6702 14.75 15.7024 14.75 14.3889H13.25ZM7.5 16.75C5.79185 16.75 4.28221 16.417 3.2276 15.9123C2.11828 15.3813 1.75 14.7936 1.75 14.3889H0.25C0.25 15.7024 1.33679 16.6702 2.58001 17.2653C3.87794 17.8865 5.6183 18.25 7.5 18.25V16.75ZM1.75 14.3889C1.75 13.9842 2.11828 13.3965 3.2276 12.8655C4.28221 12.3607 5.79185 12.0278 7.5 12.0278V10.5278C5.6183 10.5278 3.87794 10.8913 2.58001 11.5125C1.33679 12.1075 0.25 13.0754 0.25 14.3889H1.75ZM7.5 12.0278C9.20815 12.0278 10.7178 12.3607 11.7724 12.8655C12.8817 13.3965 13.25 13.9842 13.25 14.3889H14.75C14.75 13.0754 13.6632 12.1075 12.42 11.5125C11.1221 10.8913 9.3817 10.5278 7.5 10.5278V12.0278Z" fill="#0050A6"/>
</svg>
