<svg width="40" height="40" viewBox="0 0 40 40" fill="none" xmlns="http://www.w3.org/2000/svg">
<circle cx="20" cy="20" r="20" fill="#DFE3E9"/>
<path d="M24.1557 21.3999C26.4509 19.1047 26.4509 15.3834 24.1557 13.0882C21.8605 10.793 18.1393 10.793 15.8441 13.0882C13.5489 15.3834 13.5489 19.1047 15.8441 21.3999C18.1393 23.6951 21.8605 23.6951 24.1557 21.3999Z" fill="#909EB4"/>
<path d="M31.2667 32.1786C28.2514 34.8166 24.3011 36.4158 19.9792 36.4158C16.0919 36.4158 12.5024 35.1201 9.62663 32.9359C10.7175 27.9114 15.1898 24.1498 20.5423 24.1498C25.6217 24.1498 29.9081 27.5368 31.2667 32.1786Z" fill="#909EB4"/>
<path d="M20 37.3333C10.4423 37.3333 2.6667 29.5577 2.6667 20C2.6667 10.4422 10.4423 2.66666 20 2.66666C29.5578 2.66666 37.3334 10.4425 37.3334 20C37.3334 29.5575 29.5578 37.3333 20 37.3333ZM20 4.49895C11.4528 4.49895 4.49925 11.4527 4.49925 20C4.49925 28.5472 11.4528 35.5008 20 35.5008C28.5473 35.5008 35.5008 28.5472 35.5008 20C35.5008 11.4527 28.5473 4.49895 20 4.49895Z" fill="#909EB4"/>
<path d="M19.9991 37.332C16.1823 37.332 12.5626 36.1152 9.53161 33.813C5.16943 30.506 2.66725 25.4711 2.66725 19.9999C2.66725 10.4432 10.4423 2.66812 19.9991 2.66812C29.5576 2.66812 37.3337 10.4432 37.3337 20.0002C37.3337 24.9955 35.1751 29.7512 31.4113 33.0477C28.2531 35.8106 24.2005 37.332 19.9991 37.332ZM19.9991 4.50041C11.4526 4.50041 4.49954 11.4534 4.49954 19.9999C4.49954 24.8927 6.73744 29.3952 10.6391 32.3534C13.3496 34.4119 16.5859 35.4997 19.9991 35.4997C23.7564 35.4997 27.3806 34.1393 30.2045 31.6689C33.5706 28.7205 35.5014 24.4674 35.5014 20.0002C35.5014 11.4534 28.5471 4.50041 19.9991 4.50041Z" fill="#909EB4"/>
</svg>
