<svg width="13" height="18" viewBox="0 0 13 18" fill="none" xmlns="http://www.w3.org/2000/svg">
<path d="M9.976 1H3.024C2.48739 1.0006 1.97294 1.20758 1.5935 1.57552C1.21407 1.94346 1.00062 2.44232 1 2.96267V15.0373C1.00062 15.5577 1.21407 16.0565 1.5935 16.4245C1.97294 16.7924 2.48739 16.9994 3.024 17H9.976C10.5126 16.9994 11.0271 16.7924 11.4065 16.4245C11.7859 16.0565 11.9994 15.5577 12 15.0373V2.96267C11.9994 2.44232 11.7859 1.94346 11.4065 1.57552C11.0271 1.20758 10.5126 1.0006 9.976 1ZM11.2143 15.0373C11.2139 15.3557 11.0833 15.6609 10.8511 15.886C10.619 16.1111 10.3043 16.2377 9.976 16.2381H3.024C2.69571 16.2377 2.38099 16.1111 2.14886 15.886C1.91673 15.6609 1.78613 15.3557 1.78571 15.0373V2.96267C1.78613 2.64433 1.91673 2.33914 2.14886 2.11405C2.38099 1.88895 2.69571 1.76231 3.024 1.7619H9.976C10.3043 1.76231 10.619 1.88895 10.8511 2.11405C11.0833 2.33914 11.2139 2.64433 11.2143 2.96267V15.0373Z" fill="#0B3558" stroke="#0B3558" stroke-width="0.4"/>
<path d="M8.07145 3.16235H4.92859C4.8244 3.16235 4.72448 3.20249 4.6508 3.27393C4.57713 3.34537 4.53574 3.44227 4.53574 3.54331C4.53574 3.64434 4.57713 3.74124 4.6508 3.81268C4.72448 3.88412 4.8244 3.92426 4.92859 3.92426H8.07145C8.17564 3.92426 8.27557 3.88412 8.34924 3.81268C8.42292 3.74124 8.46431 3.64434 8.46431 3.54331C8.46431 3.44227 8.42292 3.34537 8.34924 3.27393C8.27557 3.20249 8.17564 3.16235 8.07145 3.16235Z" fill="#0B3558" stroke="#0B3558" stroke-width="0.3"/>
<path d="M6.30357 12.7808C6.07047 12.7808 5.84261 12.8478 5.64879 12.9734C5.45498 13.0989 5.30392 13.2774 5.21471 13.4863C5.12551 13.6951 5.10217 13.9249 5.14765 14.1466C5.19312 14.3683 5.30537 14.5719 5.4702 14.7317C5.63502 14.8916 5.84502 15.0004 6.07364 15.0445C6.30226 15.0886 6.53924 15.066 6.75459 14.9795C6.96995 14.893 7.15402 14.7465 7.28352 14.5586C7.41302 14.3706 7.48214 14.1497 7.48214 13.9236C7.48214 13.6205 7.35797 13.3298 7.13695 13.1155C6.91592 12.9012 6.61615 12.7808 6.30357 12.7808ZM6.30357 14.3046C6.22587 14.3046 6.14992 14.2822 6.08531 14.2404C6.02071 14.1985 5.97035 14.139 5.94062 14.0694C5.91088 13.9998 5.90311 13.9232 5.91826 13.8493C5.93342 13.7754 5.97084 13.7075 6.02578 13.6542C6.08072 13.601 6.15072 13.5647 6.22693 13.55C6.30314 13.5353 6.38213 13.5428 6.45391 13.5717C6.5257 13.6005 6.58705 13.6493 6.63022 13.712C6.67339 13.7746 6.69643 13.8483 6.69643 13.9236C6.69643 14.0247 6.65504 14.1216 6.58136 14.193C6.50769 14.2644 6.40776 14.3046 6.30357 14.3046Z" fill="#0B3558"/>
</svg>
