<svg width="60" height="20" viewBox="0 0 60 20" fill="none" xmlns="http://www.w3.org/2000/svg">
<path fill-rule="evenodd" clip-rule="evenodd" d="M45.3261 0.1604C44.3701 0.350592 44.0201 0.776051 44.0541 1.38682C44.3443 2.54048 44.8428 3.63383 45.5261 4.61516C46.3299 5.8767 47.2744 7.04672 48.3421 8.10342C49.2011 8.93478 49.7421 9.11543 50.6541 7.88801C51.4742 6.87194 52.1862 5.77597 52.7791 4.61803C53.0704 4.02686 53.3203 3.41715 53.5271 2.79276C53.6848 2.44118 53.7078 2.04569 53.5919 1.67883C53.476 1.31197 53.2289 0.998258 52.8961 0.795631C53.2339 0.95741 53.519 1.20823 53.7197 1.5199C53.9203 1.83157 54.0285 2.19206 54.0321 2.56059C54.0363 3.26029 53.9228 3.95599 53.6961 4.61946C53.2955 6.04565 52.7567 7.43074 52.0871 8.75636C51.5661 9.79949 50.9679 10.8037 50.2971 11.7611C48.8771 13.6778 47.5141 13.0582 45.9161 11.7611C44.8517 10.881 43.904 9.87337 43.0951 8.76211C42.1747 7.46188 41.3951 6.07113 40.7691 4.61228C40.0151 2.82507 40.6011 1.91024 41.5321 1.32986C42.7065 0.70035 43.9956 0.303103 45.3261 0.1604Z" fill="url(#paint0_linear_1858_4572)"/>
<path fill-rule="evenodd" clip-rule="evenodd" d="M45.2928 4.237C46.7718 4.02034 50.6168 3.78583 51.9648 4.47013C52.1335 4.54305 52.2691 4.67413 52.3463 4.83824C52.4235 5.00236 52.4368 5.18838 52.3838 5.36146C52.5198 5.12323 52.6509 4.87098 52.7839 4.61804C53.0751 4.02688 53.325 3.41717 53.5318 2.79277C53.6895 2.44119 53.7125 2.0457 53.5966 1.67884C53.4807 1.31198 53.2337 0.998273 52.9009 0.795647C52.6031 0.651361 52.2916 0.536031 51.9709 0.451463C51.033 0.213217 50.0726 0.0707299 49.1048 0.0254229C48.6948 -0.00300788 48.2669 -0.000449725 47.8329 0.000530647C46.9968 0.00150276 46.1618 0.0555745 45.3329 0.16233C44.3769 0.352522 44.0268 0.777981 44.0608 1.38875C44.2926 2.40325 44.71 3.36843 45.2928 4.237Z" fill="url(#paint1_linear_1858_4572)"/>
<path fill-rule="evenodd" clip-rule="evenodd" d="M41.429 19.9583C41.8569 19.9281 42.2591 19.7467 42.5616 19.4485C42.8641 19.1503 43.0465 18.7552 43.075 18.3356C43.222 17.4714 43.192 16.5875 42.987 15.7348C42.9145 15.4402 42.7549 15.1729 42.528 14.967C42.1628 14.7202 41.7274 14.5929 41.2841 14.6032C40.8407 14.6134 40.4119 14.7607 40.059 15.0239C39.975 15.0906 39.902 15.1219 39.902 15.0043L39.889 12.561L38.51 12.5835L38.516 19.5854C39.4403 19.9463 40.4422 20.0748 41.43 19.9583H41.429ZM4.41699 19.8248C4.70699 19.8248 4.64999 19.8505 4.82599 19.6132C6.18209 17.5159 6.97979 15.1183 7.146 12.6405C6.57645 12.6287 6.00797 12.6949 5.45697 12.8368C5.22905 14.807 4.58762 16.7093 3.573 18.4246C2.55882 16.7091 1.91736 14.8069 1.68896 12.8368C1.13798 12.6949 0.569554 12.6287 0 12.6405C0.16621 15.1183 0.963903 17.5159 2.32001 19.6132C2.49601 19.8505 2.439 19.8248 2.729 19.8248H4.41699ZM44.086 14.8631L44.22 16.0914C44.767 16.0404 45.214 15.8955 45.786 15.8593C46.649 15.8289 47.2 15.809 47.172 16.4217C46.527 16.4217 45.872 16.4221 45.207 16.427C44.394 16.4348 43.718 16.8131 43.807 18.4337C43.915 20.3797 46.272 20.2375 47.348 19.4571V19.8932H48.599C48.566 17.907 48.713 15.8198 48.348 15.2561C47.648 14.1777 45.366 14.5699 44.086 14.864V14.8631ZM14.615 19.6601C14.569 19.2588 14.5227 18.8578 14.476 18.4571C13.7818 18.5927 13.0767 18.6678 12.369 18.6817C11.71 18.6611 11.469 18.3504 11.469 17.4299C11.5766 17.5539 11.7101 17.6538 11.8606 17.7228C12.011 17.7918 12.1749 17.8281 12.341 17.8296C13.202 17.8394 14.006 17.8533 14.854 17.8219C14.892 16.2886 15.027 14.9512 13.465 14.6237C12.777 14.4845 12.0658 14.5006 11.385 14.6702C11.0966 14.7273 10.8315 14.8658 10.6225 15.0689C10.4135 15.2721 10.2697 15.531 10.209 15.8133C9.85398 17.0162 9.95498 18.7972 10.743 19.4854C11.649 20.2697 13.475 19.9925 14.616 19.6601H14.615ZM12.1 15.8133H12.79C12.9561 15.8133 13.1154 15.8777 13.233 15.9928C13.3505 16.1079 13.4167 16.2641 13.417 16.427V16.6994H11.474V16.427C11.4745 16.2644 11.5406 16.1083 11.6579 15.9933C11.7752 15.8783 11.9341 15.8138 12.1 15.8133ZM56.228 19.8827L56.271 17.6276C56.271 17.4903 56.399 17.6747 56.433 17.7257C56.8581 18.4492 57.3797 19.1139 57.984 19.7022C58.175 19.8895 58.214 19.876 58.552 19.876H60C59.0822 19.183 58.3291 18.3022 57.793 17.2953C57.68 17.0561 57.685 17.0838 57.847 16.8593C58.057 16.623 58.321 16.3025 58.612 15.977L59.846 14.5534L59.863 14.5208H58.551C58.311 14.5208 58.319 14.4845 58.151 14.664C57.651 15.1924 57.079 15.8112 56.617 16.3102C56.5617 16.3656 56.5007 16.4151 56.435 16.4581C56.245 16.5914 56.279 16.556 56.278 16.36L56.266 12.5366L54.866 12.5467L54.848 19.8736L56.228 19.8827ZM23.799 19.707L23.676 18.5122C23.0269 18.6251 22.368 18.6746 21.709 18.6601C21.04 18.5866 20.957 18.2394 20.951 17.7051C20.951 17.3816 20.938 17.0189 20.957 16.7003C20.9461 16.6079 20.9539 16.5145 20.98 16.4251C21.006 16.3357 21.0497 16.2519 21.1087 16.179C21.1677 16.1062 21.2407 16.0456 21.3237 16.0005C21.4066 15.9553 21.4977 15.9268 21.592 15.9162C21.6309 15.9134 21.67 15.9134 21.709 15.9162C22.368 15.9007 23.027 15.9499 23.676 16.0632L23.799 14.8679C21.399 14.313 19.899 14.5906 19.563 16.415C19.4989 17.0811 19.518 17.7525 19.62 18.4141C20.046 20.0101 21.513 20.2354 23.799 19.707ZM16.259 14.6041H15.381C15.381 15.0257 15.376 15.4483 15.373 15.8688L16.259 15.876V17.1867C16.259 17.6396 16.254 18.0632 16.259 18.4318C16.2332 18.6554 16.2572 18.882 16.3292 19.0957C16.4011 19.3095 16.5194 19.505 16.676 19.6697C16.8381 19.7775 17.0273 19.8397 17.223 19.8492C17.7884 19.9172 18.3619 19.8779 18.912 19.7329L18.867 18.6462C18.327 18.6982 17.667 18.812 17.667 18.5414V15.8789L18.943 15.8731V14.6123L17.671 14.6065V13.3485H16.271C16.271 13.7661 16.271 14.1842 16.271 14.6032L16.259 14.6041ZM7.68298 19.8817L9.04797 19.9081L9.09796 14.6237L7.677 14.6319L7.68396 19.8817H7.68298ZM26.293 14.5328H27.519C27.9801 14.5341 28.4219 14.7144 28.7479 15.034C29.074 15.3536 29.2577 15.7864 29.259 16.2384V18.2561C29.2577 18.7082 29.074 19.1417 28.748 19.4615C28.422 19.7812 27.9801 19.9616 27.519 19.9631H26.293C25.8319 19.9616 25.3902 19.7813 25.0644 19.4615C24.7386 19.1416 24.5551 18.7081 24.554 18.2561V16.2384C24.5551 15.7865 24.7386 15.3536 25.0645 15.034C25.3903 14.7143 25.832 14.5341 26.293 14.5328ZM26.562 15.8133C26.3959 15.8133 26.2365 15.8777 26.119 15.9928C26.0014 16.1079 25.9353 16.2641 25.935 16.427V18.068C25.9355 18.2307 26.0018 18.3867 26.1193 18.5017C26.2368 18.6167 26.396 18.6814 26.562 18.6817H27.251C27.4168 18.6811 27.5758 18.6162 27.6931 18.5012C27.8103 18.3862 27.8765 18.2306 27.877 18.068V16.427C27.8767 16.2643 27.8107 16.1083 27.6934 15.9933C27.576 15.8783 27.4169 15.8136 27.251 15.8133H26.562ZM31.54 19.8817C31.552 18.5354 31.5647 17.1895 31.578 15.8444H32.604C32.7361 15.8336 32.8671 15.8745 32.9684 15.9583C33.0696 16.0422 33.1328 16.1621 33.144 16.2915V19.8827H34.522L34.561 15.8406H35.686C35.8146 15.8254 35.9441 15.8609 36.0461 15.9392C36.1481 16.0175 36.2142 16.132 36.23 16.258C36.2315 16.2822 36.2315 16.3066 36.23 16.3308V19.8808H37.596L37.643 16.0632C37.6857 15.7177 37.5867 15.3698 37.3679 15.0957C37.1491 14.8217 36.8284 14.6437 36.476 14.6012C36.404 14.593 36.3314 14.5903 36.259 14.5926L35.366 14.6022C35.1871 14.5847 35.0066 14.609 34.839 14.6726C34.6714 14.7361 34.5213 14.8371 34.401 14.9679C34.194 15.1777 34.296 15.1808 34.101 14.9818C33.9693 14.8457 33.8083 14.7399 33.6299 14.6721C33.4514 14.6043 33.2599 14.5762 33.069 14.5898H32.44C32.266 14.5915 32.0944 14.6296 31.9368 14.7018C31.7791 14.774 31.639 14.8784 31.526 15.0081C31.297 15.2336 31.326 15.3084 31.326 14.9545V14.6237L30.151 14.63C30.151 16.3789 30.153 18.1289 30.157 19.8798L31.54 19.8817ZM50.874 19.8817C50.886 18.5354 50.899 17.1895 50.913 15.8444H51.953C52.0848 15.8318 52.2162 15.8712 52.3186 15.9536C52.421 16.0359 52.4858 16.1547 52.499 16.2839C52.5 16.3008 52.5 16.3176 52.499 16.3346C52.499 17.5182 52.499 18.7019 52.499 19.8856H53.899C53.909 18.7091 53.9203 17.5326 53.933 16.3561C53.942 15.4228 53.568 14.5974 52.44 14.5974H51.801C51.6315 14.5983 51.464 14.6338 51.3091 14.7013C51.1543 14.7688 51.0153 14.8667 50.901 14.9895C50.661 15.215 50.668 15.3397 50.668 14.9799V14.629H49.474C49.474 16.379 49.481 18.1385 49.482 19.8885L50.874 19.8817ZM45.674 17.6051H47.196V18.3897C47.196 18.7132 46.234 18.727 45.624 18.7132C45.176 18.7034 45.224 18.7129 45.208 18.3207C45.2 18.1756 45.208 18.0268 45.208 17.8837C45.208 17.5896 45.27 17.607 45.675 17.607L45.674 17.6051ZM41.711 16.6639V18.113C41.7105 18.2756 41.6443 18.4317 41.527 18.5467C41.4098 18.6616 41.2508 18.7261 41.085 18.7267H40.385C39.893 18.7267 39.885 18.7337 39.885 18.0455V16.4907C39.885 15.8044 39.885 15.8042 40.385 15.8042H41.085C41.2508 15.8047 41.4098 15.8697 41.527 15.9847C41.6443 16.0997 41.7105 16.2553 41.711 16.4179V16.6639Z" fill="#064523"/>
<defs>
<linearGradient id="paint0_linear_1858_4572" x1="-900.331" y1="-4278.55" x2="-901.086" y2="-4277.94" gradientUnits="userSpaceOnUse">
<stop stop-color="#006941"/>
<stop offset="0.4" stop-color="#007B48"/>
<stop offset="1" stop-color="#85C441"/>
</linearGradient>
<linearGradient id="paint1_linear_1858_4572" x1="-898.45" y1="-4699.99" x2="-898.211" y2="-4700.91" gradientUnits="userSpaceOnUse">
<stop stop-color="#006941"/>
<stop offset="0.3" stop-color="#007B48"/>
<stop offset="1" stop-color="#85C441"/>
</linearGradient>
</defs>
</svg>
