<svg width="88" height="28" viewBox="0 0 88 28" fill="none" xmlns="http://www.w3.org/2000/svg">
<rect width="88" height="28" rx="4" fill="#238832"/>
<path d="M12.9844 13.4336H12.0117V12.6367H12.9844V8.91016H15.5742C16.4648 8.91016 17.2344 9.08984 17.8828 9.44922C18.5312 9.80859 19.0352 10.3164 19.3945 10.9727C19.7461 11.6211 19.9219 12.3633 19.9219 13.1992C19.9219 14.0508 19.7461 14.7969 19.3945 15.4375C19.043 16.0781 18.5391 16.582 17.8828 16.9492C17.2188 17.3164 16.4492 17.5 15.5742 17.5H12.9844V13.4336ZM15.5742 16.5273C16.582 16.5273 17.3867 16.2344 17.9883 15.6484C18.5898 15.0625 18.8906 14.2461 18.8906 13.1992C18.8906 12.1602 18.5898 11.3477 17.9883 10.7617C17.3867 10.1758 16.582 9.88281 15.5742 9.88281H14.0039V12.6367H16.207V13.4336H14.0039V16.5273H15.5742ZM21.9609 17.4297C21.6016 17.25 21.3281 17.0078 21.1406 16.7031C20.9531 16.3984 20.8594 16.0469 20.8594 15.6484C20.8594 15 21.1016 14.4961 21.5859 14.1367C22.0859 13.7695 22.7031 13.5859 23.4375 13.5859C23.8203 13.5859 24.1641 13.625 24.4688 13.7031C24.7812 13.7812 25.0195 13.875 25.1836 13.9844V13.6094C25.1836 13.1641 25.0273 12.8008 24.7148 12.5195C24.4023 12.2383 23.9961 12.0977 23.4961 12.0977C23.1602 12.0977 22.8477 12.1719 22.5586 12.3203C22.2539 12.4766 22.0234 12.6836 21.8672 12.9414L21.0938 12.3672C21.3281 12.0078 21.6602 11.7188 22.0898 11.5C22.5117 11.2891 22.9805 11.1836 23.4961 11.1836C24.3242 11.1836 24.9766 11.4023 25.4531 11.8398C25.9219 12.2695 26.1562 12.8633 26.1562 13.6211V17.5H25.1836V16.6211H25.1367C24.957 16.9258 24.6953 17.1797 24.3516 17.3828C24.0156 17.5859 23.6172 17.6875 23.1562 17.6875C22.7031 17.6875 22.3047 17.6016 21.9609 17.4297ZM24.2227 16.5273C24.5195 16.3477 24.7539 16.1133 24.9258 15.8242C25.0977 15.5352 25.1836 15.2109 25.1836 14.8516C24.9961 14.7266 24.7617 14.6211 24.4805 14.5352C24.2148 14.457 23.918 14.418 23.5898 14.418C23.0273 14.418 22.6055 14.5352 22.3242 14.7695C22.043 15.0039 21.9023 15.3008 21.9023 15.6602C21.9023 15.9961 22.0312 16.2695 22.2891 16.4805C22.5469 16.6914 22.8711 16.7969 23.2617 16.7969C23.6055 16.7969 23.9258 16.707 24.2227 16.5273ZM23.8242 10.0234C23.6758 9.96094 23.5078 9.875 23.3203 9.76562C23.0703 9.61719 22.9102 9.54297 22.8398 9.54297C22.5742 9.54297 22.4297 9.69141 22.4062 9.98828H21.5625C21.5625 9.55078 21.6953 9.21484 21.9609 8.98047C22.2344 8.74609 22.5312 8.62891 22.8516 8.62891C23.0938 8.62891 23.4141 8.75 23.8125 8.99219C24.0312 9.125 24.1875 9.19141 24.2812 9.19141C24.5469 9.19141 24.6914 9.04688 24.7148 8.75781H25.5469C25.5469 9.19531 25.4141 9.53125 25.1484 9.76562C24.8906 9.99219 24.5938 10.1055 24.2578 10.1055C24.1016 10.1055 23.957 10.0781 23.8242 10.0234ZM31.9102 14.3945L29.7891 11.3828H30.9492L32.5195 13.6445L34.043 11.3828H35.2383L33.0938 14.3945L35.2734 17.5H34.0898L32.5078 15.1445L30.9375 17.5H29.7422L31.9102 14.3945ZM36.8203 17.4297C36.4609 17.25 36.1875 17.0078 36 16.7031C35.8125 16.3984 35.7188 16.0469 35.7188 15.6484C35.7188 15 35.9609 14.4961 36.4453 14.1367C36.9453 13.7695 37.5625 13.5859 38.2969 13.5859C38.6797 13.5859 39.0234 13.625 39.3281 13.7031C39.6406 13.7812 39.8789 13.875 40.043 13.9844V13.6094C40.043 13.1641 39.8867 12.8008 39.5742 12.5195C39.2617 12.2383 38.8555 12.0977 38.3555 12.0977C38.0195 12.0977 37.707 12.1719 37.418 12.3203C37.1133 12.4766 36.8828 12.6836 36.7266 12.9414L35.9531 12.3672C36.1875 12.0078 36.5195 11.7188 36.9492 11.5C37.3711 11.2891 37.8398 11.1836 38.3555 11.1836C39.1836 11.1836 39.8359 11.4023 40.3125 11.8398C40.7812 12.2695 41.0156 12.8633 41.0156 13.6211V17.5H40.043V16.6211H39.9961C39.8164 16.9258 39.5547 17.1797 39.2109 17.3828C38.875 17.5859 38.4766 17.6875 38.0156 17.6875C37.5625 17.6875 37.1641 17.6016 36.8203 17.4297ZM39.082 16.5273C39.3789 16.3477 39.6133 16.1133 39.7852 15.8242C39.957 15.5352 40.043 15.2109 40.043 14.8516C39.8555 14.7266 39.6211 14.6211 39.3398 14.5352C39.0742 14.457 38.7773 14.418 38.4492 14.418C37.8867 14.418 37.4648 14.5352 37.1836 14.7695C36.9023 15.0039 36.7617 15.3008 36.7617 15.6602C36.7617 15.9961 36.8906 16.2695 37.1484 16.4805C37.4062 16.6914 37.7305 16.7969 38.1211 16.7969C38.4648 16.7969 38.7852 16.707 39.082 16.5273ZM38.6016 8.66406H39.7148L38.8594 10.1875H37.9688L38.6016 8.66406ZM43.5469 17.2656C43.0859 16.9844 42.7188 16.5977 42.4453 16.1055C42.1797 15.6211 42.0469 15.0664 42.0469 14.4414C42.0469 13.8164 42.1797 13.2617 42.4453 12.7773C42.7266 12.2695 43.0938 11.8789 43.5469 11.6055C44.0156 11.3242 44.5469 11.1836 45.1406 11.1836C45.7891 11.1836 46.3477 11.3398 46.8164 11.6523C47.2695 11.957 47.5898 12.3672 47.7773 12.8828L46.8516 13.2695C46.6953 12.8789 46.4727 12.5898 46.1836 12.4023C45.8867 12.207 45.5234 12.1094 45.0938 12.1094C44.7344 12.1094 44.3984 12.207 44.0859 12.4023C43.7734 12.5977 43.5234 12.8711 43.3359 13.2227C43.1484 13.5742 43.0547 13.9805 43.0547 14.4414C43.0547 14.8945 43.1484 15.2969 43.3359 15.6484C43.5234 16 43.7734 16.2734 44.0859 16.4688C44.4062 16.6719 44.7422 16.7734 45.0938 16.7734C45.5156 16.7734 45.8867 16.6719 46.207 16.4688C46.5195 16.2734 46.7539 15.9883 46.9102 15.6133L47.8125 16C47.6016 16.5 47.2695 16.9062 46.8164 17.2188C46.3633 17.5312 45.8047 17.6875 45.1406 17.6875C44.5469 17.6875 44.0156 17.5469 43.5469 17.2656ZM53.3555 17.4766C53.1367 17.3906 52.9609 17.2812 52.8281 17.1484C52.5078 16.8438 52.3477 16.4258 52.3477 15.8945V12.3086H51.2812V11.3828H52.3477V9.64844H53.3672V11.3828H54.8672V12.3086H53.3672V15.6367C53.3672 15.9805 53.4297 16.2305 53.5547 16.3867C53.7031 16.5586 53.9258 16.6445 54.2227 16.6445C54.4805 16.6445 54.7031 16.5781 54.8906 16.4453V17.4414C54.7812 17.4961 54.6602 17.5352 54.5273 17.5586C54.4023 17.582 54.2422 17.5938 54.0469 17.5938C53.7891 17.5938 53.5586 17.5547 53.3555 17.4766ZM56.1445 8.91016H57.1641V11.4414L57.1055 12.2852H57.1641C57.3203 11.9805 57.5859 11.7188 57.9609 11.5C58.3203 11.2891 58.7188 11.1836 59.1562 11.1836C59.8984 11.1836 60.4648 11.4023 60.8555 11.8398C61.2461 12.2773 61.4414 12.8555 61.4414 13.5742V17.5H60.4219V13.7266C60.4219 13.1797 60.2812 12.7734 60 12.5078C59.7266 12.2422 59.3633 12.1094 58.9102 12.1094C58.6055 12.1094 58.3125 12.207 58.0312 12.4023C57.7656 12.5898 57.5547 12.8359 57.3984 13.1406C57.2422 13.4531 57.1641 13.7695 57.1641 14.0898V17.5H56.1445V8.91016ZM63.4336 17.043C63.043 16.6055 62.8477 16 62.8477 15.2266V11.3828H63.8672V15.0742C63.8672 15.668 64 16.0977 64.2656 16.3633C64.5391 16.6367 64.8945 16.7734 65.332 16.7734C65.6758 16.7734 65.9844 16.6797 66.2578 16.4922C66.5156 16.3125 66.7227 16.0742 66.8789 15.7773C67.0273 15.4883 67.1016 15.1758 67.1016 14.8398V11.3828H68.25C68.5469 11.3828 68.6953 11.2227 68.6953 10.9023V10.082H69.5156V10.9023C69.5156 11.332 69.4102 11.6445 69.1992 11.8398C68.9805 12.043 68.6641 12.1445 68.25 12.1445H68.1211V17.5H67.1484V16.6094H67.1016C66.9453 16.9062 66.6758 17.1641 66.293 17.3828C65.9414 17.5859 65.5508 17.6875 65.1211 17.6875C64.3789 17.6875 63.8164 17.4727 63.4336 17.043ZM65.5078 19.8086C65.3359 19.8086 65.1836 19.7422 65.0508 19.6094C64.918 19.4766 64.8516 19.3242 64.8516 19.1523C64.8516 18.9648 64.918 18.8125 65.0508 18.6953C65.1758 18.5781 65.3281 18.5195 65.5078 18.5195C65.6953 18.5195 65.8477 18.5781 65.9648 18.6953C66.082 18.8125 66.1406 18.9648 66.1406 19.1523C66.1406 19.332 66.082 19.4844 65.9648 19.6094C65.8477 19.7422 65.6953 19.8086 65.5078 19.8086ZM71.2969 17.2656C70.8359 16.9844 70.4688 16.5977 70.1953 16.1055C69.9297 15.6211 69.7969 15.0664 69.7969 14.4414C69.7969 13.8164 69.9297 13.2617 70.1953 12.7773C70.4766 12.2695 70.8438 11.8789 71.2969 11.6055C71.7656 11.3242 72.2969 11.1836 72.8906 11.1836C73.5391 11.1836 74.0977 11.3398 74.5664 11.6523C75.0195 11.957 75.3398 12.3672 75.5273 12.8828L74.6016 13.2695C74.4453 12.8789 74.2227 12.5898 73.9336 12.4023C73.6367 12.207 73.2734 12.1094 72.8438 12.1094C72.4844 12.1094 72.1484 12.207 71.8359 12.4023C71.5234 12.5977 71.2734 12.8711 71.0859 13.2227C70.8984 13.5742 70.8047 13.9805 70.8047 14.4414C70.8047 14.8945 70.8984 15.2969 71.0859 15.6484C71.2734 16 71.5234 16.2734 71.8359 16.4688C72.1562 16.6719 72.4922 16.7734 72.8438 16.7734C73.2656 16.7734 73.6367 16.6719 73.957 16.4688C74.2695 16.2734 74.5039 15.9883 74.6602 15.6133L75.5625 16C75.3516 16.5 75.0195 16.9062 74.5664 17.2188C74.1133 17.5312 73.5547 17.6875 72.8906 17.6875C72.2969 17.6875 71.7656 17.5469 71.2969 17.2656Z" fill="white"/>
</svg>
