<svg width="20" height="22" viewBox="0 0 20 22" fill="none" xmlns="http://www.w3.org/2000/svg">
<path d="M8.18977 0.400612L2.59165 2.98176C0.972388 3.72836 -0.0961888 5.40033 0.00685015 7.2355C0.409679 14.4101 2.43489 17.5686 7.69732 21.2647C9.09141 22.2438 10.929 22.2462 12.3221 21.2655C17.6007 17.5493 19.5534 14.3461 19.9917 7.26035C20.1059 5.41305 19.0356 3.72333 17.4051 2.97153L11.8291 0.400611C10.6706 -0.133538 9.34826 -0.133537 8.18977 0.400612Z" fill="#0B3558"/>
<path d="M12 8H8M12 8C13.1046 8 14 8.89543 14 10V13C14 14.1046 13.1046 15 12 15H8C6.89543 15 6 14.1046 6 13V10C6 8.89543 6.89543 8 8 8M12 8V7C12 5.89543 11.1046 5 10 5C8.89543 5 8 5.89543 8 7V8M10 12V11" stroke="white" stroke-linecap="round"/>
</svg>
