<svg width="20" height="22" viewBox="0 0 20 22" fill="none" xmlns="http://www.w3.org/2000/svg">
<ellipse cx="10" cy="6" rx="1" ry="1" fill="#0050A6"/>
<path d="M9 8.24997C8.58579 8.24997 8.25 8.58576 8.25 8.99997C8.25 9.41418 8.58579 9.74997 9 9.74997V8.24997ZM10 8.99997H10.75C10.75 8.58576 10.4142 8.24997 10 8.24997V8.99997ZM9.25 16C9.25 16.4142 9.58579 16.75 10 16.75C10.4142 16.75 10.75 16.4142 10.75 16H9.25ZM3.07846 4.43932L3.46063 5.08465L3.07846 4.43932ZM3.07846 17.5607L3.46063 16.9153H3.46063L3.07846 17.5607ZM12.0785 20.4288L11.6963 19.7834L12.0785 20.4288ZM7.92154 20.4288L7.53937 21.0741L7.92154 20.4288ZM16.9215 17.5607L17.3037 18.206L16.9215 17.5607ZM16.9215 4.43932L16.5394 5.08465L16.9215 4.43932ZM12.0785 1.57125L11.6963 2.21658L12.0785 1.57125ZM7.92154 1.57125L7.53937 0.925918L7.92154 1.57125ZM9 9.74997H10V8.24997H9V9.74997ZM9.25 8.99997V16H10.75V8.99997H9.25ZM11.6963 2.21658L16.5394 5.08465L17.3037 3.79399L12.4606 0.925918L11.6963 2.21658ZM18.25 8.13192V13.8681H19.75V8.13192H18.25ZM16.5394 16.9153L11.6963 19.7834L12.4606 21.0741L17.3037 18.206L16.5394 16.9153ZM8.3037 19.7834L3.46063 16.9153L2.6963 18.206L7.53937 21.0741L8.3037 19.7834ZM1.75 13.8681V8.13192H0.25V13.8681H1.75ZM3.46063 5.08465L8.3037 2.21658L7.53937 0.925918L2.6963 3.79399L3.46063 5.08465ZM1.75 8.13192C1.75 6.86735 2.40779 5.70814 3.46063 5.08465L2.6963 3.79399C1.17682 4.69383 0.25 6.34985 0.25 8.13192H1.75ZM3.46063 16.9153C2.40779 16.2919 1.75 15.1327 1.75 13.8681H0.25C0.25 15.6502 1.17682 17.3062 2.6963 18.206L3.46063 16.9153ZM11.6963 19.7834C10.6458 20.4055 9.35419 20.4055 8.3037 19.7834L7.53937 21.0741C9.06119 21.9753 10.9388 21.9753 12.4606 21.0741L11.6963 19.7834ZM18.25 13.8681C18.25 15.1327 17.5922 16.2919 16.5394 16.9153L17.3037 18.206C18.8232 17.3062 19.75 15.6502 19.75 13.8681H18.25ZM16.5394 5.08465C17.5922 5.70814 18.25 6.86735 18.25 8.13192H19.75C19.75 6.34985 18.8232 4.69383 17.3037 3.79399L16.5394 5.08465ZM12.4606 0.925918C10.9388 0.0246941 9.06119 0.024694 7.53937 0.925918L8.3037 2.21658C9.35419 1.59447 10.6458 1.59447 11.6963 2.21658L12.4606 0.925918Z" fill="#0050A6"/>
</svg>
