<svg width="95" height="32" viewBox="0 0 95 32" fill="none" xmlns="http://www.w3.org/2000/svg">
<path fill-rule="evenodd" clip-rule="evenodd" d="M71.0799 0.264771C69.5797 0.56983 69.0313 1.24964 69.085 2.22652C69.5397 4.07196 70.3214 5.82103 71.3929 7.39082C72.6542 9.40794 74.1357 11.2787 75.81 12.9687C77.1571 14.2986 78.0048 14.5877 79.4353 12.626C80.7216 11.001 81.8384 9.24874 82.7681 7.39653C83.2238 6.45064 83.6158 5.47542 83.9415 4.47733C84.19 3.91429 84.2266 3.2804 84.0446 2.69249C83.8625 2.10458 83.4741 1.60228 82.9509 1.2782C83.4806 1.53682 83.9278 1.9378 84.2424 2.43624C84.557 2.93469 84.7266 3.51089 84.7322 4.10029C84.739 5.21977 84.561 6.3327 84.2055 7.39424C83.5776 9.67519 82.7329 11.8908 81.6827 14.0107C80.8659 15.6795 79.9276 17.286 78.8754 18.8174C76.6498 21.884 74.5121 20.8923 72.0053 18.8174C70.336 17.4089 68.8498 15.7968 67.5814 14.0187C66.1385 11.9387 64.9163 9.71392 63.9344 7.38054C62.7519 4.52418 63.6705 3.05828 65.1307 2.12482C66.9729 1.12145 68.9942 0.489486 71.0799 0.264771Z" fill="url(#paint0_linear_1754_4122)"/>
<path fill-rule="evenodd" clip-rule="evenodd" d="M71.0272 6.78528C73.3466 6.44251 79.3769 6.06433 81.4906 7.15888C81.755 7.27542 81.9678 7.48456 82.0887 7.74694C82.2097 8.00933 82.2307 8.30688 82.1476 8.58363C82.3613 8.20316 82.5669 7.79985 82.7749 7.39539C83.2307 6.44921 83.6227 5.47358 83.9482 4.47505C84.1965 3.91197 84.233 3.27815 84.051 2.69031C83.8689 2.10246 83.4807 1.60017 82.9576 1.27592C82.4908 1.04525 82.0025 0.860805 81.4998 0.725217C80.0289 0.343507 78.5228 0.113787 77.005 0.0396827C76.3629 -0.00601911 75.6911 -0.000302486 75.0113 0.000840059C73.7 0.00321414 72.3902 0.0898335 71.0901 0.260186C69.5911 0.564103 69.0426 1.24393 69.0963 2.22195C69.459 3.84723 70.1132 5.39333 71.0272 6.78528Z" fill="url(#paint1_linear_1754_4122)"/>
<path fill-rule="evenodd" clip-rule="evenodd" d="M64.9685 31.9348C65.6392 31.886 66.2697 31.5966 66.7439 31.1198C67.2181 30.643 67.5042 30.0111 67.5496 29.3401C67.7791 27.958 67.7325 26.5441 67.4125 25.1801C67.2974 24.7093 67.0472 24.2823 66.6926 23.9519C66.1199 23.5574 65.4371 23.3538 64.7418 23.3702C64.0465 23.3867 63.3741 23.6222 62.8205 24.0433C62.6891 24.1495 62.5737 24.1998 62.5737 24.0113L62.5543 20.1038L60.3904 20.1404L60.3995 31.3373C61.849 31.9154 63.4205 32.12 64.9697 31.9326L64.9685 31.9348ZM6.92724 31.7223C7.38426 31.7223 7.29168 31.7623 7.56818 31.3796C9.69463 28.025 10.9455 24.1904 11.2061 20.2272C10.313 20.2088 9.42178 20.3142 8.55765 20.5402C8.20015 23.6919 7.19417 26.7356 5.60303 29.4795C4.01243 26.7353 3.0065 23.6918 2.64841 20.5402C1.7843 20.3141 0.893028 20.2087 0 20.2272C0.260461 24.1906 1.5117 28.0253 3.639 31.3796C3.91436 31.7589 3.82521 31.7223 4.27994 31.7223H6.92724ZM69.1342 23.7862L69.3445 25.7503C70.2025 25.6691 70.9029 25.4372 71.7998 25.3789C73.1537 25.3298 74.0175 25.299 73.9707 26.2793C72.9595 26.2793 71.9323 26.2793 70.8858 26.2861C69.6107 26.2987 68.5504 26.9042 68.6909 29.4967C68.86 32.6101 72.5562 32.3827 74.2437 31.1339V31.832H76.2055C76.1541 28.6546 76.3837 25.3195 75.8113 24.4146C74.7144 22.6894 71.136 23.3166 69.1285 23.7874L69.1342 23.7862ZM22.9195 31.4584C22.8479 30.8171 22.7751 30.1757 22.7013 29.5344C21.6126 29.7514 20.5068 29.8715 19.397 29.8931C18.3687 29.8611 17.986 29.3641 17.986 27.8914C18.155 28.0904 18.365 28.2506 18.6016 28.361C18.8382 28.4715 19.0959 28.5295 19.357 28.5312C20.7064 28.5461 21.9677 28.5678 23.2976 28.5186C23.357 26.0656 23.5684 23.9267 21.1188 23.4023C20.0406 23.1806 18.9261 23.2059 17.8591 23.4766C17.407 23.5684 16.9915 23.7903 16.6639 24.1151C16.3363 24.4399 16.1107 24.8534 16.015 25.3047C15.4575 27.2299 15.6151 30.0782 16.8514 31.1796C18.2727 32.4364 21.1359 31.9908 22.9252 31.4584H22.9195ZM18.9754 25.3047H20.0574C20.3178 25.3053 20.5674 25.409 20.7515 25.5931C20.9357 25.7773 21.0393 26.0268 21.0399 26.2873V26.7226H17.9974V26.2873C17.9986 26.027 18.1025 25.7778 18.2865 25.5938C18.4705 25.4098 18.7197 25.3059 18.98 25.3047H18.9754ZM88.1748 31.8172L88.2421 28.2102C88.2421 27.9908 88.4422 28.2856 88.4958 28.3667C89.1627 29.5238 89.9807 30.587 90.9283 31.5281C91.2276 31.8274 91.2894 31.8057 91.8195 31.8057H94.0909C92.6514 30.6976 91.4705 29.2894 90.6301 27.6789C90.453 27.2961 90.461 27.3361 90.7146 26.9808C91.0437 26.6026 91.4584 26.0896 91.9143 25.5697L93.8487 23.2926L93.8761 23.2412H91.8195C91.4436 23.2412 91.4562 23.183 91.1922 23.4697C90.4085 24.3152 89.5115 25.3047 88.7929 26.0976C88.706 26.1863 88.6103 26.2659 88.5072 26.3352C88.209 26.5477 88.2627 26.4918 88.2616 26.1776L88.2421 20.0615L86.0474 20.0775L86.0188 31.7989L88.1748 31.8172ZM37.3212 31.5361L37.1281 29.6246C36.1102 29.8055 35.0768 29.8848 34.0432 29.8611C32.9944 29.7469 32.8641 29.1882 32.855 28.3336C32.855 27.8171 32.8344 27.2356 32.8641 26.726C32.8307 26.4285 32.9168 26.1299 33.1034 25.8957C33.29 25.6616 33.5619 25.511 33.8593 25.4772C33.9204 25.4707 33.9819 25.4688 34.0432 25.4715C35.0768 25.4479 36.1102 25.5271 37.1281 25.708L37.3212 23.7965C33.5577 22.9076 31.2052 23.3521 30.6785 26.2713C30.5777 27.3373 30.6077 28.4116 30.7676 29.4704C31.436 32.0228 33.7382 32.3839 37.3212 31.5372V31.5361ZM25.4982 23.3658H24.1214C24.1214 24.0399 24.1134 24.7162 24.1089 25.3892L25.4982 25.3995V27.4961C25.4982 28.2204 25.4902 28.898 25.4982 29.4875C25.4576 29.8454 25.4949 30.2077 25.6078 30.5497C25.7206 30.8918 25.9061 31.2053 26.1517 31.4687C26.4063 31.6406 26.703 31.7398 27.0098 31.7555C27.8963 31.8648 28.7957 31.8015 29.6582 31.5692C29.6353 30.9911 29.6113 30.4107 29.5885 29.8314C28.7418 29.9148 27.7067 30.0965 27.7067 29.6635V25.4052L29.7073 25.3949V23.3772L27.709 23.3658V21.3537H25.5061V23.3658H25.4982ZM12.0561 31.8092L14.1961 31.8514L14.275 23.3966L12.0458 23.4092L12.0561 31.8069V31.8092ZM41.239 23.2538H43.1608C43.8833 23.2574 44.5751 23.546 45.086 24.0569C45.5969 24.5678 45.8856 25.2597 45.8892 25.9822V29.2099C45.8865 29.9333 45.5972 30.6262 45.0848 31.137C44.5724 31.6477 43.8785 31.9346 43.1551 31.9348H41.2333C40.5102 31.9327 39.8174 31.6444 39.3064 31.1329C38.7953 30.6214 38.5075 29.9284 38.506 29.2053V25.9822C38.5069 25.2588 38.7944 24.5653 39.3056 24.0535C39.8168 23.5417 40.5099 23.2533 41.2333 23.2515L41.239 23.2538ZM41.6595 25.3012C41.3992 25.3018 41.1498 25.4054 40.9657 25.5893C40.7816 25.7732 40.6778 26.0225 40.6769 26.2827V28.9105C40.6778 29.1707 40.7816 29.42 40.9657 29.6039C41.1498 29.7878 41.3992 29.8914 41.6595 29.892H42.7415C43.0015 29.8911 43.2506 29.7874 43.4344 29.6035C43.6183 29.4197 43.722 29.1705 43.7229 28.9105V26.2827C43.722 26.0227 43.6183 25.7736 43.4344 25.5897C43.2506 25.4058 43.0015 25.3021 42.7415 25.3012H41.6595ZM49.4654 31.8137C49.4844 29.6612 49.5046 27.5086 49.5259 25.3561H51.1312C51.3383 25.3387 51.5438 25.4043 51.7026 25.5384C51.8614 25.6725 51.9603 25.8642 51.9778 26.0713V31.8172H54.1406L54.2 25.3515H55.9641C56.0641 25.3392 56.1654 25.3467 56.2625 25.3736C56.3595 25.4004 56.4503 25.4462 56.5296 25.5081C56.609 25.5701 56.6754 25.6471 56.725 25.7347C56.7746 25.8223 56.8064 25.9188 56.8187 26.0188C56.8215 26.0568 56.8215 26.095 56.8187 26.133V31.8103H58.961L59.0353 25.7045C59.072 25.4024 59.0426 25.0958 58.949 24.8061C58.8555 24.5165 58.7001 24.2506 58.4936 24.0269C58.2871 23.8032 58.0344 23.6272 57.7531 23.5108C57.4718 23.3945 57.1686 23.3407 56.8645 23.3532L55.4648 23.3669C55.1845 23.3392 54.9016 23.3777 54.6388 23.4793C54.3761 23.5809 54.1409 23.7428 53.9521 23.9519C53.6276 24.2878 53.7864 24.2947 53.4813 23.9747C53.2745 23.7576 53.0222 23.5889 52.7425 23.4806C52.4628 23.3724 52.1627 23.3273 51.8636 23.3486H50.8764C50.6035 23.352 50.3345 23.4134 50.0873 23.5288C49.84 23.6443 49.6202 23.8111 49.4425 24.0182C49.0849 24.3803 49.1294 24.4992 49.1294 23.9313V23.4035L47.2865 23.4126C47.2865 26.2118 47.2896 29.0111 47.2957 31.8103L49.4654 31.8137ZM79.7839 31.8137C79.8045 29.6612 79.825 27.5086 79.8456 25.3561H81.4772C81.5797 25.346 81.6831 25.3562 81.7817 25.3861C81.8802 25.416 81.9719 25.465 82.0515 25.5304C82.131 25.5958 82.197 25.6762 82.2455 25.767C82.294 25.8579 82.3241 25.9574 82.3341 26.0599C82.3341 26.0862 82.3341 26.1136 82.3341 26.1399V31.8206H84.5301C84.5461 29.9384 84.5635 28.0563 84.5826 26.1741C84.5974 24.682 84.0114 23.3612 82.2416 23.3612H81.2395C80.9739 23.3637 80.7117 23.4207 80.469 23.5286C80.2263 23.6365 80.0083 23.793 79.8285 23.9884C79.4526 24.3506 79.4629 24.5494 79.4629 23.9725V23.4115H77.5902C77.5902 26.2118 77.6017 29.0259 77.6039 31.8252L79.7839 31.8137ZM71.6307 28.1736H74.0163V29.4201C74.0163 29.9377 72.5082 29.9594 71.5519 29.9377C70.8492 29.9228 70.9246 29.9377 70.9006 29.3104C70.8881 29.0819 70.9006 28.8408 70.9006 28.6135C70.9006 28.1427 70.9978 28.169 71.6319 28.169L71.6307 28.1736ZM65.4152 26.6666V28.9848C65.4149 29.245 65.3114 29.4945 65.1274 29.6785C64.9435 29.8624 64.6941 29.9659 64.4339 29.9662H63.329C62.5566 29.9662 62.544 29.9777 62.544 28.8774V26.3889C62.544 25.2921 62.544 25.3012 63.329 25.3012H64.4339C64.6942 25.3012 64.9437 25.4046 65.1278 25.5887C65.3118 25.7728 65.4152 26.0224 65.4152 26.2827V26.6666Z" fill="#064523"/>
<defs>
<linearGradient id="paint0_linear_1754_4122" x1="-1004.06" y1="1555.33" x2="-1005.28" y2="1556.28" gradientUnits="userSpaceOnUse">
<stop stop-color="#006941"/>
<stop offset="0.4" stop-color="#007B48"/>
<stop offset="1" stop-color="#85C441"/>
</linearGradient>
<linearGradient id="paint1_linear_1754_4122" x1="-1002.4" y1="1712.81" x2="-1002.01" y2="1711.35" gradientUnits="userSpaceOnUse">
<stop stop-color="#006941"/>
<stop offset="0.3" stop-color="#007B48"/>
<stop offset="1" stop-color="#85C441"/>
</linearGradient>
</defs>
</svg>
