<svg width="23" height="18" viewBox="0 0 23 18" fill="none" xmlns="http://www.w3.org/2000/svg">
<path d="M20.5324 14.8505H2.46761C1.65864 14.8505 1 14.1992 1 13.3994V2.45111C1 1.65123 1.65864 1 2.46761 1H20.5324C21.3414 1 22 1.65123 22 2.45111V13.3994C22 14.1992 21.3414 14.8505 20.5324 14.8505ZM2.46761 1.71022C2.05239 1.71022 1.71591 2.04291 1.71591 2.45347V13.4017C1.71591 13.8123 2.05239 14.145 2.46761 14.145H20.5324C20.9476 14.145 21.2841 13.8123 21.2841 13.4017V2.45111C21.2841 2.04055 20.9476 1.70786 20.5324 1.70786H2.46761V1.71022Z" fill="#0B3558" stroke="#0B3558" stroke-width="0.5"/>
<path d="M12.5596 16.8276H10.4405C10.2425 16.8276 10.0826 16.6696 10.0826 16.4737V14.4941C10.0826 14.2982 10.2425 14.1401 10.4405 14.1401H12.5596C12.7577 14.1401 12.9176 14.2982 12.9176 14.4941V16.4737C12.9176 16.6696 12.7577 16.8276 12.5596 16.8276ZM10.7985 16.1198H12.2017V14.848H10.7985V16.1198Z" fill="#0B3558" stroke="#0B3558" stroke-width="0.5"/>
<path d="M15.619 16.9999H7.38124C7.18317 16.9999 7.02328 16.8418 7.02328 16.6459C7.02328 16.4501 7.18317 16.292 7.38124 16.292H15.619C15.817 16.292 15.9769 16.4501 15.9769 16.6459C15.9769 16.8418 15.817 16.9999 15.619 16.9999Z" fill="#0B3558" stroke="#0B3558" stroke-width="0.5"/>
</svg>
