<svg width="60" height="18" viewBox="0 0 60 18" fill="none" xmlns="http://www.w3.org/2000/svg">
<path d="M14.0085 1.45912V1.4624C14.0085 1.4624 14.0085 1.4624 14.0069 1.46404C14.0069 1.46404 14.0069 1.46567 14.0052 1.46731C13.9528 1.54919 13.8889 1.62452 13.812 1.68839L13.7727 1.71951H13.771L13.7285 1.7539L13.021 2.28777L10.6825 4.04986L5.6582 7.83607L6.12329 11.6206L6.13639 11.7254C6.15277 11.8237 6.18552 11.917 6.22974 12.0022C6.22974 12.0022 6.22974 12.0038 6.23137 12.0055C6.23137 12.0055 6.23137 12.0055 6.23137 12.0071C6.23629 12.0169 6.2412 12.0251 6.24775 12.035C6.25266 12.0431 6.25594 12.0513 6.26085 12.0595C6.26085 12.0595 6.26085 12.0612 6.26085 12.0628C6.26085 12.0628 6.26085 12.0644 6.26249 12.0661C6.4328 12.333 6.73085 12.5099 7.06984 12.5099C7.40883 12.5099 7.70197 12.3363 7.87228 12.0743C7.87228 12.0743 7.87883 12.0628 7.88047 12.0595C7.88538 12.0497 7.90667 12.0137 7.91322 12.0038L13.8971 1.654L13.9283 1.59996C13.9283 1.59996 14.0134 1.45093 14.0085 1.45749V1.45912Z" fill="url(#paint0_linear_1858_4643)"/>
<path d="M1.1463 0H13.2288C13.2288 0 13.2435 0 13.2451 0C13.5563 0.0163763 13.856 0.185053 14.023 0.474914C14.1933 0.769688 14.1884 1.11687 14.041 1.3969C14.041 1.3969 14.041 1.39854 14.0394 1.40018V1.40181V1.40509C14.0345 1.41328 14.0312 1.42147 14.0246 1.43129C14.0197 1.44112 14.0148 1.44931 14.0083 1.45749C14.0083 1.45749 14.0083 1.46077 14.0083 1.46241C14.0083 1.46241 14.0083 1.46404 14.0066 1.46568C13.9559 1.54756 13.8904 1.62126 13.8134 1.68512L13.7299 1.75063L10.6839 4.04495L4.88993 1.5885L2.19438 0.445436L1.38048 0.098258L1.32971 0.0769688L1.28058 0.0573172C1.18724 0.0245645 1.08898 0.0049129 0.992361 0C0.992361 0 0.990723 0 0.989086 0H0.984173C0.975985 0 1.1463 0 1.1463 0Z" fill="url(#paint1_linear_1858_4643)"/>
<path d="M6.15252 11.8679L6.12304 11.8155L0.142407 1.46077C0.137494 1.45094 0.116205 1.41491 0.111292 1.40509C0.111292 1.40509 0.104741 1.39199 0.104741 1.39035C-0.0377328 1.11195 -0.0393705 0.769688 0.127668 0.478189C0.296344 0.183415 0.599306 0.0131011 0.91537 0H0.920283H0.923558C0.933384 0 0.943209 0 0.953035 0C0.964499 0 0.974324 0 0.985788 0H0.989063H0.992338C1.0906 0.00327527 1.18722 0.0229269 1.2822 0.0573172H1.28384L1.38209 0.098258L4.89154 1.5885L5.65796 7.8328L6.01496 10.738L6.12304 11.6157L6.12959 11.6681V11.6714L6.13778 11.7222C6.1558 11.8221 6.18855 11.9154 6.23276 12.0006C6.23276 12.0006 6.23276 12.0022 6.23276 12.0038C6.23276 12.0038 6.23276 12.0038 6.23276 12.0055L6.15088 11.8663L6.15252 11.8679Z" fill="url(#paint2_linear_1858_4643)"/>
<path d="M19.8236 3.1262V10.9475H18.0648V3.1262H15.9097V1.56226H21.9771V3.1262H19.8236Z" fill="#5E2E86"/>
<path d="M26.3628 7.5577C26.0549 7.5577 25.7077 7.5315 25.503 7.49383V10.9492H23.7344V2.07163C24.4386 1.75884 25.3622 1.56396 26.4135 1.56396C28.721 1.56396 29.9901 2.74961 29.9901 4.58867C29.9901 6.29672 28.7603 7.55934 26.3628 7.55934V7.5577ZM26.4397 2.97069C26.0795 2.97069 25.7225 3.0362 25.503 3.11317V6.09857C25.6832 6.13787 25.9779 6.16408 26.2727 6.16408C27.5419 6.16408 28.2215 5.5647 28.2215 4.57393C28.2215 3.49146 27.6057 2.97069 26.4397 2.97069Z" fill="#5E2E86"/>
<path d="M34.2806 10.9492C33.3734 10.9492 32.3171 10.7363 31.7505 10.4727V2.04215C32.3548 1.76539 33.285 1.56396 34.2413 1.56396C36.3178 1.56396 37.3987 2.53344 37.3987 3.94181C37.3987 5.12418 36.5684 5.86603 35.8511 6.04289V6.06909C36.6192 6.25742 37.7131 6.93704 37.7131 8.39617C37.7131 9.9814 36.4669 10.9492 34.279 10.9492H34.2806ZM34.2413 2.42045C33.6747 2.42045 33.1097 2.52198 32.7822 2.64644V5.7301H34.1169C34.9848 5.7301 35.35 5.64331 35.7529 5.35345C36.1181 5.08979 36.3555 4.5854 36.3555 4.01878C36.3555 3.02473 35.6006 2.42045 34.2413 2.42045ZM35.7889 6.84861C35.3615 6.62261 34.9963 6.53418 34.166 6.53418H32.7822V9.8684C33.1343 9.99286 33.7517 10.0944 34.2806 10.0944C35.7905 10.0944 36.6339 9.47865 36.6339 8.3454C36.6339 7.66579 36.344 7.14993 35.7905 6.84861H35.7889Z" fill="#5E2E86"/>
<path d="M41.5383 10.9493C39.6763 10.9493 38.7461 10.1583 38.7461 8.87443C38.7461 6.93711 40.8357 6.64725 42.886 6.53425V6.0184C42.886 5.01289 42.2195 4.69847 41.2746 4.69847C40.6457 4.69847 39.8662 4.8999 39.4257 5.11279L39.149 4.37094C39.6648 4.13185 40.5196 3.89111 41.363 3.89111C42.886 3.89111 43.8801 4.4954 43.8801 6.10683V10.4728C43.4019 10.7364 42.4324 10.9493 41.5399 10.9493H41.5383ZM42.886 7.263C41.3761 7.35143 39.7401 7.43986 39.7401 8.84823C39.7401 9.64084 40.3313 10.1567 41.5137 10.1567C42.0295 10.1567 42.6469 10.0568 42.8844 9.94217V7.26136L42.886 7.263Z" fill="#5E2E86"/>
<path d="M49.0632 10.9493V6.29354C49.0632 5.37156 48.5097 4.78365 47.4141 4.78365C46.8229 4.78365 46.294 4.89828 45.9681 5.02602V10.9493H44.9102V4.40044C45.5652 4.11877 46.407 3.91406 47.4026 3.91406C49.1893 3.91406 50.108 4.75744 50.108 6.20347V10.9493H49.0648H49.0632Z" fill="#5E2E86"/>
<path d="M55.3877 10.9492L52.1959 7.46436H52.1714V10.9492H51.1396V1.56396H52.1714V7.27603H52.1959L55.3746 3.91397H56.6323L53.3406 7.37593L56.6323 10.9492H55.386H55.3877Z" fill="#5E2E86"/>
<path d="M26.1382 14.141C26.135 14.1508 26.1317 14.1606 26.1284 14.1655L24.7839 16.8824C24.725 17.0003 24.6529 17.0822 24.5661 17.1297C24.4777 17.1755 24.3876 17.1984 24.291 17.1984C24.0666 17.1984 23.9487 17.0936 23.9324 16.8824L23.7358 14.1655C23.7358 14.1655 23.7358 14.1524 23.7375 14.141C23.7408 14.1197 23.7522 14.1017 23.7702 14.0886C23.7882 14.0755 23.8063 14.0706 23.8275 14.0706H24.0699C24.0847 14.0706 24.0978 14.0771 24.1109 14.0886C24.124 14.1017 24.1305 14.1148 24.1321 14.1328L24.291 16.7907C24.2959 16.8496 24.3172 16.8791 24.3565 16.8791C24.3942 16.8791 24.4253 16.8496 24.4548 16.7907L25.7501 14.1328C25.7714 14.0902 25.7993 14.0706 25.8336 14.0706H26.0809C26.1284 14.0706 26.1481 14.0935 26.1382 14.141Z" fill="#5E2E86"/>
<path d="M26.2625 17.0854C26.2576 17.11 26.2445 17.1312 26.2248 17.146C26.2052 17.1624 26.1839 17.1689 26.161 17.1689H25.9612C25.9415 17.1689 25.9235 17.1607 25.9088 17.1444C25.894 17.128 25.8908 17.1083 25.8957 17.0838L26.3477 14.9581C26.3526 14.9335 26.364 14.9139 26.3837 14.8992C26.4033 14.8828 26.4246 14.8746 26.4492 14.8746H26.649C26.6752 14.8746 26.6932 14.8828 26.7063 14.8975C26.7178 14.9123 26.7211 14.9319 26.7161 14.9581L26.2625 17.0838V17.0854ZM26.8815 14.5422C26.8783 14.5618 26.8635 14.57 26.839 14.57H26.613C26.5999 14.57 26.5884 14.5684 26.5802 14.5634C26.572 14.5602 26.5638 14.5536 26.5573 14.5454C26.5524 14.5372 26.5425 14.5241 26.5327 14.5061L26.1741 13.9804C26.1659 13.9706 26.161 13.9592 26.1643 13.9477C26.1692 13.928 26.1855 13.9182 26.215 13.9182H26.4901C26.5262 13.9182 26.5573 13.9379 26.5819 13.9788L26.8766 14.4963C26.8848 14.5061 26.8865 14.5209 26.8832 14.5389L26.8815 14.5422Z" fill="#5E2E86"/>
<path d="M28.5946 17.1984C28.4537 17.1984 28.3309 17.1739 28.2277 17.128C28.1246 17.0805 28.0443 17.0134 27.987 16.9249C27.9313 16.8381 27.8969 16.7317 27.8871 16.6089C27.8756 16.4861 27.8871 16.3452 27.9215 16.1847L27.9903 15.8588C28.0361 15.6476 28.1066 15.4674 28.2048 15.3151C28.3031 15.1645 28.4275 15.0482 28.5782 14.9663C28.7289 14.8844 28.9024 14.8435 29.0957 14.8435C29.2087 14.8435 29.3135 14.8566 29.4085 14.8861C29.5035 14.9139 29.5722 14.9418 29.6148 14.9696C29.6377 14.9827 29.6508 14.9958 29.6558 15.0056C29.6607 15.0155 29.6607 15.0335 29.6558 15.058L29.623 15.2054C29.6115 15.2644 29.5739 15.2824 29.5149 15.2611C29.3479 15.1972 29.1858 15.1645 29.0269 15.1645C28.6797 15.1645 28.457 15.3954 28.3587 15.8572L28.2883 16.1831C28.2392 16.4124 28.2474 16.5859 28.3113 16.7022C28.3751 16.8185 28.493 16.8774 28.6633 16.8774C28.8222 16.8774 28.9974 16.8463 29.1923 16.7808C29.2594 16.7579 29.2873 16.7759 29.2758 16.8332L29.2447 16.9839C29.2382 17.0085 29.2316 17.0265 29.2201 17.0363C29.2103 17.0478 29.1907 17.0592 29.1661 17.0707C29.1088 17.0985 29.0269 17.128 28.9205 17.1542C28.8156 17.182 28.7076 17.1951 28.5929 17.1951L28.5946 17.1984Z" fill="#5E2E86"/>
<path d="M31.3607 17.0854C31.3558 17.1084 31.3427 17.1297 31.3214 17.146C31.3001 17.1608 31.2789 17.1706 31.2608 17.1706H31.0594C31.0365 17.1706 31.0185 17.1624 31.0054 17.146C30.9923 17.1297 30.9906 17.11 30.9939 17.0854L31.2854 15.7131C31.328 15.5117 31.3198 15.3708 31.2608 15.289C31.2019 15.2071 31.0987 15.1661 30.9546 15.1661C30.8776 15.1661 30.7827 15.176 30.6664 15.1956C30.5501 15.2153 30.4453 15.2447 30.3569 15.2824L29.9737 17.0838C29.9688 17.1051 29.9557 17.1247 29.9344 17.1428C29.9131 17.1591 29.8918 17.169 29.8705 17.169H29.6658C29.6461 17.169 29.6298 17.1608 29.6167 17.1444C29.6036 17.128 29.6003 17.1084 29.6052 17.0838L30.2357 14.1131C30.2406 14.0886 30.2521 14.0689 30.2701 14.0542C30.2881 14.0394 30.3094 14.0312 30.3323 14.0312H30.5386C30.5632 14.0312 30.5812 14.0394 30.5911 14.0542C30.6025 14.0689 30.6058 14.0902 30.6025 14.1131L30.4191 14.9745C30.5255 14.9303 30.6385 14.8976 30.7565 14.8763C30.876 14.855 30.9841 14.8435 31.084 14.8435C31.2346 14.8435 31.3607 14.873 31.4606 14.9352C31.5605 14.9958 31.6277 15.0908 31.6621 15.2234C31.6965 15.3528 31.6932 15.5182 31.6522 15.7131L31.3607 17.0854Z" fill="#5E2E86"/>
<path d="M31.9813 16.3271L32.2728 14.9614C32.2761 14.9368 32.2892 14.9171 32.3072 14.9024C32.3252 14.886 32.3482 14.8778 32.3727 14.8778H32.5725C32.5971 14.8778 32.6134 14.886 32.6265 14.9024C32.6396 14.9188 32.6429 14.9384 32.6397 14.9614L32.3498 16.3271C32.3056 16.5318 32.3121 16.676 32.3694 16.7611C32.4284 16.8463 32.543 16.8888 32.7133 16.8888C32.7772 16.8888 32.864 16.8807 32.9754 16.8659C33.0867 16.8512 33.1833 16.8332 33.2669 16.8135L33.6615 14.9614C33.6648 14.9384 33.6779 14.9188 33.6959 14.9024C33.7156 14.886 33.7369 14.8778 33.7614 14.8778H33.9661C33.9891 14.8778 34.0071 14.886 34.0169 14.9024C34.0284 14.9188 34.0316 14.9384 34.0267 14.9614L33.5993 16.9707C33.5895 17.0231 33.5551 17.0559 33.501 17.0706C33.1506 17.1558 32.8525 17.1984 32.6118 17.1984C32.4055 17.1984 32.2499 17.164 32.1434 17.0968C32.037 17.0297 31.9731 16.9314 31.9518 16.8053C31.9306 16.6792 31.9404 16.5187 31.9813 16.3271ZM34.012 13.9493C34.0087 13.9591 34.0022 13.9706 33.9891 13.9821L33.4044 14.5077C33.3749 14.5339 33.3537 14.5519 33.3422 14.5601C33.3307 14.5683 33.3144 14.5716 33.2963 14.5716H33.0687C33.0441 14.5716 33.0343 14.5618 33.0376 14.5438C33.0425 14.5257 33.0507 14.511 33.0638 14.5012L33.5829 13.9837C33.6108 13.9558 33.6304 13.9395 33.6419 13.9329C33.655 13.9264 33.673 13.9231 33.6943 13.9231H33.9694C34.0005 13.9231 34.0153 13.9329 34.0103 13.9526L34.012 13.9493Z" fill="#5E2E86"/>
<path d="M36.0787 15.7179L35.7888 17.087C35.7839 17.1099 35.7708 17.1312 35.7495 17.1476C35.7282 17.1623 35.7069 17.1721 35.6873 17.1721H35.4891C35.4662 17.1721 35.4482 17.1639 35.4351 17.1476C35.422 17.1312 35.4187 17.1115 35.4236 17.087L35.7135 15.7179C35.7429 15.5787 35.7495 15.469 35.7347 15.3871C35.72 15.3052 35.6807 15.2479 35.6152 15.2119C35.5513 15.1758 35.4629 15.1595 35.3483 15.1595C35.178 15.1595 34.9929 15.184 34.7931 15.2348L34.4001 17.087C34.3952 17.1082 34.3821 17.1279 34.3624 17.1459C34.3428 17.1623 34.3215 17.1721 34.3002 17.1721H34.0955C34.0758 17.1721 34.0578 17.1639 34.0463 17.1476C34.0332 17.1312 34.03 17.1115 34.0349 17.087L34.4607 15.0759C34.4721 15.0252 34.5049 14.9924 34.5589 14.9777C34.9143 14.8909 35.2107 14.8467 35.4465 14.8467C35.6037 14.8467 35.7315 14.8663 35.8314 14.904C35.9313 14.9433 36.0033 14.999 36.0475 15.0727C36.0934 15.1464 36.1163 15.2364 36.1212 15.3412C36.1261 15.4461 36.1114 15.5722 36.0803 15.7195L36.0787 15.7179Z" fill="#5E2E86"/>
<path d="M36.9238 17.6914C37.0597 17.6914 37.1694 17.6767 37.248 17.6488C37.3299 17.6194 37.3954 17.5686 37.4446 17.4933C37.4953 17.4179 37.5346 17.3099 37.5641 17.1707L37.5707 17.1428C37.5133 17.1559 37.4347 17.169 37.3365 17.1805C37.2382 17.1919 37.1563 17.1985 37.0925 17.1985C36.4718 17.1985 36.2343 16.8579 36.3785 16.175L36.444 15.8687C36.4947 15.6362 36.5701 15.4462 36.67 15.2939C36.7699 15.1433 36.8976 15.0303 37.0515 14.9566C37.2055 14.8829 37.3872 14.8452 37.5936 14.8452C37.8114 14.8452 38.0538 14.8763 38.3191 14.9402C38.3534 14.9467 38.3747 14.9566 38.3829 14.9697C38.3911 14.9828 38.3928 15.0041 38.3862 15.0352L37.9326 17.1674C37.8703 17.4654 37.7508 17.6767 37.5739 17.8011C37.3971 17.9256 37.1596 17.9878 36.8616 17.9878C36.7158 17.9878 36.5848 17.9715 36.4685 17.9371C36.3506 17.9027 36.2638 17.8683 36.2098 17.8306C36.1754 17.8061 36.1623 17.7733 36.1721 17.7356L36.2032 17.5964C36.2081 17.5719 36.2196 17.5539 36.2393 17.5408C36.2606 17.5293 36.2835 17.5293 36.3097 17.5408C36.4391 17.5948 36.5422 17.6325 36.6159 17.6554C36.6913 17.6767 36.7944 17.6881 36.9254 17.6881L36.9238 17.6914ZM37.6329 16.8431L37.9833 15.1989C37.8261 15.1678 37.6738 15.1531 37.5264 15.1531C37.4233 15.1531 37.3316 15.1662 37.2546 15.1924C37.176 15.2186 37.1072 15.2612 37.0532 15.3185C36.9975 15.3758 36.9516 15.4495 36.9107 15.5379C36.8698 15.628 36.837 15.7377 36.8108 15.8655L36.7453 16.1717C36.7093 16.3469 36.6994 16.4878 36.7191 16.5926C36.7387 16.6974 36.7846 16.7727 36.8583 16.8186C36.932 16.8644 37.0335 16.8873 37.1596 16.8873C37.2268 16.8873 37.3054 16.8824 37.3987 16.8742C37.4904 16.8644 37.569 16.8546 37.6345 16.8415L37.6329 16.8431Z" fill="#5E2E86"/>
<path d="M40.6871 17.1067C40.6789 17.1477 40.6478 17.1706 40.597 17.1771C40.5004 17.1902 40.407 17.1968 40.3202 17.1968C40.1155 17.1968 39.978 17.1575 39.9092 17.0822C39.8388 17.0036 39.8257 16.8578 39.8748 16.6384L40.1843 15.1825L39.7864 15.1383C39.734 15.135 39.7143 15.1088 39.7225 15.063L39.7471 14.9483C39.7585 14.8992 39.7896 14.8763 39.842 14.8763H40.2465L40.335 14.4669C40.3448 14.4194 40.3743 14.3932 40.425 14.3833L40.651 14.3506H40.6641C40.6838 14.3506 40.6969 14.3571 40.7067 14.3702C40.7149 14.3833 40.7165 14.3997 40.7133 14.421L40.6166 14.8779H41.067C41.0899 14.8779 41.1096 14.8861 41.121 14.9025C41.1341 14.9188 41.1374 14.9385 41.1325 14.9614L41.1014 15.1023C41.0981 15.1252 41.085 15.1448 41.0637 15.1612C41.0424 15.1776 41.0211 15.1858 41.0015 15.1858H40.5511L40.2416 16.6416C40.2171 16.753 40.2171 16.8251 40.2416 16.8578C40.2662 16.8889 40.3202 16.9053 40.407 16.9053H40.6412C40.6985 16.9053 40.7247 16.9249 40.7165 16.9642L40.6854 17.1084L40.6871 17.1067Z" fill="#5E2E86"/>
<path d="M42.9893 16.1816C42.9221 16.4944 42.7911 16.7416 42.5929 16.9234C42.3948 17.1068 42.1459 17.1985 41.8445 17.1985C41.5432 17.1985 41.3369 17.1068 41.2157 16.9234C41.0945 16.74 41.0667 16.4944 41.1338 16.1816L41.201 15.8639C41.2681 15.5494 41.4007 15.3022 41.5989 15.1187C41.7971 14.9353 42.0443 14.8453 42.344 14.8453C42.6437 14.8453 42.855 14.937 42.9762 15.1187C43.0973 15.3022 43.1235 15.5494 43.058 15.8639L42.9893 16.1816ZM42.6208 16.1816L42.6896 15.8639C42.7207 15.7181 42.7272 15.5937 42.7092 15.4888C42.6912 15.3857 42.647 15.3054 42.5749 15.2498C42.5045 15.1941 42.4046 15.1662 42.2769 15.1662C42.0869 15.1662 41.933 15.2268 41.8167 15.3496C41.6988 15.4708 41.6153 15.6428 41.5678 15.8639L41.5006 16.1816C41.4007 16.6467 41.5383 16.8792 41.9117 16.8792C42.1017 16.8792 42.254 16.8186 42.3735 16.6974C42.4931 16.5762 42.5766 16.4059 42.6224 16.1816H42.6208ZM43.1088 14.5423C43.1055 14.5619 43.0908 14.5701 43.0629 14.5701H42.8468C42.8271 14.5701 42.8124 14.5669 42.8042 14.5587C42.796 14.5521 42.7829 14.5341 42.7665 14.5063L42.5094 14.1034L42.0771 14.5063C42.0493 14.5325 42.028 14.5488 42.0149 14.557C42.0034 14.5652 41.987 14.5701 41.9674 14.5701H41.7496C41.725 14.5701 41.7152 14.5603 41.7184 14.5423C41.7217 14.5243 41.7316 14.5095 41.743 14.4997L42.2556 13.9822C42.2834 13.9544 42.3047 13.938 42.3162 13.9315C42.3276 13.9249 42.3457 13.9216 42.3686 13.9216H42.7223C42.7567 13.9216 42.7878 13.9413 42.8107 13.9822L43.099 14.4997C43.1088 14.5095 43.1121 14.5243 43.1072 14.5423H43.1088Z" fill="#5E2E86"/>
<path d="M43.5989 17.0853C43.5939 17.1099 43.5825 17.1312 43.5612 17.1459C43.5415 17.1623 43.5202 17.1689 43.4973 17.1689H43.2959C43.2762 17.1689 43.2582 17.1607 43.2435 17.1443C43.2304 17.1279 43.2255 17.1083 43.2304 17.0837L43.6824 14.9581C43.6856 14.9335 43.6987 14.9138 43.7184 14.8991C43.7381 14.8827 43.7593 14.8745 43.7823 14.8745H43.9821C44.0083 14.8745 44.0263 14.8827 44.0394 14.8975C44.0525 14.9122 44.0541 14.9319 44.0492 14.9581L43.5972 17.0837L43.5989 17.0853ZM44.1704 14.4242C44.1671 14.4488 44.154 14.4684 44.1344 14.4831C44.1147 14.4979 44.0934 14.5061 44.0705 14.5061H43.8592C43.8363 14.5061 43.8167 14.4979 43.8052 14.4815C43.7921 14.4651 43.7872 14.4455 43.7921 14.4226L43.8625 14.0901C43.8674 14.0672 43.8789 14.0475 43.8985 14.0312C43.9166 14.0148 43.9395 14.0066 43.964 14.0066H44.1753C44.2015 14.0066 44.2195 14.0131 44.2326 14.0279C44.2441 14.0426 44.2457 14.0639 44.2408 14.0901L44.1704 14.4226V14.4242Z" fill="#5E2E86"/>
<path d="M46.8853 17.0854C46.8788 17.1084 46.8673 17.1297 46.846 17.146C46.8247 17.1608 46.8051 17.1706 46.7838 17.1706H46.584C46.5611 17.1706 46.5431 17.1624 46.53 17.146C46.5169 17.1297 46.5136 17.11 46.5185 17.0854L46.81 15.7131C46.8509 15.5117 46.8444 15.3708 46.7854 15.289C46.7265 15.2071 46.6233 15.1661 46.4792 15.1661C46.4039 15.1661 46.3056 15.176 46.1893 15.1956C46.0731 15.2153 45.9699 15.2447 45.8798 15.2824L45.4966 17.0838C45.4901 17.1051 45.4786 17.1247 45.4573 17.1428C45.4377 17.1591 45.4147 17.169 45.3934 17.169H45.1904C45.1691 17.169 45.1527 17.1608 45.1396 17.1444C45.1265 17.128 45.1232 17.1084 45.1281 17.0838L45.7603 14.1131C45.7635 14.0886 45.775 14.0689 45.793 14.0542C45.811 14.0394 45.8307 14.0312 45.8553 14.0312H46.0632C46.0878 14.0312 46.1058 14.0394 46.1156 14.0542C46.1271 14.0689 46.1304 14.0902 46.1271 14.1131L45.9437 14.9745C46.0501 14.9303 46.1615 14.8976 46.2827 14.8763C46.4006 14.855 46.5087 14.8435 46.6086 14.8435C46.7592 14.8435 46.8853 14.873 46.9869 14.9352C47.0868 14.9958 47.1539 15.0908 47.1883 15.2234C47.2227 15.3528 47.2194 15.5182 47.1768 15.7131L46.8853 17.0854Z" fill="#5E2E86"/>
<path d="M47.7467 17.0853C47.7418 17.1099 47.7287 17.1312 47.7091 17.1459C47.6894 17.1623 47.6681 17.1689 47.6452 17.1689H47.4454C47.4241 17.1689 47.4077 17.1607 47.3946 17.1443C47.3799 17.1279 47.3766 17.1083 47.3815 17.0837L47.8335 14.9581C47.8384 14.9335 47.8483 14.9138 47.8695 14.8991C47.8892 14.8827 47.9105 14.8745 47.935 14.8745H48.1348C48.161 14.8745 48.1807 14.8827 48.1922 14.8975C48.2053 14.9122 48.2085 14.9319 48.202 14.9581L47.75 17.0837L47.7467 17.0853ZM48.3199 14.4242C48.3166 14.4488 48.3052 14.4684 48.2839 14.4831C48.2642 14.4979 48.2429 14.5061 48.22 14.5061H48.0087C47.9858 14.5061 47.9678 14.4979 47.9547 14.4815C47.9416 14.4651 47.9383 14.4455 47.9416 14.4226L48.012 14.0901C48.0186 14.0672 48.03 14.0475 48.0497 14.0312C48.0693 14.0148 48.089 14.0066 48.1152 14.0066H48.3264C48.3526 14.0066 48.3707 14.0131 48.3821 14.0279C48.3936 14.0426 48.3969 14.0639 48.3903 14.0901L48.3199 14.4226V14.4242Z" fill="#5E2E86"/>
<path d="M49.1746 16.8791C49.2679 16.8791 49.3596 16.8693 49.453 16.8529C49.5447 16.8349 49.638 16.812 49.7297 16.7825C49.8215 16.753 49.8935 16.7301 49.9492 16.7088C49.9819 16.694 50.0065 16.694 50.0212 16.7055C50.036 16.7186 50.0409 16.7366 50.036 16.7612L50 16.9331C49.9934 16.9626 49.9688 16.9872 49.9263 17.0085C49.6577 17.1362 49.3842 17.2001 49.1091 17.2001C48.9355 17.2001 48.7848 17.169 48.6538 17.1067C48.5244 17.0445 48.4327 16.9397 48.3787 16.7907C48.323 16.6416 48.3214 16.4451 48.3722 16.1978L48.4557 15.8212C48.5179 15.5199 48.6505 15.2824 48.8503 15.1072C49.0501 14.9336 49.2958 14.8452 49.5889 14.8452C49.7854 14.8452 49.9443 14.8845 50.0655 14.9647C50.1866 15.045 50.2653 15.1579 50.3029 15.3053C50.3406 15.4527 50.3389 15.6247 50.2964 15.8212L50.2472 16.0472C50.2358 16.1078 50.203 16.1389 50.149 16.1389H48.7504L48.7373 16.1978C48.6866 16.4402 48.698 16.6138 48.7685 16.7203C48.8405 16.8267 48.9748 16.8791 49.173 16.8791H49.1746ZM49.9181 15.8605L49.9263 15.8212C49.959 15.6689 49.9656 15.5428 49.9459 15.4445C49.9263 15.3463 49.8804 15.2759 49.81 15.2316C49.7396 15.1891 49.6413 15.1678 49.5185 15.1678C49.1451 15.1678 48.9109 15.3856 48.8192 15.8212L48.811 15.8605H49.9164H49.9181ZM50.3373 14.6028C50.334 14.6224 50.3193 14.6323 50.2931 14.6323H50.0786C50.0573 14.6323 50.0425 14.6274 50.0343 14.6208C50.0262 14.6126 50.0131 14.5962 49.995 14.5684L49.7379 14.1655L49.3056 14.5684C49.2761 14.5946 49.2548 14.611 49.2434 14.6192C49.2319 14.6274 49.2155 14.6323 49.1959 14.6323H48.9781C48.9535 14.6323 48.9437 14.6224 48.947 14.6028C48.9519 14.5864 48.9601 14.5717 48.9715 14.5602L49.4825 14.0444C49.5103 14.0165 49.5316 14.0001 49.5447 13.9936C49.5562 13.987 49.5742 13.9838 49.5971 13.9838H49.9525C49.9869 13.9838 50.0163 14.0051 50.0409 14.046L50.3291 14.5619C50.3389 14.5733 50.3422 14.5881 50.3373 14.6044V14.6028ZM50.5322 13.3009C50.4749 13.3009 50.4241 13.3058 50.3799 13.314C50.3357 13.3238 50.28 13.3369 50.2145 13.3582C50.131 13.3844 50.0966 13.3647 50.1113 13.2976L50.1293 13.2141C50.1342 13.1944 50.1424 13.1797 50.1572 13.1682C50.1719 13.1584 50.1866 13.1502 50.203 13.1437C50.2423 13.1273 50.2947 13.1125 50.3619 13.0962C50.429 13.0814 50.4945 13.0732 50.5617 13.0732C50.6845 13.0732 50.7762 13.0978 50.8417 13.1469C50.9072 13.1961 50.9285 13.273 50.9039 13.3778L50.899 13.3991C50.8908 13.4302 50.881 13.4614 50.8663 13.4892C50.8499 13.5203 50.827 13.5531 50.7942 13.5875C50.7631 13.6235 50.7189 13.6661 50.6632 13.7185L50.5682 13.8053C50.5289 13.8413 50.5043 13.8642 50.4962 13.874C50.488 13.8822 50.4798 13.8953 50.4716 13.9084C50.4634 13.9232 50.4585 13.9395 50.4536 13.9608L50.4356 14.046C50.4323 14.0656 50.4192 14.082 50.3979 14.1C50.3766 14.1164 50.352 14.1246 50.3242 14.1246H50.2489C50.221 14.1246 50.1997 14.1164 50.185 14.1C50.1719 14.0837 50.167 14.064 50.1719 14.0476L50.1899 13.9625C50.1981 13.9215 50.2079 13.8871 50.2227 13.8577C50.2358 13.8282 50.2554 13.8004 50.28 13.7709C50.3046 13.7414 50.3357 13.7103 50.3733 13.6775L50.4732 13.5891C50.5224 13.5449 50.5551 13.5105 50.5715 13.4843C50.5879 13.4597 50.5993 13.4302 50.6075 13.4008L50.6108 13.3795C50.6157 13.3271 50.5911 13.3009 50.5338 13.3009H50.5322Z" fill="#5E2E86"/>
<path d="M50.5963 16.3272L50.8878 14.9614C50.8927 14.9369 50.9025 14.9172 50.9222 14.9025C50.9402 14.8861 50.9631 14.8779 50.986 14.8779H51.1858C51.2087 14.8779 51.2268 14.8861 51.2399 14.9025C51.253 14.9189 51.2562 14.9385 51.253 14.9614L50.9615 16.3272C50.9173 16.5319 50.9254 16.6761 50.9828 16.7612C51.0401 16.8464 51.1547 16.8889 51.3267 16.8889C51.3905 16.8889 51.4773 16.8808 51.5903 16.866C51.7 16.8513 51.7983 16.8333 51.8802 16.8136L52.2765 14.9614C52.2798 14.9385 52.2912 14.9189 52.3109 14.9025C52.3305 14.8861 52.3518 14.8779 52.3764 14.8779H52.5811C52.604 14.8779 52.6204 14.8861 52.6318 14.9025C52.6433 14.9189 52.6482 14.9385 52.6433 14.9614L52.2159 16.9708C52.2061 17.0232 52.1717 17.056 52.1176 17.0707C51.7655 17.1559 51.4691 17.1985 51.2268 17.1985C51.0221 17.1985 50.8665 17.1641 50.76 17.0969C50.6536 17.0298 50.5881 16.9315 50.5668 16.8054C50.5439 16.6793 50.5537 16.5188 50.5946 16.3272H50.5963Z" fill="#5E2E86"/>
<path d="M55.6403 16.1684C55.5699 16.491 55.4405 16.7432 55.2505 16.9249C55.0606 17.1084 54.8133 17.1984 54.5087 17.1984C54.2418 17.1984 53.9928 17.1755 53.7587 17.1297C53.721 17.1215 53.6997 17.1116 53.6932 17.0969C53.685 17.0838 53.685 17.0625 53.6932 17.0314L54.3122 14.1115C54.3171 14.0902 54.3286 14.0722 54.3449 14.0558C54.3613 14.0394 54.381 14.0312 54.4055 14.0312H54.6184C54.6397 14.0312 54.6561 14.0394 54.6675 14.0542C54.679 14.0689 54.6823 14.0886 54.679 14.1115L54.5136 14.8877C54.5889 14.873 54.6692 14.8615 54.756 14.855C54.8428 14.8484 54.9279 14.8452 55.0131 14.8452C55.1654 14.8452 55.2948 14.8681 55.3996 14.9139C55.5027 14.9598 55.5846 15.0253 55.6419 15.1104C55.7009 15.1956 55.7336 15.3021 55.7435 15.4282C55.7549 15.5542 55.7418 15.7016 55.7058 15.8687L55.6436 16.1684H55.6403ZM55.2735 16.1684L55.3357 15.8687C55.3865 15.6329 55.3816 15.4576 55.3242 15.3414C55.2653 15.2267 55.1375 15.1678 54.941 15.1678C54.7216 15.1678 54.5578 15.176 54.4481 15.1956L54.0976 16.8529C54.2974 16.8693 54.4579 16.8791 54.5775 16.8791C54.7756 16.8791 54.9279 16.8201 55.036 16.7022C55.1441 16.5843 55.2211 16.4058 55.2735 16.1684Z" fill="#5E2E86"/>
<path d="M57.4695 17.0102C57.4564 17.0626 57.4302 17.092 57.3876 17.1019C57.273 17.133 57.1567 17.1576 57.0437 17.1739C56.9291 17.1903 56.803 17.1985 56.6621 17.1985C56.3379 17.1985 56.1152 17.1445 55.9973 17.0347C55.8793 16.925 55.845 16.7514 55.8974 16.5107L55.9023 16.4747C55.9367 16.3174 55.9973 16.1897 56.084 16.0915C56.1708 15.9932 56.2937 15.9179 56.4509 15.8704C56.6081 15.8212 56.8095 15.7967 57.0519 15.7967H57.3598L57.3958 15.6296C57.4335 15.4561 57.4253 15.3349 57.3729 15.2677C57.3221 15.2022 57.214 15.1678 57.0486 15.1678C56.9225 15.1678 56.8112 15.176 56.7178 15.194C56.6245 15.2104 56.5131 15.2366 56.3886 15.2726C56.3575 15.2808 56.3346 15.2808 56.3199 15.2694C56.3035 15.2579 56.2986 15.2415 56.3019 15.2186L56.3362 15.0548C56.3444 15.0204 56.369 14.9959 56.4116 14.9795C56.482 14.9517 56.5835 14.9222 56.7145 14.8911C56.8472 14.86 56.9798 14.8452 57.1158 14.8452C57.6578 14.8452 57.8723 15.1072 57.7626 15.6296L57.4695 17.0102ZM57.1321 16.8742L57.3041 16.0636H56.9946C56.8636 16.0636 56.7571 16.0702 56.6752 16.0849C56.5917 16.098 56.5246 16.1226 56.4722 16.1553C56.4198 16.1881 56.3772 16.229 56.3461 16.2781C56.315 16.3273 56.292 16.3911 56.2756 16.4681L56.2675 16.5058C56.2478 16.604 56.2462 16.681 56.2642 16.74C56.2806 16.7989 56.3264 16.8431 56.4017 16.8693C56.4754 16.8972 56.5835 16.9103 56.726 16.9103C56.78 16.9103 56.8341 16.9103 56.8881 16.9054C56.9405 16.9004 56.988 16.8972 57.0306 16.8923C57.0732 16.8857 57.1092 16.8808 57.1354 16.8742H57.1321ZM56.6359 17.7684C56.631 17.7913 56.6196 17.811 56.5999 17.8257C56.5803 17.8404 56.559 17.8486 56.536 17.8486H56.3739C56.3526 17.8486 56.3362 17.8404 56.3215 17.8257C56.3068 17.811 56.3019 17.7913 56.3068 17.7684L56.3805 17.431C56.3854 17.4114 56.3968 17.3917 56.4181 17.3737C56.4394 17.3557 56.4607 17.3475 56.4804 17.3475H56.6441C56.667 17.3475 56.6851 17.3557 56.6965 17.3737C56.7096 17.3901 56.7129 17.4097 56.7096 17.431L56.6359 17.7684Z" fill="#5E2E86"/>
<path d="M59.9603 15.7179L59.6721 17.087C59.6672 17.1099 59.6525 17.1312 59.6312 17.1476C59.6099 17.1623 59.5902 17.1721 59.569 17.1721H59.3692C59.3462 17.1721 59.3282 17.1639 59.3151 17.1476C59.302 17.1312 59.2987 17.1115 59.3037 17.087L59.5935 15.7179C59.623 15.5787 59.6312 15.469 59.6148 15.3871C59.6001 15.3052 59.5591 15.2479 59.4953 15.2119C59.4314 15.1758 59.343 15.1595 59.2283 15.1595C59.058 15.1595 58.873 15.184 58.6748 15.2348L58.2818 17.087C58.2769 17.1082 58.2638 17.1279 58.2425 17.1459C58.2228 17.1623 58.2015 17.1721 58.1786 17.1721H57.9739C57.9542 17.1721 57.9362 17.1639 57.9248 17.1476C57.9117 17.1312 57.9084 17.1115 57.9133 17.087L58.3391 15.0759C58.3506 15.0252 58.3817 14.9924 58.4373 14.9777C58.7943 14.8909 59.0891 14.8467 59.3266 14.8467C59.4838 14.8467 59.6115 14.8663 59.7098 14.904C59.8097 14.9433 59.8817 14.999 59.926 15.0727C59.9702 15.1464 59.9947 15.2364 59.9996 15.3412C60.0029 15.4461 59.9898 15.5722 59.9587 15.7195L59.9603 15.7179Z" fill="#5E2E86"/>
<defs>
<linearGradient id="paint0_linear_1858_4643" x1="14.6765" y1="6.45823" x2="5.5569" y2="7.72023" gradientUnits="userSpaceOnUse">
<stop stop-color="#FDB913"/>
<stop offset="0.7" stop-color="#F58220"/>
<stop offset="1" stop-color="#DD5928"/>
</linearGradient>
<linearGradient id="paint1_linear_1858_4643" x1="4.98119" y1="-3.07712" x2="10.6339" y2="4.18968" gradientUnits="userSpaceOnUse">
<stop stop-color="#FDB913"/>
<stop offset="0.7" stop-color="#F58220"/>
<stop offset="1" stop-color="#DD5928"/>
</linearGradient>
<linearGradient id="paint2_linear_1858_4643" x1="1.59826" y1="10.1255" x2="5.06513" y2="1.59505" gradientUnits="userSpaceOnUse">
<stop stop-color="#FDB913"/>
<stop offset="0.7" stop-color="#F58220"/>
<stop offset="1" stop-color="#DD5928"/>
</linearGradient>
</defs>
</svg>
