<svg width="15" height="19" viewBox="0 0 15 19" fill="none" xmlns="http://www.w3.org/2000/svg">
<path d="M10.75 6.3H4.25M10.75 6.3C12.5449 6.3 14 7.73269 14 9.5V14.3C14 16.0673 12.5449 17.5 10.75 17.5H4.25C2.45507 17.5 1 16.0673 1 14.3V9.5C1 7.73269 2.45507 6.3 4.25 6.3M10.75 6.3V4.7C10.75 2.93269 9.29493 1.5 7.5 1.5C5.70507 1.5 4.25 2.93269 4.25 4.7V6.3M9.125 11.9C9.125 12.7837 8.39746 13.5 7.5 13.5C6.60254 13.5 5.875 12.7837 5.875 11.9C5.875 11.0163 6.60254 10.3 7.5 10.3C8.39746 10.3 9.125 11.0163 9.125 11.9Z" stroke="#0B3558" stroke-width="1.5" stroke-linecap="round" stroke-linejoin="round"/>
</svg>
