<svg width="40" height="40" viewBox="0 0 40 40" fill="none" xmlns="http://www.w3.org/2000/svg">
<circle cx="20" cy="20" r="20" fill="#DFE3E9"/>
<path d="M27.5 15H25C25 13.6739 24.4732 12.4021 23.5355 11.4645C22.5979 10.5268 21.3261 10 20 10C18.6739 10 17.4021 10.5268 16.4645 11.4645C15.5268 12.4021 15 13.6739 15 15H12.5C11.837 15 11.2011 15.2634 10.7322 15.7322C10.2634 16.2011 10 16.837 10 17.5V25.8333C10.0013 26.938 10.4407 27.997 11.2218 28.7782C12.003 29.5593 13.062 29.9987 14.1667 30H25.8333C26.938 29.9987 27.997 29.5593 28.7782 28.7782C29.5593 27.997 29.9987 26.938 30 25.8333V17.5C30 16.837 29.7366 16.2011 29.2678 15.7322C28.7989 15.2634 28.163 15 27.5 15ZM20 11.6667C20.8841 11.6667 21.7319 12.0179 22.357 12.643C22.9821 13.2681 23.3333 14.1159 23.3333 15H16.6667C16.6667 14.1159 17.0179 13.2681 17.643 12.643C18.2681 12.0179 19.1159 11.6667 20 11.6667ZM28.3333 25.8333C28.3333 26.4964 28.0699 27.1323 27.6011 27.6011C27.1323 28.0699 26.4964 28.3333 25.8333 28.3333H14.1667C13.5036 28.3333 12.8677 28.0699 12.3989 27.6011C11.9301 27.1323 11.6667 26.4964 11.6667 25.8333V17.5C11.6667 17.279 11.7545 17.067 11.9107 16.9107C12.067 16.7545 12.279 16.6667 12.5 16.6667H15V18.3333C15 18.5543 15.0878 18.7663 15.2441 18.9226C15.4004 19.0789 15.6123 19.1667 15.8333 19.1667C16.0543 19.1667 16.2663 19.0789 16.4226 18.9226C16.5789 18.7663 16.6667 18.5543 16.6667 18.3333V16.6667H23.3333V18.3333C23.3333 18.5543 23.4211 18.7663 23.5774 18.9226C23.7337 19.0789 23.9457 19.1667 24.1667 19.1667C24.3877 19.1667 24.5996 19.0789 24.7559 18.9226C24.9122 18.7663 25 18.5543 25 18.3333V16.6667H27.5C27.721 16.6667 27.933 16.7545 28.0893 16.9107C28.2455 17.067 28.3333 17.279 28.3333 17.5V25.8333Z" fill="#0B3558"/>
</svg>
