<svg width="74" height="34" viewBox="0 0 74 34" fill="none" xmlns="http://www.w3.org/2000/svg">
<path d="M51.5624 19.4204C51.513 19.3754 51.4558 19.3398 51.3936 19.3154C51.5491 19.3097 51.6966 19.2449 51.8061 19.1343C51.8558 19.0844 51.8951 19.0251 51.9218 18.9599C51.9484 18.8946 51.9619 18.8247 51.9613 18.7543C51.9608 18.6506 51.9284 18.5495 51.8686 18.4648C51.8095 18.3754 51.7228 18.3079 51.6216 18.2725C51.4641 18.2292 51.3008 18.2107 51.1376 18.2178H50.4346V20.2017H50.7553V19.3601H50.942C51.0086 19.3581 51.075 19.3687 51.1376 19.3914C51.16 19.4004 51.1811 19.4124 51.2003 19.4271C51.3387 19.5602 51.4522 19.7169 51.5355 19.8899L51.7122 20.2017H52.1034L51.8563 19.815C51.7731 19.6731 51.6745 19.5408 51.5624 19.4204ZM51.1398 19.0851H50.7508V18.4916H51.1331C51.2358 18.4861 51.3386 18.4982 51.4371 18.5274C51.4914 18.5455 51.5386 18.5804 51.5719 18.6269C51.6053 18.6735 51.623 18.7294 51.6227 18.7867C51.6242 18.8294 51.6157 18.8718 51.5979 18.9106C51.58 18.9495 51.5532 18.9836 51.5198 19.0102C51.4045 19.0755 51.2714 19.1021 51.1398 19.0862V19.0851Z" fill="#EA2125"/>
<path d="M52.8382 18.2577C52.6784 17.9685 52.439 17.7311 52.1485 17.5737C51.8699 17.4205 51.5577 17.3387 51.2398 17.3356H51.1336C50.8525 17.3543 50.5789 17.4345 50.3322 17.5703C50.0411 17.7269 49.8014 17.9639 49.6415 18.2532C49.4804 18.5334 49.3955 18.851 49.3955 19.1742C49.3955 19.4974 49.4804 19.815 49.6415 20.0952C49.7991 20.3845 50.0365 20.6223 50.3255 20.7804C50.5737 20.9232 50.8513 21.0073 51.137 21.0263H51.2432C51.5655 21.0252 51.8821 20.9404 52.162 20.7804C52.4509 20.6226 52.688 20.3847 52.8448 20.0952C53.0047 19.8165 53.0894 19.5011 53.0907 19.1798C53.0873 18.8558 53.0004 18.5382 52.8382 18.2577ZM52.5755 19.9466C52.4446 20.1876 52.2471 20.3859 52.0066 20.5177C51.7728 20.6506 51.5087 20.7211 51.2398 20.7223H51.1336C50.9017 20.7045 50.6765 20.6358 50.4742 20.5211C50.2348 20.3879 50.0374 20.1904 49.9042 19.951C49.7696 19.7175 49.6987 19.4527 49.6987 19.1832C49.6987 18.9136 49.7696 18.6488 49.9042 18.4153C50.0369 18.1737 50.2369 17.9757 50.4798 17.8453C50.6803 17.7338 50.9026 17.667 51.1314 17.6497H51.2365C51.5015 17.6516 51.7618 17.7204 51.9932 17.8497C52.236 17.9798 52.436 18.1774 52.5688 18.4186C52.7034 18.6522 52.7742 18.917 52.7742 19.1865C52.7742 19.456 52.7034 19.7208 52.5688 19.9544L52.5755 19.9466Z" fill="#EA2125"/>
<path d="M52.0277 9.98792L51.1882 9.15074L42.0141 0L37.038 4.97496L32.0082 0.00112563L22.0259 10.0058L32.035 19.9948L37.0178 15.0132H37.0425L42.0352 19.9982L51.1894 10.8206L52.0277 9.98792ZM37.038 14.955L37.03 14.9629C36.8758 14.898 33.0834 11.0408 32.3613 10.3266C31.9836 9.95662 31.9143 10.1288 32.6754 9.362L34.5354 7.50323C35.2563 6.7823 36.1717 5.90043 36.8591 5.17727C36.9362 5.09567 36.991 5.05432 37.038 5.05432C37.133 5.05432 37.1944 5.17726 37.3497 5.33821C37.6672 5.65788 37.9656 5.96189 38.2797 6.26703C38.9503 6.92425 39.5003 7.51105 40.1407 8.12468C40.3732 8.34822 41.9012 9.83591 41.9906 9.99462L37.038 14.955Z" fill="#EA2125"/>
<path d="M5.83671 26.6711L5.69141 26.7583V33.3215C6.0379 33.3562 9.07921 33.3394 9.63807 33.335H9.761C9.77889 32.9851 9.7733 32.2172 9.761 31.8484H7.48764C7.46305 31.5567 7.4719 31.0559 7.47973 30.7463L9.64366 30.7295C9.6649 30.3942 9.65484 29.6778 9.64366 29.3112L7.47973 29.2877C7.46072 29.0541 7.46519 28.4013 7.47973 28.1588C7.64738 28.1197 8.96972 28.1431 9.3218 28.1443C9.55317 28.1443 9.76892 28.2214 9.76892 28.0046C9.76892 27.6245 9.78121 27.0478 9.76892 26.6901C9.51631 26.651 5.86913 26.6622 5.83671 26.6711Z" fill="#EA2125"/>
<path d="M33.8193 26.5299C33.6953 26.521 33.5823 26.5176 33.4661 26.5188C32.5553 26.4992 31.6728 26.8357 31.0062 27.4567C30.3397 28.0778 29.9417 28.9343 29.8968 29.8442C29.852 30.7541 30.1638 31.6456 30.7661 32.3292C31.3683 33.0127 32.2135 33.4344 33.1219 33.5045C33.2336 33.5179 33.3543 33.5257 33.4661 33.5279C34.3767 33.5456 35.2584 33.2081 35.9245 32.5869C36.5905 31.9657 36.9886 31.1097 37.0345 30.2001C37.0805 29.2905 36.7706 28.3988 36.1705 27.7137C35.5703 27.0286 34.7271 26.6041 33.8193 26.5299ZM35.1762 30.3078C35.147 30.7491 34.956 31.1642 34.6399 31.4735C34.3238 31.7828 33.9047 31.9647 33.4628 31.9844C33.2186 31.9732 32.979 31.914 32.7577 31.8102C32.5364 31.7064 32.3376 31.56 32.1729 31.3794C32.0082 31.1988 31.8808 30.9875 31.7977 30.7576C31.7147 30.5277 31.6777 30.2837 31.689 30.0396C31.6946 29.9266 31.7103 29.8144 31.7359 29.7042C31.7696 29.2646 31.9644 28.8529 32.2832 28.5482C32.6019 28.2435 33.0221 28.0672 33.4628 28.0534C33.5627 28.0557 33.6622 28.0669 33.7601 28.0869C34.2368 28.2049 34.6499 28.5015 34.9141 28.9155C35.1783 29.3294 35.2733 29.8291 35.1795 30.3112L35.1762 30.3078Z" fill="#EA2125"/>
<path d="M0.0122929 26.6788C-0.0100614 26.994 0.00446343 27.7965 0.00669886 28.1664C0.00669886 28.3341 1.10427 28.2123 1.48653 28.2559V33.3348H3.30172L3.314 28.2536L4.80502 28.2436C4.82626 28.0334 4.82067 26.9247 4.80502 26.6788C4.6083 26.6609 0.288369 26.6508 0.0122929 26.6788Z" fill="#EA2125"/>
<path d="M13.1585 28.3978C13.4116 28.2083 13.7099 28.0887 14.0238 28.0508C14.3377 28.0129 14.656 28.0582 14.9468 28.1821C15.5918 28.4727 15.6667 28.789 15.8254 28.7991L15.8131 26.8442C15.6739 26.7385 15.5144 26.6625 15.3447 26.6207L15.1972 26.5704C14.9595 26.4976 14.715 26.4497 14.4674 26.4273C13.8022 26.3389 13.1257 26.4432 12.5181 26.728C11.8956 27.0355 11.3825 27.5267 11.0482 28.1352C10.7551 28.7102 10.605 29.3474 10.6105 29.9927C10.6159 30.6381 10.7768 31.2727 11.0796 31.8426C11.2194 32.0811 11.3851 32.3033 11.5736 32.5054C11.6675 32.587 11.7602 32.6966 11.8675 32.777C11.9263 32.8149 11.9826 32.8563 12.0363 32.9011C12.0841 32.9451 12.1375 32.9826 12.195 33.0129C12.2643 33.0531 12.2979 33.0867 12.3706 33.1303C12.961 33.4186 13.6142 33.5546 14.2706 33.5259L15.0105 33.403C15.0899 33.3773 15.0474 33.3773 15.1223 33.3594C15.3712 33.3023 15.6116 33.2132 15.8376 33.0945V31.1016C15.7672 31.1083 15.7661 31.1184 15.7147 31.1765C15.4849 31.4882 15.1602 31.7169 14.7892 31.8282C14.4183 31.9395 14.0212 31.9274 13.6577 31.7937C13.2943 31.66 12.9841 31.4119 12.7738 31.0867C12.5634 30.7616 12.4642 30.3769 12.4912 29.9906C12.4912 29.8788 12.4913 29.7212 12.4991 29.6083C12.5676 29.1391 12.8015 28.7099 13.1585 28.3978Z" fill="#EA2125"/>
<path d="M44.7905 26.6868L42.9754 26.6711L41.7526 30.8179L40.551 26.6901L39.3685 26.6711C38.68 26.6711 38.7515 26.5135 38.6621 27.1495C38.5682 27.8201 38.4252 28.5321 38.3424 29.1871C38.253 29.8901 38.1188 30.5686 38.0249 31.2459C37.8864 31.9348 37.7857 32.6306 37.7231 33.3305C37.9087 33.3383 39.2881 33.3551 39.3596 33.3204C39.4869 32.8712 39.5652 32.4095 39.5932 31.9434C39.6535 31.4505 39.7284 31.0101 39.782 30.5116C39.8111 30.2489 39.8883 29.2888 39.9475 29.0832L41.1378 33.3148L42.355 33.3349L43.5845 29.1413L44.0942 33.3238L45.8076 33.3372L44.7905 26.6868Z" fill="#EA2125"/>
<path d="M21.0774 27.0677C21.1107 27.7943 21.1066 28.5222 21.0651 29.2484C20.7957 29.2484 18.7391 29.2931 18.6609 29.2361V26.6821L16.8491 26.6698L16.8379 33.3292L18.6609 33.3157V30.6332L21.0662 30.6254L21.0784 33.3202L22.9137 33.3325V26.6732H21.7826C20.951 26.6676 21.074 26.5904 21.0774 27.0677Z" fill="#EA2125"/>
<path d="M26.3913 28.3979C26.6444 28.2085 26.9428 28.0889 27.2566 28.0511C27.5704 28.0132 27.8887 28.0584 28.1796 28.1822C28.8245 28.4728 28.8994 28.7891 29.0582 28.7992L29.0459 26.8443C28.9068 26.7384 28.7474 26.6624 28.5776 26.6208L28.43 26.5705C28.1926 26.4978 27.9484 26.4499 27.7013 26.4274C27.0357 26.3388 26.3588 26.4432 25.7508 26.728C25.1289 27.0363 24.6159 27.5273 24.281 28.1353C23.9878 28.7103 23.8378 29.3475 23.8434 29.993C23.8491 30.6384 24.0103 31.2729 24.3135 31.8427C24.4525 32.0814 24.6178 32.3037 24.8064 32.5055C24.9014 32.5871 24.9941 32.6967 25.1003 32.7771C25.1594 32.8149 25.2162 32.8564 25.2702 32.9012C25.3174 32.9454 25.3704 32.983 25.4278 33.013C25.4982 33.0532 25.5296 33.0867 25.6044 33.1303C26.1928 33.4178 26.8436 33.5538 27.4978 33.526L28.2377 33.403C28.3171 33.3773 28.2757 33.3773 28.3495 33.3595C28.5984 33.3024 28.8388 33.2133 29.0648 33.0946V31.1017C28.9955 31.1084 28.9922 31.1184 28.9419 31.1766C28.7119 31.4878 28.3873 31.716 28.0166 31.827C27.6459 31.938 27.2492 31.9257 26.886 31.792C26.5229 31.6584 26.2129 31.4106 26.0026 31.0858C25.7923 30.761 25.693 30.3767 25.7196 29.9907C25.7196 29.8789 25.7195 29.7213 25.7285 29.6084C25.7976 29.1387 26.0328 28.7092 26.3913 28.3979Z" fill="#EA2125"/>
<path d="M71.4494 30.036C71.2974 29.8326 71.7668 29.4045 71.9266 29.191C72.2228 28.7943 73.7765 26.8036 73.8 26.6773C73.3071 26.6505 72.3693 26.6773 71.8272 26.6773C71.4036 27.1258 71.0219 27.6122 70.6871 28.1303C70.3519 28.6515 69.9895 29.1548 69.6017 29.6381V26.6784C69.3882 26.6561 68.0201 26.6583 67.791 26.6784V33.3255C68.3951 33.3538 69.0003 33.3508 69.604 33.3165V30.3959L71.2728 32.6604C71.3678 32.7912 71.6719 33.3389 71.8898 33.3389H74C73.9899 33.1802 71.7132 30.3881 71.4494 30.036Z" fill="#060202"/>
<path d="M64.6227 30.1402C64.6227 30.4498 64.7177 30.8991 64.692 31.1752L64.0214 29.9535C63.7744 29.6182 63.4961 29.2371 63.2222 28.8638C62.6835 28.1239 62.1603 27.4309 61.6194 26.6742H59.8668L59.8579 33.3346L61.6239 33.3279L61.5859 28.9487C61.5749 28.9308 61.5621 28.9139 61.5479 28.8984H61.5847V28.9487C61.7188 29.1588 62.1157 29.9245 62.2464 30.1C62.508 30.4498 62.793 30.8555 63.0445 31.1897C63.5597 31.8727 64.094 32.7411 64.6261 33.3458H66.3821L66.3875 26.6865L64.6373 26.6686L64.6227 30.1402Z" fill="#060202"/>
<path d="M55.7716 26.6776H54.6349L52.3604 33.3503C54.4181 33.395 54.1051 33.4845 54.3007 32.7915C54.3633 32.5679 54.4125 32.3869 54.4851 32.1577H57.0491L57.3934 33.3537C57.6169 33.3537 59.1192 33.3761 59.2064 33.3537L56.9027 26.6776C56.8535 26.6765 56.316 26.6787 55.7716 26.6776ZM55.7716 30.8411H54.8774L55.7716 27.8579L55.7772 27.8366L56.6624 30.8411H55.7716Z" fill="#060202"/>
<path d="M50.5958 29.7433C50.8237 29.6443 51.0457 29.5324 51.2608 29.408C51.5408 29.1296 51.704 28.7547 51.7169 28.3599C51.7298 27.9652 51.5914 27.5804 51.3301 27.2843C50.78 26.8386 50.08 26.6207 49.3741 26.6752C48.9058 26.6595 48.424 26.6752 47.9914 26.6752C46.6345 26.6752 46.762 26.5768 46.7709 26.9557C46.7888 27.7225 46.7709 28.6323 46.7709 29.4091C46.7709 29.9601 46.734 33.0786 46.7865 33.3435H49.3763C50.0949 33.3986 50.8122 33.2206 51.4218 32.836C51.6775 32.5994 51.8631 32.2969 51.9585 31.9618C52.0539 31.6267 52.0555 31.2718 51.9628 30.9359C51.7012 29.8528 50.8629 29.8819 50.5958 29.7433ZM49.3741 28.0176C49.7295 28.0768 49.9967 28.2467 49.9967 28.6714C49.9967 29.0962 49.7295 29.2526 49.3741 29.3164C49.0741 29.3547 48.7709 29.3596 48.4699 29.3309V28.0109C48.7707 27.9809 49.0739 27.9839 49.3741 28.0198V28.0176ZM50.0782 31.7709C49.8667 31.9019 49.6229 31.9716 49.3741 31.972C49.1277 31.9877 48.8807 31.9899 48.6342 31.9788C48.4252 31.9721 48.4609 31.9441 48.4676 31.7161C48.4743 31.3707 48.4498 30.8219 48.4766 30.5369C48.7741 30.5114 49.0732 30.5114 49.3707 30.5369C49.5753 30.5457 49.7772 30.5872 49.9687 30.6598C50.0477 30.714 50.1152 30.7831 50.1675 30.8634C50.2197 30.9437 50.2557 31.0334 50.2732 31.1276C50.2908 31.2217 50.2897 31.3184 50.2698 31.4121C50.25 31.5058 50.2117 31.5947 50.1575 31.6736C50.1328 31.7094 50.1051 31.743 50.0748 31.7742L50.0782 31.7709Z" fill="#060202"/>
</svg>
