<svg width="19" height="22" viewBox="0 0 19 22" fill="none" xmlns="http://www.w3.org/2000/svg">
<path d="M16.1085 12.8709L17.5597 11.4197C17.9502 11.0292 17.9502 10.396 17.5597 10.0055L16.1085 8.55424" stroke="#0B3558" stroke-width="1.5" stroke-linecap="round" stroke-linejoin="round"/>
<path d="M17.1876 10.7126L10.7126 10.7126M1 16.3959V5.60412M13.9501 16.3959C13.9501 17.5879 12.9838 18.5542 11.7918 18.5542H7.47506M13.9501 5.60412C13.9501 4.4121 12.9838 3.44577 11.7918 3.44577H7.47506M1.96111 19.195L4.11947 20.6339C5.55381 21.5901 7.47506 20.5619 7.47506 18.838V3.16198C7.47506 1.43812 5.55381 0.409895 4.11947 1.36612L1.96111 2.80503C1.36066 3.20533 1 3.87923 1 4.60088V17.3991C1 18.1208 1.36066 18.7947 1.96111 19.195Z" stroke="#0B3558" stroke-width="1.5" stroke-linecap="round"/>
</svg>
