<svg width="118" height="40" viewBox="0 0 118 40" fill="none" xmlns="http://www.w3.org/2000/svg">
<rect width="118" height="40" rx="8" fill="#0050A6"/>
<path d="M21.1211 14.9785H22.3105V23.8652H26.6855V25H21.1211V14.9785ZM28.627 24.4668C28.1712 23.9564 27.9434 23.25 27.9434 22.3477V17.8633H29.1328V22.1699C29.1328 22.8626 29.2878 23.3639 29.5977 23.6738C29.9167 23.9928 30.3314 24.1523 30.8418 24.1523C31.2428 24.1523 31.6029 24.043 31.9219 23.8242C32.2227 23.6146 32.4642 23.3366 32.6465 22.9902C32.8197 22.653 32.9062 22.2884 32.9062 21.8965V17.8633H34.2461C34.5924 17.8633 34.7656 17.6764 34.7656 17.3027V16.3457H35.7227V17.3027C35.7227 17.804 35.5996 18.1686 35.3535 18.3965C35.0983 18.6335 34.7292 18.752 34.2461 18.752H34.0957V25H32.9609V23.9609H32.9062C32.724 24.3073 32.4095 24.6081 31.9629 24.8633C31.5527 25.1003 31.097 25.2188 30.5957 25.2188C29.7298 25.2188 29.0736 24.9681 28.627 24.4668ZM37.0488 24.4668C36.5931 23.9564 36.3652 23.25 36.3652 22.3477V17.8633H37.5547V22.1699C37.5547 22.8626 37.7096 23.3639 38.0195 23.6738C38.3385 23.9928 38.7533 24.1523 39.2637 24.1523C39.6647 24.1523 40.0247 24.043 40.3438 23.8242C40.6445 23.6146 40.8861 23.3366 41.0684 22.9902C41.2415 22.653 41.3281 22.2884 41.3281 21.8965V17.8633H42.5176V25H41.3828V23.9609H41.3281C41.1458 24.3073 40.8314 24.6081 40.3848 24.8633C39.9746 25.1003 39.5189 25.2188 39.0176 25.2188C38.1517 25.2188 37.4954 24.9681 37.0488 24.4668ZM49.4492 24.9727C49.194 24.8724 48.9889 24.7448 48.834 24.5898C48.4603 24.2344 48.2734 23.7467 48.2734 23.127V18.9434H47.0293V17.8633H48.2734V15.8398H49.4629V17.8633H51.2129V18.9434H49.4629V22.8262C49.4629 23.2272 49.5358 23.5189 49.6816 23.7012C49.8548 23.9017 50.1146 24.002 50.4609 24.002C50.7617 24.002 51.0215 23.9245 51.2402 23.7695V24.9316C51.1126 24.9954 50.9714 25.041 50.8164 25.0684C50.6706 25.0957 50.4837 25.1094 50.2559 25.1094C49.9551 25.1094 49.6862 25.0638 49.4492 24.9727ZM52.7031 14.9785H53.8926V17.9316L53.8242 18.916H53.8926C54.0749 18.5605 54.3848 18.2552 54.8223 18C55.2415 17.7539 55.7064 17.6309 56.2168 17.6309C57.0827 17.6309 57.7435 17.8861 58.1992 18.3965C58.6549 18.9069 58.8828 19.5814 58.8828 20.4199V25H57.6934V20.5977C57.6934 19.9596 57.5293 19.4857 57.2012 19.1758C56.8822 18.8659 56.4583 18.7109 55.9297 18.7109C55.5742 18.7109 55.2324 18.8249 54.9043 19.0527C54.5944 19.2715 54.3483 19.5586 54.166 19.9141C53.9837 20.2786 53.8926 20.6478 53.8926 21.0215V25H52.7031V14.9785ZM61.3984 24.918C60.9792 24.7083 60.6602 24.4258 60.4414 24.0703C60.2227 23.7148 60.1133 23.3047 60.1133 22.8398C60.1133 22.0833 60.3958 21.4954 60.9609 21.0762C61.5443 20.6478 62.2643 20.4336 63.1211 20.4336C63.5677 20.4336 63.9688 20.4792 64.3242 20.5703C64.6888 20.6615 64.9668 20.7708 65.1582 20.8984V20.4609C65.1582 19.9414 64.9759 19.5176 64.6113 19.1895C64.2467 18.8613 63.7728 18.6973 63.1895 18.6973C62.7975 18.6973 62.4329 18.7839 62.0957 18.957C61.7402 19.1393 61.4714 19.3809 61.2891 19.6816L60.3867 19.0117C60.6602 18.5924 61.0475 18.2552 61.5488 18C62.041 17.7539 62.5879 17.6309 63.1895 17.6309C64.1556 17.6309 64.9167 17.8861 65.4727 18.3965C66.0195 18.8978 66.293 19.5905 66.293 20.4746V25H65.1582V23.9746H65.1035C64.8939 24.3301 64.5885 24.6263 64.1875 24.8633C63.7956 25.1003 63.3307 25.2188 62.793 25.2188C62.2643 25.2188 61.7995 25.1185 61.3984 24.918ZM64.0371 23.8652C64.3835 23.6556 64.6569 23.3822 64.8574 23.0449C65.0579 22.7077 65.1582 22.3294 65.1582 21.9102C64.9395 21.7643 64.666 21.6413 64.3379 21.541C64.028 21.4499 63.6816 21.4043 63.2988 21.4043C62.6426 21.4043 62.1504 21.541 61.8223 21.8145C61.4941 22.0879 61.3301 22.4342 61.3301 22.8535C61.3301 23.2454 61.4805 23.5645 61.7812 23.8105C62.082 24.0566 62.4603 24.1797 62.916 24.1797C63.3171 24.1797 63.6908 24.0749 64.0371 23.8652ZM69.9844 24.5488L67.0312 17.8633H68.3164L70.5586 23.168H70.5859L72.7461 17.8633H74.0312L69.6289 28.0215H68.3984L69.9844 24.5488ZM85.8164 16.8379H84.9277V25H83.793V23.9473H83.7383C83.5286 24.2936 83.2005 24.5944 82.7539 24.8496C82.3255 25.0957 81.8424 25.2188 81.3047 25.2188C80.6393 25.2188 80.056 25.0592 79.5547 24.7402C79.0443 24.4212 78.6387 23.9701 78.3379 23.3867C78.0371 22.8125 77.8867 22.1608 77.8867 21.4316C77.8867 20.7116 78.0371 20.0645 78.3379 19.4902C78.6478 18.8978 79.0534 18.4421 79.5547 18.123C80.0742 17.7949 80.6576 17.6309 81.3047 17.6309C81.8333 17.6309 82.3164 17.7585 82.7539 18.0137C83.2005 18.278 83.5286 18.5833 83.7383 18.9297H83.793L83.7383 17.9727V16.8379H81.5781V15.8945H83.7383V14.9785H84.9277V15.8945H85.8164V16.8379ZM82.5898 23.8105C82.9544 23.5918 83.2461 23.2728 83.4648 22.8535C83.6836 22.4434 83.793 21.9694 83.793 21.4316C83.793 20.8848 83.6836 20.4062 83.4648 19.9961C83.2461 19.5951 82.9544 19.2806 82.5898 19.0527C82.2161 18.8249 81.8288 18.7109 81.4277 18.7109C81.0358 18.7109 80.6484 18.8249 80.2656 19.0527C79.9102 19.2624 79.6185 19.5814 79.3906 20.0098C79.1719 20.4199 79.0625 20.8939 79.0625 21.4316C79.0625 21.9694 79.1719 22.4434 79.3906 22.8535C79.6185 23.2819 79.9102 23.6009 80.2656 23.8105C80.6484 24.0384 81.0358 24.1523 81.4277 24.1523C81.8288 24.1523 82.2161 24.0384 82.5898 23.8105ZM88.0859 24.7266C87.5299 24.3893 87.0924 23.929 86.7734 23.3457C86.4635 22.7806 86.3086 22.1426 86.3086 21.4316C86.3086 20.7207 86.4635 20.0827 86.7734 19.5176C87.0924 18.9342 87.5299 18.474 88.0859 18.1367C88.6419 17.7995 89.2708 17.6309 89.9727 17.6309C90.6745 17.6309 91.3034 17.7995 91.8594 18.1367C92.4154 18.474 92.8529 18.9342 93.1719 19.5176C93.4818 20.0827 93.6367 20.7207 93.6367 21.4316C93.6367 22.1426 93.4818 22.7806 93.1719 23.3457C92.8529 23.929 92.4154 24.3893 91.8594 24.7266C91.3216 25.0547 90.6927 25.2188 89.9727 25.2188C89.2526 25.2188 88.6237 25.0547 88.0859 24.7266ZM91.2031 23.8105C91.5677 23.6009 91.8685 23.2865 92.1055 22.8672C92.3333 22.4661 92.4473 21.9876 92.4473 21.4316C92.4473 20.8665 92.3333 20.3835 92.1055 19.9824C91.8685 19.5632 91.5677 19.2487 91.2031 19.0391C90.8203 18.8203 90.4102 18.7109 89.9727 18.7109C89.5352 18.7109 89.125 18.8203 88.7422 19.0391C88.3685 19.2578 88.0632 19.5723 87.8262 19.9824C87.5983 20.3835 87.4844 20.8665 87.4844 21.4316C87.4844 21.9876 87.5983 22.4661 87.8262 22.8672C88.0632 23.2773 88.3685 23.5918 88.7422 23.8105C89.1432 24.0384 89.5534 24.1523 89.9727 24.1523C90.3919 24.1523 90.8021 24.0384 91.2031 23.8105ZM91.5039 15.1016C91.7773 14.7461 91.9141 14.4863 91.9141 14.3223C91.9141 14.1582 91.8685 14.0352 91.7773 13.9531C91.6771 13.8711 91.5495 13.8301 91.3945 13.8301C91.2122 13.8301 91.0527 13.862 90.916 13.9258V13.0781C91.1621 13.0326 91.3581 13.0098 91.5039 13.0098C91.9141 13.0098 92.2422 13.11 92.4883 13.3105C92.7253 13.502 92.8438 13.7845 92.8438 14.1582C92.8438 14.4134 92.7663 14.6595 92.6113 14.8965C92.4564 15.1335 92.2422 15.375 91.9688 15.6211L91.5039 15.1016ZM88.0312 16.332L89.4531 14.7051H90.5059L91.9551 16.332V16.4004H90.8066L90.0273 15.6074H89.918L89.1797 16.4004H88.0312V16.332ZM95.7285 16.5508C95.5007 16.5508 95.3001 16.4642 95.127 16.291C94.9538 16.1178 94.8672 15.9173 94.8672 15.6895C94.8672 15.4525 94.9538 15.2474 95.127 15.0742C95.2819 14.9193 95.4824 14.8418 95.7285 14.8418C95.9746 14.8418 96.1751 14.9193 96.3301 15.0742C96.4941 15.2383 96.5762 15.4434 96.5762 15.6895C96.5762 15.9264 96.4941 16.127 96.3301 16.291C96.1569 16.4642 95.9564 16.5508 95.7285 16.5508ZM95.1406 17.8633H96.3301V25H95.1406V17.8633Z" fill="white"/>
</svg>
