<svg width="22" height="22" viewBox="0 0 22 22" fill="none" xmlns="http://www.w3.org/2000/svg">
<path d="M21 5H5C2.79086 5 1 6.79086 1 9V17C1 19.2091 2.79086 21 5 21H17C19.2091 21 21 19.2091 21 17V5Z" stroke="white" stroke-width="2" stroke-linejoin="round"/>
<path d="M21 5C21 2.79086 19.2091 1 17 1H11C8.79086 1 7 2.79086 7 5V5H21V5Z" stroke="white" stroke-width="2" stroke-linejoin="round"/>
<path d="M1 11L1 15L5 15C6.10457 15 7 14.1046 7 13V13C7 11.8954 6.10457 11 5 11L1 11Z" stroke="white" stroke-width="2" stroke-linejoin="round"/>
</svg>
