<svg width="32" height="32" viewBox="0 0 32 32" fill="none" xmlns="http://www.w3.org/2000/svg">
<path d="M13.0143 31.9999C12.1209 31.9999 11.2721 31.5541 10.6914 30.7663L8.90457 28.3882C8.90457 28.4031 8.83011 28.3585 8.80033 28.3585H8.24938C3.15681 28.3585 0 26.9763 0 20.1244V14.1792C0 7.92192 3.82689 6.28699 7.04325 6.00459C7.40063 5.96001 7.81756 5.94513 8.24938 5.94513H17.7793C23.1697 5.94513 26.0287 8.79883 26.0287 14.1792V20.1244C26.0287 20.5555 26.0138 20.9716 25.9542 21.3729C25.6862 24.5387 24.0483 28.3585 17.7793 28.3585H17.1837L15.3373 30.7663C14.7565 31.5541 13.9078 31.9999 13.0143 31.9999ZM8.24938 8.17458C7.9069 8.17458 7.5793 8.18944 7.2666 8.21916C3.81199 8.51642 2.23358 10.404 2.23358 14.1792V20.1244C2.23358 25.2224 3.812 26.129 8.24938 26.129H8.845C9.51507 26.129 10.2745 26.5006 10.6914 27.0357L12.4783 29.4286C12.8059 29.8745 13.2228 29.8745 13.5504 29.4286L15.3373 27.0506C15.7691 26.4709 16.4541 26.129 17.1837 26.129H17.7793C21.5615 26.129 23.4526 24.5387 23.7356 21.15C23.7802 20.7933 23.7951 20.4663 23.7951 20.1244V14.1792C23.7951 10.0325 21.9338 8.17458 17.7793 8.17458H8.24938Z" fill="white"/>
<path d="M13.0144 19.2325C12.1806 19.2325 11.5254 18.5637 11.5254 17.7462C11.5254 16.9288 12.1955 16.2599 13.0144 16.2599C13.8334 16.2599 14.5035 16.9288 14.5035 17.7462C14.5035 18.5637 13.8483 19.2325 13.0144 19.2325Z" fill="white"/>
<path d="M17.7797 19.2325C16.9458 19.2325 16.2906 18.5637 16.2906 17.7462C16.2906 16.9288 16.9607 16.2599 17.7797 16.2599C18.5987 16.2599 19.2687 16.9288 19.2687 17.7462C19.2687 18.5637 18.5987 19.2325 17.7797 19.2325Z" fill="white"/>
<path d="M8.26406 19.2325C7.43019 19.2325 6.775 18.5637 6.775 17.7462C6.775 16.9288 7.44508 16.2599 8.26406 16.2599C9.08304 16.2599 9.75311 16.9288 9.75311 17.7462C9.75311 18.5637 9.08304 19.2325 8.26406 19.2325Z" fill="white"/>
<path d="M24.8528 22.3539C24.5549 22.3539 24.2571 22.235 24.0487 22.0121C23.8104 21.7743 23.7062 21.4324 23.7509 21.1055C23.7955 20.7933 23.8104 20.4663 23.8104 20.1245V14.1793C23.8104 10.0325 21.9491 8.17464 17.7946 8.17464H8.26465C7.92216 8.17464 7.59461 8.1895 7.28191 8.21923C6.95432 8.26382 6.61181 8.14489 6.37356 7.92195C6.13531 7.68414 6.00128 7.35719 6.03106 7.03021C6.29909 3.8198 7.95194 0 14.2209 0H23.7509C29.1413 0 32.0002 2.85371 32.0002 8.23411V14.1793C32.0002 20.4366 28.1734 22.0715 24.957 22.3539C24.9123 22.3539 24.8825 22.3539 24.8528 22.3539ZM8.44337 5.94519H17.7797C23.1701 5.94519 26.0291 8.7989 26.0291 14.1793V19.9313C28.5605 19.307 29.7518 17.4492 29.7518 14.1793V8.23411C29.7518 4.08733 27.8904 2.22945 23.736 2.22945H14.206C10.9301 2.22945 9.08366 3.41849 8.44337 5.94519Z" fill="white"/>
</svg>
