<svg width="34" height="20" viewBox="0 0 34 20" fill="none" xmlns="http://www.w3.org/2000/svg">
<path d="M11.3335 19.9998L11.3335 0L0.000107765 0L0.000107765 19.9998L11.3335 19.9998Z" fill="#D52B1E"/>
<path d="M34 20L34 0.000183105L22.6666 0.000183105L22.6666 20L34 20Z" fill="#D52B1E"/>
<path d="M24.4011 20L24.4011 0.00012207L9.5986 0.00012207L9.5986 20L24.4011 20Z" fill="white"/>
<path d="M22.5133 10.1786L23.1067 8.11797L20.5505 8.77659L20.6679 7.49196L18.855 9.05699L19.3995 5.36614L18.1638 6.15843L16.9998 4L15.8391 6.15843L14.6034 5.36614L15.1479 9.05699L13.3351 7.49196L13.4492 8.77659L10.8962 8.11797L11.4896 10.1786L10.9941 10.459L14.2904 13.3249L13.5829 14.4954L16.6901 13.9249L16.439 16.8919H17.5606L17.3096 13.9249L20.4201 14.4954L19.7125 13.3249L23.0056 10.459L22.5133 10.1786Z" fill="#D52B1E"/>
</svg>
