<svg width="27" height="16" viewBox="0 0 27 16" fill="none" xmlns="http://www.w3.org/2000/svg">
<path d="M27 14.7661H0V16H27V14.7661Z" fill="#CB001C"/>
<path d="M27 13.5396H0V14.7735H27V13.5396Z" fill="white"/>
<path d="M27 12.3053H0V13.531H27V12.3053Z" fill="#CB001C"/>
<path d="M27 11.0799H0V12.3138H27V11.0799Z" fill="white"/>
<path d="M27 9.8467H0V11.0806H27V9.8467Z" fill="#CB001C"/>
<path d="M27 8.61237H0V9.83806H27V8.61237Z" fill="white"/>
<path d="M27 7.38698H0V8.62084H27V7.38698Z" fill="#CB001C"/>
<path d="M27 6.15266H0V7.37835H27V6.15266Z" fill="white"/>
<path d="M27 4.92725H0V6.16111H27V4.92725Z" fill="#CB001C"/>
<path d="M27 3.69292H0V4.92678H27V3.69292Z" fill="white"/>
<path d="M27 2.45972H0V3.69358H27V2.45972Z" fill="#CB001C"/>
<path d="M27 1.23321H0V2.46707H27V1.23321Z" fill="white"/>
<path d="M27 0H0V1.23386H27V0Z" fill="#CB001C"/>
<path d="M12.3334 0H0V8.61252H12.3334V0Z" fill="#2A3560"/>
<path d="M1.11029 0.947891L1.22292 1.27474H1.56082L1.28728 1.47902L1.38383 1.80587L1.11029 1.60159L0.836748 1.80587L0.949382 1.47902L0.675842 1.27474H1.0057L1.11029 0.947891Z" fill="white"/>
<path d="M1.11029 2.38666L1.22292 2.71351H1.56082L1.28728 2.91779L1.38383 3.24464L1.11029 3.04036L0.836748 3.24464L0.949382 2.91779L0.675842 2.71351H1.0057L1.11029 2.38666Z" fill="white"/>
<path d="M1.11029 3.82413L1.22292 4.15098H1.56082L1.28728 4.35526L1.38383 4.68211L1.11029 4.47783L0.836748 4.68211L0.949382 4.35526L0.675842 4.15098H1.0057L1.11029 3.82413Z" fill="white"/>
<path d="M1.11029 5.26289L1.22292 5.58974H1.56082L1.28728 5.79403L1.38383 6.11271L1.11029 5.9166L0.836748 6.11271L0.949382 5.79403L0.675842 5.58974H1.0057L1.11029 5.26289Z" fill="white"/>
<path d="M1.11029 6.70035L1.22292 7.0272H1.56082L1.28728 7.23148L1.38383 7.55016L1.11029 7.35405L0.836748 7.55016L0.949382 7.23148L0.675842 7.0272H1.0057L1.11029 6.70035Z" fill="white"/>
<path d="M2.09984 1.70699L2.20443 2.03384H2.54233L2.26879 2.23812L2.37338 2.5568L2.09984 2.36069L1.8263 2.5568L1.93089 2.23812L1.65735 2.03384H1.99525L2.09984 1.70699Z" fill="white"/>
<path d="M2.09984 3.14575L2.20443 3.4726H2.54233L2.26879 3.66871L2.37338 3.99556L2.09984 3.79945L1.8263 3.99556L1.93089 3.66871L1.65735 3.4726H1.99525L2.09984 3.14575Z" fill="white"/>
<path d="M2.09984 4.58452L2.20443 4.91137H2.54233L2.26879 5.10748L2.37338 5.43433L2.09984 5.23822L1.8263 5.43433L1.93089 5.10748L1.65735 4.91137H1.99525L2.09984 4.58452Z" fill="white"/>
<path d="M2.09984 6.02199L2.20443 6.34884H2.54233L2.26879 6.54495L2.37338 6.8718L2.09984 6.66752L1.8263 6.8718L1.93089 6.54495L1.65735 6.34884H1.99525L2.09984 6.02199Z" fill="white"/>
<path d="M3.0974 0.947891L3.20199 1.27474H3.53989L3.26635 1.47902L3.37094 1.80587L3.0974 1.60159L2.82386 1.80587L2.92845 1.47902L2.65491 1.27474H2.99281L3.0974 0.947891Z" fill="white"/>
<path d="M3.0974 2.38666L3.20199 2.71351H3.53989L3.26635 2.91779L3.37094 3.24464L3.0974 3.04036L2.82386 3.24464L2.92845 2.91779L2.65491 2.71351H2.99281L3.0974 2.38666Z" fill="white"/>
<path d="M3.0974 3.82413L3.20199 4.15098H3.53989L3.26635 4.35526L3.37094 4.68211L3.0974 4.47783L2.82386 4.68211L2.92845 4.35526L2.65491 4.15098H2.99281L3.0974 3.82413Z" fill="white"/>
<path d="M3.0974 5.26289L3.20199 5.58974H3.53989L3.26635 5.79403L3.37094 6.11271L3.0974 5.9166L2.82386 6.11271L2.92845 5.79403L2.65491 5.58974H2.99281L3.0974 5.26289Z" fill="white"/>
<path d="M3.0974 6.70035L3.20199 7.0272H3.53989L3.26635 7.23148L3.37094 7.55016L3.0974 7.35405L2.82386 7.55016L2.92845 7.23148L2.65491 7.0272H2.99281L3.0974 6.70035Z" fill="white"/>
<path d="M4.08701 1.70699L4.1916 2.03384H4.5295L4.25596 2.23812L4.36055 2.5568L4.08701 2.36069L3.81347 2.5568L3.91806 2.23812L3.64452 2.03384H3.98242L4.08701 1.70699Z" fill="white"/>
<path d="M4.08701 3.14575L4.1916 3.4726H4.5295L4.25596 3.66871L4.36055 3.99556L4.08701 3.79945L3.81347 3.99556L3.91806 3.66871L3.64452 3.4726H3.98242L4.08701 3.14575Z" fill="white"/>
<path d="M4.08701 4.58452L4.1916 4.91137H4.5295L4.25596 5.10748L4.36055 5.43433L4.08701 5.23822L3.81347 5.43433L3.91806 5.10748L3.64452 4.91137H3.98242L4.08701 4.58452Z" fill="white"/>
<path d="M4.08701 6.02199L4.1916 6.34884H4.5295L4.25596 6.54495L4.36055 6.8718L4.08701 6.66752L3.81347 6.8718L3.91806 6.54495L3.64452 6.34884H3.98242L4.08701 6.02199Z" fill="white"/>
<path d="M5.08457 0.947891L5.18915 1.27474H5.52706L5.25352 1.47902L5.35811 1.80587L5.08457 1.60159L4.81103 1.80587L4.91561 1.47902L4.64207 1.27474H4.97998L5.08457 0.947891Z" fill="white"/>
<path d="M5.08457 2.38666L5.18915 2.71351H5.52706L5.25352 2.91779L5.35811 3.24464L5.08457 3.04036L4.81103 3.24464L4.91561 2.91779L4.64207 2.71351H4.97998L5.08457 2.38666Z" fill="white"/>
<path d="M5.08457 3.82413L5.18915 4.15098H5.52706L5.25352 4.35526L5.35811 4.68211L5.08457 4.47783L4.81103 4.68211L4.91561 4.35526L4.64207 4.15098H4.97998L5.08457 3.82413Z" fill="white"/>
<path d="M5.08457 5.26289L5.18915 5.58974H5.52706L5.25352 5.79403L5.35811 6.11271L5.08457 5.9166L4.81103 6.11271L4.91561 5.79403L4.64207 5.58974H4.97998L5.08457 5.26289Z" fill="white"/>
<path d="M5.08457 6.70035L5.18915 7.0272H5.52706L5.25352 7.23148L5.35811 7.55016L5.08457 7.35405L4.81103 7.55016L4.91561 7.23148L4.64207 7.0272H4.97998L5.08457 6.70035Z" fill="white"/>
<path d="M6.07417 1.70699L6.17072 2.03384H6.50862L6.23508 2.23812L6.33967 2.5568L6.07417 2.36069L5.80063 2.5568L5.89718 2.23812L5.63168 2.03384H5.96154L6.07417 1.70699Z" fill="white"/>
<path d="M6.07417 3.14575L6.17072 3.4726H6.50862L6.23508 3.66871L6.33967 3.99556L6.07417 3.79945L5.80063 3.99556L5.89718 3.66871L5.63168 3.4726H5.96154L6.07417 3.14575Z" fill="white"/>
<path d="M6.07417 4.58452L6.17072 4.91137H6.50862L6.23508 5.10748L6.33967 5.43433L6.07417 5.23822L5.80063 5.43433L5.89718 5.10748L5.63168 4.91137H5.96154L6.07417 4.58452Z" fill="white"/>
<path d="M6.07417 6.02199L6.17072 6.34884H6.50862L6.23508 6.54495L6.33967 6.8718L6.07417 6.66752L5.80063 6.8718L5.89718 6.54495L5.63168 6.34884H5.96154L6.07417 6.02199Z" fill="white"/>
<path d="M7.06375 0.947891L7.16834 1.27474H7.50624L7.2327 1.47902L7.34533 1.80587L7.06375 1.60159L6.79825 1.80587L6.8948 1.47902L6.6293 1.27474H6.95916L7.06375 0.947891Z" fill="white"/>
<path d="M7.06375 2.38666L7.16834 2.71351H7.50624L7.2327 2.91779L7.34533 3.24464L7.06375 3.04036L6.79825 3.24464L6.8948 2.91779L6.6293 2.71351H6.95916L7.06375 2.38666Z" fill="white"/>
<path d="M7.06375 3.82413L7.16834 4.15098H7.50624L7.2327 4.35526L7.34533 4.68211L7.06375 4.47783L6.79825 4.68211L6.8948 4.35526L6.6293 4.15098H6.95916L7.06375 3.82413Z" fill="white"/>
<path d="M7.06375 5.26289L7.16834 5.58974H7.50624L7.2327 5.79403L7.34533 6.11271L7.06375 5.9166L6.79825 6.11271L6.8948 5.79403L6.6293 5.58974H6.95916L7.06375 5.26289Z" fill="white"/>
<path d="M7.06375 6.70035L7.16834 7.0272H7.50624L7.2327 7.23148L7.34533 7.55016L7.06375 7.35405L6.79825 7.55016L6.8948 7.23148L6.6293 7.0272H6.95916L7.06375 6.70035Z" fill="white"/>
<path d="M8.05336 1.70699L8.15795 2.03384H8.49585L8.22231 2.23812L8.3269 2.5568L8.05336 2.36069L7.77982 2.5568L7.88441 2.23812L7.61087 2.03384H7.94877L8.05336 1.70699Z" fill="white"/>
<path d="M8.05336 3.14575L8.15795 3.4726H8.49585L8.22231 3.66871L8.3269 3.99556L8.05336 3.79945L7.77982 3.99556L7.88441 3.66871L7.61087 3.4726H7.94877L8.05336 3.14575Z" fill="white"/>
<path d="M8.05336 4.58452L8.15795 4.91137H8.49585L8.22231 5.10748L8.3269 5.43433L8.05336 5.23822L7.77982 5.43433L7.88441 5.10748L7.61087 4.91137H7.94877L8.05336 4.58452Z" fill="white"/>
<path d="M8.05336 6.02199L8.15795 6.34884H8.49585L8.22231 6.54495L8.3269 6.8718L8.05336 6.66752L7.77982 6.8718L7.88441 6.54495L7.61087 6.34884H7.94877L8.05336 6.02199Z" fill="white"/>
<path d="M9.05092 0.947891L9.1555 1.27474H9.49341L9.21987 1.47902L9.32446 1.80587L9.05092 1.60159L8.78542 1.80587L8.88196 1.47902L8.61647 1.27474H8.94633L9.05092 0.947891Z" fill="white"/>
<path d="M9.05092 2.38666L9.1555 2.71351H9.49341L9.21987 2.91779L9.32446 3.24464L9.05092 3.04036L8.78542 3.24464L8.88196 2.91779L8.61647 2.71351H8.94633L9.05092 2.38666Z" fill="white"/>
<path d="M9.05092 3.82413L9.1555 4.15098H9.49341L9.21987 4.35526L9.32446 4.68211L9.05092 4.47783L8.78542 4.68211L8.88196 4.35526L8.61647 4.15098H8.94633L9.05092 3.82413Z" fill="white"/>
<path d="M9.05092 5.26289L9.1555 5.58974H9.49341L9.21987 5.79403L9.32446 6.11271L9.05092 5.9166L8.78542 6.11271L8.88196 5.79403L8.61647 5.58974H8.94633L9.05092 5.26289Z" fill="white"/>
<path d="M9.05092 6.70035L9.1555 7.0272H9.49341L9.21987 7.23148L9.32446 7.55016L9.05092 7.35405L8.78542 7.55016L8.88196 7.23148L8.61647 7.0272H8.94633L9.05092 6.70035Z" fill="white"/>
<path d="M10.0405 1.70699L10.1451 2.03384H10.483L10.2094 2.23812L10.306 2.5568L10.0405 2.36069L9.76693 2.5568L9.87152 2.23812L9.59798 2.03384H9.93588L10.0405 1.70699Z" fill="white"/>
<path d="M10.0405 3.14575L10.1451 3.4726H10.483L10.2094 3.66871L10.306 3.99556L10.0405 3.79945L9.76693 3.99556L9.87152 3.66871L9.59798 3.4726H9.93588L10.0405 3.14575Z" fill="white"/>
<path d="M10.0405 4.58452L10.1451 4.91137H10.483L10.2094 5.10748L10.306 5.43433L10.0405 5.23822L9.76693 5.43433L9.87152 5.10748L9.59798 4.91137H9.93588L10.0405 4.58452Z" fill="white"/>
<path d="M10.0405 6.02199L10.1451 6.34884H10.483L10.2094 6.54495L10.306 6.8718L10.0405 6.66752L9.76693 6.8718L9.87152 6.54495L9.59798 6.34884H9.93588L10.0405 6.02199Z" fill="white"/>
<path d="M11.0382 0.947891L11.1428 1.27474H11.4807L11.2071 1.47902L11.3117 1.80587L11.0382 1.60159L10.7646 1.80587L10.8692 1.47902L10.5957 1.27474H10.9336L11.0382 0.947891Z" fill="white"/>
<path d="M11.0382 2.38666L11.1428 2.71351H11.4807L11.2071 2.91779L11.3117 3.24464L11.0382 3.04036L10.7646 3.24464L10.8692 2.91779L10.5957 2.71351H10.9336L11.0382 2.38666Z" fill="white"/>
<path d="M11.0382 3.82413L11.1428 4.15098H11.4807L11.2071 4.35526L11.3117 4.68211L11.0382 4.47783L10.7646 4.68211L10.8692 4.35526L10.5957 4.15098H10.9336L11.0382 3.82413Z" fill="white"/>
<path d="M11.0382 5.26289L11.1428 5.58974H11.4807L11.2071 5.79403L11.3117 6.11271L11.0382 5.9166L10.7646 6.11271L10.8692 5.79403L10.5957 5.58974H10.9336L11.0382 5.26289Z" fill="white"/>
<path d="M11.0382 6.70035L11.1428 7.0272H11.4807L11.2071 7.23148L11.3117 7.55016L11.0382 7.35405L10.7646 7.55016L10.8692 7.23148L10.5957 7.0272H10.9336L11.0382 6.70035Z" fill="white"/>
</svg>
