<svg width="27" height="16" viewBox="0 0 27 16" fill="none" xmlns="http://www.w3.org/2000/svg">
<path d="M27 0H0V16H27V0Z" fill="#CB1D23"/>
<path d="M2.67375 5.79659L3.19527 4.19414L1.82112 3.20487L3.51811 3.19669L4.0479 1.60242L4.57769 3.19669L6.28295 3.20487L4.90881 4.19414L5.42204 5.79659L4.0479 4.80732L2.67375 5.79659Z" fill="#F7DE29"/>
<path d="M7.40883 6.65479L7.98001 6.88371L8.38563 6.41769L8.33596 7.0227L8.91542 7.2598L8.31113 7.40696L8.26974 8.01197L7.93862 7.4969L7.34261 7.63589L7.73167 7.16987L7.40883 6.65479Z" fill="#F7DE29"/>
<path d="M10.5131 3.58955L9.90878 3.48327L9.61077 4.02287L9.52799 3.41786L8.91542 3.3034L9.47004 3.04178L9.38726 2.43677L9.81772 2.87008L10.3723 2.60846L10.0826 3.14806L10.5131 3.58955Z" fill="#F7DE29"/>
<path d="M9.22171 6.31998L9.4121 5.7395L8.91542 5.37977H9.52799L9.71838 4.79929L9.91705 5.37977H10.5296L10.0329 5.7395L10.2233 6.31998L9.71838 5.96025L9.22171 6.31998Z" fill="#F7DE29"/>
<path d="M7.44187 1.0136L8.00478 1.27523L8.42695 0.825562L8.35245 1.43057L8.90707 1.69219L8.30278 1.80666L8.22828 2.41984L7.922 1.88024L7.3177 1.9947L7.73988 1.54503L7.44187 1.0136Z" fill="#F7DE29"/>
</svg>
