<svg width="27" height="16" viewBox="0 0 27 16" fill="none" xmlns="http://www.w3.org/2000/svg">
<path d="M27 0H0V16H27V0Z" fill="#314199"/>
<path d="M13.0234 12.155L13.2365 12.7779L13.8856 12.7773L13.4249 13.1217L13.5515 13.7905L13.0234 13.4111L12.4936 13.7803L12.6218 13.1217L12.1659 12.7752H12.8144L13.0234 12.155Z" fill="#F8EC26"/>
<path d="M13.0234 1.33334L13.2365 1.95643L13.8856 1.95567L13.4249 2.30005L13.5515 2.96885L13.0234 2.58942L12.4936 2.95864L12.6218 2.30005L12.1659 1.95353H12.8144L13.0234 1.33334Z" fill="#F8EC26"/>
<path d="M15.6625 2.02927L15.8755 2.6522L16.5248 2.65159L16.0641 2.99597L16.1906 3.66462L15.6625 3.28534L15.1327 3.65456L15.261 2.99597L14.8051 2.64946H15.4536L15.6625 2.02927Z" fill="#F8EC26"/>
<path d="M10.2568 2.02927L10.4699 2.6522L11.1191 2.65159L10.6584 2.99597L10.7849 3.66462L10.2568 3.28534L9.72699 3.65456L9.85536 2.99597L9.39944 2.64946H10.0478L10.2568 2.02927Z" fill="#F8EC26"/>
<path d="M15.6625 11.4239L15.8755 12.0469L16.5248 12.0463L16.0641 12.3907L16.1906 13.0594L15.6625 12.6801L15.1327 13.0493L15.261 12.3907L14.8051 12.044H15.4536L15.6625 11.4239Z" fill="#F8EC26"/>
<path d="M10.2568 11.4239L10.4699 12.0469L11.1191 12.0463L10.6584 12.3907L10.7849 13.0594L10.2568 12.6801L9.72699 13.0493L9.85536 12.3907L9.39944 12.044H10.0478L10.2568 11.4239Z" fill="#F8EC26"/>
<path d="M8.23548 4.07144L8.44855 4.69453L9.09763 4.69377L8.63693 5.0383L8.7636 5.70695L8.23548 5.32767L7.70566 5.69674L7.83387 5.0383L7.37796 4.69163H8.02642L8.23548 4.07144Z" fill="#F8EC26"/>
<path d="M17.7501 4.07144L17.9632 4.69453L18.6124 4.69377L18.1517 5.0383L18.2782 5.70695L17.7501 5.32767L17.2203 5.69674L17.3485 5.0383L16.8926 4.69163H17.5411L17.7501 4.07144Z" fill="#F8EC26"/>
<path d="M8.23548 9.47278L8.44855 10.0959L9.09763 10.0951L8.63693 10.4396L8.7636 11.1083L8.23548 10.7289L7.70566 11.0981L7.83387 10.4396L7.37796 10.093H8.02642L8.23548 9.47278Z" fill="#F8EC26"/>
<path d="M17.7501 9.47278L17.9632 10.0959L18.6124 10.0951L18.1517 10.4396L18.2782 11.1083L17.7501 10.7289L17.2203 11.0981L17.3485 10.4396L16.8926 10.093H17.5411L17.7501 9.47278Z" fill="#F8EC26"/>
<path d="M7.60752 6.75183L7.82059 7.37492L8.46967 7.37415L8.00897 7.71869L8.13564 8.38734L7.60752 8.00791L7.0777 8.37713L7.20591 7.71869L6.75 7.37202H7.39846L7.60752 6.75183Z" fill="#F8EC26"/>
<path d="M18.4463 6.75183L18.6594 7.37492L19.3086 7.37415L18.8479 7.71869L18.9744 8.38734L18.4463 8.00791L17.9165 8.37713L18.0447 7.71869L17.5889 7.37202H18.2372L18.4463 6.75183Z" fill="#F8EC26"/>
</svg>
