<svg width="34" height="20" viewBox="0 0 34 20" fill="none" xmlns="http://www.w3.org/2000/svg">
<path d="M34 0H0V20H34V0Z" fill="#DE2910"/>
<path d="M5.84926 3.73651L6.56004 5.92754H8.86518L7.0002 7.28062L7.71424 9.47491L5.84926 8.11856L3.98428 9.47491L4.69506 7.28062L2.83008 5.92754H5.13522L5.84926 3.73651Z" fill="#FFEA00"/>
<path d="M12.6832 1.86823L12.618 2.64747L13.3386 2.95396L12.5789 3.13002L12.5104 3.90927L12.1061 3.24088L11.3464 3.41694L11.8583 2.8268L11.454 2.15841L12.1746 2.46163L12.6832 1.86823Z" fill="#FFEA00"/>
<path d="M14.5318 4.58093L15.0665 5.15151L15.7741 4.81895L15.3991 5.50364L15.9338 6.07422L15.1644 5.9275L14.7894 6.61219L14.6916 5.83621L13.9221 5.68949L14.6296 5.35692L14.5318 4.58093Z" fill="#FFEA00"/>
<path d="M15.0079 8.36633L15.2492 9.10972L16.0317 9.10646L15.4024 9.56618L15.6437 10.3096L15.0112 9.8531L14.3786 10.3161L14.6199 9.56944L13.9841 9.11298L14.7666 9.10972L15.0079 8.36633Z" fill="#FFEA00"/>
<path d="M12.6507 11.1377L12.605 11.9169L13.3321 12.2039L12.5757 12.3995L12.5301 13.1787L12.1095 12.5201L11.353 12.719L11.8486 12.1158L11.428 11.454L12.1551 11.7409L12.6507 11.1377Z" fill="#FFEA00"/>
</svg>
