<svg width="10" height="8" viewBox="0 0 10 8" fill="none" xmlns="http://www.w3.org/2000/svg">
<path d="M10 3.99674C9.99652 3.64575 9.84511 3.31018 9.57857 3.06273L6.51429 0.194002C6.38046 0.0697449 6.19942 0 6.01071 0C5.82201 0 5.64097 0.0697449 5.50714 0.194002C5.44019 0.256022 5.38706 0.329809 5.35079 0.411107C5.31453 0.492405 5.29586 0.579605 5.29586 0.667676C5.29586 0.755748 5.31453 0.842947 5.35079 0.924245C5.38706 1.00554 5.44019 1.07933 5.50714 1.14135L7.85714 3.32959H0.714286C0.524845 3.32959 0.343164 3.39988 0.20921 3.525C0.075255 3.65011 0 3.8198 0 3.99674C0 4.17368 0.075255 4.34337 0.20921 4.46848C0.343164 4.5936 0.524845 4.66389 0.714286 4.66389H7.85714L5.50714 6.8588C5.37264 6.98354 5.2967 7.15308 5.29603 7.33012C5.29536 7.50715 5.37002 7.67719 5.50357 7.80282C5.63713 7.92844 5.81864 7.99937 6.00819 8C6.19773 8.00062 6.37978 7.93089 6.51429 7.80615L9.57857 4.93742C9.84685 4.68834 9.99841 4.35005 10 3.99674Z" fill="#0050A6"/>
</svg>
