<svg width="10" height="7" viewBox="0 0 10 7" fill="none" xmlns="http://www.w3.org/2000/svg">
<path d="M9.3583 6.02102C9.29307 6.08884 9.21454 6.14249 9.12765 6.17862C9.04077 6.21475 8.94738 6.23254 8.8533 6.23099C8.75881 6.23452 8.6647 6.21767 8.57736 6.18142C8.49002 6.14518 8.41154 6.09043 8.34732 6.02102L5.00131 2.694L1.67532 6.02102C1.54045 6.15114 1.35985 6.22314 1.17245 6.22146C0.985052 6.21978 0.805825 6.14451 0.673308 6.01199C0.54079 5.87947 0.465577 5.70025 0.463896 5.51285C0.462215 5.32544 0.534216 5.14491 0.664335 5.01004L4.49631 1.15701C4.6316 1.02567 4.81275 0.952177 5.00131 0.952177C5.18987 0.952177 5.37102 1.02567 5.50632 1.15701L9.35928 5.01004C9.49102 5.14539 9.56467 5.3269 9.56448 5.51578C9.56429 5.70465 9.49032 5.88594 9.3583 6.02102Z" fill="white"/>
</svg>
