<svg width="22" height="20" viewBox="0 0 22 20" fill="none" xmlns="http://www.w3.org/2000/svg">
<path d="M17.4167 3.63229H15.4917C15.2789 2.60745 14.716 1.6866 13.8978 1.02496C13.0796 0.363311 12.0562 0.00132081 11 0H4.58333C3.3682 0.00144189 2.20326 0.480263 1.34403 1.33143C0.484808 2.1826 0.00145554 3.33662 0 4.54036L0 12.713C0.00230432 13.5263 0.280076 14.3153 0.788825 14.9536C1.29757 15.592 2.00786 16.0427 2.80592 16.2336C2.71953 16.688 2.7343 17.1557 2.84918 17.6039C2.96405 18.0521 3.17628 18.4701 3.47105 18.8287C3.76581 19.1872 4.13602 19.4778 4.55582 19.68C4.97563 19.8822 5.43492 19.9913 5.90166 19.9995C6.36839 20.0077 6.83131 19.915 7.25813 19.7277C7.68494 19.5404 8.06536 19.2632 8.37284 18.9152C8.68032 18.5673 8.90745 18.1571 9.03839 17.7132C9.16932 17.2693 9.2009 16.8025 9.13092 16.3453H12.8728C12.8492 16.4955 12.8366 16.6473 12.8352 16.7993C12.8352 17.6423 13.1732 18.4507 13.7749 19.0467C14.3765 19.6427 15.1926 19.9776 16.0435 19.9776C16.8944 19.9776 17.7105 19.6427 18.3121 19.0467C18.9138 18.4507 19.2518 17.6423 19.2518 16.7993C19.2508 16.6095 19.2321 16.4201 19.1959 16.2336C19.9936 16.0423 20.7035 15.5915 21.2119 14.9532C21.7203 14.3149 21.9978 13.5261 22 12.713V8.17265C21.9985 6.96891 21.5152 5.81489 20.656 4.96372C19.7967 4.11255 18.6318 3.63373 17.4167 3.63229ZM20.1667 8.17265V9.08072H15.5833V5.44843H17.4167C18.146 5.44843 18.8455 5.73545 19.3612 6.24634C19.8769 6.75723 20.1667 7.45014 20.1667 8.17265ZM1.83333 12.713V4.54036C1.83333 3.81785 2.12306 3.12494 2.63879 2.61405C3.15451 2.10316 3.85399 1.81614 4.58333 1.81614H11C11.7293 1.81614 12.4288 2.10316 12.9445 2.61405C13.4603 3.12494 13.75 3.81785 13.75 4.54036V14.5292H3.66667C3.18044 14.5292 2.71412 14.3378 2.3703 13.9972C2.02649 13.6566 1.83333 13.1947 1.83333 12.713ZM7.33333 16.7993C7.33333 17.1606 7.18847 17.507 6.93061 17.7625C6.67274 18.0179 6.32301 18.1614 5.95833 18.1614C5.59366 18.1614 5.24392 18.0179 4.98606 17.7625C4.7282 17.507 4.58333 17.1606 4.58333 16.7993C4.5839 16.6441 4.61278 16.4903 4.66858 16.3453H7.24808C7.30389 16.4903 7.33277 16.6441 7.33333 16.7993ZM16.0417 18.1614C15.677 18.1614 15.3273 18.0179 15.0694 17.7625C14.8115 17.507 14.6667 17.1606 14.6667 16.7993C14.6671 16.6441 14.696 16.4903 14.7519 16.3453H17.3314C17.3874 16.4903 17.4163 16.6441 17.4167 16.7993C17.4167 17.1606 17.2718 17.507 17.0139 17.7625C16.7561 18.0179 16.4063 18.1614 16.0417 18.1614ZM18.3333 14.5292H15.5833V10.8969H20.1667V12.713C20.1667 13.1947 19.9735 13.6566 19.6297 13.9972C19.2859 14.3378 18.8196 14.5292 18.3333 14.5292Z" fill="white"/>
</svg>
