<svg width="22" height="22" viewBox="0 0 22 22" fill="none" xmlns="http://www.w3.org/2000/svg">
<path d="M8 13.3298C8 14.6198 9.03898 15.6598 10.3298 15.6598H12.964C14.087 15.6598 15 14.7498 15 13.6298C15 12.4098 14.4438 11.9798 13.6147 11.6998L9.38531 10.2998C8.55622 10.0198 8 9.58984 8 8.36984C8 7.24984 8.91304 6.33984 10.036 6.33984H12.6702C13.961 6.33984 15 7.37984 15 8.66984" stroke="white" stroke-width="1.8" stroke-linecap="round" stroke-linejoin="round"/>
<path d="M11.4928 5V17" stroke="white" stroke-width="1.8" stroke-linecap="round" stroke-linejoin="round"/>
<path d="M1 5C1 2.79086 2.79086 1 5 1H17C19.2091 1 21 2.79086 21 5V17C21 19.2091 19.2091 21 17 21H5C2.79086 21 1 19.2091 1 17V5Z" stroke="white" stroke-width="2"/>
</svg>
