<svg width="16" height="16" viewBox="0 0 16 16" fill="none" xmlns="http://www.w3.org/2000/svg">
<path d="M6.58567 12.0815C6.77141 12.2673 6.99194 12.4148 7.23468 12.5153C7.47742 12.6159 7.7376 12.6677 8.00035 12.6677C8.26311 12.6677 8.52329 12.6159 8.76602 12.5153C9.00876 12.4148 9.2293 12.2673 9.41503 12.0815L11.5557 9.94077C11.6705 9.81384 11.7321 9.64762 11.7277 9.47654C11.7233 9.30546 11.6533 9.14263 11.5321 9.02174C11.411 8.90086 11.248 8.83119 11.0769 8.82717C10.9058 8.82314 10.7397 8.88505 10.613 9.0001L8.66236 10.9515L8.66703 0.666674C8.66703 0.489861 8.59679 0.32029 8.47176 0.195264C8.34674 0.0702387 8.17717 0 8.00035 0V0C7.82354 0 7.65397 0.0702387 7.52894 0.195264C7.40392 0.32029 7.33368 0.489861 7.33368 0.666674L7.32768 10.9388L5.38766 9.0001C5.26256 8.87509 5.09293 8.8049 4.91608 8.80496C4.73924 8.80502 4.56966 8.87534 4.44465 9.00043C4.31964 9.12553 4.24945 9.29516 4.24951 9.472C4.24957 9.64885 4.31989 9.81843 4.44498 9.94344L6.58567 12.0815Z" fill="white"/>
<path d="M15.3335 10.6666C15.1567 10.6666 14.9871 10.7369 14.8621 10.8619C14.7371 10.9869 14.6668 11.1565 14.6668 11.3333V14C14.6668 14.1768 14.5966 14.3464 14.4716 14.4714C14.3465 14.5964 14.177 14.6667 14.0002 14.6667H2.00002C1.82321 14.6667 1.65364 14.5964 1.52861 14.4714C1.40359 14.3464 1.33335 14.1768 1.33335 14V11.3333C1.33335 11.1565 1.26311 10.9869 1.13808 10.8619C1.01306 10.7369 0.843487 10.6666 0.666674 10.6666C0.489861 10.6666 0.32029 10.7369 0.195264 10.8619C0.0702387 10.9869 0 11.1565 0 11.3333L0 14C0 14.5304 0.210716 15.0391 0.585793 15.4142C0.960869 15.7893 1.46958 16 2.00002 16H14.0002C14.5306 16 15.0393 15.7893 15.4144 15.4142C15.7895 15.0391 16.0002 14.5304 16.0002 14V11.3333C16.0002 11.1565 15.9299 10.9869 15.8049 10.8619C15.6799 10.7369 15.5103 10.6666 15.3335 10.6666Z" fill="white"/>
</svg>
