<svg width="32" height="32" viewBox="0 0 32 32" fill="none" xmlns="http://www.w3.org/2000/svg">
<path d="M0 0V14.6286H14.5646V0H0ZM12.0438 12.0967H2.52079V2.53187H12.0438V12.0967Z" fill="#A0ACBE"/>
<path d="M8.82275 8.86153V5.76703L5.74179 5.76703V8.86153H8.82275Z" fill="#A0ACBE"/>
<path d="M0.0700684 17.3715V32H14.6346V17.3715H0.0700684ZM12.1138 29.4682H2.59086V19.9033H12.1138V29.4682Z" fill="#A0ACBE"/>
<path d="M8.89282 26.233V23.1385H5.81186V26.233H8.89282Z" fill="#A0ACBE"/>
<path d="M17.2954 0.0703125V14.6989H31.86V0.0703125H17.2954ZM29.3392 12.167H19.8162V2.60218H29.3392V12.167Z" fill="#A0ACBE"/>
<path d="M26.1182 8.93185V5.83734L23.0372 5.83734V8.93185H26.1182Z" fill="#A0ACBE"/>
<path d="M29.0592 17.3715V20.3253H23.1773V17.3715H17.4355V32H20.2364V29.1868H23.1773V26.233H20.0964V23.2792H25.9782V26.233H32.0001V17.3715H29.0592Z" fill="#A0ACBE"/>
<path d="M25.9781 29.1868H23.1772V32H25.9781V29.1868Z" fill="#A0ACBE"/>
<path d="M31.9998 29.1868H29.199V32H31.9998V29.1868Z" fill="#A0ACBE"/>
</svg>
