<svg width="34" height="20" viewBox="0 0 34 20" fill="none" xmlns="http://www.w3.org/2000/svg">
<path d="M33.9909 0.00299072H0V19.9646H33.9909V0.00299072Z" fill="white"/>
<path d="M33.9935 7.98905H19.0267V0.00289917H14.9413V7.98905H0.0141602V11.98H14.9413V19.9629H19.0267V11.98H33.9935V7.98905Z" fill="#CE1124"/>
<path d="M0.000976562 2.32825V6.67458H7.41481L0.000976562 2.32825Z" fill="#00247D"/>
<path d="M4.09084 0.00289917L3.98218 0.00842183L13.5954 5.67372V0.00289917H4.09084Z" fill="#00247D"/>
<path d="M11.41 6.6463L0.000976562 0.0032959V1.56907L8.69143 6.6463H11.41Z" fill="#CE1124"/>
<path d="M22.5908 13.3195L34.0001 19.9625V18.3967L25.3096 13.3195H22.5908Z" fill="#CE1124"/>
<path d="M0.000976562 17.6727V13.3264H7.41481L0.000976562 17.6727Z" fill="#00247D"/>
<path d="M4.09084 20L3.98218 19.9945L13.5954 14.3292V20H4.09084Z" fill="#00247D"/>
<path d="M11.3526 13.3202L0.00927734 19.9601L2.66212 19.963L13.6075 13.5902V13.3202H11.3526Z" fill="#CE1124"/>
<path d="M33.9995 2.32547V6.67161H26.5857L33.9995 2.32547Z" fill="#00247D"/>
<path d="M29.9096 0L30.0183 0.00552266L20.405 5.67082V0H29.9096Z" fill="#00247D"/>
<path d="M33.9897 0.00946778L31.438 0.00927734L20.4155 6.42699V6.65209H22.7475L33.9897 0.00946778Z" fill="#CE1124"/>
<path d="M33.9998 17.6692V13.3231H26.5859L33.9998 17.6692Z" fill="#00247D"/>
<path d="M29.9096 19.9932L30.0183 19.9878L20.405 14.3224V19.9932H29.9096Z" fill="#00247D"/>
</svg>
