<svg width="34" height="20" viewBox="0 0 34 20" fill="none" xmlns="http://www.w3.org/2000/svg">
<path d="M34 0H0V20H34V0Z" fill="#F1F2F5"/>
<path d="M22.5194 3.3944L21.8413 3.85834L23.0737 5.76337L23.7518 5.29943L22.5194 3.3944Z" fill="black"/>
<path d="M23.9657 5.64979L23.2966 6.10931L24.5323 8.01206L25.2014 7.55253L23.9657 5.64979Z" fill="black"/>
<path d="M23.5228 2.6973L22.845 3.16174L25.5437 7.32699L26.2215 6.86255L23.5228 2.6973Z" fill="black"/>
<path d="M24.5347 2.00924L23.8567 2.47327L25.0948 4.38657L25.7728 3.92255L24.5347 2.00924Z" fill="black"/>
<path d="M25.9935 4.26685L27.2251 6.17696L26.5497 6.63661L25.3181 4.7265L25.9935 4.26685Z" fill="black"/>
<path d="M9.69879 12.1761L9.02124 12.6409L11.7164 16.7961L12.3939 16.3313L9.69879 12.1761Z" fill="black"/>
<path d="M8.69041 12.868L8.0127 13.3326L9.24683 15.2365L9.92454 14.7719L8.69041 12.868Z" fill="black"/>
<path d="M10.1513 15.1243L9.47339 15.5885L10.7064 17.4931L11.3844 17.0289L10.1513 15.1243Z" fill="black"/>
<path d="M7.68235 13.5631L7.00464 14.0276L9.69832 18.1838L10.376 17.7193L7.68235 13.5631Z" fill="black"/>
<path d="M11.7196 3.39299L9.02637 7.54974L9.6959 8.00852L12.3891 3.85177L11.7196 3.39299Z" fill="black"/>
<path d="M10.7119 2.69278L8.01318 6.85803L8.69098 7.32248L11.3897 3.15723L10.7119 2.69278Z" fill="black"/>
<path d="M9.69724 2.00001L7 6.16626L7.67796 6.63045L10.3752 2.4642L9.69724 2.00001Z" fill="black"/>
<path d="M23.0673 14.4326L21.8318 16.3356L22.5092 16.8007L23.7446 14.8977L23.0673 14.4326Z" fill="black"/>
<path d="M24.5335 12.1762L23.2954 14.0895L23.9652 14.5478L25.2033 12.6345L24.5335 12.1762Z" fill="black"/>
<path d="M24.0765 15.1264L22.8428 17.0305L23.5206 17.495L24.7543 15.5908L24.0765 15.1264Z" fill="black"/>
<path d="M24.3049 14.7772L25.5465 12.8671L26.2219 13.337L24.9803 15.2369L24.3049 14.7772Z" fill="black"/>
<path d="M25.0938 15.8165L23.8577 17.719L24.5349 18.1844L25.771 16.2818L25.0938 15.8165Z" fill="black"/>
<path d="M26.5553 13.5683L25.3223 15.4729L25.992 15.9314L27.225 14.0269L26.5553 13.5683Z" fill="black"/>
<path d="M13.0728 7.3219C13.0524 7.34233 13.0319 7.37297 13.0217 7.40362C13.0319 7.38319 13.0524 7.35254 13.0728 7.3219Z" fill="#B50037"/>
<path d="M19.8156 5.93191C17.5808 4.39974 14.5614 5.02282 13.0715 7.32108C12.3266 8.46511 12.6245 10.0177 13.7469 10.7838C14.8593 11.5499 16.3691 11.2435 17.114 10.0892C17.8589 8.93498 19.3687 8.62854 20.4811 9.39463C21.6035 10.1607 21.9015 11.7133 21.1565 12.8573C22.6464 10.5693 22.0504 7.46409 19.8156 5.93191Z" fill="#B50037"/>
<path d="M13.0713 7.32147C12.3264 8.4655 12.6244 10.0181 13.7467 10.7842C14.8592 11.5503 16.3689 11.2438 17.1138 10.0896C17.8588 8.93536 19.3685 8.62893 20.481 9.39502C21.6033 10.1611 21.9013 11.7137 21.1564 12.8577C19.6665 15.156 16.647 15.7791 14.4122 14.2469C12.1873 12.7249 11.5815 9.61974 13.0713 7.32147Z" fill="#1E3476"/>
</svg>
