<svg width="18" height="18" viewBox="0 0 18 18" fill="none" xmlns="http://www.w3.org/2000/svg">
<path d="M16.4286 1H1.57143C1.4199 1 1.27449 1.06021 1.16735 1.16735C1.06021 1.27449 1 1.4199 1 1.57143V16.4286C1 16.5801 1.06021 16.7255 1.16735 16.8327C1.27449 16.9398 1.4199 17 1.57143 17H16.4286C16.5801 17 16.7255 16.9398 16.8327 16.8327C16.9398 16.7255 17 16.5801 17 16.4286V1.57143C17 1.4199 16.9398 1.27449 16.8327 1.16735C16.7255 1.06021 16.5801 1 16.4286 1ZM5.57143 15.8571H2.14286V6.71429H5.57143V15.8571ZM11.2857 15.8571H6.71429V6.71429H11.2857V15.8571ZM15.8571 15.8571H12.4286V6.71429H15.8571V15.8571ZM15.8571 5.57143H2.14286V2.14286H15.8571V5.57143Z" fill="#4D5B72" stroke="#4D5B72" stroke-width="0.2"/>
</svg>
