<svg width="15" height="18" viewBox="0 0 15 18" fill="none" xmlns="http://www.w3.org/2000/svg">
<path d="M5.11869 17H14M7.74649 3.05486C7.74649 3.05486 7.74649 4.50786 9.16316 5.96086C10.5798 7.41386 11.9965 7.41386 11.9965 7.41386M2.14368 14.3227L5.11869 13.8868C5.54783 13.824 5.94551 13.62 6.25203 13.3056L13.4132 5.96085C14.1956 5.15838 14.1956 3.85732 13.4132 3.05485L11.9965 1.60185C11.2141 0.799383 9.94558 0.799383 9.16317 1.60185L2.00201 8.94663C1.69548 9.26102 1.49664 9.66889 1.43534 10.109L1.01034 13.1603C0.915891 13.8384 1.48256 14.4196 2.14368 14.3227Z" stroke="#4D5B72" stroke-width="1.5" stroke-linecap="round"/>
</svg>
