<svg width="18" height="14" viewBox="0 0 18 14" fill="none" xmlns="http://www.w3.org/2000/svg">
<path d="M16.3042 5.31315C17.2319 6.27178 17.2319 7.72822 16.3042 8.68685C14.7396 10.3037 12.0524 12.5 9 12.5C5.94759 12.5 3.26039 10.3037 1.69576 8.68685C0.768079 7.72822 0.768078 6.27178 1.69576 5.31315C3.26039 3.69633 5.94759 1.5 9 1.5C12.0524 1.5 14.7396 3.69633 16.3042 5.31315Z" stroke="#4D5B72" stroke-width="1.2"/>
<path d="M11.4 7C11.4 8.30181 10.3255 9.35714 9 9.35714C7.67452 9.35714 6.6 8.30181 6.6 7C6.6 5.69819 7.67452 4.64286 9 4.64286C10.3255 4.64286 11.4 5.69819 11.4 7Z" stroke="#4D5B72" stroke-width="1.2"/>
</svg>
