<svg width="16" height="18" viewBox="0 0 16 18" fill="none" xmlns="http://www.w3.org/2000/svg">
<path d="M5.2243 17H14.3333M7.91948 3.05486C7.91948 3.05486 7.91948 4.50786 9.37248 5.96086C10.8255 7.41386 12.2785 7.41386 12.2785 7.41386M2.173 14.3227L5.2243 13.8868C5.66444 13.824 6.07232 13.62 6.3867 13.3056L13.7315 5.96085C14.5339 5.15838 14.5339 3.85732 13.7315 3.05485L12.2785 1.60185C11.476 0.799383 10.1749 0.799383 9.37248 1.60185L2.0277 8.94663C1.71331 9.26102 1.50938 9.66889 1.4465 10.109L1.0106 13.1603C0.913734 13.8384 1.49493 14.4196 2.173 14.3227Z" stroke="#637591" stroke-width="1.5" stroke-linecap="round"/>
</svg>
