<svg width="10" height="7" viewBox="0 0 10 7" fill="none" xmlns="http://www.w3.org/2000/svg">
<path d="M9.3583 0.978976C9.29307 0.911163 9.21454 0.857513 9.12765 0.821383C9.04077 0.785253 8.94738 0.767456 8.8533 0.769015C8.75881 0.765481 8.6647 0.782329 8.57736 0.818575C8.49002 0.854822 8.41154 0.909571 8.34732 0.978976L5.00131 4.306L1.67532 0.978976C1.54045 0.848856 1.35985 0.776855 1.17245 0.778536C0.985052 0.780217 0.805825 0.855491 0.673308 0.988009C0.54079 1.12053 0.465577 1.29975 0.463896 1.48715C0.462215 1.67456 0.534216 1.85509 0.664335 1.98996L4.49631 5.84299C4.6316 5.97433 4.81275 6.04782 5.00131 6.04782C5.18987 6.04782 5.37102 5.97433 5.50632 5.84299L9.35928 1.98996C9.49102 1.85461 9.56467 1.6731 9.56448 1.48422C9.56429 1.29535 9.49032 1.11406 9.3583 0.978976Z" fill="white"/>
</svg>
