<svg width="65" height="60" viewBox="0 0 65 60" fill="none" xmlns="http://www.w3.org/2000/svg">
<path d="M4.62252 30.0029C4.62016 25.5466 5.79154 21.1683 8.01852 17.3085C10.2455 13.4486 13.4496 10.2433 17.3087 8.01492C21.1678 5.78654 25.546 4.6139 30.0022 4.61464C34.4585 4.61538 38.8356 5.78953 42.6939 8.01919C42.9567 8.17455 43.2479 8.27613 43.5502 8.31826C43.8526 8.3604 44.1601 8.34214 44.4554 8.26455C44.7507 8.18696 45.0276 8.05164 45.2702 7.8663C45.5128 7.68096 45.7165 7.44933 45.869 7.18484C46.0215 6.92035 46.12 6.62828 46.1589 6.32546C46.1977 6.02264 46.1762 5.71503 46.0954 5.42061C46.0146 5.12619 45.8763 4.85094 45.6883 4.61037C45.5003 4.36979 45.2666 4.16885 45.0004 4.01924C39.2811 0.7172 32.6319 -0.60531 26.0844 0.256716C19.5368 1.11874 13.4567 4.1172 8.78696 8.78701C4.1172 13.4568 1.1186 19.5368 0.256659 26.0844C-0.605283 32.632 0.717376 39.2812 4.01949 45.0005C7.3216 50.7198 12.4188 55.1894 18.5203 57.7166C24.6217 60.2438 31.3863 60.687 37.7653 58.9776C44.1443 57.2682 49.7809 53.502 53.8011 48.2625C57.8213 43.0231 60.0006 36.6033 60.0005 29.9992C59.9865 29.3967 59.737 28.8237 59.3059 28.4025C58.8748 27.9814 58.296 27.7455 57.6933 27.7455C57.0907 27.7455 56.5119 27.9814 56.0808 28.4025C55.6497 28.8237 55.4008 29.3967 55.3868 29.9992C55.3868 36.7304 52.7124 43.1861 47.9527 47.9458C43.193 52.7054 36.7377 55.3792 30.0065 55.3792C23.2753 55.3792 16.82 52.7054 12.0603 47.9458C7.3006 43.1861 4.62618 36.7304 4.62618 29.9992L4.62252 30.0029Z" fill="#0050A6"/>
<path d="M63.9345 8.56294C64.3676 8.12964 64.6109 7.54199 64.6107 6.92933C64.6106 6.31667 64.3672 5.72916 63.9339 5.29602C63.5006 4.86289 62.9126 4.61963 62.2999 4.61975C61.6873 4.61987 61.0998 4.86333 60.6666 5.29663L29.9994 35.9693L17.7881 23.7555C17.355 23.3222 16.7675 23.0788 16.1548 23.0787C15.5421 23.0785 14.9542 23.3218 14.5209 23.7549C14.0876 24.1881 13.8441 24.7756 13.844 25.3882C13.8439 26.0009 14.0871 26.5882 14.5203 27.0215L28.3643 40.8656C28.5785 41.0801 28.8326 41.25 29.1126 41.3661C29.3926 41.4822 29.6933 41.5422 29.9964 41.5422C30.2995 41.5422 30.5996 41.4822 30.8796 41.3661C31.1596 41.25 31.4137 41.0801 31.6279 40.8656L63.9345 8.56294Z" fill="#0050A6"/>
</svg>
