<svg width="81" height="36" viewBox="0 0 81 36" fill="none" xmlns="http://www.w3.org/2000/svg">
<rect x="0.5" y="0.5" width="80" height="35" rx="7.5" fill="#EFF1F4"/>
<rect x="0.5" y="0.5" width="80" height="35" rx="7.5" stroke="#D1D5DB"/>
<path d="M17.1211 12.9785H20.5117C21.0586 12.9785 21.569 13.1016 22.043 13.3477C22.5078 13.5846 22.8906 13.9401 23.1914 14.4141C23.474 14.8607 23.6152 15.3711 23.6152 15.9453C23.6152 16.4102 23.5104 16.8431 23.3008 17.2441C23.0911 17.6452 22.804 17.9824 22.4395 18.2559C22.0749 18.5202 21.6647 18.7025 21.209 18.8027L21.1816 18.8438L24.0117 22.9453V23H22.6035L19.8828 18.9121H18.3105V23H17.1211V12.9785ZM20.4434 17.8047C20.8079 17.8047 21.1315 17.7272 21.4141 17.5723C21.724 17.3991 21.9655 17.1758 22.1387 16.9023C22.321 16.6107 22.4121 16.2917 22.4121 15.9453C22.4121 15.6081 22.3346 15.3118 22.1797 15.0566C22.0065 14.7741 21.7832 14.5462 21.5098 14.373C21.2272 14.1999 20.8991 14.1133 20.5254 14.1133H18.3105V17.8047H20.4434ZM26.2949 22.7402C25.748 22.4121 25.3242 21.9609 25.0234 21.3867C24.7227 20.8125 24.5723 20.1654 24.5723 19.4453C24.5723 18.7526 24.7135 18.1191 24.9961 17.5449C25.2878 16.9525 25.6934 16.4876 26.2129 16.1504C26.7507 15.804 27.3568 15.6309 28.0312 15.6309C28.7148 15.6309 29.321 15.7904 29.8496 16.1094C30.36 16.4193 30.752 16.8477 31.0254 17.3945C31.3079 17.9596 31.4492 18.5931 31.4492 19.2949C31.4492 19.3496 31.4401 19.4681 31.4219 19.6504H25.7617C25.7891 20.1973 25.9212 20.6576 26.1582 21.0312C26.3861 21.3867 26.6823 21.6647 27.0469 21.8652C27.4023 22.0566 27.776 22.1523 28.168 22.1523C29.0977 22.1523 29.804 21.7194 30.2871 20.8535L31.2852 21.3457C30.9844 21.9199 30.5697 22.3757 30.041 22.7129C29.5124 23.0501 28.8743 23.2188 28.127 23.2188C27.4342 23.2188 26.8236 23.0592 26.2949 22.7402ZM30.1777 18.6797C30.1686 18.3789 30.0866 18.0781 29.9316 17.7773C29.7858 17.4857 29.5534 17.235 29.2344 17.0254C28.9154 16.8158 28.5143 16.7109 28.0312 16.7109C27.4844 16.7109 27.0059 16.8932 26.5957 17.2578C26.2129 17.6042 25.9577 18.0781 25.8301 18.6797H30.1777ZM33.5137 16.9434H32.2012V15.8633H33.5137V15.084C33.5137 14.6374 33.6139 14.2454 33.8145 13.9082C34.0059 13.5892 34.2839 13.334 34.6484 13.1426C34.9948 12.9603 35.3776 12.8691 35.7969 12.8691C36.1979 12.8691 36.5488 12.9238 36.8496 13.0332V14.1953C36.6947 14.1315 36.5352 14.0768 36.3711 14.0312C36.2344 13.9948 36.0566 13.9766 35.8379 13.9766C35.528 13.9766 35.2637 14.0859 35.0449 14.3047C34.8171 14.5326 34.7031 14.8379 34.7031 15.2207V15.8633H36.5352V16.9434H34.7031V23H33.5137V16.9434ZM37.998 15.8633H39.1191V17.0117H39.1875C39.3151 16.6289 39.584 16.3053 39.9941 16.041C40.3952 15.7767 40.8145 15.6445 41.252 15.6445C41.571 15.6445 41.8535 15.6947 42.0996 15.7949V17.0801C41.7897 16.9251 41.4525 16.8477 41.0879 16.8477C40.7507 16.8477 40.4316 16.9479 40.1309 17.1484C39.8483 17.3307 39.6159 17.5951 39.4336 17.9414C39.2695 18.2422 39.1875 18.5977 39.1875 19.0078V23H37.998V15.8633ZM44.1641 22.7402C43.6172 22.4121 43.1934 21.9609 42.8926 21.3867C42.5918 20.8125 42.4414 20.1654 42.4414 19.4453C42.4414 18.7526 42.5827 18.1191 42.8652 17.5449C43.1569 16.9525 43.5625 16.4876 44.082 16.1504C44.6198 15.804 45.2259 15.6309 45.9004 15.6309C46.584 15.6309 47.1901 15.7904 47.7188 16.1094C48.2292 16.4193 48.6211 16.8477 48.8945 17.3945C49.1771 17.9596 49.3184 18.5931 49.3184 19.2949C49.3184 19.3496 49.3092 19.4681 49.291 19.6504H43.6309C43.6582 20.1973 43.7904 20.6576 44.0273 21.0312C44.2552 21.3867 44.5514 21.6647 44.916 21.8652C45.2715 22.0566 45.6452 22.1523 46.0371 22.1523C46.9668 22.1523 47.6732 21.7194 48.1562 20.8535L49.1543 21.3457C48.8535 21.9199 48.4388 22.3757 47.9102 22.7129C47.3815 23.0501 46.7435 23.2188 45.9961 23.2188C45.3034 23.2188 44.6927 23.0592 44.1641 22.7402ZM48.0469 18.6797C48.0378 18.3789 47.9557 18.0781 47.8008 17.7773C47.6549 17.4857 47.4225 17.235 47.1035 17.0254C46.7845 16.8158 46.3835 16.7109 45.9004 16.7109C45.3535 16.7109 44.875 16.8932 44.4648 17.2578C44.082 17.6042 43.8268 18.0781 43.6992 18.6797H48.0469ZM51.3281 22.6855C50.8359 22.3483 50.4759 21.888 50.248 21.3047L51.3008 20.8262C51.4831 21.2637 51.7474 21.5964 52.0938 21.8242C52.4583 22.0612 52.8457 22.1797 53.2559 22.1797C53.7025 22.1797 54.0853 22.0885 54.4043 21.9062C54.7233 21.724 54.8828 21.4642 54.8828 21.127C54.8828 20.8262 54.7552 20.5846 54.5 20.4023C54.263 20.2292 53.8665 20.0742 53.3105 19.9375L52.4355 19.7051C51.8704 19.5684 51.4056 19.3314 51.041 18.9941C50.6764 18.6569 50.4941 18.224 50.4941 17.6953C50.4941 17.2943 50.6172 16.9342 50.8633 16.6152C51.1185 16.2962 51.4466 16.0547 51.8477 15.8906C52.2852 15.7174 52.7318 15.6309 53.1875 15.6309C53.8073 15.6309 54.3633 15.7676 54.8555 16.041C55.3385 16.3053 55.6849 16.6836 55.8945 17.1758L54.8691 17.6543C54.5501 17.0163 53.985 16.6973 53.1738 16.6973C52.791 16.6973 52.4447 16.7884 52.1348 16.9707C51.8431 17.1439 51.6973 17.3763 51.6973 17.668C51.6973 17.9232 51.8021 18.1328 52.0117 18.2969C52.2214 18.4609 52.5267 18.5977 52.9277 18.707L53.9668 18.9668C54.6777 19.1491 55.2064 19.4134 55.5527 19.7598C55.9082 20.1152 56.0859 20.5436 56.0859 21.0449C56.0859 21.4733 55.9583 21.8561 55.7031 22.1934C55.457 22.5215 55.1152 22.7767 54.6777 22.959C54.2676 23.1322 53.7936 23.2188 53.2559 23.2188C52.4902 23.2188 51.8477 23.041 51.3281 22.6855ZM57.3848 12.9785H58.5742V15.9316L58.5059 16.916H58.5742C58.7565 16.5605 59.0664 16.2552 59.5039 16C59.9232 15.7539 60.388 15.6309 60.8984 15.6309C61.7643 15.6309 62.4251 15.8861 62.8809 16.3965C63.3366 16.9069 63.5645 17.5814 63.5645 18.4199V23H62.375V18.5977C62.375 17.9596 62.2109 17.4857 61.8828 17.1758C61.5638 16.8659 61.14 16.7109 60.6113 16.7109C60.2559 16.7109 59.9141 16.8249 59.5859 17.0527C59.276 17.2715 59.0299 17.5586 58.8477 17.9141C58.6654 18.2786 58.5742 18.6478 58.5742 19.0215V23H57.3848V12.9785Z" fill="#A0ACBE"/>
</svg>
