<svg width="60" height="60" viewBox="0 0 60 60" fill="none" xmlns="http://www.w3.org/2000/svg">
<rect width="60" height="60" rx="30" fill="#A0ACBE"/>
<path d="M27.0143 45.9999C26.1209 45.9999 25.2721 45.5541 24.6914 44.7663L22.9046 42.3882C22.9046 42.4031 22.8301 42.3585 22.8003 42.3585H22.2494C17.1568 42.3585 14 40.9762 14 34.1244V28.1792C14 21.9219 17.8269 20.287 21.0433 20.0046C21.4006 19.96 21.8176 19.9451 22.2494 19.9451H31.7793C37.1697 19.9451 40.0287 22.7988 40.0287 28.1792V34.1244C40.0287 34.5554 40.0138 34.9716 39.9542 35.3729C39.6862 38.5387 38.0483 42.3585 31.7793 42.3585H31.1837L29.3373 44.7663C28.7565 45.5541 27.9078 45.9999 27.0143 45.9999ZM22.2494 22.1746C21.9069 22.1746 21.5793 22.1894 21.2666 22.2191C17.812 22.5164 16.2336 24.404 16.2336 28.1792V34.1244C16.2336 39.2224 17.812 40.129 22.2494 40.129H22.845C23.5151 40.129 24.2745 40.5006 24.6914 41.0357L26.4783 43.4286C26.8059 43.8745 27.2228 43.8745 27.5504 43.4286L29.3373 41.0506C29.7691 40.4709 30.4541 40.129 31.1837 40.129H31.7793C35.5615 40.129 37.4526 38.5387 37.7356 35.15C37.7802 34.7932 37.7951 34.4663 37.7951 34.1244V28.1792C37.7951 24.0324 35.9338 22.1746 31.7793 22.1746H22.2494Z" fill="white"/>
<path d="M27.0144 33.2326C26.1806 33.2326 25.5254 32.5637 25.5254 31.7463C25.5254 30.9288 26.1955 30.26 27.0144 30.26C27.8334 30.26 28.5035 30.9288 28.5035 31.7463C28.5035 32.5637 27.8483 33.2326 27.0144 33.2326Z" fill="white"/>
<path d="M31.7797 33.2326C30.9458 33.2326 30.2906 32.5637 30.2906 31.7463C30.2906 30.9288 30.9607 30.26 31.7797 30.26C32.5987 30.26 33.2687 30.9288 33.2687 31.7463C33.2687 32.5637 32.5987 33.2326 31.7797 33.2326Z" fill="white"/>
<path d="M22.2641 33.2326C21.4302 33.2326 20.775 32.5637 20.775 31.7463C20.775 30.9288 21.4451 30.26 22.2641 30.26C23.083 30.26 23.7531 30.9288 23.7531 31.7463C23.7531 32.5637 23.083 33.2326 22.2641 33.2326Z" fill="white"/>
<path d="M38.8527 36.3539C38.5549 36.3539 38.2571 36.235 38.0486 36.0121C37.8104 35.7743 37.7062 35.4324 37.7509 35.1055C37.7955 34.7933 37.8104 34.4663 37.8104 34.1245V28.1793C37.8104 24.0325 35.9491 22.1746 31.7946 22.1746H22.2646C21.9222 22.1746 21.5946 22.1895 21.2819 22.2192C20.9543 22.2638 20.6118 22.1449 20.3736 21.922C20.1353 21.6841 20.0013 21.3572 20.0311 21.0302C20.2991 17.8198 21.9519 14 28.2209 14H37.7509C43.1412 14 46.0002 16.8537 46.0002 22.2341V28.1793C46.0002 34.4366 42.1734 36.0715 38.957 36.3539C38.9123 36.3539 38.8825 36.3539 38.8527 36.3539ZM22.4434 19.9452H31.7797C37.1701 19.9452 40.0291 22.7989 40.0291 28.1793V33.9313C42.5605 33.307 43.7518 31.4492 43.7518 28.1793V22.2341C43.7518 18.0873 41.8904 16.2294 37.736 16.2294H28.206C24.9301 16.2294 23.0837 17.4185 22.4434 19.9452Z" fill="white"/>
</svg>
