<svg width="80" height="80" viewBox="0 0 80 80" fill="none" xmlns="http://www.w3.org/2000/svg">
<rect width="80" height="80" rx="8" fill="#E7F2FF"/>
<rect x="20" y="20" width="40" height="40" rx="8" fill="#035FC1"/>
<path d="M47.9436 40V46C47.9436 48.2091 46.1527 50 43.9436 50H35.9436C33.7345 50 31.9436 48.2091 31.9436 46V40" stroke="white" stroke-width="1.5"/>
<path d="M44.7123 30H35.1748C33.3575 30 31.7232 31.2448 31.0483 33.143L30.2903 35.2749C30.0608 35.9202 29.9022 36.6107 30.0696 37.2749C30.4659 38.8478 31.7518 40 33.2769 40C35.1178 40 36.6102 38.3211 36.6102 36.25C36.6102 38.3211 38.1026 40 39.9436 40C41.7845 40 43.2769 38.3211 43.2769 36.25C43.2769 38.3211 44.7693 40 46.6102 40C48.1353 40 49.4212 38.8478 49.8176 37.2749C49.9849 36.6107 49.8263 35.9202 49.5969 35.2749L48.8389 33.143C48.1639 31.2448 46.5297 30 44.7123 30Z" stroke="white" stroke-width="1.5" stroke-linejoin="round"/>
<path d="M36.9436 45C39.2997 46.3404 40.5912 46.3263 42.9436 45" stroke="white" stroke-width="1.5" stroke-linecap="round" stroke-linejoin="round"/>
</svg>
