<svg width="27" height="16" viewBox="0 0 27 16" fill="none" xmlns="http://www.w3.org/2000/svg">
<path d="M26.6667 0H0V16H26.6667V0Z" fill="#F1F2F5"/>
<path d="M17.6578 2.63666L17.1153 3.00781L18.1012 4.53184L18.6437 4.16068L17.6578 2.63666Z" fill="black"/>
<path d="M18.8149 4.44097L18.2796 4.80859L19.2682 6.33079L19.8034 5.96317L18.8149 4.44097Z" fill="black"/>
<path d="M18.4605 2.07896L17.9183 2.45052L20.0772 5.78272L20.6195 5.41116L18.4605 2.07896Z" fill="black"/>
<path d="M19.27 1.52852L18.7275 1.89973L19.718 3.43038L20.2604 3.05916L19.27 1.52852Z" fill="black"/>
<path d="M20.4371 3.33464L21.4224 4.86273L20.882 5.23045L19.8967 3.70236L20.4371 3.33464Z" fill="black"/>
<path d="M7.40109 9.66204L6.85905 10.0339L9.01516 13.3581L9.5572 12.9862L7.40109 9.66204Z" fill="black"/>
<path d="M6.59434 10.2155L6.05217 10.5872L7.03948 12.1103L7.58165 11.7387L6.59434 10.2155Z" fill="black"/>
<path d="M7.76331 12.0206L7.22095 12.3919L8.20737 13.9156L8.74973 13.5442L7.76331 12.0206Z" fill="black"/>
<path d="M5.78794 10.7716L5.24577 11.1432L7.40071 14.4682L7.94289 14.0966L5.78794 10.7716Z" fill="black"/>
<path d="M9.01791 2.63554L6.86336 5.96094L7.39898 6.32796L9.55353 3.00256L9.01791 2.63554Z" fill="black"/>
<path d="M8.21177 2.07535L6.05281 5.40755L6.59505 5.7791L8.75401 2.4469L8.21177 2.07535Z" fill="black"/>
<path d="M7.39998 1.52117L5.24219 4.85417L5.78455 5.22553L7.94234 1.89252L7.39998 1.52117Z" fill="black"/>
<path d="M18.096 11.4672L17.1076 12.9896L17.6495 13.3617L18.6379 11.8393L18.096 11.4672Z" fill="black"/>
<path d="M19.2691 9.66206L18.2786 11.1927L18.8145 11.5594L19.8049 10.0288L19.2691 9.66206Z" fill="black"/>
<path d="M18.9035 12.0223L17.9165 13.5456L18.4587 13.9171L19.4457 12.3938L18.9035 12.0223Z" fill="black"/>
<path d="M19.0862 11.7429L20.0794 10.2148L20.6198 10.5907L19.6265 12.1107L19.0862 11.7429Z" fill="black"/>
<path d="M19.7171 12.5743L18.7282 14.0964L19.27 14.4687L20.2589 12.9466L19.7171 12.5743Z" fill="black"/>
<path d="M20.8862 10.7758L19.8998 12.2995L20.4356 12.6663L21.422 11.1427L20.8862 10.7758Z" fill="black"/>
<path d="M10.1004 5.77866C10.0841 5.795 10.0677 5.81951 10.0596 5.84403C10.0677 5.82769 10.0841 5.80317 10.1004 5.77866Z" fill="#B50037"/>
<path d="M15.4947 4.66671C13.7068 3.44097 11.2913 3.93944 10.0994 5.77805C9.50341 6.69327 9.74179 7.93535 10.6397 8.54822C11.5296 9.16109 12.7374 8.91594 13.3334 7.99255C13.9293 7.06916 15.1371 6.82401 16.027 7.43688C16.9249 8.04975 17.1633 9.29184 16.5674 10.2071C17.7593 8.37662 17.2825 5.89245 15.4947 4.66671Z" fill="#B50037"/>
<path d="M10.0993 5.77834C9.50336 6.69356 9.74174 7.93564 10.6396 8.54851C11.5296 9.16138 12.7374 8.91623 13.3333 7.99284C13.9293 7.06945 15.137 6.8243 16.027 7.43717C16.9249 8.05004 17.1633 9.29212 16.5673 10.2073C15.3754 12.046 12.9599 12.5444 11.172 11.3187C9.39212 10.1011 8.90741 7.61695 10.0993 5.77834Z" fill="#1E3476"/>
</svg>
