<svg width="27" height="16" viewBox="0 0 27 16" fill="none" xmlns="http://www.w3.org/2000/svg">
<path d="M26.9928 0.00241852H0V15.9717H26.9928V0.00241852Z" fill="white"/>
<path d="M26.9947 6.39124H15.1094V0.00231934H11.865V6.39124H0.0111542V9.58402H11.865V15.9704H15.1094V9.58402H26.9947V6.39124Z" fill="#CE1124"/>
<path d="M0.000640869 1.86263V5.33969H5.8881L0.000640869 1.86263Z" fill="#00247D"/>
<path d="M3.24868 0.00231934L3.16238 0.00673747L10.7964 4.53898V0.00231934H3.24868Z" fill="#00247D"/>
<path d="M9.0608 5.31712L0.000656128 0.00272369V1.25534L6.9019 5.31712H9.0608Z" fill="#CE1124"/>
<path d="M17.9397 10.6556L27 15.97V14.7174L20.0988 10.6556H17.9397Z" fill="#CE1124"/>
<path d="M0.000640869 14.1382V10.6611H5.8881L0.000640869 14.1382Z" fill="#00247D"/>
<path d="M3.24868 16L3.16238 15.9956L10.7964 11.4634V16H3.24868Z" fill="#00247D"/>
<path d="M9.01522 10.6562L0.00730896 15.9682L2.11398 15.9704L10.8059 10.8722V10.6562H9.01522Z" fill="#CE1124"/>
<path d="M26.9995 1.86038V5.3373H21.1121L26.9995 1.86038Z" fill="#00247D"/>
<path d="M23.7517 0L23.838 0.00441813L16.2039 4.53666V0H23.7517Z" fill="#00247D"/>
<path d="M26.9919 0.00756049L24.9655 0.00740814L16.2124 5.14158V5.32166H18.0643L26.9919 0.00756049Z" fill="#CE1124"/>
<path d="M26.9997 14.1354V10.6585H21.1122L26.9997 14.1354Z" fill="#00247D"/>
<path d="M23.7515 15.9945L23.8378 15.9903L16.2038 11.4579V15.9945H23.7515Z" fill="#00247D"/>
</svg>
